M48
;DRILL file {KiCad (5.0.0)} date 02/21/19 23:12:33
;FORMAT={-:-/ absolute / metric / decimal}
FMAT,2
METRIC,TZ
T1C0.400
T2C0.950
T3C1.000
T4C3.200
%
G90
G05
M71
T1
X123.75Y-117.25
X123.75Y-122.25
X123.75Y-127.25
X124.1Y-111.5
X124.1Y-112.4
X125.Y-117.25
X125.Y-122.25
X125.Y-127.5
X126.25Y-112.475
X126.75Y-122.
X127.737Y-121.737
X127.75Y-109.75
X127.75Y-127.
X127.75Y-131.
X128.25Y-129.5
X128.5Y-116.
X129.Y-131.8
X129.5Y-116.25
X129.975Y-110.719
X132.5Y-117.75
X133.25Y-118.5
X133.9Y-126.
X135.5Y-118.5
X136.75Y-118.75
X137.698Y-108.9
X137.9Y-127.1
X138.Y-118.75
X140.75Y-109.
X142.Y-112.25
X143.1Y-119.
X143.25Y-109.25
X144.1Y-117.1
X144.1Y-118.2
X144.2Y-127.8
X144.256Y-111.891
X144.5Y-126.5
X144.601Y-109.325
X145.Y-113.
X145.048Y-114.929
X145.4Y-121.2
X148.Y-109.25
T2
X131.Y-104.
X133.5Y-104.
X136.Y-104.
X138.5Y-104.
X131.Y-131.
X133.5Y-131.
X136.Y-131.
X138.5Y-131.
X104.Y-112.5
X104.Y-115.
X104.Y-117.5
X104.Y-120.
X104.Y-122.5
T3
X147.5Y-112.94
X147.5Y-115.48
X147.5Y-118.02
X147.5Y-120.56
X147.5Y-123.1
X144.96Y-123.1
T4
X146.Y-104.
X104.Y-104.
X146.Y-131.
X104.Y-131.
T0
M30
