G04 #@! TF.GenerationSoftware,KiCad,Pcbnew,(5.0.0)*
G04 #@! TF.CreationDate,2019-02-21T23:12:31-08:00*
G04 #@! TF.ProjectId,bms4_f051,626D73345F663035312E6B696361645F,rev?*
G04 #@! TF.SameCoordinates,Original*
G04 #@! TF.FileFunction,Copper,L2,Bot,Signal*
G04 #@! TF.FilePolarity,Positive*
%FSLAX46Y46*%
G04 Gerber Fmt 4.6, Leading zero omitted, Abs format (unit mm)*
G04 Created by KiCad (PCBNEW (5.0.0)) date 02/21/19 23:12:31*
%MOMM*%
%LPD*%
G01*
G04 APERTURE LIST*
G04 #@! TA.AperFunction,Conductor*
%ADD10C,0.100000*%
G04 #@! TD*
G04 #@! TA.AperFunction,SMDPad,CuDef*
%ADD11C,0.875000*%
G04 #@! TD*
G04 #@! TA.AperFunction,SMDPad,CuDef*
%ADD12C,0.975000*%
G04 #@! TD*
G04 #@! TA.AperFunction,ComponentPad*
%ADD13O,1.700000X1.950000*%
G04 #@! TD*
G04 #@! TA.AperFunction,ComponentPad*
%ADD14R,1.700000X1.950000*%
G04 #@! TD*
G04 #@! TA.AperFunction,ComponentPad*
%ADD15R,1.950000X1.700000*%
G04 #@! TD*
G04 #@! TA.AperFunction,ComponentPad*
%ADD16O,1.950000X1.700000*%
G04 #@! TD*
G04 #@! TA.AperFunction,ComponentPad*
%ADD17R,1.700000X1.700000*%
G04 #@! TD*
G04 #@! TA.AperFunction,ComponentPad*
%ADD18O,1.700000X1.700000*%
G04 #@! TD*
G04 #@! TA.AperFunction,SMDPad,CuDef*
%ADD19R,0.600000X1.550000*%
G04 #@! TD*
G04 #@! TA.AperFunction,SMDPad,CuDef*
%ADD20R,0.600000X1.200000*%
G04 #@! TD*
G04 #@! TA.AperFunction,SMDPad,CuDef*
%ADD21R,1.200000X0.600000*%
G04 #@! TD*
G04 #@! TA.AperFunction,ViaPad*
%ADD22C,0.800000*%
G04 #@! TD*
G04 #@! TA.AperFunction,Conductor*
%ADD23C,0.250000*%
G04 #@! TD*
G04 #@! TA.AperFunction,Conductor*
%ADD24C,0.500000*%
G04 #@! TD*
G04 #@! TA.AperFunction,Conductor*
%ADD25C,0.800000*%
G04 #@! TD*
G04 APERTURE END LIST*
D10*
G04 #@! TO.N,GND*
G04 #@! TO.C,C10*
G36*
X135833057Y-128468336D02*
X135854292Y-128471486D01*
X135875116Y-128476702D01*
X135895328Y-128483934D01*
X135914734Y-128493113D01*
X135933147Y-128504149D01*
X135950390Y-128516937D01*
X135966296Y-128531353D01*
X135980712Y-128547259D01*
X135993500Y-128564502D01*
X136004536Y-128582915D01*
X136013715Y-128602321D01*
X136020947Y-128622533D01*
X136026163Y-128643357D01*
X136029313Y-128664592D01*
X136030366Y-128686033D01*
X136030366Y-129123533D01*
X136029313Y-129144974D01*
X136026163Y-129166209D01*
X136020947Y-129187033D01*
X136013715Y-129207245D01*
X136004536Y-129226651D01*
X135993500Y-129245064D01*
X135980712Y-129262307D01*
X135966296Y-129278213D01*
X135950390Y-129292629D01*
X135933147Y-129305417D01*
X135914734Y-129316453D01*
X135895328Y-129325632D01*
X135875116Y-129332864D01*
X135854292Y-129338080D01*
X135833057Y-129341230D01*
X135811616Y-129342283D01*
X135299116Y-129342283D01*
X135277675Y-129341230D01*
X135256440Y-129338080D01*
X135235616Y-129332864D01*
X135215404Y-129325632D01*
X135195998Y-129316453D01*
X135177585Y-129305417D01*
X135160342Y-129292629D01*
X135144436Y-129278213D01*
X135130020Y-129262307D01*
X135117232Y-129245064D01*
X135106196Y-129226651D01*
X135097017Y-129207245D01*
X135089785Y-129187033D01*
X135084569Y-129166209D01*
X135081419Y-129144974D01*
X135080366Y-129123533D01*
X135080366Y-128686033D01*
X135081419Y-128664592D01*
X135084569Y-128643357D01*
X135089785Y-128622533D01*
X135097017Y-128602321D01*
X135106196Y-128582915D01*
X135117232Y-128564502D01*
X135130020Y-128547259D01*
X135144436Y-128531353D01*
X135160342Y-128516937D01*
X135177585Y-128504149D01*
X135195998Y-128493113D01*
X135215404Y-128483934D01*
X135235616Y-128476702D01*
X135256440Y-128471486D01*
X135277675Y-128468336D01*
X135299116Y-128467283D01*
X135811616Y-128467283D01*
X135833057Y-128468336D01*
X135833057Y-128468336D01*
G37*
D11*
G04 #@! TD*
G04 #@! TO.P,C10,2*
G04 #@! TO.N,GND*
X135555366Y-128904783D03*
D10*
G04 #@! TO.N,+3V3*
G04 #@! TO.C,C10*
G36*
X135833057Y-126893336D02*
X135854292Y-126896486D01*
X135875116Y-126901702D01*
X135895328Y-126908934D01*
X135914734Y-126918113D01*
X135933147Y-126929149D01*
X135950390Y-126941937D01*
X135966296Y-126956353D01*
X135980712Y-126972259D01*
X135993500Y-126989502D01*
X136004536Y-127007915D01*
X136013715Y-127027321D01*
X136020947Y-127047533D01*
X136026163Y-127068357D01*
X136029313Y-127089592D01*
X136030366Y-127111033D01*
X136030366Y-127548533D01*
X136029313Y-127569974D01*
X136026163Y-127591209D01*
X136020947Y-127612033D01*
X136013715Y-127632245D01*
X136004536Y-127651651D01*
X135993500Y-127670064D01*
X135980712Y-127687307D01*
X135966296Y-127703213D01*
X135950390Y-127717629D01*
X135933147Y-127730417D01*
X135914734Y-127741453D01*
X135895328Y-127750632D01*
X135875116Y-127757864D01*
X135854292Y-127763080D01*
X135833057Y-127766230D01*
X135811616Y-127767283D01*
X135299116Y-127767283D01*
X135277675Y-127766230D01*
X135256440Y-127763080D01*
X135235616Y-127757864D01*
X135215404Y-127750632D01*
X135195998Y-127741453D01*
X135177585Y-127730417D01*
X135160342Y-127717629D01*
X135144436Y-127703213D01*
X135130020Y-127687307D01*
X135117232Y-127670064D01*
X135106196Y-127651651D01*
X135097017Y-127632245D01*
X135089785Y-127612033D01*
X135084569Y-127591209D01*
X135081419Y-127569974D01*
X135080366Y-127548533D01*
X135080366Y-127111033D01*
X135081419Y-127089592D01*
X135084569Y-127068357D01*
X135089785Y-127047533D01*
X135097017Y-127027321D01*
X135106196Y-127007915D01*
X135117232Y-126989502D01*
X135130020Y-126972259D01*
X135144436Y-126956353D01*
X135160342Y-126941937D01*
X135177585Y-126929149D01*
X135195998Y-126918113D01*
X135215404Y-126908934D01*
X135235616Y-126901702D01*
X135256440Y-126896486D01*
X135277675Y-126893336D01*
X135299116Y-126892283D01*
X135811616Y-126892283D01*
X135833057Y-126893336D01*
X135833057Y-126893336D01*
G37*
D11*
G04 #@! TD*
G04 #@! TO.P,C10,1*
G04 #@! TO.N,+3V3*
X135555366Y-127329783D03*
D10*
G04 #@! TO.N,GNDA*
G04 #@! TO.C,C1*
G36*
X131702691Y-105776053D02*
X131723926Y-105779203D01*
X131744750Y-105784419D01*
X131764962Y-105791651D01*
X131784368Y-105800830D01*
X131802781Y-105811866D01*
X131820024Y-105824654D01*
X131835930Y-105839070D01*
X131850346Y-105854976D01*
X131863134Y-105872219D01*
X131874170Y-105890632D01*
X131883349Y-105910038D01*
X131890581Y-105930250D01*
X131895797Y-105951074D01*
X131898947Y-105972309D01*
X131900000Y-105993750D01*
X131900000Y-106506250D01*
X131898947Y-106527691D01*
X131895797Y-106548926D01*
X131890581Y-106569750D01*
X131883349Y-106589962D01*
X131874170Y-106609368D01*
X131863134Y-106627781D01*
X131850346Y-106645024D01*
X131835930Y-106660930D01*
X131820024Y-106675346D01*
X131802781Y-106688134D01*
X131784368Y-106699170D01*
X131764962Y-106708349D01*
X131744750Y-106715581D01*
X131723926Y-106720797D01*
X131702691Y-106723947D01*
X131681250Y-106725000D01*
X131243750Y-106725000D01*
X131222309Y-106723947D01*
X131201074Y-106720797D01*
X131180250Y-106715581D01*
X131160038Y-106708349D01*
X131140632Y-106699170D01*
X131122219Y-106688134D01*
X131104976Y-106675346D01*
X131089070Y-106660930D01*
X131074654Y-106645024D01*
X131061866Y-106627781D01*
X131050830Y-106609368D01*
X131041651Y-106589962D01*
X131034419Y-106569750D01*
X131029203Y-106548926D01*
X131026053Y-106527691D01*
X131025000Y-106506250D01*
X131025000Y-105993750D01*
X131026053Y-105972309D01*
X131029203Y-105951074D01*
X131034419Y-105930250D01*
X131041651Y-105910038D01*
X131050830Y-105890632D01*
X131061866Y-105872219D01*
X131074654Y-105854976D01*
X131089070Y-105839070D01*
X131104976Y-105824654D01*
X131122219Y-105811866D01*
X131140632Y-105800830D01*
X131160038Y-105791651D01*
X131180250Y-105784419D01*
X131201074Y-105779203D01*
X131222309Y-105776053D01*
X131243750Y-105775000D01*
X131681250Y-105775000D01*
X131702691Y-105776053D01*
X131702691Y-105776053D01*
G37*
D11*
G04 #@! TD*
G04 #@! TO.P,C1,2*
G04 #@! TO.N,GNDA*
X131462500Y-106250000D03*
D10*
G04 #@! TO.N,+3.3VA*
G04 #@! TO.C,C1*
G36*
X133277691Y-105776053D02*
X133298926Y-105779203D01*
X133319750Y-105784419D01*
X133339962Y-105791651D01*
X133359368Y-105800830D01*
X133377781Y-105811866D01*
X133395024Y-105824654D01*
X133410930Y-105839070D01*
X133425346Y-105854976D01*
X133438134Y-105872219D01*
X133449170Y-105890632D01*
X133458349Y-105910038D01*
X133465581Y-105930250D01*
X133470797Y-105951074D01*
X133473947Y-105972309D01*
X133475000Y-105993750D01*
X133475000Y-106506250D01*
X133473947Y-106527691D01*
X133470797Y-106548926D01*
X133465581Y-106569750D01*
X133458349Y-106589962D01*
X133449170Y-106609368D01*
X133438134Y-106627781D01*
X133425346Y-106645024D01*
X133410930Y-106660930D01*
X133395024Y-106675346D01*
X133377781Y-106688134D01*
X133359368Y-106699170D01*
X133339962Y-106708349D01*
X133319750Y-106715581D01*
X133298926Y-106720797D01*
X133277691Y-106723947D01*
X133256250Y-106725000D01*
X132818750Y-106725000D01*
X132797309Y-106723947D01*
X132776074Y-106720797D01*
X132755250Y-106715581D01*
X132735038Y-106708349D01*
X132715632Y-106699170D01*
X132697219Y-106688134D01*
X132679976Y-106675346D01*
X132664070Y-106660930D01*
X132649654Y-106645024D01*
X132636866Y-106627781D01*
X132625830Y-106609368D01*
X132616651Y-106589962D01*
X132609419Y-106569750D01*
X132604203Y-106548926D01*
X132601053Y-106527691D01*
X132600000Y-106506250D01*
X132600000Y-105993750D01*
X132601053Y-105972309D01*
X132604203Y-105951074D01*
X132609419Y-105930250D01*
X132616651Y-105910038D01*
X132625830Y-105890632D01*
X132636866Y-105872219D01*
X132649654Y-105854976D01*
X132664070Y-105839070D01*
X132679976Y-105824654D01*
X132697219Y-105811866D01*
X132715632Y-105800830D01*
X132735038Y-105791651D01*
X132755250Y-105784419D01*
X132776074Y-105779203D01*
X132797309Y-105776053D01*
X132818750Y-105775000D01*
X133256250Y-105775000D01*
X133277691Y-105776053D01*
X133277691Y-105776053D01*
G37*
D11*
G04 #@! TD*
G04 #@! TO.P,C1,1*
G04 #@! TO.N,+3.3VA*
X133037500Y-106250000D03*
D10*
G04 #@! TO.N,+3V3*
G04 #@! TO.C,C2*
G36*
X133490191Y-111526053D02*
X133511426Y-111529203D01*
X133532250Y-111534419D01*
X133552462Y-111541651D01*
X133571868Y-111550830D01*
X133590281Y-111561866D01*
X133607524Y-111574654D01*
X133623430Y-111589070D01*
X133637846Y-111604976D01*
X133650634Y-111622219D01*
X133661670Y-111640632D01*
X133670849Y-111660038D01*
X133678081Y-111680250D01*
X133683297Y-111701074D01*
X133686447Y-111722309D01*
X133687500Y-111743750D01*
X133687500Y-112256250D01*
X133686447Y-112277691D01*
X133683297Y-112298926D01*
X133678081Y-112319750D01*
X133670849Y-112339962D01*
X133661670Y-112359368D01*
X133650634Y-112377781D01*
X133637846Y-112395024D01*
X133623430Y-112410930D01*
X133607524Y-112425346D01*
X133590281Y-112438134D01*
X133571868Y-112449170D01*
X133552462Y-112458349D01*
X133532250Y-112465581D01*
X133511426Y-112470797D01*
X133490191Y-112473947D01*
X133468750Y-112475000D01*
X133031250Y-112475000D01*
X133009809Y-112473947D01*
X132988574Y-112470797D01*
X132967750Y-112465581D01*
X132947538Y-112458349D01*
X132928132Y-112449170D01*
X132909719Y-112438134D01*
X132892476Y-112425346D01*
X132876570Y-112410930D01*
X132862154Y-112395024D01*
X132849366Y-112377781D01*
X132838330Y-112359368D01*
X132829151Y-112339962D01*
X132821919Y-112319750D01*
X132816703Y-112298926D01*
X132813553Y-112277691D01*
X132812500Y-112256250D01*
X132812500Y-111743750D01*
X132813553Y-111722309D01*
X132816703Y-111701074D01*
X132821919Y-111680250D01*
X132829151Y-111660038D01*
X132838330Y-111640632D01*
X132849366Y-111622219D01*
X132862154Y-111604976D01*
X132876570Y-111589070D01*
X132892476Y-111574654D01*
X132909719Y-111561866D01*
X132928132Y-111550830D01*
X132947538Y-111541651D01*
X132967750Y-111534419D01*
X132988574Y-111529203D01*
X133009809Y-111526053D01*
X133031250Y-111525000D01*
X133468750Y-111525000D01*
X133490191Y-111526053D01*
X133490191Y-111526053D01*
G37*
D11*
G04 #@! TD*
G04 #@! TO.P,C2,1*
G04 #@! TO.N,+3V3*
X133250000Y-112000000D03*
D10*
G04 #@! TO.N,GND*
G04 #@! TO.C,C2*
G36*
X131915191Y-111526053D02*
X131936426Y-111529203D01*
X131957250Y-111534419D01*
X131977462Y-111541651D01*
X131996868Y-111550830D01*
X132015281Y-111561866D01*
X132032524Y-111574654D01*
X132048430Y-111589070D01*
X132062846Y-111604976D01*
X132075634Y-111622219D01*
X132086670Y-111640632D01*
X132095849Y-111660038D01*
X132103081Y-111680250D01*
X132108297Y-111701074D01*
X132111447Y-111722309D01*
X132112500Y-111743750D01*
X132112500Y-112256250D01*
X132111447Y-112277691D01*
X132108297Y-112298926D01*
X132103081Y-112319750D01*
X132095849Y-112339962D01*
X132086670Y-112359368D01*
X132075634Y-112377781D01*
X132062846Y-112395024D01*
X132048430Y-112410930D01*
X132032524Y-112425346D01*
X132015281Y-112438134D01*
X131996868Y-112449170D01*
X131977462Y-112458349D01*
X131957250Y-112465581D01*
X131936426Y-112470797D01*
X131915191Y-112473947D01*
X131893750Y-112475000D01*
X131456250Y-112475000D01*
X131434809Y-112473947D01*
X131413574Y-112470797D01*
X131392750Y-112465581D01*
X131372538Y-112458349D01*
X131353132Y-112449170D01*
X131334719Y-112438134D01*
X131317476Y-112425346D01*
X131301570Y-112410930D01*
X131287154Y-112395024D01*
X131274366Y-112377781D01*
X131263330Y-112359368D01*
X131254151Y-112339962D01*
X131246919Y-112319750D01*
X131241703Y-112298926D01*
X131238553Y-112277691D01*
X131237500Y-112256250D01*
X131237500Y-111743750D01*
X131238553Y-111722309D01*
X131241703Y-111701074D01*
X131246919Y-111680250D01*
X131254151Y-111660038D01*
X131263330Y-111640632D01*
X131274366Y-111622219D01*
X131287154Y-111604976D01*
X131301570Y-111589070D01*
X131317476Y-111574654D01*
X131334719Y-111561866D01*
X131353132Y-111550830D01*
X131372538Y-111541651D01*
X131392750Y-111534419D01*
X131413574Y-111529203D01*
X131434809Y-111526053D01*
X131456250Y-111525000D01*
X131893750Y-111525000D01*
X131915191Y-111526053D01*
X131915191Y-111526053D01*
G37*
D11*
G04 #@! TD*
G04 #@! TO.P,C2,2*
G04 #@! TO.N,GND*
X131675000Y-112000000D03*
D10*
G04 #@! TO.N,+3V3*
G04 #@! TO.C,C5*
G36*
X142235508Y-125255957D02*
X142259169Y-125259467D01*
X142282373Y-125265279D01*
X142304895Y-125273337D01*
X142326519Y-125283565D01*
X142347036Y-125295862D01*
X142366249Y-125310112D01*
X142383973Y-125326176D01*
X142400037Y-125343900D01*
X142414287Y-125363113D01*
X142426584Y-125383630D01*
X142436812Y-125405254D01*
X142444870Y-125427776D01*
X142450682Y-125450980D01*
X142454192Y-125474641D01*
X142455366Y-125498533D01*
X142455366Y-125986033D01*
X142454192Y-126009925D01*
X142450682Y-126033586D01*
X142444870Y-126056790D01*
X142436812Y-126079312D01*
X142426584Y-126100936D01*
X142414287Y-126121453D01*
X142400037Y-126140666D01*
X142383973Y-126158390D01*
X142366249Y-126174454D01*
X142347036Y-126188704D01*
X142326519Y-126201001D01*
X142304895Y-126211229D01*
X142282373Y-126219287D01*
X142259169Y-126225099D01*
X142235508Y-126228609D01*
X142211616Y-126229783D01*
X141299116Y-126229783D01*
X141275224Y-126228609D01*
X141251563Y-126225099D01*
X141228359Y-126219287D01*
X141205837Y-126211229D01*
X141184213Y-126201001D01*
X141163696Y-126188704D01*
X141144483Y-126174454D01*
X141126759Y-126158390D01*
X141110695Y-126140666D01*
X141096445Y-126121453D01*
X141084148Y-126100936D01*
X141073920Y-126079312D01*
X141065862Y-126056790D01*
X141060050Y-126033586D01*
X141056540Y-126009925D01*
X141055366Y-125986033D01*
X141055366Y-125498533D01*
X141056540Y-125474641D01*
X141060050Y-125450980D01*
X141065862Y-125427776D01*
X141073920Y-125405254D01*
X141084148Y-125383630D01*
X141096445Y-125363113D01*
X141110695Y-125343900D01*
X141126759Y-125326176D01*
X141144483Y-125310112D01*
X141163696Y-125295862D01*
X141184213Y-125283565D01*
X141205837Y-125273337D01*
X141228359Y-125265279D01*
X141251563Y-125259467D01*
X141275224Y-125255957D01*
X141299116Y-125254783D01*
X142211616Y-125254783D01*
X142235508Y-125255957D01*
X142235508Y-125255957D01*
G37*
D12*
G04 #@! TD*
G04 #@! TO.P,C5,1*
G04 #@! TO.N,+3V3*
X141755366Y-125742283D03*
D10*
G04 #@! TO.N,GND*
G04 #@! TO.C,C5*
G36*
X142235508Y-127130957D02*
X142259169Y-127134467D01*
X142282373Y-127140279D01*
X142304895Y-127148337D01*
X142326519Y-127158565D01*
X142347036Y-127170862D01*
X142366249Y-127185112D01*
X142383973Y-127201176D01*
X142400037Y-127218900D01*
X142414287Y-127238113D01*
X142426584Y-127258630D01*
X142436812Y-127280254D01*
X142444870Y-127302776D01*
X142450682Y-127325980D01*
X142454192Y-127349641D01*
X142455366Y-127373533D01*
X142455366Y-127861033D01*
X142454192Y-127884925D01*
X142450682Y-127908586D01*
X142444870Y-127931790D01*
X142436812Y-127954312D01*
X142426584Y-127975936D01*
X142414287Y-127996453D01*
X142400037Y-128015666D01*
X142383973Y-128033390D01*
X142366249Y-128049454D01*
X142347036Y-128063704D01*
X142326519Y-128076001D01*
X142304895Y-128086229D01*
X142282373Y-128094287D01*
X142259169Y-128100099D01*
X142235508Y-128103609D01*
X142211616Y-128104783D01*
X141299116Y-128104783D01*
X141275224Y-128103609D01*
X141251563Y-128100099D01*
X141228359Y-128094287D01*
X141205837Y-128086229D01*
X141184213Y-128076001D01*
X141163696Y-128063704D01*
X141144483Y-128049454D01*
X141126759Y-128033390D01*
X141110695Y-128015666D01*
X141096445Y-127996453D01*
X141084148Y-127975936D01*
X141073920Y-127954312D01*
X141065862Y-127931790D01*
X141060050Y-127908586D01*
X141056540Y-127884925D01*
X141055366Y-127861033D01*
X141055366Y-127373533D01*
X141056540Y-127349641D01*
X141060050Y-127325980D01*
X141065862Y-127302776D01*
X141073920Y-127280254D01*
X141084148Y-127258630D01*
X141096445Y-127238113D01*
X141110695Y-127218900D01*
X141126759Y-127201176D01*
X141144483Y-127185112D01*
X141163696Y-127170862D01*
X141184213Y-127158565D01*
X141205837Y-127148337D01*
X141228359Y-127140279D01*
X141251563Y-127134467D01*
X141275224Y-127130957D01*
X141299116Y-127129783D01*
X142211616Y-127129783D01*
X142235508Y-127130957D01*
X142235508Y-127130957D01*
G37*
D12*
G04 #@! TD*
G04 #@! TO.P,C5,2*
G04 #@! TO.N,GND*
X141755366Y-127617283D03*
D10*
G04 #@! TO.N,+3V3*
G04 #@! TO.C,C7*
G36*
X140133057Y-125593336D02*
X140154292Y-125596486D01*
X140175116Y-125601702D01*
X140195328Y-125608934D01*
X140214734Y-125618113D01*
X140233147Y-125629149D01*
X140250390Y-125641937D01*
X140266296Y-125656353D01*
X140280712Y-125672259D01*
X140293500Y-125689502D01*
X140304536Y-125707915D01*
X140313715Y-125727321D01*
X140320947Y-125747533D01*
X140326163Y-125768357D01*
X140329313Y-125789592D01*
X140330366Y-125811033D01*
X140330366Y-126248533D01*
X140329313Y-126269974D01*
X140326163Y-126291209D01*
X140320947Y-126312033D01*
X140313715Y-126332245D01*
X140304536Y-126351651D01*
X140293500Y-126370064D01*
X140280712Y-126387307D01*
X140266296Y-126403213D01*
X140250390Y-126417629D01*
X140233147Y-126430417D01*
X140214734Y-126441453D01*
X140195328Y-126450632D01*
X140175116Y-126457864D01*
X140154292Y-126463080D01*
X140133057Y-126466230D01*
X140111616Y-126467283D01*
X139599116Y-126467283D01*
X139577675Y-126466230D01*
X139556440Y-126463080D01*
X139535616Y-126457864D01*
X139515404Y-126450632D01*
X139495998Y-126441453D01*
X139477585Y-126430417D01*
X139460342Y-126417629D01*
X139444436Y-126403213D01*
X139430020Y-126387307D01*
X139417232Y-126370064D01*
X139406196Y-126351651D01*
X139397017Y-126332245D01*
X139389785Y-126312033D01*
X139384569Y-126291209D01*
X139381419Y-126269974D01*
X139380366Y-126248533D01*
X139380366Y-125811033D01*
X139381419Y-125789592D01*
X139384569Y-125768357D01*
X139389785Y-125747533D01*
X139397017Y-125727321D01*
X139406196Y-125707915D01*
X139417232Y-125689502D01*
X139430020Y-125672259D01*
X139444436Y-125656353D01*
X139460342Y-125641937D01*
X139477585Y-125629149D01*
X139495998Y-125618113D01*
X139515404Y-125608934D01*
X139535616Y-125601702D01*
X139556440Y-125596486D01*
X139577675Y-125593336D01*
X139599116Y-125592283D01*
X140111616Y-125592283D01*
X140133057Y-125593336D01*
X140133057Y-125593336D01*
G37*
D11*
G04 #@! TD*
G04 #@! TO.P,C7,1*
G04 #@! TO.N,+3V3*
X139855366Y-126029783D03*
D10*
G04 #@! TO.N,GND*
G04 #@! TO.C,C7*
G36*
X140133057Y-127168336D02*
X140154292Y-127171486D01*
X140175116Y-127176702D01*
X140195328Y-127183934D01*
X140214734Y-127193113D01*
X140233147Y-127204149D01*
X140250390Y-127216937D01*
X140266296Y-127231353D01*
X140280712Y-127247259D01*
X140293500Y-127264502D01*
X140304536Y-127282915D01*
X140313715Y-127302321D01*
X140320947Y-127322533D01*
X140326163Y-127343357D01*
X140329313Y-127364592D01*
X140330366Y-127386033D01*
X140330366Y-127823533D01*
X140329313Y-127844974D01*
X140326163Y-127866209D01*
X140320947Y-127887033D01*
X140313715Y-127907245D01*
X140304536Y-127926651D01*
X140293500Y-127945064D01*
X140280712Y-127962307D01*
X140266296Y-127978213D01*
X140250390Y-127992629D01*
X140233147Y-128005417D01*
X140214734Y-128016453D01*
X140195328Y-128025632D01*
X140175116Y-128032864D01*
X140154292Y-128038080D01*
X140133057Y-128041230D01*
X140111616Y-128042283D01*
X139599116Y-128042283D01*
X139577675Y-128041230D01*
X139556440Y-128038080D01*
X139535616Y-128032864D01*
X139515404Y-128025632D01*
X139495998Y-128016453D01*
X139477585Y-128005417D01*
X139460342Y-127992629D01*
X139444436Y-127978213D01*
X139430020Y-127962307D01*
X139417232Y-127945064D01*
X139406196Y-127926651D01*
X139397017Y-127907245D01*
X139389785Y-127887033D01*
X139384569Y-127866209D01*
X139381419Y-127844974D01*
X139380366Y-127823533D01*
X139380366Y-127386033D01*
X139381419Y-127364592D01*
X139384569Y-127343357D01*
X139389785Y-127322533D01*
X139397017Y-127302321D01*
X139406196Y-127282915D01*
X139417232Y-127264502D01*
X139430020Y-127247259D01*
X139444436Y-127231353D01*
X139460342Y-127216937D01*
X139477585Y-127204149D01*
X139495998Y-127193113D01*
X139515404Y-127183934D01*
X139535616Y-127176702D01*
X139556440Y-127171486D01*
X139577675Y-127168336D01*
X139599116Y-127167283D01*
X140111616Y-127167283D01*
X140133057Y-127168336D01*
X140133057Y-127168336D01*
G37*
D11*
G04 #@! TD*
G04 #@! TO.P,C7,2*
G04 #@! TO.N,GND*
X139855366Y-127604783D03*
D13*
G04 #@! TO.P,J1,4*
G04 #@! TO.N,GNDA*
X138500000Y-104000000D03*
G04 #@! TO.P,J1,3*
G04 #@! TO.N,Net-(J1-Pad3)*
X136000000Y-104000000D03*
G04 #@! TO.P,J1,2*
G04 #@! TO.N,Net-(J1-Pad2)*
X133500000Y-104000000D03*
D14*
G04 #@! TO.P,J1,1*
G04 #@! TO.N,+3.3VA*
X131000000Y-104000000D03*
G04 #@! TD*
D15*
G04 #@! TO.P,J2,1*
G04 #@! TO.N,+BATT*
X104000000Y-122500000D03*
D16*
G04 #@! TO.P,J2,2*
G04 #@! TO.N,/Batt3*
X104000000Y-120000000D03*
G04 #@! TO.P,J2,3*
G04 #@! TO.N,/Batt2*
X104000000Y-117500000D03*
G04 #@! TO.P,J2,4*
G04 #@! TO.N,/Batt1*
X104000000Y-115000000D03*
G04 #@! TO.P,J2,5*
G04 #@! TO.N,GND*
X104000000Y-112500000D03*
G04 #@! TD*
D17*
G04 #@! TO.P,J3,1*
G04 #@! TO.N,+3V3*
X147500000Y-123100000D03*
D18*
G04 #@! TO.P,J3,2*
G04 #@! TO.N,/SWCLK*
X147500000Y-120560000D03*
G04 #@! TO.P,J3,3*
G04 #@! TO.N,GND*
X147500000Y-118020000D03*
G04 #@! TO.P,J3,4*
G04 #@! TO.N,/SWDIO*
X147500000Y-115480000D03*
G04 #@! TO.P,J3,5*
G04 #@! TO.N,/Reset*
X147500000Y-112940000D03*
G04 #@! TD*
D14*
G04 #@! TO.P,J4,1*
G04 #@! TO.N,+3V3*
X131000000Y-131000000D03*
D13*
G04 #@! TO.P,J4,2*
G04 #@! TO.N,/RxDown*
X133500000Y-131000000D03*
G04 #@! TO.P,J4,3*
G04 #@! TO.N,/TxDown*
X136000000Y-131000000D03*
G04 #@! TO.P,J4,4*
G04 #@! TO.N,GND*
X138500000Y-131000000D03*
G04 #@! TD*
D19*
G04 #@! TO.P,U3,1*
G04 #@! TO.N,+3.3VA*
X134595000Y-106550000D03*
G04 #@! TO.P,U3,2*
G04 #@! TO.N,Net-(J1-Pad2)*
X135865000Y-106550000D03*
G04 #@! TO.P,U3,3*
G04 #@! TO.N,Net-(J1-Pad3)*
X137135000Y-106550000D03*
G04 #@! TO.P,U3,4*
G04 #@! TO.N,GNDA*
X138405000Y-106550000D03*
G04 #@! TO.P,U3,5*
G04 #@! TO.N,GND*
X138405000Y-111950000D03*
G04 #@! TO.P,U3,6*
G04 #@! TO.N,/RxUp*
X137135000Y-111950000D03*
G04 #@! TO.P,U3,7*
G04 #@! TO.N,/TxUp*
X135865000Y-111950000D03*
G04 #@! TO.P,U3,8*
G04 #@! TO.N,+3V3*
X134595000Y-111950000D03*
G04 #@! TD*
D10*
G04 #@! TO.N,+3V3*
G04 #@! TO.C,C11*
G36*
X134233057Y-126893336D02*
X134254292Y-126896486D01*
X134275116Y-126901702D01*
X134295328Y-126908934D01*
X134314734Y-126918113D01*
X134333147Y-126929149D01*
X134350390Y-126941937D01*
X134366296Y-126956353D01*
X134380712Y-126972259D01*
X134393500Y-126989502D01*
X134404536Y-127007915D01*
X134413715Y-127027321D01*
X134420947Y-127047533D01*
X134426163Y-127068357D01*
X134429313Y-127089592D01*
X134430366Y-127111033D01*
X134430366Y-127548533D01*
X134429313Y-127569974D01*
X134426163Y-127591209D01*
X134420947Y-127612033D01*
X134413715Y-127632245D01*
X134404536Y-127651651D01*
X134393500Y-127670064D01*
X134380712Y-127687307D01*
X134366296Y-127703213D01*
X134350390Y-127717629D01*
X134333147Y-127730417D01*
X134314734Y-127741453D01*
X134295328Y-127750632D01*
X134275116Y-127757864D01*
X134254292Y-127763080D01*
X134233057Y-127766230D01*
X134211616Y-127767283D01*
X133699116Y-127767283D01*
X133677675Y-127766230D01*
X133656440Y-127763080D01*
X133635616Y-127757864D01*
X133615404Y-127750632D01*
X133595998Y-127741453D01*
X133577585Y-127730417D01*
X133560342Y-127717629D01*
X133544436Y-127703213D01*
X133530020Y-127687307D01*
X133517232Y-127670064D01*
X133506196Y-127651651D01*
X133497017Y-127632245D01*
X133489785Y-127612033D01*
X133484569Y-127591209D01*
X133481419Y-127569974D01*
X133480366Y-127548533D01*
X133480366Y-127111033D01*
X133481419Y-127089592D01*
X133484569Y-127068357D01*
X133489785Y-127047533D01*
X133497017Y-127027321D01*
X133506196Y-127007915D01*
X133517232Y-126989502D01*
X133530020Y-126972259D01*
X133544436Y-126956353D01*
X133560342Y-126941937D01*
X133577585Y-126929149D01*
X133595998Y-126918113D01*
X133615404Y-126908934D01*
X133635616Y-126901702D01*
X133656440Y-126896486D01*
X133677675Y-126893336D01*
X133699116Y-126892283D01*
X134211616Y-126892283D01*
X134233057Y-126893336D01*
X134233057Y-126893336D01*
G37*
D11*
G04 #@! TD*
G04 #@! TO.P,C11,1*
G04 #@! TO.N,+3V3*
X133955366Y-127329783D03*
D10*
G04 #@! TO.N,GND*
G04 #@! TO.C,C11*
G36*
X134233057Y-128468336D02*
X134254292Y-128471486D01*
X134275116Y-128476702D01*
X134295328Y-128483934D01*
X134314734Y-128493113D01*
X134333147Y-128504149D01*
X134350390Y-128516937D01*
X134366296Y-128531353D01*
X134380712Y-128547259D01*
X134393500Y-128564502D01*
X134404536Y-128582915D01*
X134413715Y-128602321D01*
X134420947Y-128622533D01*
X134426163Y-128643357D01*
X134429313Y-128664592D01*
X134430366Y-128686033D01*
X134430366Y-129123533D01*
X134429313Y-129144974D01*
X134426163Y-129166209D01*
X134420947Y-129187033D01*
X134413715Y-129207245D01*
X134404536Y-129226651D01*
X134393500Y-129245064D01*
X134380712Y-129262307D01*
X134366296Y-129278213D01*
X134350390Y-129292629D01*
X134333147Y-129305417D01*
X134314734Y-129316453D01*
X134295328Y-129325632D01*
X134275116Y-129332864D01*
X134254292Y-129338080D01*
X134233057Y-129341230D01*
X134211616Y-129342283D01*
X133699116Y-129342283D01*
X133677675Y-129341230D01*
X133656440Y-129338080D01*
X133635616Y-129332864D01*
X133615404Y-129325632D01*
X133595998Y-129316453D01*
X133577585Y-129305417D01*
X133560342Y-129292629D01*
X133544436Y-129278213D01*
X133530020Y-129262307D01*
X133517232Y-129245064D01*
X133506196Y-129226651D01*
X133497017Y-129207245D01*
X133489785Y-129187033D01*
X133484569Y-129166209D01*
X133481419Y-129144974D01*
X133480366Y-129123533D01*
X133480366Y-128686033D01*
X133481419Y-128664592D01*
X133484569Y-128643357D01*
X133489785Y-128622533D01*
X133497017Y-128602321D01*
X133506196Y-128582915D01*
X133517232Y-128564502D01*
X133530020Y-128547259D01*
X133544436Y-128531353D01*
X133560342Y-128516937D01*
X133577585Y-128504149D01*
X133595998Y-128493113D01*
X133615404Y-128483934D01*
X133635616Y-128476702D01*
X133656440Y-128471486D01*
X133677675Y-128468336D01*
X133699116Y-128467283D01*
X134211616Y-128467283D01*
X134233057Y-128468336D01*
X134233057Y-128468336D01*
G37*
D11*
G04 #@! TD*
G04 #@! TO.P,C11,2*
G04 #@! TO.N,GND*
X133955366Y-128904783D03*
D10*
G04 #@! TO.N,+3V3*
G04 #@! TO.C,C12*
G36*
X132683057Y-113743336D02*
X132704292Y-113746486D01*
X132725116Y-113751702D01*
X132745328Y-113758934D01*
X132764734Y-113768113D01*
X132783147Y-113779149D01*
X132800390Y-113791937D01*
X132816296Y-113806353D01*
X132830712Y-113822259D01*
X132843500Y-113839502D01*
X132854536Y-113857915D01*
X132863715Y-113877321D01*
X132870947Y-113897533D01*
X132876163Y-113918357D01*
X132879313Y-113939592D01*
X132880366Y-113961033D01*
X132880366Y-114473533D01*
X132879313Y-114494974D01*
X132876163Y-114516209D01*
X132870947Y-114537033D01*
X132863715Y-114557245D01*
X132854536Y-114576651D01*
X132843500Y-114595064D01*
X132830712Y-114612307D01*
X132816296Y-114628213D01*
X132800390Y-114642629D01*
X132783147Y-114655417D01*
X132764734Y-114666453D01*
X132745328Y-114675632D01*
X132725116Y-114682864D01*
X132704292Y-114688080D01*
X132683057Y-114691230D01*
X132661616Y-114692283D01*
X132224116Y-114692283D01*
X132202675Y-114691230D01*
X132181440Y-114688080D01*
X132160616Y-114682864D01*
X132140404Y-114675632D01*
X132120998Y-114666453D01*
X132102585Y-114655417D01*
X132085342Y-114642629D01*
X132069436Y-114628213D01*
X132055020Y-114612307D01*
X132042232Y-114595064D01*
X132031196Y-114576651D01*
X132022017Y-114557245D01*
X132014785Y-114537033D01*
X132009569Y-114516209D01*
X132006419Y-114494974D01*
X132005366Y-114473533D01*
X132005366Y-113961033D01*
X132006419Y-113939592D01*
X132009569Y-113918357D01*
X132014785Y-113897533D01*
X132022017Y-113877321D01*
X132031196Y-113857915D01*
X132042232Y-113839502D01*
X132055020Y-113822259D01*
X132069436Y-113806353D01*
X132085342Y-113791937D01*
X132102585Y-113779149D01*
X132120998Y-113768113D01*
X132140404Y-113758934D01*
X132160616Y-113751702D01*
X132181440Y-113746486D01*
X132202675Y-113743336D01*
X132224116Y-113742283D01*
X132661616Y-113742283D01*
X132683057Y-113743336D01*
X132683057Y-113743336D01*
G37*
D11*
G04 #@! TD*
G04 #@! TO.P,C12,1*
G04 #@! TO.N,+3V3*
X132442866Y-114217283D03*
D10*
G04 #@! TO.N,GND*
G04 #@! TO.C,C12*
G36*
X131108057Y-113743336D02*
X131129292Y-113746486D01*
X131150116Y-113751702D01*
X131170328Y-113758934D01*
X131189734Y-113768113D01*
X131208147Y-113779149D01*
X131225390Y-113791937D01*
X131241296Y-113806353D01*
X131255712Y-113822259D01*
X131268500Y-113839502D01*
X131279536Y-113857915D01*
X131288715Y-113877321D01*
X131295947Y-113897533D01*
X131301163Y-113918357D01*
X131304313Y-113939592D01*
X131305366Y-113961033D01*
X131305366Y-114473533D01*
X131304313Y-114494974D01*
X131301163Y-114516209D01*
X131295947Y-114537033D01*
X131288715Y-114557245D01*
X131279536Y-114576651D01*
X131268500Y-114595064D01*
X131255712Y-114612307D01*
X131241296Y-114628213D01*
X131225390Y-114642629D01*
X131208147Y-114655417D01*
X131189734Y-114666453D01*
X131170328Y-114675632D01*
X131150116Y-114682864D01*
X131129292Y-114688080D01*
X131108057Y-114691230D01*
X131086616Y-114692283D01*
X130649116Y-114692283D01*
X130627675Y-114691230D01*
X130606440Y-114688080D01*
X130585616Y-114682864D01*
X130565404Y-114675632D01*
X130545998Y-114666453D01*
X130527585Y-114655417D01*
X130510342Y-114642629D01*
X130494436Y-114628213D01*
X130480020Y-114612307D01*
X130467232Y-114595064D01*
X130456196Y-114576651D01*
X130447017Y-114557245D01*
X130439785Y-114537033D01*
X130434569Y-114516209D01*
X130431419Y-114494974D01*
X130430366Y-114473533D01*
X130430366Y-113961033D01*
X130431419Y-113939592D01*
X130434569Y-113918357D01*
X130439785Y-113897533D01*
X130447017Y-113877321D01*
X130456196Y-113857915D01*
X130467232Y-113839502D01*
X130480020Y-113822259D01*
X130494436Y-113806353D01*
X130510342Y-113791937D01*
X130527585Y-113779149D01*
X130545998Y-113768113D01*
X130565404Y-113758934D01*
X130585616Y-113751702D01*
X130606440Y-113746486D01*
X130627675Y-113743336D01*
X130649116Y-113742283D01*
X131086616Y-113742283D01*
X131108057Y-113743336D01*
X131108057Y-113743336D01*
G37*
D11*
G04 #@! TD*
G04 #@! TO.P,C12,2*
G04 #@! TO.N,GND*
X130867866Y-114217283D03*
D20*
G04 #@! TO.P,U4,1*
G04 #@! TO.N,+3V3*
X138255366Y-124567283D03*
G04 #@! TO.P,U4,2*
G04 #@! TO.N,N/C*
X137455366Y-124567283D03*
G04 #@! TO.P,U4,3*
X136655366Y-124567283D03*
G04 #@! TO.P,U4,4*
G04 #@! TO.N,/Reset*
X135855366Y-124567283D03*
G04 #@! TO.P,U4,5*
G04 #@! TO.N,+3V3*
X135055366Y-124567283D03*
G04 #@! TO.P,U4,6*
G04 #@! TO.N,/Vsense4*
X134255366Y-124567283D03*
G04 #@! TO.P,U4,7*
G04 #@! TO.N,/Vsense3*
X133455366Y-124567283D03*
G04 #@! TO.P,U4,8*
G04 #@! TO.N,/TxUp*
X132655366Y-124567283D03*
D21*
G04 #@! TO.P,U4,9*
G04 #@! TO.N,/RxUp*
X131205366Y-123117283D03*
G04 #@! TO.P,U4,10*
G04 #@! TO.N,/Vsense2*
X131205366Y-122317283D03*
G04 #@! TO.P,U4,11*
G04 #@! TO.N,/Vsense1*
X131205366Y-121517283D03*
G04 #@! TO.P,U4,12*
G04 #@! TO.N,/Bal4*
X131205366Y-120717283D03*
G04 #@! TO.P,U4,13*
G04 #@! TO.N,/Bal3*
X131205366Y-119917283D03*
G04 #@! TO.P,U4,14*
G04 #@! TO.N,/Bal2*
X131205366Y-119117283D03*
G04 #@! TO.P,U4,15*
G04 #@! TO.N,/Bal1*
X131205366Y-118317283D03*
G04 #@! TO.P,U4,16*
G04 #@! TO.N,GND*
X131205366Y-117517283D03*
D20*
G04 #@! TO.P,U4,17*
G04 #@! TO.N,+3V3*
X132655366Y-116067283D03*
G04 #@! TO.P,U4,18*
G04 #@! TO.N,N/C*
X133455366Y-116067283D03*
G04 #@! TO.P,U4,19*
G04 #@! TO.N,/TxDown*
X134255366Y-116067283D03*
G04 #@! TO.P,U4,20*
G04 #@! TO.N,/RxDown*
X135055366Y-116067283D03*
G04 #@! TO.P,U4,21*
G04 #@! TO.N,N/C*
X135855366Y-116067283D03*
G04 #@! TO.P,U4,22*
X136655366Y-116067283D03*
G04 #@! TO.P,U4,23*
G04 #@! TO.N,/SWDIO*
X137455366Y-116067283D03*
G04 #@! TO.P,U4,24*
G04 #@! TO.N,/SWCLK*
X138255366Y-116067283D03*
D21*
G04 #@! TO.P,U4,25*
G04 #@! TO.N,/LED_R*
X139705366Y-117517283D03*
G04 #@! TO.P,U4,26*
G04 #@! TO.N,/LED_G*
X139705366Y-118317283D03*
G04 #@! TO.P,U4,27*
G04 #@! TO.N,N/C*
X139705366Y-119117283D03*
G04 #@! TO.P,U4,28*
X139705366Y-119917283D03*
G04 #@! TO.P,U4,29*
X139705366Y-120717283D03*
G04 #@! TO.P,U4,30*
X139705366Y-121517283D03*
G04 #@! TO.P,U4,31*
G04 #@! TO.N,/Boot0*
X139705366Y-122317283D03*
G04 #@! TO.P,U4,32*
G04 #@! TO.N,GND*
X139705366Y-123117283D03*
G04 #@! TD*
D17*
G04 #@! TO.P,J5,1*
G04 #@! TO.N,/Boot0*
X144960000Y-123100000D03*
G04 #@! TD*
D22*
G04 #@! TO.N,GND*
X144200000Y-127800000D03*
X129000000Y-131800000D03*
G04 #@! TO.N,+3V3*
X144500000Y-126500000D03*
X127750000Y-109750000D03*
G04 #@! TO.N,GND*
X123750000Y-117250000D03*
X124099996Y-111500000D03*
X123750000Y-122250000D03*
X123750000Y-127250000D03*
X148000000Y-109250000D03*
X142000000Y-112249994D03*
X140750000Y-109000000D03*
X124100000Y-112400000D03*
X133900000Y-126000000D03*
X145400000Y-121200000D03*
X137900000Y-127100000D03*
G04 #@! TO.N,/LED_G*
X144600542Y-109325223D03*
G04 #@! TO.N,/LED_R*
X143250000Y-109250000D03*
G04 #@! TO.N,/Batt3*
X127750000Y-127000000D03*
X128250000Y-129500000D03*
G04 #@! TO.N,/Batt2*
X127750000Y-131000000D03*
X126750004Y-122000000D03*
G04 #@! TO.N,/SWCLK*
X144100000Y-118200000D03*
G04 #@! TO.N,/SWDIO*
X144100000Y-117100000D03*
G04 #@! TO.N,/RxDown*
X143100000Y-119000000D03*
G04 #@! TO.N,/TxDown*
X145047941Y-114928532D03*
G04 #@! TO.N,/Bal4*
X125000000Y-127500000D03*
G04 #@! TO.N,/Bal3*
X125000000Y-122250000D03*
G04 #@! TO.N,/Bal2*
X125000000Y-117250000D03*
G04 #@! TO.N,/Bal1*
X126250000Y-112475010D03*
G04 #@! TO.N,/Vsense4*
X133250000Y-118500000D03*
G04 #@! TO.N,/Vsense3*
X138000000Y-118750000D03*
G04 #@! TO.N,/Vsense2*
X129975000Y-110718506D03*
X129500000Y-116250000D03*
X132500000Y-117750000D03*
G04 #@! TO.N,/Vsense1*
X127737347Y-121737347D03*
X128500000Y-116000000D03*
X137697900Y-108899996D03*
G04 #@! TO.N,/RxUp*
X135500000Y-118500000D03*
X144255992Y-111890588D03*
G04 #@! TO.N,/TxUp*
X136750000Y-118750000D03*
X145000000Y-113000000D03*
G04 #@! TD*
D23*
G04 #@! TO.N,GNDA*
X138405000Y-104095000D02*
X138500000Y-104000000D01*
X138405000Y-106550000D02*
X138405000Y-104095000D01*
X137975000Y-102250000D02*
X138500000Y-102775000D01*
X131000888Y-105788388D02*
X130038388Y-105788388D01*
X131462500Y-106250000D02*
X131000888Y-105788388D01*
X130038388Y-105788388D02*
X129500000Y-105250000D01*
X138500000Y-102775000D02*
X138500000Y-104000000D01*
X129500000Y-105250000D02*
X129500000Y-102750000D01*
X129500000Y-102750000D02*
X130000000Y-102250000D01*
X130000000Y-102250000D02*
X137975000Y-102250000D01*
G04 #@! TO.N,+3.3VA*
X131000000Y-104212500D02*
X131000000Y-104000000D01*
X133037500Y-106250000D02*
X131000000Y-104212500D01*
X134295000Y-106250000D02*
X134595000Y-106550000D01*
X133037500Y-106250000D02*
X134295000Y-106250000D01*
D24*
G04 #@! TO.N,+3V3*
X138779783Y-126029783D02*
X139855366Y-126029783D01*
X138255366Y-124867283D02*
X138250000Y-124872649D01*
X138255366Y-124567283D02*
X138255366Y-124867283D01*
X138250000Y-124872649D02*
X138250000Y-125500000D01*
X138250000Y-125500000D02*
X138779783Y-126029783D01*
X140142866Y-125742283D02*
X139855366Y-126029783D01*
X141755366Y-125742283D02*
X140142866Y-125742283D01*
X135555366Y-127329783D02*
X133955366Y-127329783D01*
X135055366Y-126829783D02*
X135555366Y-127329783D01*
X135055366Y-124567283D02*
X135055366Y-126829783D01*
X134545000Y-112000000D02*
X134595000Y-111950000D01*
X133250000Y-112000000D02*
X134545000Y-112000000D01*
X132442866Y-114217283D02*
X133250000Y-113410149D01*
X133250000Y-113410149D02*
X133250000Y-112000000D01*
X133033807Y-127329783D02*
X133955366Y-127329783D01*
X131000000Y-131000000D02*
X131000000Y-129363590D01*
X131000000Y-129363590D02*
X133033807Y-127329783D01*
X138255366Y-123505366D02*
X138255366Y-124567283D01*
X138000000Y-123250000D02*
X138255366Y-123505366D01*
X135522649Y-123250000D02*
X138000000Y-123250000D01*
X135055366Y-124567283D02*
X135055366Y-123717283D01*
X135055366Y-123717283D02*
X135522649Y-123250000D01*
X143742283Y-125742283D02*
X144500000Y-126500000D01*
X141755366Y-125742283D02*
X143742283Y-125742283D01*
D25*
X123250000Y-109750000D02*
X127750000Y-109750000D01*
X131000000Y-132250000D02*
X130000000Y-133250000D01*
X130000000Y-133250000D02*
X124500000Y-133250000D01*
X124500000Y-133250000D02*
X121500000Y-130250000D01*
X121500000Y-130250000D02*
X121500000Y-111500000D01*
X131000000Y-131000000D02*
X131000000Y-132250000D01*
X121500000Y-111500000D02*
X123250000Y-109750000D01*
D24*
X132655366Y-116067283D02*
X132655366Y-115255366D01*
X132442866Y-115042866D02*
X132442866Y-114217283D01*
X132655366Y-115255366D02*
X132442866Y-115042866D01*
X129500000Y-108000000D02*
X127750000Y-109750000D01*
X138250000Y-109750000D02*
X138750000Y-109250000D01*
X133250000Y-112000000D02*
X133250000Y-111000000D01*
X133250000Y-111000000D02*
X134500000Y-109750000D01*
X134500000Y-109750000D02*
X138250000Y-109750000D01*
X138750000Y-109250000D02*
X138750000Y-108750000D01*
X138750000Y-108750000D02*
X138000000Y-108000000D01*
X138000000Y-108000000D02*
X129500000Y-108000000D01*
D23*
G04 #@! TO.N,GND*
X135555366Y-128904783D02*
X133955366Y-128904783D01*
X141742866Y-127604783D02*
X141755366Y-127617283D01*
X139855366Y-127604783D02*
X141742866Y-127604783D01*
X130867866Y-114217283D02*
X130867866Y-116617866D01*
X131205366Y-116955366D02*
X131205366Y-117517283D01*
X130867866Y-116617866D02*
X131205366Y-116955366D01*
X135555366Y-128904783D02*
X137654783Y-128904783D01*
X138500000Y-129750000D02*
X138500000Y-131000000D01*
X137654783Y-128904783D02*
X138500000Y-129750000D01*
X139393754Y-128856246D02*
X138500000Y-129750000D01*
X147500000Y-118820998D02*
X146250000Y-120070998D01*
X147500000Y-118020000D02*
X147500000Y-118820998D01*
X146250000Y-120070998D02*
X146250000Y-125000000D01*
X131205366Y-117517283D02*
X128267283Y-117517283D01*
X128267283Y-117517283D02*
X127750000Y-117000000D01*
X127750000Y-112000000D02*
X127500000Y-111750000D01*
X138405000Y-111950000D02*
X141700006Y-111950000D01*
X141700006Y-111950000D02*
X142000000Y-112249994D01*
X146750000Y-108000000D02*
X141750000Y-108000000D01*
X148000000Y-109250000D02*
X146750000Y-108000000D01*
X141750000Y-108000000D02*
X141149999Y-108600001D01*
X141149999Y-108600001D02*
X140750000Y-109000000D01*
X146250000Y-125500000D02*
X146250000Y-125000000D01*
X142367283Y-123117283D02*
X139705366Y-123117283D01*
X146250000Y-125000000D02*
X144250000Y-125000000D01*
X144250000Y-125000000D02*
X142367283Y-123117283D01*
X145400000Y-121200000D02*
X144600000Y-121200000D01*
X138465685Y-127100000D02*
X137900000Y-127100000D01*
X139350583Y-127100000D02*
X138465685Y-127100000D01*
X139855366Y-127604783D02*
X139350583Y-127100000D01*
G04 #@! TO.N,/Reset*
X148702081Y-112940000D02*
X147500000Y-112940000D01*
X149250000Y-126000000D02*
X149250000Y-113487919D01*
X145750000Y-128250000D02*
X147000000Y-128250000D01*
X143500000Y-130500000D02*
X145750000Y-128250000D01*
X133207707Y-128092293D02*
X132500000Y-128800000D01*
X136036850Y-128092293D02*
X133207707Y-128092293D01*
X147000000Y-128250000D02*
X149250000Y-126000000D01*
X137000000Y-127129143D02*
X136036850Y-128092293D01*
X140750000Y-130500000D02*
X143500000Y-130500000D01*
X135855366Y-124567283D02*
X135855366Y-125605366D01*
X132500000Y-128800000D02*
X132500000Y-129500000D01*
X132500000Y-129500000D02*
X132699990Y-129699990D01*
X132699990Y-129699990D02*
X136699990Y-129699990D01*
X139500000Y-132500000D02*
X139750000Y-132250000D01*
X135855366Y-125605366D02*
X137000000Y-126750000D01*
X136699990Y-129699990D02*
X137250000Y-130250000D01*
X149250000Y-113487919D02*
X148702081Y-112940000D01*
X139750000Y-131500000D02*
X140750000Y-130500000D01*
X137250000Y-130250000D02*
X137250000Y-132250000D01*
X137250000Y-132250000D02*
X137500000Y-132500000D01*
X137500000Y-132500000D02*
X139500000Y-132500000D01*
X137000000Y-126750000D02*
X137000000Y-127129143D01*
X139750000Y-132250000D02*
X139750000Y-131500000D01*
G04 #@! TO.N,/LED_G*
X142538083Y-120300000D02*
X144500000Y-120300000D01*
X146222953Y-115462933D02*
X146222953Y-114394131D01*
X146200011Y-118599989D02*
X146200011Y-115485875D01*
X139705366Y-118317283D02*
X140555366Y-118317283D01*
X144500000Y-120300000D02*
X146200011Y-118599989D01*
X146200011Y-110924692D02*
X145000541Y-109725222D01*
X145000541Y-109725222D02*
X144600542Y-109325223D01*
X146200011Y-114371189D02*
X146200011Y-110924692D01*
X140555366Y-118317283D02*
X142538083Y-120300000D01*
X146200011Y-115485875D02*
X146222953Y-115462933D01*
X146222953Y-114394131D02*
X146200011Y-114371189D01*
G04 #@! TO.N,/LED_R*
X145772942Y-115276533D02*
X145772942Y-114580531D01*
X145750000Y-118350000D02*
X145750000Y-115299475D01*
X145750000Y-115299475D02*
X145772942Y-115276533D01*
X145750000Y-111500000D02*
X143899999Y-109649999D01*
X143649999Y-109649999D02*
X143250000Y-109250000D01*
X145772942Y-114580531D02*
X145750000Y-114557589D01*
X145750000Y-114557589D02*
X145750000Y-111500000D01*
X143899999Y-109649999D02*
X143649999Y-109649999D01*
X144250011Y-119849989D02*
X145750000Y-118350000D01*
X140555366Y-117517283D02*
X142888072Y-119849989D01*
X139705366Y-117517283D02*
X140555366Y-117517283D01*
X142888072Y-119849989D02*
X144250011Y-119849989D01*
G04 #@! TO.N,Net-(J1-Pad3)*
X137135000Y-105525000D02*
X137135000Y-106550000D01*
X137135000Y-105260000D02*
X137135000Y-105525000D01*
X136000000Y-104125000D02*
X137135000Y-105260000D01*
X136000000Y-104000000D02*
X136000000Y-104125000D01*
G04 #@! TO.N,Net-(J1-Pad2)*
X133500000Y-104125000D02*
X133500000Y-104000000D01*
X134600000Y-105225000D02*
X133500000Y-104125000D01*
X135015000Y-105225000D02*
X134600000Y-105225000D01*
X135865000Y-106075000D02*
X135015000Y-105225000D01*
X135865000Y-106550000D02*
X135865000Y-106075000D01*
G04 #@! TO.N,/Batt3*
X127750000Y-129000000D02*
X127850001Y-129100001D01*
X127850001Y-129100001D02*
X128250000Y-129500000D01*
X127750000Y-127000000D02*
X127750000Y-129000000D01*
G04 #@! TO.N,/Batt2*
X126750000Y-122000004D02*
X126750004Y-122000000D01*
X126750000Y-130000000D02*
X126750000Y-122000004D01*
X127750000Y-131000000D02*
X126750000Y-130000000D01*
G04 #@! TO.N,/SWCLK*
X141967283Y-116067283D02*
X143700001Y-117800001D01*
X143700001Y-117800001D02*
X144100000Y-118200000D01*
X138255366Y-116067283D02*
X141967283Y-116067283D01*
G04 #@! TO.N,/SWDIO*
X141750000Y-114750000D02*
X143700001Y-116700001D01*
X137922649Y-114750000D02*
X141750000Y-114750000D01*
X143700001Y-116700001D02*
X144100000Y-117100000D01*
X137455366Y-115217283D02*
X137922649Y-114750000D01*
X137455366Y-116067283D02*
X137455366Y-115217283D01*
G04 #@! TO.N,/RxDown*
X142613589Y-114000000D02*
X145299989Y-116686400D01*
X136272649Y-114000000D02*
X142613589Y-114000000D01*
X145299989Y-116686400D02*
X145299989Y-118065696D01*
X135055366Y-116067283D02*
X135055366Y-115217283D01*
X145299989Y-118065696D02*
X144365685Y-119000000D01*
X135055366Y-115217283D02*
X136272649Y-114000000D01*
X144365685Y-119000000D02*
X143665685Y-119000000D01*
X143665685Y-119000000D02*
X143100000Y-119000000D01*
G04 #@! TO.N,/TxDown*
X134255366Y-115217283D02*
X135972649Y-113500000D01*
X135972649Y-113500000D02*
X143619409Y-113500000D01*
X134255366Y-116067283D02*
X134255366Y-115217283D01*
X144647942Y-114528533D02*
X145047941Y-114928532D01*
X143619409Y-113500000D02*
X144647942Y-114528533D01*
G04 #@! TO.N,/Bal4*
X128782717Y-120717283D02*
X131205366Y-120717283D01*
X125000000Y-125000000D02*
X125750000Y-124250000D01*
X125000000Y-127500000D02*
X125000000Y-125000000D01*
X125750000Y-124250000D02*
X125750000Y-121426998D01*
X125750000Y-121426998D02*
X126176998Y-121000000D01*
X126176998Y-121000000D02*
X128500000Y-121000000D01*
X128500000Y-121000000D02*
X128782717Y-120717283D01*
G04 #@! TO.N,/Bal3*
X125000000Y-121000000D02*
X125000000Y-122250000D01*
X125500000Y-120500000D02*
X125000000Y-121000000D01*
X126500000Y-120500000D02*
X125500000Y-120500000D01*
X131205366Y-119917283D02*
X127082717Y-119917283D01*
X127082717Y-119917283D02*
X126500000Y-120500000D01*
G04 #@! TO.N,/Bal2*
X126867283Y-119117283D02*
X130355366Y-119117283D01*
X125000000Y-117250000D02*
X126867283Y-119117283D01*
X130355366Y-119117283D02*
X131205366Y-119117283D01*
G04 #@! TO.N,/Bal1*
X126250000Y-113040695D02*
X126250000Y-112475010D01*
X126250000Y-117000000D02*
X126250000Y-113040695D01*
X131205366Y-118317283D02*
X127567283Y-118317283D01*
X127567283Y-118317283D02*
X126250000Y-117000000D01*
G04 #@! TO.N,/Vsense4*
X133649999Y-118100001D02*
X133250000Y-118500000D01*
X134255366Y-124567283D02*
X134255366Y-123544634D01*
X138725001Y-119074999D02*
X138725001Y-118401999D01*
X138725001Y-118401999D02*
X137848000Y-117524998D01*
X134255366Y-123544634D02*
X138725001Y-119074999D01*
X137848000Y-117524998D02*
X134225002Y-117524998D01*
X134225002Y-117524998D02*
X133649999Y-118100001D01*
G04 #@! TO.N,/Vsense3*
X133455366Y-123294634D02*
X133455366Y-123717283D01*
X138000000Y-118750000D02*
X133455366Y-123294634D01*
X133455366Y-123717283D02*
X133455366Y-124567283D01*
G04 #@! TO.N,/Vsense2*
X129975000Y-110718506D02*
X129975000Y-115775000D01*
X129975000Y-115775000D02*
X129500000Y-116250000D01*
X132500000Y-117750000D02*
X132500000Y-121872649D01*
X132055366Y-122317283D02*
X131205366Y-122317283D01*
X132500000Y-121872649D02*
X132055366Y-122317283D01*
G04 #@! TO.N,/Vsense1*
X130355366Y-121517283D02*
X130122649Y-121750000D01*
X131205366Y-121517283D02*
X130355366Y-121517283D01*
X130122649Y-121750000D02*
X127750000Y-121750000D01*
X127750000Y-121750000D02*
X127737347Y-121737347D01*
X137132215Y-108899996D02*
X137697900Y-108899996D01*
X128500000Y-116000000D02*
X128500000Y-110750000D01*
X128500000Y-110750000D02*
X130350004Y-108899996D01*
X130350004Y-108899996D02*
X137132215Y-108899996D01*
G04 #@! TO.N,/RxUp*
X135500000Y-119065685D02*
X135500000Y-118500000D01*
X131205366Y-123117283D02*
X132132717Y-123117283D01*
X132132717Y-123117283D02*
X135500000Y-119750000D01*
X135500000Y-119750000D02*
X135500000Y-119065685D01*
X144359412Y-111890588D02*
X144255992Y-111890588D01*
X144500000Y-111750000D02*
X144359412Y-111890588D01*
X137834980Y-110775020D02*
X142574739Y-110775020D01*
X142574739Y-110775020D02*
X143690307Y-111890588D01*
X143690307Y-111890588D02*
X144255992Y-111890588D01*
X137135000Y-111475000D02*
X137834980Y-110775020D01*
X137135000Y-111950000D02*
X137135000Y-111475000D01*
G04 #@! TO.N,/TxUp*
X136750000Y-119136410D02*
X136750000Y-118750000D01*
X132655366Y-124567283D02*
X132655366Y-123231044D01*
X132655366Y-123231044D02*
X136750000Y-119136410D01*
X143813600Y-110950011D02*
X144563601Y-110950011D01*
X144563601Y-110950011D02*
X145000000Y-111386410D01*
X143188600Y-110325011D02*
X143813600Y-110950011D01*
X137014989Y-110325011D02*
X143188600Y-110325011D01*
X135865000Y-111475000D02*
X137014989Y-110325011D01*
X135865000Y-111950000D02*
X135865000Y-111475000D01*
X145000000Y-112434315D02*
X145000000Y-113000000D01*
X145000000Y-111386410D02*
X145000000Y-112434315D01*
G04 #@! TO.N,/Boot0*
X140555366Y-122317283D02*
X139705366Y-122317283D01*
X143077283Y-122317283D02*
X140555366Y-122317283D01*
X143860000Y-123100000D02*
X143077283Y-122317283D01*
X144960000Y-123100000D02*
X143860000Y-123100000D01*
G04 #@! TD*
G04 #@! TO.N,GND*
G36*
X132851588Y-110514530D02*
X132799401Y-110549400D01*
X132719311Y-110669264D01*
X132661263Y-110756138D01*
X132612756Y-111000000D01*
X132625001Y-111061559D01*
X132625001Y-111306156D01*
X132606211Y-111318711D01*
X132487500Y-111496375D01*
X132487500Y-111450408D01*
X132430410Y-111312579D01*
X132324920Y-111207090D01*
X132187092Y-111150000D01*
X131818750Y-111150000D01*
X131725000Y-111243750D01*
X131725000Y-111950000D01*
X131745000Y-111950000D01*
X131745000Y-112050000D01*
X131725000Y-112050000D01*
X131725000Y-112756250D01*
X131818750Y-112850000D01*
X132187092Y-112850000D01*
X132324920Y-112792910D01*
X132430410Y-112687421D01*
X132487500Y-112549592D01*
X132487500Y-112503625D01*
X132606211Y-112681289D01*
X132625001Y-112693844D01*
X132625000Y-113151266D01*
X132416329Y-113359937D01*
X132224116Y-113359937D01*
X131994087Y-113405693D01*
X131799077Y-113535994D01*
X131680366Y-113713658D01*
X131680366Y-113667691D01*
X131623276Y-113529862D01*
X131517786Y-113424373D01*
X131379958Y-113367283D01*
X131011616Y-113367283D01*
X130917866Y-113461033D01*
X130917866Y-114167283D01*
X130937866Y-114167283D01*
X130937866Y-114267283D01*
X130917866Y-114267283D01*
X130917866Y-114973533D01*
X131011616Y-115067283D01*
X131379958Y-115067283D01*
X131517786Y-115010193D01*
X131623276Y-114904704D01*
X131680366Y-114766875D01*
X131680366Y-114720908D01*
X131799077Y-114898572D01*
X131817866Y-114911126D01*
X131817866Y-114981311D01*
X131805622Y-115042866D01*
X131817866Y-115104420D01*
X131854129Y-115286728D01*
X131973422Y-115465263D01*
X131973020Y-115467283D01*
X131973020Y-116667283D01*
X132002124Y-116813600D01*
X132085007Y-116937642D01*
X132209049Y-117020525D01*
X132227213Y-117024138D01*
X132145312Y-117058063D01*
X132123276Y-117004862D01*
X132017786Y-116899373D01*
X131879958Y-116842283D01*
X131349116Y-116842283D01*
X131255366Y-116936033D01*
X131255366Y-117467283D01*
X131275366Y-117467283D01*
X131275366Y-117567283D01*
X131255366Y-117567283D01*
X131255366Y-117587283D01*
X131155366Y-117587283D01*
X131155366Y-117567283D01*
X130324116Y-117567283D01*
X130230366Y-117661033D01*
X130230366Y-117817283D01*
X127774390Y-117817283D01*
X127099798Y-117142691D01*
X130230366Y-117142691D01*
X130230366Y-117373533D01*
X130324116Y-117467283D01*
X131155366Y-117467283D01*
X131155366Y-116936033D01*
X131061616Y-116842283D01*
X130530774Y-116842283D01*
X130392946Y-116899373D01*
X130287456Y-117004862D01*
X130230366Y-117142691D01*
X127099798Y-117142691D01*
X126750000Y-116792894D01*
X126750000Y-113071025D01*
X126907013Y-112914012D01*
X127025000Y-112629167D01*
X127025000Y-112320853D01*
X126907013Y-112036008D01*
X126689002Y-111817997D01*
X126404157Y-111700010D01*
X126095843Y-111700010D01*
X125810998Y-111817997D01*
X125592987Y-112036008D01*
X125475000Y-112320853D01*
X125475000Y-112629167D01*
X125592987Y-112914012D01*
X125750000Y-113071025D01*
X125750000Y-113089937D01*
X125750001Y-113089942D01*
X125750000Y-116950759D01*
X125740205Y-117000000D01*
X125744736Y-117022781D01*
X125657013Y-116810998D01*
X125439002Y-116592987D01*
X125154157Y-116475000D01*
X124845843Y-116475000D01*
X124560998Y-116592987D01*
X124342987Y-116810998D01*
X124225000Y-117095843D01*
X124225000Y-117404157D01*
X124342987Y-117689002D01*
X124560998Y-117907013D01*
X124845843Y-118025000D01*
X125067894Y-118025000D01*
X126478908Y-119436015D01*
X126506803Y-119477763D01*
X126554743Y-119509795D01*
X126672192Y-119588272D01*
X126697806Y-119593367D01*
X126694342Y-119598551D01*
X126292894Y-120000000D01*
X125549243Y-120000000D01*
X125500000Y-119990205D01*
X125450757Y-120000000D01*
X125304910Y-120029011D01*
X125139520Y-120139520D01*
X125111626Y-120181267D01*
X124681270Y-120611624D01*
X124639520Y-120639520D01*
X124529011Y-120804911D01*
X124507635Y-120912374D01*
X124490205Y-121000000D01*
X124500000Y-121049242D01*
X124500001Y-121653984D01*
X124342987Y-121810998D01*
X124225000Y-122095843D01*
X124225000Y-122404157D01*
X124342987Y-122689002D01*
X124560998Y-122907013D01*
X124845843Y-123025000D01*
X125154157Y-123025000D01*
X125250000Y-122985300D01*
X125250000Y-124042893D01*
X124681268Y-124611626D01*
X124639521Y-124639520D01*
X124611627Y-124681267D01*
X124529012Y-124804910D01*
X124490205Y-125000000D01*
X124500001Y-125049246D01*
X124500000Y-126903985D01*
X124342987Y-127060998D01*
X124225000Y-127345843D01*
X124225000Y-127654157D01*
X124342987Y-127939002D01*
X124560998Y-128157013D01*
X124845843Y-128275000D01*
X125154157Y-128275000D01*
X125439002Y-128157013D01*
X125657013Y-127939002D01*
X125775000Y-127654157D01*
X125775000Y-127345843D01*
X125657013Y-127060998D01*
X125500000Y-126903985D01*
X125500000Y-125207106D01*
X126068733Y-124638374D01*
X126110480Y-124610480D01*
X126220989Y-124445090D01*
X126250000Y-124299243D01*
X126250000Y-124299242D01*
X126250001Y-124299239D01*
X126250000Y-129950759D01*
X126240205Y-130000000D01*
X126250000Y-130049241D01*
X126250000Y-130049242D01*
X126279011Y-130195089D01*
X126389520Y-130360480D01*
X126431270Y-130388376D01*
X126975000Y-130932107D01*
X126975000Y-131154157D01*
X127092987Y-131439002D01*
X127310998Y-131657013D01*
X127595843Y-131775000D01*
X127904157Y-131775000D01*
X128189002Y-131657013D01*
X128407013Y-131439002D01*
X128525000Y-131154157D01*
X128525000Y-130845843D01*
X128407013Y-130560998D01*
X128189002Y-130342987D01*
X127904157Y-130225000D01*
X127682107Y-130225000D01*
X127250000Y-129792894D01*
X127250000Y-129049241D01*
X127272127Y-129160479D01*
X127279012Y-129195090D01*
X127389521Y-129360480D01*
X127431269Y-129388375D01*
X127475000Y-129432106D01*
X127475000Y-129654157D01*
X127592987Y-129939002D01*
X127810998Y-130157013D01*
X128095843Y-130275000D01*
X128404157Y-130275000D01*
X128689002Y-130157013D01*
X128907013Y-129939002D01*
X129025000Y-129654157D01*
X129025000Y-129345843D01*
X128907013Y-129060998D01*
X128689002Y-128842987D01*
X128404157Y-128725000D01*
X128250000Y-128725000D01*
X128250000Y-127596015D01*
X128407013Y-127439002D01*
X128525000Y-127154157D01*
X128525000Y-126845843D01*
X128407013Y-126560998D01*
X128189002Y-126342987D01*
X127904157Y-126225000D01*
X127595843Y-126225000D01*
X127310998Y-126342987D01*
X127250000Y-126403985D01*
X127250000Y-122596019D01*
X127406754Y-122439265D01*
X127583190Y-122512347D01*
X127891504Y-122512347D01*
X128176349Y-122394360D01*
X128320709Y-122250000D01*
X130073408Y-122250000D01*
X130122649Y-122259795D01*
X130171890Y-122250000D01*
X130171892Y-122250000D01*
X130223020Y-122239830D01*
X130223020Y-122617283D01*
X130242911Y-122717283D01*
X130223020Y-122817283D01*
X130223020Y-123417283D01*
X130252124Y-123563600D01*
X130335007Y-123687642D01*
X130459049Y-123770525D01*
X130605366Y-123799629D01*
X131805366Y-123799629D01*
X131951683Y-123770525D01*
X132075725Y-123687642D01*
X132118132Y-123624177D01*
X132132717Y-123627078D01*
X132155367Y-123622573D01*
X132155367Y-123649911D01*
X132085007Y-123696924D01*
X132002124Y-123820966D01*
X131973020Y-123967283D01*
X131973020Y-125167283D01*
X132002124Y-125313600D01*
X132085007Y-125437642D01*
X132209049Y-125520525D01*
X132355366Y-125549629D01*
X132955366Y-125549629D01*
X133055366Y-125529738D01*
X133155366Y-125549629D01*
X133755366Y-125549629D01*
X133855366Y-125529738D01*
X133955366Y-125549629D01*
X134430366Y-125549629D01*
X134430367Y-126553450D01*
X134211616Y-126509937D01*
X133699116Y-126509937D01*
X133469087Y-126555693D01*
X133274077Y-126685994D01*
X133261523Y-126704783D01*
X133095360Y-126704783D01*
X133033806Y-126692539D01*
X132972252Y-126704783D01*
X132789944Y-126741046D01*
X132583207Y-126879183D01*
X132548339Y-126931367D01*
X130601588Y-128878120D01*
X130549401Y-128912990D01*
X130440509Y-129075958D01*
X130411263Y-129119728D01*
X130362756Y-129363590D01*
X130375001Y-129425150D01*
X130375001Y-129642654D01*
X130150000Y-129642654D01*
X130003683Y-129671758D01*
X129879641Y-129754641D01*
X129796758Y-129878683D01*
X129767654Y-130025000D01*
X129767654Y-131975000D01*
X129796758Y-132121317D01*
X129879641Y-132245359D01*
X129897016Y-132256969D01*
X129678985Y-132475000D01*
X124821016Y-132475000D01*
X122275000Y-129928985D01*
X122275000Y-111821015D01*
X123571016Y-110525000D01*
X127904157Y-110525000D01*
X127976059Y-110495217D01*
X128052390Y-110480034D01*
X128100538Y-110447862D01*
X128099103Y-110450011D01*
X128029012Y-110554910D01*
X127990205Y-110750000D01*
X128000001Y-110799246D01*
X128000000Y-115403985D01*
X127842987Y-115560998D01*
X127725000Y-115845843D01*
X127725000Y-116154157D01*
X127842987Y-116439002D01*
X128060998Y-116657013D01*
X128345843Y-116775000D01*
X128654157Y-116775000D01*
X128848490Y-116694505D01*
X129060998Y-116907013D01*
X129345843Y-117025000D01*
X129654157Y-117025000D01*
X129939002Y-116907013D01*
X130157013Y-116689002D01*
X130275000Y-116404157D01*
X130275000Y-116182107D01*
X130293732Y-116163375D01*
X130335480Y-116135480D01*
X130445989Y-115970090D01*
X130475000Y-115824243D01*
X130475000Y-115824242D01*
X130484795Y-115775001D01*
X130475000Y-115725760D01*
X130475000Y-115067283D01*
X130724116Y-115067283D01*
X130817866Y-114973533D01*
X130817866Y-114267283D01*
X130797866Y-114267283D01*
X130797866Y-114167283D01*
X130817866Y-114167283D01*
X130817866Y-113461033D01*
X130724116Y-113367283D01*
X130475000Y-113367283D01*
X130475000Y-112143750D01*
X130862500Y-112143750D01*
X130862500Y-112549592D01*
X130919590Y-112687421D01*
X131025080Y-112792910D01*
X131162908Y-112850000D01*
X131531250Y-112850000D01*
X131625000Y-112756250D01*
X131625000Y-112050000D01*
X130956250Y-112050000D01*
X130862500Y-112143750D01*
X130475000Y-112143750D01*
X130475000Y-111450408D01*
X130862500Y-111450408D01*
X130862500Y-111856250D01*
X130956250Y-111950000D01*
X131625000Y-111950000D01*
X131625000Y-111243750D01*
X131531250Y-111150000D01*
X131162908Y-111150000D01*
X131025080Y-111207090D01*
X130919590Y-111312579D01*
X130862500Y-111450408D01*
X130475000Y-111450408D01*
X130475000Y-111314521D01*
X130632013Y-111157508D01*
X130750000Y-110872663D01*
X130750000Y-110564349D01*
X130632013Y-110279504D01*
X130414002Y-110061493D01*
X130129157Y-109943506D01*
X130013601Y-109943506D01*
X130557111Y-109399996D01*
X133966121Y-109399996D01*
X132851588Y-110514530D01*
X132851588Y-110514530D01*
G37*
X132851588Y-110514530D02*
X132799401Y-110549400D01*
X132719311Y-110669264D01*
X132661263Y-110756138D01*
X132612756Y-111000000D01*
X132625001Y-111061559D01*
X132625001Y-111306156D01*
X132606211Y-111318711D01*
X132487500Y-111496375D01*
X132487500Y-111450408D01*
X132430410Y-111312579D01*
X132324920Y-111207090D01*
X132187092Y-111150000D01*
X131818750Y-111150000D01*
X131725000Y-111243750D01*
X131725000Y-111950000D01*
X131745000Y-111950000D01*
X131745000Y-112050000D01*
X131725000Y-112050000D01*
X131725000Y-112756250D01*
X131818750Y-112850000D01*
X132187092Y-112850000D01*
X132324920Y-112792910D01*
X132430410Y-112687421D01*
X132487500Y-112549592D01*
X132487500Y-112503625D01*
X132606211Y-112681289D01*
X132625001Y-112693844D01*
X132625000Y-113151266D01*
X132416329Y-113359937D01*
X132224116Y-113359937D01*
X131994087Y-113405693D01*
X131799077Y-113535994D01*
X131680366Y-113713658D01*
X131680366Y-113667691D01*
X131623276Y-113529862D01*
X131517786Y-113424373D01*
X131379958Y-113367283D01*
X131011616Y-113367283D01*
X130917866Y-113461033D01*
X130917866Y-114167283D01*
X130937866Y-114167283D01*
X130937866Y-114267283D01*
X130917866Y-114267283D01*
X130917866Y-114973533D01*
X131011616Y-115067283D01*
X131379958Y-115067283D01*
X131517786Y-115010193D01*
X131623276Y-114904704D01*
X131680366Y-114766875D01*
X131680366Y-114720908D01*
X131799077Y-114898572D01*
X131817866Y-114911126D01*
X131817866Y-114981311D01*
X131805622Y-115042866D01*
X131817866Y-115104420D01*
X131854129Y-115286728D01*
X131973422Y-115465263D01*
X131973020Y-115467283D01*
X131973020Y-116667283D01*
X132002124Y-116813600D01*
X132085007Y-116937642D01*
X132209049Y-117020525D01*
X132227213Y-117024138D01*
X132145312Y-117058063D01*
X132123276Y-117004862D01*
X132017786Y-116899373D01*
X131879958Y-116842283D01*
X131349116Y-116842283D01*
X131255366Y-116936033D01*
X131255366Y-117467283D01*
X131275366Y-117467283D01*
X131275366Y-117567283D01*
X131255366Y-117567283D01*
X131255366Y-117587283D01*
X131155366Y-117587283D01*
X131155366Y-117567283D01*
X130324116Y-117567283D01*
X130230366Y-117661033D01*
X130230366Y-117817283D01*
X127774390Y-117817283D01*
X127099798Y-117142691D01*
X130230366Y-117142691D01*
X130230366Y-117373533D01*
X130324116Y-117467283D01*
X131155366Y-117467283D01*
X131155366Y-116936033D01*
X131061616Y-116842283D01*
X130530774Y-116842283D01*
X130392946Y-116899373D01*
X130287456Y-117004862D01*
X130230366Y-117142691D01*
X127099798Y-117142691D01*
X126750000Y-116792894D01*
X126750000Y-113071025D01*
X126907013Y-112914012D01*
X127025000Y-112629167D01*
X127025000Y-112320853D01*
X126907013Y-112036008D01*
X126689002Y-111817997D01*
X126404157Y-111700010D01*
X126095843Y-111700010D01*
X125810998Y-111817997D01*
X125592987Y-112036008D01*
X125475000Y-112320853D01*
X125475000Y-112629167D01*
X125592987Y-112914012D01*
X125750000Y-113071025D01*
X125750000Y-113089937D01*
X125750001Y-113089942D01*
X125750000Y-116950759D01*
X125740205Y-117000000D01*
X125744736Y-117022781D01*
X125657013Y-116810998D01*
X125439002Y-116592987D01*
X125154157Y-116475000D01*
X124845843Y-116475000D01*
X124560998Y-116592987D01*
X124342987Y-116810998D01*
X124225000Y-117095843D01*
X124225000Y-117404157D01*
X124342987Y-117689002D01*
X124560998Y-117907013D01*
X124845843Y-118025000D01*
X125067894Y-118025000D01*
X126478908Y-119436015D01*
X126506803Y-119477763D01*
X126554743Y-119509795D01*
X126672192Y-119588272D01*
X126697806Y-119593367D01*
X126694342Y-119598551D01*
X126292894Y-120000000D01*
X125549243Y-120000000D01*
X125500000Y-119990205D01*
X125450757Y-120000000D01*
X125304910Y-120029011D01*
X125139520Y-120139520D01*
X125111626Y-120181267D01*
X124681270Y-120611624D01*
X124639520Y-120639520D01*
X124529011Y-120804911D01*
X124507635Y-120912374D01*
X124490205Y-121000000D01*
X124500000Y-121049242D01*
X124500001Y-121653984D01*
X124342987Y-121810998D01*
X124225000Y-122095843D01*
X124225000Y-122404157D01*
X124342987Y-122689002D01*
X124560998Y-122907013D01*
X124845843Y-123025000D01*
X125154157Y-123025000D01*
X125250000Y-122985300D01*
X125250000Y-124042893D01*
X124681268Y-124611626D01*
X124639521Y-124639520D01*
X124611627Y-124681267D01*
X124529012Y-124804910D01*
X124490205Y-125000000D01*
X124500001Y-125049246D01*
X124500000Y-126903985D01*
X124342987Y-127060998D01*
X124225000Y-127345843D01*
X124225000Y-127654157D01*
X124342987Y-127939002D01*
X124560998Y-128157013D01*
X124845843Y-128275000D01*
X125154157Y-128275000D01*
X125439002Y-128157013D01*
X125657013Y-127939002D01*
X125775000Y-127654157D01*
X125775000Y-127345843D01*
X125657013Y-127060998D01*
X125500000Y-126903985D01*
X125500000Y-125207106D01*
X126068733Y-124638374D01*
X126110480Y-124610480D01*
X126220989Y-124445090D01*
X126250000Y-124299243D01*
X126250000Y-124299242D01*
X126250001Y-124299239D01*
X126250000Y-129950759D01*
X126240205Y-130000000D01*
X126250000Y-130049241D01*
X126250000Y-130049242D01*
X126279011Y-130195089D01*
X126389520Y-130360480D01*
X126431270Y-130388376D01*
X126975000Y-130932107D01*
X126975000Y-131154157D01*
X127092987Y-131439002D01*
X127310998Y-131657013D01*
X127595843Y-131775000D01*
X127904157Y-131775000D01*
X128189002Y-131657013D01*
X128407013Y-131439002D01*
X128525000Y-131154157D01*
X128525000Y-130845843D01*
X128407013Y-130560998D01*
X128189002Y-130342987D01*
X127904157Y-130225000D01*
X127682107Y-130225000D01*
X127250000Y-129792894D01*
X127250000Y-129049241D01*
X127272127Y-129160479D01*
X127279012Y-129195090D01*
X127389521Y-129360480D01*
X127431269Y-129388375D01*
X127475000Y-129432106D01*
X127475000Y-129654157D01*
X127592987Y-129939002D01*
X127810998Y-130157013D01*
X128095843Y-130275000D01*
X128404157Y-130275000D01*
X128689002Y-130157013D01*
X128907013Y-129939002D01*
X129025000Y-129654157D01*
X129025000Y-129345843D01*
X128907013Y-129060998D01*
X128689002Y-128842987D01*
X128404157Y-128725000D01*
X128250000Y-128725000D01*
X128250000Y-127596015D01*
X128407013Y-127439002D01*
X128525000Y-127154157D01*
X128525000Y-126845843D01*
X128407013Y-126560998D01*
X128189002Y-126342987D01*
X127904157Y-126225000D01*
X127595843Y-126225000D01*
X127310998Y-126342987D01*
X127250000Y-126403985D01*
X127250000Y-122596019D01*
X127406754Y-122439265D01*
X127583190Y-122512347D01*
X127891504Y-122512347D01*
X128176349Y-122394360D01*
X128320709Y-122250000D01*
X130073408Y-122250000D01*
X130122649Y-122259795D01*
X130171890Y-122250000D01*
X130171892Y-122250000D01*
X130223020Y-122239830D01*
X130223020Y-122617283D01*
X130242911Y-122717283D01*
X130223020Y-122817283D01*
X130223020Y-123417283D01*
X130252124Y-123563600D01*
X130335007Y-123687642D01*
X130459049Y-123770525D01*
X130605366Y-123799629D01*
X131805366Y-123799629D01*
X131951683Y-123770525D01*
X132075725Y-123687642D01*
X132118132Y-123624177D01*
X132132717Y-123627078D01*
X132155367Y-123622573D01*
X132155367Y-123649911D01*
X132085007Y-123696924D01*
X132002124Y-123820966D01*
X131973020Y-123967283D01*
X131973020Y-125167283D01*
X132002124Y-125313600D01*
X132085007Y-125437642D01*
X132209049Y-125520525D01*
X132355366Y-125549629D01*
X132955366Y-125549629D01*
X133055366Y-125529738D01*
X133155366Y-125549629D01*
X133755366Y-125549629D01*
X133855366Y-125529738D01*
X133955366Y-125549629D01*
X134430366Y-125549629D01*
X134430367Y-126553450D01*
X134211616Y-126509937D01*
X133699116Y-126509937D01*
X133469087Y-126555693D01*
X133274077Y-126685994D01*
X133261523Y-126704783D01*
X133095360Y-126704783D01*
X133033806Y-126692539D01*
X132972252Y-126704783D01*
X132789944Y-126741046D01*
X132583207Y-126879183D01*
X132548339Y-126931367D01*
X130601588Y-128878120D01*
X130549401Y-128912990D01*
X130440509Y-129075958D01*
X130411263Y-129119728D01*
X130362756Y-129363590D01*
X130375001Y-129425150D01*
X130375001Y-129642654D01*
X130150000Y-129642654D01*
X130003683Y-129671758D01*
X129879641Y-129754641D01*
X129796758Y-129878683D01*
X129767654Y-130025000D01*
X129767654Y-131975000D01*
X129796758Y-132121317D01*
X129879641Y-132245359D01*
X129897016Y-132256969D01*
X129678985Y-132475000D01*
X124821016Y-132475000D01*
X122275000Y-129928985D01*
X122275000Y-111821015D01*
X123571016Y-110525000D01*
X127904157Y-110525000D01*
X127976059Y-110495217D01*
X128052390Y-110480034D01*
X128100538Y-110447862D01*
X128099103Y-110450011D01*
X128029012Y-110554910D01*
X127990205Y-110750000D01*
X128000001Y-110799246D01*
X128000000Y-115403985D01*
X127842987Y-115560998D01*
X127725000Y-115845843D01*
X127725000Y-116154157D01*
X127842987Y-116439002D01*
X128060998Y-116657013D01*
X128345843Y-116775000D01*
X128654157Y-116775000D01*
X128848490Y-116694505D01*
X129060998Y-116907013D01*
X129345843Y-117025000D01*
X129654157Y-117025000D01*
X129939002Y-116907013D01*
X130157013Y-116689002D01*
X130275000Y-116404157D01*
X130275000Y-116182107D01*
X130293732Y-116163375D01*
X130335480Y-116135480D01*
X130445989Y-115970090D01*
X130475000Y-115824243D01*
X130475000Y-115824242D01*
X130484795Y-115775001D01*
X130475000Y-115725760D01*
X130475000Y-115067283D01*
X130724116Y-115067283D01*
X130817866Y-114973533D01*
X130817866Y-114267283D01*
X130797866Y-114267283D01*
X130797866Y-114167283D01*
X130817866Y-114167283D01*
X130817866Y-113461033D01*
X130724116Y-113367283D01*
X130475000Y-113367283D01*
X130475000Y-112143750D01*
X130862500Y-112143750D01*
X130862500Y-112549592D01*
X130919590Y-112687421D01*
X131025080Y-112792910D01*
X131162908Y-112850000D01*
X131531250Y-112850000D01*
X131625000Y-112756250D01*
X131625000Y-112050000D01*
X130956250Y-112050000D01*
X130862500Y-112143750D01*
X130475000Y-112143750D01*
X130475000Y-111450408D01*
X130862500Y-111450408D01*
X130862500Y-111856250D01*
X130956250Y-111950000D01*
X131625000Y-111950000D01*
X131625000Y-111243750D01*
X131531250Y-111150000D01*
X131162908Y-111150000D01*
X131025080Y-111207090D01*
X130919590Y-111312579D01*
X130862500Y-111450408D01*
X130475000Y-111450408D01*
X130475000Y-111314521D01*
X130632013Y-111157508D01*
X130750000Y-110872663D01*
X130750000Y-110564349D01*
X130632013Y-110279504D01*
X130414002Y-110061493D01*
X130129157Y-109943506D01*
X130013601Y-109943506D01*
X130557111Y-109399996D01*
X133966121Y-109399996D01*
X132851588Y-110514530D01*
G36*
X148750001Y-113695027D02*
X148750000Y-125792894D01*
X146792894Y-127750000D01*
X145799246Y-127750000D01*
X145750000Y-127740204D01*
X145557167Y-127778562D01*
X145554910Y-127779011D01*
X145411251Y-127875000D01*
X145000000Y-127875000D01*
X144952165Y-127884515D01*
X144911612Y-127911612D01*
X142823224Y-130000000D01*
X140799246Y-130000000D01*
X140750000Y-129990204D01*
X140554910Y-130029011D01*
X140389520Y-130139520D01*
X140361626Y-130181267D01*
X139723617Y-130819277D01*
X139612618Y-130360019D01*
X139330850Y-129973439D01*
X138922593Y-129724114D01*
X138740857Y-129673912D01*
X138550000Y-129744856D01*
X138550000Y-130950000D01*
X138570000Y-130950000D01*
X138570000Y-131050000D01*
X138550000Y-131050000D01*
X138550000Y-131070000D01*
X138450000Y-131070000D01*
X138450000Y-131050000D01*
X138430000Y-131050000D01*
X138430000Y-130950000D01*
X138450000Y-130950000D01*
X138450000Y-129744856D01*
X138259143Y-129673912D01*
X138077407Y-129724114D01*
X137669150Y-129973439D01*
X137667795Y-129975298D01*
X137610480Y-129889520D01*
X137568733Y-129861626D01*
X137088366Y-129381260D01*
X137060470Y-129339510D01*
X136895080Y-129229001D01*
X136749233Y-129199990D01*
X136749231Y-129199990D01*
X136699990Y-129190195D01*
X136650749Y-129199990D01*
X136405366Y-129199990D01*
X136405366Y-129048533D01*
X136311616Y-128954783D01*
X135605366Y-128954783D01*
X135605366Y-128974783D01*
X135505366Y-128974783D01*
X135505366Y-128954783D01*
X134799116Y-128954783D01*
X134755366Y-128998533D01*
X134711616Y-128954783D01*
X134005366Y-128954783D01*
X134005366Y-128974783D01*
X133905366Y-128974783D01*
X133905366Y-128954783D01*
X133199116Y-128954783D01*
X133105366Y-129048533D01*
X133105366Y-129199990D01*
X133000000Y-129199990D01*
X133000000Y-129007106D01*
X133175720Y-128831387D01*
X133199116Y-128854783D01*
X133905366Y-128854783D01*
X133905366Y-128834783D01*
X134005366Y-128834783D01*
X134005366Y-128854783D01*
X134711616Y-128854783D01*
X134755366Y-128811033D01*
X134799116Y-128854783D01*
X135505366Y-128854783D01*
X135505366Y-128834783D01*
X135605366Y-128834783D01*
X135605366Y-128854783D01*
X136311616Y-128854783D01*
X136405366Y-128761033D01*
X136405366Y-128440746D01*
X136425226Y-128411023D01*
X137087716Y-127748533D01*
X139005366Y-127748533D01*
X139005366Y-128116875D01*
X139062456Y-128254703D01*
X139167945Y-128360193D01*
X139305774Y-128417283D01*
X139711616Y-128417283D01*
X139805366Y-128323533D01*
X139805366Y-127654783D01*
X139905366Y-127654783D01*
X139905366Y-128323533D01*
X139999116Y-128417283D01*
X140404958Y-128417283D01*
X140542787Y-128360193D01*
X140648276Y-128254703D01*
X140680366Y-128177231D01*
X140680366Y-128179375D01*
X140737456Y-128317203D01*
X140842945Y-128422693D01*
X140980774Y-128479783D01*
X141611616Y-128479783D01*
X141705366Y-128386033D01*
X141705366Y-127667283D01*
X141805366Y-127667283D01*
X141805366Y-128386033D01*
X141899116Y-128479783D01*
X142529958Y-128479783D01*
X142667787Y-128422693D01*
X142773276Y-128317203D01*
X142830366Y-128179375D01*
X142830366Y-127761033D01*
X142736616Y-127667283D01*
X141805366Y-127667283D01*
X141705366Y-127667283D01*
X140774116Y-127667283D01*
X140699116Y-127742283D01*
X140611616Y-127654783D01*
X139905366Y-127654783D01*
X139805366Y-127654783D01*
X139099116Y-127654783D01*
X139005366Y-127748533D01*
X137087716Y-127748533D01*
X137318732Y-127517518D01*
X137360480Y-127489623D01*
X137470989Y-127324233D01*
X137500000Y-127178385D01*
X137509795Y-127129143D01*
X137500000Y-127079900D01*
X137500000Y-126799243D01*
X137509795Y-126750000D01*
X137470989Y-126554909D01*
X137414915Y-126470989D01*
X137360480Y-126389520D01*
X137318733Y-126361626D01*
X136506735Y-125549629D01*
X136955366Y-125549629D01*
X137055366Y-125529738D01*
X137155366Y-125549629D01*
X137622628Y-125549629D01*
X137625000Y-125561555D01*
X137661263Y-125743863D01*
X137799401Y-125950600D01*
X137851588Y-125985470D01*
X138294312Y-126428195D01*
X138329183Y-126480383D01*
X138535920Y-126618520D01*
X138718228Y-126654783D01*
X138779782Y-126667027D01*
X138841336Y-126654783D01*
X139161523Y-126654783D01*
X139174077Y-126673572D01*
X139351741Y-126792283D01*
X139305774Y-126792283D01*
X139167945Y-126849373D01*
X139062456Y-126954863D01*
X139005366Y-127092691D01*
X139005366Y-127461033D01*
X139099116Y-127554783D01*
X139805366Y-127554783D01*
X139805366Y-127534783D01*
X139905366Y-127534783D01*
X139905366Y-127554783D01*
X140611616Y-127554783D01*
X140686616Y-127479783D01*
X140774116Y-127567283D01*
X141705366Y-127567283D01*
X141705366Y-126848533D01*
X141805366Y-126848533D01*
X141805366Y-127567283D01*
X142736616Y-127567283D01*
X142830366Y-127473533D01*
X142830366Y-127055191D01*
X142773276Y-126917363D01*
X142667787Y-126811873D01*
X142529958Y-126754783D01*
X141899116Y-126754783D01*
X141805366Y-126848533D01*
X141705366Y-126848533D01*
X141611616Y-126754783D01*
X140980774Y-126754783D01*
X140842945Y-126811873D01*
X140737456Y-126917363D01*
X140685100Y-127043763D01*
X140648276Y-126954863D01*
X140542787Y-126849373D01*
X140404958Y-126792283D01*
X140358991Y-126792283D01*
X140536655Y-126673572D01*
X140666956Y-126478562D01*
X140689091Y-126367283D01*
X140815328Y-126367283D01*
X140856399Y-126428750D01*
X141059519Y-126564470D01*
X141299116Y-126612129D01*
X142211616Y-126612129D01*
X142451213Y-126564470D01*
X142654333Y-126428750D01*
X142695404Y-126367283D01*
X143483401Y-126367283D01*
X143725000Y-126608883D01*
X143725000Y-126654157D01*
X143842987Y-126939002D01*
X144060998Y-127157013D01*
X144345843Y-127275000D01*
X144654157Y-127275000D01*
X144939002Y-127157013D01*
X145157013Y-126939002D01*
X145275000Y-126654157D01*
X145275000Y-126345843D01*
X145157013Y-126060998D01*
X144939002Y-125842987D01*
X144654157Y-125725000D01*
X144608883Y-125725000D01*
X144227755Y-125343873D01*
X144192883Y-125291683D01*
X143986146Y-125153546D01*
X143803838Y-125117283D01*
X143742283Y-125105039D01*
X143680728Y-125117283D01*
X142695404Y-125117283D01*
X142654333Y-125055816D01*
X142451213Y-124920096D01*
X142211616Y-124872437D01*
X141299116Y-124872437D01*
X141059519Y-124920096D01*
X140856399Y-125055816D01*
X140815328Y-125117283D01*
X140204419Y-125117283D01*
X140142865Y-125105039D01*
X140081311Y-125117283D01*
X139899003Y-125153546D01*
X139814608Y-125209937D01*
X139599116Y-125209937D01*
X139369087Y-125255693D01*
X139174077Y-125385994D01*
X139161523Y-125404783D01*
X139038666Y-125404783D01*
X138915058Y-125281175D01*
X138937712Y-125167283D01*
X138937712Y-123967283D01*
X138908608Y-123820966D01*
X138880366Y-123778699D01*
X138880366Y-123722613D01*
X138892946Y-123735193D01*
X139030774Y-123792283D01*
X139561616Y-123792283D01*
X139655366Y-123698533D01*
X139655366Y-123167283D01*
X139755366Y-123167283D01*
X139755366Y-123698533D01*
X139849116Y-123792283D01*
X140379958Y-123792283D01*
X140517786Y-123735193D01*
X140623276Y-123629704D01*
X140680366Y-123491875D01*
X140680366Y-123261033D01*
X140586616Y-123167283D01*
X139755366Y-123167283D01*
X139655366Y-123167283D01*
X139635366Y-123167283D01*
X139635366Y-123067283D01*
X139655366Y-123067283D01*
X139655366Y-123047283D01*
X139755366Y-123047283D01*
X139755366Y-123067283D01*
X140586616Y-123067283D01*
X140680366Y-122973533D01*
X140680366Y-122817283D01*
X142870177Y-122817283D01*
X143471625Y-123418732D01*
X143499520Y-123460480D01*
X143664910Y-123570989D01*
X143727654Y-123583470D01*
X143727654Y-123950000D01*
X143756758Y-124096317D01*
X143839641Y-124220359D01*
X143963683Y-124303242D01*
X144110000Y-124332346D01*
X145810000Y-124332346D01*
X145956317Y-124303242D01*
X146080359Y-124220359D01*
X146163242Y-124096317D01*
X146192346Y-123950000D01*
X146192346Y-122250000D01*
X146267654Y-122250000D01*
X146267654Y-123950000D01*
X146296758Y-124096317D01*
X146379641Y-124220359D01*
X146503683Y-124303242D01*
X146650000Y-124332346D01*
X148350000Y-124332346D01*
X148496317Y-124303242D01*
X148620359Y-124220359D01*
X148703242Y-124096317D01*
X148732346Y-123950000D01*
X148732346Y-122250000D01*
X148703242Y-122103683D01*
X148620359Y-121979641D01*
X148496317Y-121896758D01*
X148350000Y-121867654D01*
X146650000Y-121867654D01*
X146503683Y-121896758D01*
X146379641Y-121979641D01*
X146296758Y-122103683D01*
X146267654Y-122250000D01*
X146192346Y-122250000D01*
X146163242Y-122103683D01*
X146080359Y-121979641D01*
X145956317Y-121896758D01*
X145810000Y-121867654D01*
X144110000Y-121867654D01*
X143963683Y-121896758D01*
X143839641Y-121979641D01*
X143756758Y-122103683D01*
X143727654Y-122250000D01*
X143727654Y-122260548D01*
X143465659Y-121998553D01*
X143437763Y-121956803D01*
X143272373Y-121846294D01*
X143126526Y-121817283D01*
X143126524Y-121817283D01*
X143077283Y-121807488D01*
X143028042Y-121817283D01*
X140687712Y-121817283D01*
X140687712Y-121217283D01*
X140667821Y-121117283D01*
X140687712Y-121017283D01*
X140687712Y-120417283D01*
X140667821Y-120317283D01*
X140687712Y-120217283D01*
X140687712Y-119617283D01*
X140667821Y-119517283D01*
X140687712Y-119417283D01*
X140687712Y-119156735D01*
X142149708Y-120618732D01*
X142177603Y-120660480D01*
X142342993Y-120770989D01*
X142488840Y-120800000D01*
X142488841Y-120800000D01*
X142538082Y-120809795D01*
X142587323Y-120800000D01*
X144450759Y-120800000D01*
X144500000Y-120809795D01*
X144549241Y-120800000D01*
X144549243Y-120800000D01*
X144695090Y-120770989D01*
X144860480Y-120660480D01*
X144888376Y-120618730D01*
X144947106Y-120560000D01*
X146251001Y-120560000D01*
X146346075Y-121037971D01*
X146616824Y-121443176D01*
X147022029Y-121713925D01*
X147379348Y-121785000D01*
X147620652Y-121785000D01*
X147977971Y-121713925D01*
X148383176Y-121443176D01*
X148653925Y-121037971D01*
X148748999Y-120560000D01*
X148653925Y-120082029D01*
X148383176Y-119676824D01*
X147977971Y-119406075D01*
X147620652Y-119335000D01*
X147379348Y-119335000D01*
X147022029Y-119406075D01*
X146616824Y-119676824D01*
X146346075Y-120082029D01*
X146251001Y-120560000D01*
X144947106Y-120560000D01*
X146518744Y-118988363D01*
X146560491Y-118960469D01*
X146632949Y-118852027D01*
X146817838Y-119037493D01*
X147259142Y-119221093D01*
X147450000Y-119150234D01*
X147450000Y-118070000D01*
X147550000Y-118070000D01*
X147550000Y-119150234D01*
X147740858Y-119221093D01*
X148182162Y-119037493D01*
X148519613Y-118698989D01*
X148701088Y-118260857D01*
X148630144Y-118070000D01*
X147550000Y-118070000D01*
X147450000Y-118070000D01*
X147430000Y-118070000D01*
X147430000Y-117970000D01*
X147450000Y-117970000D01*
X147450000Y-116889766D01*
X147550000Y-116889766D01*
X147550000Y-117970000D01*
X148630144Y-117970000D01*
X148701088Y-117779143D01*
X148519613Y-117341011D01*
X148182162Y-117002507D01*
X147740858Y-116818907D01*
X147550000Y-116889766D01*
X147450000Y-116889766D01*
X147259142Y-116818907D01*
X146817838Y-117002507D01*
X146700011Y-117120702D01*
X146700011Y-116418760D01*
X147022029Y-116633925D01*
X147379348Y-116705000D01*
X147620652Y-116705000D01*
X147977971Y-116633925D01*
X148383176Y-116363176D01*
X148653925Y-115957971D01*
X148748999Y-115480000D01*
X148653925Y-115002029D01*
X148383176Y-114596824D01*
X147977971Y-114326075D01*
X147620652Y-114255000D01*
X147379348Y-114255000D01*
X147022029Y-114326075D01*
X146722953Y-114525911D01*
X146722953Y-114443374D01*
X146732748Y-114394131D01*
X146719211Y-114326075D01*
X146700011Y-114229552D01*
X146700011Y-113878760D01*
X147022029Y-114093925D01*
X147379348Y-114165000D01*
X147620652Y-114165000D01*
X147977971Y-114093925D01*
X148383176Y-113823176D01*
X148581435Y-113526460D01*
X148750001Y-113695027D01*
X148750001Y-113695027D01*
G37*
X148750001Y-113695027D02*
X148750000Y-125792894D01*
X146792894Y-127750000D01*
X145799246Y-127750000D01*
X145750000Y-127740204D01*
X145557167Y-127778562D01*
X145554910Y-127779011D01*
X145411251Y-127875000D01*
X145000000Y-127875000D01*
X144952165Y-127884515D01*
X144911612Y-127911612D01*
X142823224Y-130000000D01*
X140799246Y-130000000D01*
X140750000Y-129990204D01*
X140554910Y-130029011D01*
X140389520Y-130139520D01*
X140361626Y-130181267D01*
X139723617Y-130819277D01*
X139612618Y-130360019D01*
X139330850Y-129973439D01*
X138922593Y-129724114D01*
X138740857Y-129673912D01*
X138550000Y-129744856D01*
X138550000Y-130950000D01*
X138570000Y-130950000D01*
X138570000Y-131050000D01*
X138550000Y-131050000D01*
X138550000Y-131070000D01*
X138450000Y-131070000D01*
X138450000Y-131050000D01*
X138430000Y-131050000D01*
X138430000Y-130950000D01*
X138450000Y-130950000D01*
X138450000Y-129744856D01*
X138259143Y-129673912D01*
X138077407Y-129724114D01*
X137669150Y-129973439D01*
X137667795Y-129975298D01*
X137610480Y-129889520D01*
X137568733Y-129861626D01*
X137088366Y-129381260D01*
X137060470Y-129339510D01*
X136895080Y-129229001D01*
X136749233Y-129199990D01*
X136749231Y-129199990D01*
X136699990Y-129190195D01*
X136650749Y-129199990D01*
X136405366Y-129199990D01*
X136405366Y-129048533D01*
X136311616Y-128954783D01*
X135605366Y-128954783D01*
X135605366Y-128974783D01*
X135505366Y-128974783D01*
X135505366Y-128954783D01*
X134799116Y-128954783D01*
X134755366Y-128998533D01*
X134711616Y-128954783D01*
X134005366Y-128954783D01*
X134005366Y-128974783D01*
X133905366Y-128974783D01*
X133905366Y-128954783D01*
X133199116Y-128954783D01*
X133105366Y-129048533D01*
X133105366Y-129199990D01*
X133000000Y-129199990D01*
X133000000Y-129007106D01*
X133175720Y-128831387D01*
X133199116Y-128854783D01*
X133905366Y-128854783D01*
X133905366Y-128834783D01*
X134005366Y-128834783D01*
X134005366Y-128854783D01*
X134711616Y-128854783D01*
X134755366Y-128811033D01*
X134799116Y-128854783D01*
X135505366Y-128854783D01*
X135505366Y-128834783D01*
X135605366Y-128834783D01*
X135605366Y-128854783D01*
X136311616Y-128854783D01*
X136405366Y-128761033D01*
X136405366Y-128440746D01*
X136425226Y-128411023D01*
X137087716Y-127748533D01*
X139005366Y-127748533D01*
X139005366Y-128116875D01*
X139062456Y-128254703D01*
X139167945Y-128360193D01*
X139305774Y-128417283D01*
X139711616Y-128417283D01*
X139805366Y-128323533D01*
X139805366Y-127654783D01*
X139905366Y-127654783D01*
X139905366Y-128323533D01*
X139999116Y-128417283D01*
X140404958Y-128417283D01*
X140542787Y-128360193D01*
X140648276Y-128254703D01*
X140680366Y-128177231D01*
X140680366Y-128179375D01*
X140737456Y-128317203D01*
X140842945Y-128422693D01*
X140980774Y-128479783D01*
X141611616Y-128479783D01*
X141705366Y-128386033D01*
X141705366Y-127667283D01*
X141805366Y-127667283D01*
X141805366Y-128386033D01*
X141899116Y-128479783D01*
X142529958Y-128479783D01*
X142667787Y-128422693D01*
X142773276Y-128317203D01*
X142830366Y-128179375D01*
X142830366Y-127761033D01*
X142736616Y-127667283D01*
X141805366Y-127667283D01*
X141705366Y-127667283D01*
X140774116Y-127667283D01*
X140699116Y-127742283D01*
X140611616Y-127654783D01*
X139905366Y-127654783D01*
X139805366Y-127654783D01*
X139099116Y-127654783D01*
X139005366Y-127748533D01*
X137087716Y-127748533D01*
X137318732Y-127517518D01*
X137360480Y-127489623D01*
X137470989Y-127324233D01*
X137500000Y-127178385D01*
X137509795Y-127129143D01*
X137500000Y-127079900D01*
X137500000Y-126799243D01*
X137509795Y-126750000D01*
X137470989Y-126554909D01*
X137414915Y-126470989D01*
X137360480Y-126389520D01*
X137318733Y-126361626D01*
X136506735Y-125549629D01*
X136955366Y-125549629D01*
X137055366Y-125529738D01*
X137155366Y-125549629D01*
X137622628Y-125549629D01*
X137625000Y-125561555D01*
X137661263Y-125743863D01*
X137799401Y-125950600D01*
X137851588Y-125985470D01*
X138294312Y-126428195D01*
X138329183Y-126480383D01*
X138535920Y-126618520D01*
X138718228Y-126654783D01*
X138779782Y-126667027D01*
X138841336Y-126654783D01*
X139161523Y-126654783D01*
X139174077Y-126673572D01*
X139351741Y-126792283D01*
X139305774Y-126792283D01*
X139167945Y-126849373D01*
X139062456Y-126954863D01*
X139005366Y-127092691D01*
X139005366Y-127461033D01*
X139099116Y-127554783D01*
X139805366Y-127554783D01*
X139805366Y-127534783D01*
X139905366Y-127534783D01*
X139905366Y-127554783D01*
X140611616Y-127554783D01*
X140686616Y-127479783D01*
X140774116Y-127567283D01*
X141705366Y-127567283D01*
X141705366Y-126848533D01*
X141805366Y-126848533D01*
X141805366Y-127567283D01*
X142736616Y-127567283D01*
X142830366Y-127473533D01*
X142830366Y-127055191D01*
X142773276Y-126917363D01*
X142667787Y-126811873D01*
X142529958Y-126754783D01*
X141899116Y-126754783D01*
X141805366Y-126848533D01*
X141705366Y-126848533D01*
X141611616Y-126754783D01*
X140980774Y-126754783D01*
X140842945Y-126811873D01*
X140737456Y-126917363D01*
X140685100Y-127043763D01*
X140648276Y-126954863D01*
X140542787Y-126849373D01*
X140404958Y-126792283D01*
X140358991Y-126792283D01*
X140536655Y-126673572D01*
X140666956Y-126478562D01*
X140689091Y-126367283D01*
X140815328Y-126367283D01*
X140856399Y-126428750D01*
X141059519Y-126564470D01*
X141299116Y-126612129D01*
X142211616Y-126612129D01*
X142451213Y-126564470D01*
X142654333Y-126428750D01*
X142695404Y-126367283D01*
X143483401Y-126367283D01*
X143725000Y-126608883D01*
X143725000Y-126654157D01*
X143842987Y-126939002D01*
X144060998Y-127157013D01*
X144345843Y-127275000D01*
X144654157Y-127275000D01*
X144939002Y-127157013D01*
X145157013Y-126939002D01*
X145275000Y-126654157D01*
X145275000Y-126345843D01*
X145157013Y-126060998D01*
X144939002Y-125842987D01*
X144654157Y-125725000D01*
X144608883Y-125725000D01*
X144227755Y-125343873D01*
X144192883Y-125291683D01*
X143986146Y-125153546D01*
X143803838Y-125117283D01*
X143742283Y-125105039D01*
X143680728Y-125117283D01*
X142695404Y-125117283D01*
X142654333Y-125055816D01*
X142451213Y-124920096D01*
X142211616Y-124872437D01*
X141299116Y-124872437D01*
X141059519Y-124920096D01*
X140856399Y-125055816D01*
X140815328Y-125117283D01*
X140204419Y-125117283D01*
X140142865Y-125105039D01*
X140081311Y-125117283D01*
X139899003Y-125153546D01*
X139814608Y-125209937D01*
X139599116Y-125209937D01*
X139369087Y-125255693D01*
X139174077Y-125385994D01*
X139161523Y-125404783D01*
X139038666Y-125404783D01*
X138915058Y-125281175D01*
X138937712Y-125167283D01*
X138937712Y-123967283D01*
X138908608Y-123820966D01*
X138880366Y-123778699D01*
X138880366Y-123722613D01*
X138892946Y-123735193D01*
X139030774Y-123792283D01*
X139561616Y-123792283D01*
X139655366Y-123698533D01*
X139655366Y-123167283D01*
X139755366Y-123167283D01*
X139755366Y-123698533D01*
X139849116Y-123792283D01*
X140379958Y-123792283D01*
X140517786Y-123735193D01*
X140623276Y-123629704D01*
X140680366Y-123491875D01*
X140680366Y-123261033D01*
X140586616Y-123167283D01*
X139755366Y-123167283D01*
X139655366Y-123167283D01*
X139635366Y-123167283D01*
X139635366Y-123067283D01*
X139655366Y-123067283D01*
X139655366Y-123047283D01*
X139755366Y-123047283D01*
X139755366Y-123067283D01*
X140586616Y-123067283D01*
X140680366Y-122973533D01*
X140680366Y-122817283D01*
X142870177Y-122817283D01*
X143471625Y-123418732D01*
X143499520Y-123460480D01*
X143664910Y-123570989D01*
X143727654Y-123583470D01*
X143727654Y-123950000D01*
X143756758Y-124096317D01*
X143839641Y-124220359D01*
X143963683Y-124303242D01*
X144110000Y-124332346D01*
X145810000Y-124332346D01*
X145956317Y-124303242D01*
X146080359Y-124220359D01*
X146163242Y-124096317D01*
X146192346Y-123950000D01*
X146192346Y-122250000D01*
X146267654Y-122250000D01*
X146267654Y-123950000D01*
X146296758Y-124096317D01*
X146379641Y-124220359D01*
X146503683Y-124303242D01*
X146650000Y-124332346D01*
X148350000Y-124332346D01*
X148496317Y-124303242D01*
X148620359Y-124220359D01*
X148703242Y-124096317D01*
X148732346Y-123950000D01*
X148732346Y-122250000D01*
X148703242Y-122103683D01*
X148620359Y-121979641D01*
X148496317Y-121896758D01*
X148350000Y-121867654D01*
X146650000Y-121867654D01*
X146503683Y-121896758D01*
X146379641Y-121979641D01*
X146296758Y-122103683D01*
X146267654Y-122250000D01*
X146192346Y-122250000D01*
X146163242Y-122103683D01*
X146080359Y-121979641D01*
X145956317Y-121896758D01*
X145810000Y-121867654D01*
X144110000Y-121867654D01*
X143963683Y-121896758D01*
X143839641Y-121979641D01*
X143756758Y-122103683D01*
X143727654Y-122250000D01*
X143727654Y-122260548D01*
X143465659Y-121998553D01*
X143437763Y-121956803D01*
X143272373Y-121846294D01*
X143126526Y-121817283D01*
X143126524Y-121817283D01*
X143077283Y-121807488D01*
X143028042Y-121817283D01*
X140687712Y-121817283D01*
X140687712Y-121217283D01*
X140667821Y-121117283D01*
X140687712Y-121017283D01*
X140687712Y-120417283D01*
X140667821Y-120317283D01*
X140687712Y-120217283D01*
X140687712Y-119617283D01*
X140667821Y-119517283D01*
X140687712Y-119417283D01*
X140687712Y-119156735D01*
X142149708Y-120618732D01*
X142177603Y-120660480D01*
X142342993Y-120770989D01*
X142488840Y-120800000D01*
X142488841Y-120800000D01*
X142538082Y-120809795D01*
X142587323Y-120800000D01*
X144450759Y-120800000D01*
X144500000Y-120809795D01*
X144549241Y-120800000D01*
X144549243Y-120800000D01*
X144695090Y-120770989D01*
X144860480Y-120660480D01*
X144888376Y-120618730D01*
X144947106Y-120560000D01*
X146251001Y-120560000D01*
X146346075Y-121037971D01*
X146616824Y-121443176D01*
X147022029Y-121713925D01*
X147379348Y-121785000D01*
X147620652Y-121785000D01*
X147977971Y-121713925D01*
X148383176Y-121443176D01*
X148653925Y-121037971D01*
X148748999Y-120560000D01*
X148653925Y-120082029D01*
X148383176Y-119676824D01*
X147977971Y-119406075D01*
X147620652Y-119335000D01*
X147379348Y-119335000D01*
X147022029Y-119406075D01*
X146616824Y-119676824D01*
X146346075Y-120082029D01*
X146251001Y-120560000D01*
X144947106Y-120560000D01*
X146518744Y-118988363D01*
X146560491Y-118960469D01*
X146632949Y-118852027D01*
X146817838Y-119037493D01*
X147259142Y-119221093D01*
X147450000Y-119150234D01*
X147450000Y-118070000D01*
X147550000Y-118070000D01*
X147550000Y-119150234D01*
X147740858Y-119221093D01*
X148182162Y-119037493D01*
X148519613Y-118698989D01*
X148701088Y-118260857D01*
X148630144Y-118070000D01*
X147550000Y-118070000D01*
X147450000Y-118070000D01*
X147430000Y-118070000D01*
X147430000Y-117970000D01*
X147450000Y-117970000D01*
X147450000Y-116889766D01*
X147550000Y-116889766D01*
X147550000Y-117970000D01*
X148630144Y-117970000D01*
X148701088Y-117779143D01*
X148519613Y-117341011D01*
X148182162Y-117002507D01*
X147740858Y-116818907D01*
X147550000Y-116889766D01*
X147450000Y-116889766D01*
X147259142Y-116818907D01*
X146817838Y-117002507D01*
X146700011Y-117120702D01*
X146700011Y-116418760D01*
X147022029Y-116633925D01*
X147379348Y-116705000D01*
X147620652Y-116705000D01*
X147977971Y-116633925D01*
X148383176Y-116363176D01*
X148653925Y-115957971D01*
X148748999Y-115480000D01*
X148653925Y-115002029D01*
X148383176Y-114596824D01*
X147977971Y-114326075D01*
X147620652Y-114255000D01*
X147379348Y-114255000D01*
X147022029Y-114326075D01*
X146722953Y-114525911D01*
X146722953Y-114443374D01*
X146732748Y-114394131D01*
X146719211Y-114326075D01*
X146700011Y-114229552D01*
X146700011Y-113878760D01*
X147022029Y-114093925D01*
X147379348Y-114165000D01*
X147620652Y-114165000D01*
X147977971Y-114093925D01*
X148383176Y-113823176D01*
X148581435Y-113526460D01*
X148750001Y-113695027D01*
G36*
X143301932Y-112209320D02*
X143329827Y-112251068D01*
X143495217Y-112361577D01*
X143641064Y-112390588D01*
X143641065Y-112390588D01*
X143664673Y-112395284D01*
X143816990Y-112547601D01*
X144101835Y-112665588D01*
X144299664Y-112665588D01*
X144225000Y-112845843D01*
X144225000Y-113154157D01*
X144342987Y-113439002D01*
X144560998Y-113657013D01*
X144845843Y-113775000D01*
X145154157Y-113775000D01*
X145250000Y-113735300D01*
X145250000Y-114173374D01*
X145202098Y-114153532D01*
X144980048Y-114153532D01*
X144007785Y-113181270D01*
X143979889Y-113139520D01*
X143814499Y-113029011D01*
X143668652Y-113000000D01*
X143668650Y-113000000D01*
X143619409Y-112990205D01*
X143570168Y-113000000D01*
X138960331Y-113000000D01*
X139022910Y-112937420D01*
X139080000Y-112799592D01*
X139080000Y-112093750D01*
X138986250Y-112000000D01*
X138455000Y-112000000D01*
X138455000Y-112020000D01*
X138355000Y-112020000D01*
X138355000Y-112000000D01*
X138335000Y-112000000D01*
X138335000Y-111900000D01*
X138355000Y-111900000D01*
X138355000Y-111880000D01*
X138455000Y-111880000D01*
X138455000Y-111900000D01*
X138986250Y-111900000D01*
X139080000Y-111806250D01*
X139080000Y-111275020D01*
X142367633Y-111275020D01*
X143301932Y-112209320D01*
X143301932Y-112209320D01*
G37*
X143301932Y-112209320D02*
X143329827Y-112251068D01*
X143495217Y-112361577D01*
X143641064Y-112390588D01*
X143641065Y-112390588D01*
X143664673Y-112395284D01*
X143816990Y-112547601D01*
X144101835Y-112665588D01*
X144299664Y-112665588D01*
X144225000Y-112845843D01*
X144225000Y-113154157D01*
X144342987Y-113439002D01*
X144560998Y-113657013D01*
X144845843Y-113775000D01*
X145154157Y-113775000D01*
X145250000Y-113735300D01*
X145250000Y-114173374D01*
X145202098Y-114153532D01*
X144980048Y-114153532D01*
X144007785Y-113181270D01*
X143979889Y-113139520D01*
X143814499Y-113029011D01*
X143668652Y-113000000D01*
X143668650Y-113000000D01*
X143619409Y-112990205D01*
X143570168Y-113000000D01*
X138960331Y-113000000D01*
X139022910Y-112937420D01*
X139080000Y-112799592D01*
X139080000Y-112093750D01*
X138986250Y-112000000D01*
X138455000Y-112000000D01*
X138455000Y-112020000D01*
X138355000Y-112020000D01*
X138355000Y-112000000D01*
X138335000Y-112000000D01*
X138335000Y-111900000D01*
X138355000Y-111900000D01*
X138355000Y-111880000D01*
X138455000Y-111880000D01*
X138455000Y-111900000D01*
X138986250Y-111900000D01*
X139080000Y-111806250D01*
X139080000Y-111275020D01*
X142367633Y-111275020D01*
X143301932Y-112209320D01*
G36*
X148875000Y-112464601D02*
X148751324Y-112440000D01*
X148751322Y-112440000D01*
X148702081Y-112430205D01*
X148652840Y-112440000D01*
X148639206Y-112440000D01*
X148383176Y-112056824D01*
X147977971Y-111786075D01*
X147620652Y-111715000D01*
X147379348Y-111715000D01*
X147022029Y-111786075D01*
X146700011Y-112001240D01*
X146700011Y-110973935D01*
X146709806Y-110924692D01*
X146671000Y-110729602D01*
X146657780Y-110709817D01*
X146560491Y-110564212D01*
X146518743Y-110536317D01*
X145388916Y-109406491D01*
X145388914Y-109406488D01*
X145375542Y-109393116D01*
X145375542Y-109171066D01*
X145257555Y-108886221D01*
X145039544Y-108668210D01*
X144754699Y-108550223D01*
X144446385Y-108550223D01*
X144161540Y-108668210D01*
X143943529Y-108886221D01*
X143940850Y-108892688D01*
X143907013Y-108810998D01*
X143689002Y-108592987D01*
X143404157Y-108475000D01*
X143095843Y-108475000D01*
X142810998Y-108592987D01*
X142592987Y-108810998D01*
X142475000Y-109095843D01*
X142475000Y-109404157D01*
X142592987Y-109689002D01*
X142728996Y-109825011D01*
X139058872Y-109825011D01*
X139148413Y-109735470D01*
X139200600Y-109700600D01*
X139338737Y-109493863D01*
X139369969Y-109336849D01*
X139387244Y-109250000D01*
X139375000Y-109188445D01*
X139375000Y-108811553D01*
X139387244Y-108749999D01*
X139362380Y-108625000D01*
X139338737Y-108506137D01*
X139200600Y-108299400D01*
X139148412Y-108264529D01*
X139008883Y-108125000D01*
X141000000Y-108125000D01*
X141047835Y-108115485D01*
X141088388Y-108088388D01*
X142051776Y-107125000D01*
X148875000Y-107125000D01*
X148875000Y-112464601D01*
X148875000Y-112464601D01*
G37*
X148875000Y-112464601D02*
X148751324Y-112440000D01*
X148751322Y-112440000D01*
X148702081Y-112430205D01*
X148652840Y-112440000D01*
X148639206Y-112440000D01*
X148383176Y-112056824D01*
X147977971Y-111786075D01*
X147620652Y-111715000D01*
X147379348Y-111715000D01*
X147022029Y-111786075D01*
X146700011Y-112001240D01*
X146700011Y-110973935D01*
X146709806Y-110924692D01*
X146671000Y-110729602D01*
X146657780Y-110709817D01*
X146560491Y-110564212D01*
X146518743Y-110536317D01*
X145388916Y-109406491D01*
X145388914Y-109406488D01*
X145375542Y-109393116D01*
X145375542Y-109171066D01*
X145257555Y-108886221D01*
X145039544Y-108668210D01*
X144754699Y-108550223D01*
X144446385Y-108550223D01*
X144161540Y-108668210D01*
X143943529Y-108886221D01*
X143940850Y-108892688D01*
X143907013Y-108810998D01*
X143689002Y-108592987D01*
X143404157Y-108475000D01*
X143095843Y-108475000D01*
X142810998Y-108592987D01*
X142592987Y-108810998D01*
X142475000Y-109095843D01*
X142475000Y-109404157D01*
X142592987Y-109689002D01*
X142728996Y-109825011D01*
X139058872Y-109825011D01*
X139148413Y-109735470D01*
X139200600Y-109700600D01*
X139338737Y-109493863D01*
X139369969Y-109336849D01*
X139387244Y-109250000D01*
X139375000Y-109188445D01*
X139375000Y-108811553D01*
X139387244Y-108749999D01*
X139362380Y-108625000D01*
X139338737Y-108506137D01*
X139200600Y-108299400D01*
X139148412Y-108264529D01*
X139008883Y-108125000D01*
X141000000Y-108125000D01*
X141047835Y-108115485D01*
X141088388Y-108088388D01*
X142051776Y-107125000D01*
X148875000Y-107125000D01*
X148875000Y-112464601D01*
G04 #@! TD*
M02*
