G04 #@! TF.GenerationSoftware,KiCad,Pcbnew,(5.0.0)*
G04 #@! TF.CreationDate,2019-02-21T23:12:31-08:00*
G04 #@! TF.ProjectId,bms4_f051,626D73345F663035312E6B696361645F,rev?*
G04 #@! TF.SameCoordinates,Original*
G04 #@! TF.FileFunction,Legend,Bot*
G04 #@! TF.FilePolarity,Positive*
%FSLAX46Y46*%
G04 Gerber Fmt 4.6, Leading zero omitted, Abs format (unit mm)*
G04 Created by KiCad (PCBNEW (5.0.0)) date 02/21/19 23:12:31*
%MOMM*%
%LPD*%
G01*
G04 APERTURE LIST*
%ADD10C,0.180000*%
%ADD11C,0.100000*%
%ADD12C,0.400000*%
%ADD13C,0.120000*%
%ADD14C,0.150000*%
%ADD15C,0.010000*%
G04 APERTURE END LIST*
D10*
X123344904Y-132312380D02*
X123344904Y-131312380D01*
X123106809Y-131312380D01*
X122963952Y-131360000D01*
X122868714Y-131455238D01*
X122821095Y-131550476D01*
X122773476Y-131740952D01*
X122773476Y-131883809D01*
X122821095Y-132074285D01*
X122868714Y-132169523D01*
X122963952Y-132264761D01*
X123106809Y-132312380D01*
X123344904Y-132312380D01*
X121963952Y-132264761D02*
X122059190Y-132312380D01*
X122249666Y-132312380D01*
X122344904Y-132264761D01*
X122392523Y-132169523D01*
X122392523Y-131788571D01*
X122344904Y-131693333D01*
X122249666Y-131645714D01*
X122059190Y-131645714D01*
X121963952Y-131693333D01*
X121916333Y-131788571D01*
X121916333Y-131883809D01*
X122392523Y-131979047D01*
X121535380Y-132264761D02*
X121440142Y-132312380D01*
X121249666Y-132312380D01*
X121154428Y-132264761D01*
X121106809Y-132169523D01*
X121106809Y-132121904D01*
X121154428Y-132026666D01*
X121249666Y-131979047D01*
X121392523Y-131979047D01*
X121487761Y-131931428D01*
X121535380Y-131836190D01*
X121535380Y-131788571D01*
X121487761Y-131693333D01*
X121392523Y-131645714D01*
X121249666Y-131645714D01*
X121154428Y-131693333D01*
X120678238Y-132312380D02*
X120678238Y-131645714D01*
X120678238Y-131312380D02*
X120725857Y-131360000D01*
X120678238Y-131407619D01*
X120630619Y-131360000D01*
X120678238Y-131312380D01*
X120678238Y-131407619D01*
X119773476Y-131645714D02*
X119773476Y-132455238D01*
X119821095Y-132550476D01*
X119868714Y-132598095D01*
X119963952Y-132645714D01*
X120106809Y-132645714D01*
X120202047Y-132598095D01*
X119773476Y-132264761D02*
X119868714Y-132312380D01*
X120059190Y-132312380D01*
X120154428Y-132264761D01*
X120202047Y-132217142D01*
X120249666Y-132121904D01*
X120249666Y-131836190D01*
X120202047Y-131740952D01*
X120154428Y-131693333D01*
X120059190Y-131645714D01*
X119868714Y-131645714D01*
X119773476Y-131693333D01*
X119297285Y-131645714D02*
X119297285Y-132312380D01*
X119297285Y-131740952D02*
X119249666Y-131693333D01*
X119154428Y-131645714D01*
X119011571Y-131645714D01*
X118916333Y-131693333D01*
X118868714Y-131788571D01*
X118868714Y-132312380D01*
X118011571Y-132264761D02*
X118106809Y-132312380D01*
X118297285Y-132312380D01*
X118392523Y-132264761D01*
X118440142Y-132169523D01*
X118440142Y-131788571D01*
X118392523Y-131693333D01*
X118297285Y-131645714D01*
X118106809Y-131645714D01*
X118011571Y-131693333D01*
X117963952Y-131788571D01*
X117963952Y-131883809D01*
X118440142Y-131979047D01*
X117106809Y-132312380D02*
X117106809Y-131312380D01*
X117106809Y-132264761D02*
X117202047Y-132312380D01*
X117392523Y-132312380D01*
X117487761Y-132264761D01*
X117535380Y-132217142D01*
X117583000Y-132121904D01*
X117583000Y-131836190D01*
X117535380Y-131740952D01*
X117487761Y-131693333D01*
X117392523Y-131645714D01*
X117202047Y-131645714D01*
X117106809Y-131693333D01*
X115868714Y-132312380D02*
X115868714Y-131312380D01*
X115868714Y-131693333D02*
X115773476Y-131645714D01*
X115583000Y-131645714D01*
X115487761Y-131693333D01*
X115440142Y-131740952D01*
X115392523Y-131836190D01*
X115392523Y-132121904D01*
X115440142Y-132217142D01*
X115487761Y-132264761D01*
X115583000Y-132312380D01*
X115773476Y-132312380D01*
X115868714Y-132264761D01*
X115059190Y-131645714D02*
X114821095Y-132312380D01*
X114583000Y-131645714D02*
X114821095Y-132312380D01*
X114916333Y-132550476D01*
X114963952Y-132598095D01*
X115059190Y-132645714D01*
X113440142Y-132312380D02*
X113440142Y-131312380D01*
X113202047Y-131312380D01*
X113059190Y-131360000D01*
X112963952Y-131455238D01*
X112916333Y-131550476D01*
X112868714Y-131740952D01*
X112868714Y-131883809D01*
X112916333Y-132074285D01*
X112963952Y-132169523D01*
X113059190Y-132264761D01*
X113202047Y-132312380D01*
X113440142Y-132312380D01*
X112011571Y-132312380D02*
X112011571Y-131788571D01*
X112059190Y-131693333D01*
X112154428Y-131645714D01*
X112344904Y-131645714D01*
X112440142Y-131693333D01*
X112011571Y-132264761D02*
X112106809Y-132312380D01*
X112344904Y-132312380D01*
X112440142Y-132264761D01*
X112487761Y-132169523D01*
X112487761Y-132074285D01*
X112440142Y-131979047D01*
X112344904Y-131931428D01*
X112106809Y-131931428D01*
X112011571Y-131883809D01*
X111630619Y-131645714D02*
X111392523Y-132312380D01*
X111154428Y-131645714D01*
X110773476Y-132312380D02*
X110773476Y-131645714D01*
X110773476Y-131312380D02*
X110821095Y-131360000D01*
X110773476Y-131407619D01*
X110725857Y-131360000D01*
X110773476Y-131312380D01*
X110773476Y-131407619D01*
X109868714Y-132312380D02*
X109868714Y-131312380D01*
X109868714Y-132264761D02*
X109963952Y-132312380D01*
X110154428Y-132312380D01*
X110249666Y-132264761D01*
X110297285Y-132217142D01*
X110344904Y-132121904D01*
X110344904Y-131836190D01*
X110297285Y-131740952D01*
X110249666Y-131693333D01*
X110154428Y-131645714D01*
X109963952Y-131645714D01*
X109868714Y-131693333D01*
X123011571Y-133468571D02*
X123344904Y-133468571D01*
X123344904Y-133992380D02*
X123344904Y-132992380D01*
X122868714Y-132992380D01*
X122106809Y-133944761D02*
X122202047Y-133992380D01*
X122392523Y-133992380D01*
X122487761Y-133944761D01*
X122535380Y-133849523D01*
X122535380Y-133468571D01*
X122487761Y-133373333D01*
X122392523Y-133325714D01*
X122202047Y-133325714D01*
X122106809Y-133373333D01*
X122059190Y-133468571D01*
X122059190Y-133563809D01*
X122535380Y-133659047D01*
X121630619Y-133992380D02*
X121630619Y-132992380D01*
X121630619Y-133373333D02*
X121535380Y-133325714D01*
X121344904Y-133325714D01*
X121249666Y-133373333D01*
X121202047Y-133420952D01*
X121154428Y-133516190D01*
X121154428Y-133801904D01*
X121202047Y-133897142D01*
X121249666Y-133944761D01*
X121344904Y-133992380D01*
X121535380Y-133992380D01*
X121630619Y-133944761D01*
X120011571Y-133087619D02*
X119963952Y-133040000D01*
X119868714Y-132992380D01*
X119630619Y-132992380D01*
X119535380Y-133040000D01*
X119487761Y-133087619D01*
X119440142Y-133182857D01*
X119440142Y-133278095D01*
X119487761Y-133420952D01*
X120059190Y-133992380D01*
X119440142Y-133992380D01*
X118487761Y-133992380D02*
X119059190Y-133992380D01*
X118773476Y-133992380D02*
X118773476Y-132992380D01*
X118868714Y-133135238D01*
X118963952Y-133230476D01*
X119059190Y-133278095D01*
X118011571Y-133944761D02*
X118011571Y-133992380D01*
X118059190Y-134087619D01*
X118106809Y-134135238D01*
X116868714Y-133087619D02*
X116821095Y-133040000D01*
X116725857Y-132992380D01*
X116487761Y-132992380D01*
X116392523Y-133040000D01*
X116344904Y-133087619D01*
X116297285Y-133182857D01*
X116297285Y-133278095D01*
X116344904Y-133420952D01*
X116916333Y-133992380D01*
X116297285Y-133992380D01*
X115678238Y-132992380D02*
X115583000Y-132992380D01*
X115487761Y-133040000D01*
X115440142Y-133087619D01*
X115392523Y-133182857D01*
X115344904Y-133373333D01*
X115344904Y-133611428D01*
X115392523Y-133801904D01*
X115440142Y-133897142D01*
X115487761Y-133944761D01*
X115583000Y-133992380D01*
X115678238Y-133992380D01*
X115773476Y-133944761D01*
X115821095Y-133897142D01*
X115868714Y-133801904D01*
X115916333Y-133611428D01*
X115916333Y-133373333D01*
X115868714Y-133182857D01*
X115821095Y-133087619D01*
X115773476Y-133040000D01*
X115678238Y-132992380D01*
X114392523Y-133992380D02*
X114963952Y-133992380D01*
X114678238Y-133992380D02*
X114678238Y-132992380D01*
X114773476Y-133135238D01*
X114868714Y-133230476D01*
X114963952Y-133278095D01*
X113916333Y-133992380D02*
X113725857Y-133992380D01*
X113630619Y-133944761D01*
X113583000Y-133897142D01*
X113487761Y-133754285D01*
X113440142Y-133563809D01*
X113440142Y-133182857D01*
X113487761Y-133087619D01*
X113535380Y-133040000D01*
X113630619Y-132992380D01*
X113821095Y-132992380D01*
X113916333Y-133040000D01*
X113963952Y-133087619D01*
X114011571Y-133182857D01*
X114011571Y-133420952D01*
X113963952Y-133516190D01*
X113916333Y-133563809D01*
X113821095Y-133611428D01*
X113630619Y-133611428D01*
X113535380Y-133563809D01*
X113487761Y-133516190D01*
X113440142Y-133420952D01*
D11*
X145250000Y-117649285D02*
X145202380Y-117554047D01*
X145202380Y-117411190D01*
X145250000Y-117268333D01*
X145345238Y-117173095D01*
X145440476Y-117125476D01*
X145630952Y-117077857D01*
X145773809Y-117077857D01*
X145964285Y-117125476D01*
X146059523Y-117173095D01*
X146154761Y-117268333D01*
X146202380Y-117411190D01*
X146202380Y-117506428D01*
X146154761Y-117649285D01*
X146107142Y-117696904D01*
X145773809Y-117696904D01*
X145773809Y-117506428D01*
X146202380Y-118125476D02*
X145202380Y-118125476D01*
X146202380Y-118696904D01*
X145202380Y-118696904D01*
X146202380Y-119173095D02*
X145202380Y-119173095D01*
X145202380Y-119411190D01*
X145250000Y-119554047D01*
X145345238Y-119649285D01*
X145440476Y-119696904D01*
X145630952Y-119744523D01*
X145773809Y-119744523D01*
X145964285Y-119696904D01*
X146059523Y-119649285D01*
X146154761Y-119554047D01*
X146202380Y-119411190D01*
X146202380Y-119173095D01*
X140350714Y-132750000D02*
X140445952Y-132702380D01*
X140588809Y-132702380D01*
X140731666Y-132750000D01*
X140826904Y-132845238D01*
X140874523Y-132940476D01*
X140922142Y-133130952D01*
X140922142Y-133273809D01*
X140874523Y-133464285D01*
X140826904Y-133559523D01*
X140731666Y-133654761D01*
X140588809Y-133702380D01*
X140493571Y-133702380D01*
X140350714Y-133654761D01*
X140303095Y-133607142D01*
X140303095Y-133273809D01*
X140493571Y-133273809D01*
X139874523Y-133702380D02*
X139874523Y-132702380D01*
X139303095Y-133702380D01*
X139303095Y-132702380D01*
X138826904Y-133702380D02*
X138826904Y-132702380D01*
X138588809Y-132702380D01*
X138445952Y-132750000D01*
X138350714Y-132845238D01*
X138303095Y-132940476D01*
X138255476Y-133130952D01*
X138255476Y-133273809D01*
X138303095Y-133464285D01*
X138350714Y-133559523D01*
X138445952Y-133654761D01*
X138588809Y-133702380D01*
X138826904Y-133702380D01*
X136791190Y-132702380D02*
X136219761Y-132702380D01*
X136505476Y-133702380D02*
X136505476Y-132702380D01*
X135981666Y-133702380D02*
X135457857Y-133035714D01*
X135981666Y-133035714D02*
X135457857Y-133702380D01*
X133565000Y-133702380D02*
X133898333Y-133226190D01*
X134136428Y-133702380D02*
X134136428Y-132702380D01*
X133755476Y-132702380D01*
X133660238Y-132750000D01*
X133612619Y-132797619D01*
X133565000Y-132892857D01*
X133565000Y-133035714D01*
X133612619Y-133130952D01*
X133660238Y-133178571D01*
X133755476Y-133226190D01*
X134136428Y-133226190D01*
X133231666Y-133702380D02*
X132707857Y-133035714D01*
X133231666Y-133035714D02*
X132707857Y-133702380D01*
X131410238Y-132702380D02*
X130791190Y-132702380D01*
X131124523Y-133083333D01*
X130981666Y-133083333D01*
X130886428Y-133130952D01*
X130838809Y-133178571D01*
X130791190Y-133273809D01*
X130791190Y-133511904D01*
X130838809Y-133607142D01*
X130886428Y-133654761D01*
X130981666Y-133702380D01*
X131267380Y-133702380D01*
X131362619Y-133654761D01*
X131410238Y-133607142D01*
X130362619Y-133607142D02*
X130315000Y-133654761D01*
X130362619Y-133702380D01*
X130410238Y-133654761D01*
X130362619Y-133607142D01*
X130362619Y-133702380D01*
X129981666Y-132702380D02*
X129362619Y-132702380D01*
X129695952Y-133083333D01*
X129553095Y-133083333D01*
X129457857Y-133130952D01*
X129410238Y-133178571D01*
X129362619Y-133273809D01*
X129362619Y-133511904D01*
X129410238Y-133607142D01*
X129457857Y-133654761D01*
X129553095Y-133702380D01*
X129838809Y-133702380D01*
X129934047Y-133654761D01*
X129981666Y-133607142D01*
X129076904Y-132702380D02*
X128743571Y-133702380D01*
X128410238Y-132702380D01*
D12*
X104142857Y-109261904D02*
X104142857Y-107738095D01*
X103238095Y-126642857D02*
X104761904Y-126642857D01*
X104000000Y-127404761D02*
X104000000Y-125880952D01*
D11*
X145428571Y-124704761D02*
X145476190Y-124847619D01*
X145523809Y-124895238D01*
X145619047Y-124942857D01*
X145761904Y-124942857D01*
X145857142Y-124895238D01*
X145904761Y-124847619D01*
X145952380Y-124752380D01*
X145952380Y-124371428D01*
X144952380Y-124371428D01*
X144952380Y-124704761D01*
X145000000Y-124800000D01*
X145047619Y-124847619D01*
X145142857Y-124895238D01*
X145238095Y-124895238D01*
X145333333Y-124847619D01*
X145380952Y-124800000D01*
X145428571Y-124704761D01*
X145428571Y-124371428D01*
X145952380Y-125514285D02*
X145904761Y-125419047D01*
X145857142Y-125371428D01*
X145761904Y-125323809D01*
X145476190Y-125323809D01*
X145380952Y-125371428D01*
X145333333Y-125419047D01*
X145285714Y-125514285D01*
X145285714Y-125657142D01*
X145333333Y-125752380D01*
X145380952Y-125800000D01*
X145476190Y-125847619D01*
X145761904Y-125847619D01*
X145857142Y-125800000D01*
X145904761Y-125752380D01*
X145952380Y-125657142D01*
X145952380Y-125514285D01*
X145952380Y-126419047D02*
X145904761Y-126323809D01*
X145857142Y-126276190D01*
X145761904Y-126228571D01*
X145476190Y-126228571D01*
X145380952Y-126276190D01*
X145333333Y-126323809D01*
X145285714Y-126419047D01*
X145285714Y-126561904D01*
X145333333Y-126657142D01*
X145380952Y-126704761D01*
X145476190Y-126752380D01*
X145761904Y-126752380D01*
X145857142Y-126704761D01*
X145904761Y-126657142D01*
X145952380Y-126561904D01*
X145952380Y-126419047D01*
X145285714Y-127038095D02*
X145285714Y-127419047D01*
X144952380Y-127180952D02*
X145809523Y-127180952D01*
X145904761Y-127228571D01*
X145952380Y-127323809D01*
X145952380Y-127419047D01*
X144952380Y-127942857D02*
X144952380Y-128038095D01*
X145000000Y-128133333D01*
X145047619Y-128180952D01*
X145142857Y-128228571D01*
X145333333Y-128276190D01*
X145571428Y-128276190D01*
X145761904Y-128228571D01*
X145857142Y-128180952D01*
X145904761Y-128133333D01*
X145952380Y-128038095D01*
X145952380Y-127942857D01*
X145904761Y-127847619D01*
X145857142Y-127800000D01*
X145761904Y-127752380D01*
X145571428Y-127704761D01*
X145333333Y-127704761D01*
X145142857Y-127752380D01*
X145047619Y-127800000D01*
X145000000Y-127847619D01*
X144952380Y-127942857D01*
X140850714Y-101500000D02*
X140945952Y-101452380D01*
X141088809Y-101452380D01*
X141231666Y-101500000D01*
X141326904Y-101595238D01*
X141374523Y-101690476D01*
X141422142Y-101880952D01*
X141422142Y-102023809D01*
X141374523Y-102214285D01*
X141326904Y-102309523D01*
X141231666Y-102404761D01*
X141088809Y-102452380D01*
X140993571Y-102452380D01*
X140850714Y-102404761D01*
X140803095Y-102357142D01*
X140803095Y-102023809D01*
X140993571Y-102023809D01*
X140374523Y-102452380D02*
X140374523Y-101452380D01*
X139803095Y-102452380D01*
X139803095Y-101452380D01*
X139326904Y-102452380D02*
X139326904Y-101452380D01*
X139088809Y-101452380D01*
X138945952Y-101500000D01*
X138850714Y-101595238D01*
X138803095Y-101690476D01*
X138755476Y-101880952D01*
X138755476Y-102023809D01*
X138803095Y-102214285D01*
X138850714Y-102309523D01*
X138945952Y-102404761D01*
X139088809Y-102452380D01*
X139326904Y-102452380D01*
X132160238Y-101452380D02*
X131541190Y-101452380D01*
X131874523Y-101833333D01*
X131731666Y-101833333D01*
X131636428Y-101880952D01*
X131588809Y-101928571D01*
X131541190Y-102023809D01*
X131541190Y-102261904D01*
X131588809Y-102357142D01*
X131636428Y-102404761D01*
X131731666Y-102452380D01*
X132017380Y-102452380D01*
X132112619Y-102404761D01*
X132160238Y-102357142D01*
X131112619Y-102357142D02*
X131065000Y-102404761D01*
X131112619Y-102452380D01*
X131160238Y-102404761D01*
X131112619Y-102357142D01*
X131112619Y-102452380D01*
X130731666Y-101452380D02*
X130112619Y-101452380D01*
X130445952Y-101833333D01*
X130303095Y-101833333D01*
X130207857Y-101880952D01*
X130160238Y-101928571D01*
X130112619Y-102023809D01*
X130112619Y-102261904D01*
X130160238Y-102357142D01*
X130207857Y-102404761D01*
X130303095Y-102452380D01*
X130588809Y-102452380D01*
X130684047Y-102404761D01*
X130731666Y-102357142D01*
X129826904Y-101452380D02*
X129493571Y-102452380D01*
X129160238Y-101452380D01*
X136315000Y-102452380D02*
X136648333Y-101976190D01*
X136886428Y-102452380D02*
X136886428Y-101452380D01*
X136505476Y-101452380D01*
X136410238Y-101500000D01*
X136362619Y-101547619D01*
X136315000Y-101642857D01*
X136315000Y-101785714D01*
X136362619Y-101880952D01*
X136410238Y-101928571D01*
X136505476Y-101976190D01*
X136886428Y-101976190D01*
X135981666Y-102452380D02*
X135457857Y-101785714D01*
X135981666Y-101785714D02*
X135457857Y-102452380D01*
X134291190Y-101452380D02*
X133719761Y-101452380D01*
X134005476Y-102452380D02*
X134005476Y-101452380D01*
X133481666Y-102452380D02*
X132957857Y-101785714D01*
X133481666Y-101785714D02*
X132957857Y-102452380D01*
X148488095Y-111452380D02*
X148821428Y-110976190D01*
X149059523Y-111452380D02*
X149059523Y-110452380D01*
X148678571Y-110452380D01*
X148583333Y-110500000D01*
X148535714Y-110547619D01*
X148488095Y-110642857D01*
X148488095Y-110785714D01*
X148535714Y-110880952D01*
X148583333Y-110928571D01*
X148678571Y-110976190D01*
X149059523Y-110976190D01*
X147678571Y-111404761D02*
X147773809Y-111452380D01*
X147964285Y-111452380D01*
X148059523Y-111404761D01*
X148107142Y-111309523D01*
X148107142Y-110928571D01*
X148059523Y-110833333D01*
X147964285Y-110785714D01*
X147773809Y-110785714D01*
X147678571Y-110833333D01*
X147630952Y-110928571D01*
X147630952Y-111023809D01*
X148107142Y-111119047D01*
X147250000Y-111404761D02*
X147154761Y-111452380D01*
X146964285Y-111452380D01*
X146869047Y-111404761D01*
X146821428Y-111309523D01*
X146821428Y-111261904D01*
X146869047Y-111166666D01*
X146964285Y-111119047D01*
X147107142Y-111119047D01*
X147202380Y-111071428D01*
X147250000Y-110976190D01*
X147250000Y-110928571D01*
X147202380Y-110833333D01*
X147107142Y-110785714D01*
X146964285Y-110785714D01*
X146869047Y-110833333D01*
X146011904Y-111404761D02*
X146107142Y-111452380D01*
X146297619Y-111452380D01*
X146392857Y-111404761D01*
X146440476Y-111309523D01*
X146440476Y-110928571D01*
X146392857Y-110833333D01*
X146297619Y-110785714D01*
X146107142Y-110785714D01*
X146011904Y-110833333D01*
X145964285Y-110928571D01*
X145964285Y-111023809D01*
X146440476Y-111119047D01*
X145678571Y-110785714D02*
X145297619Y-110785714D01*
X145535714Y-110452380D02*
X145535714Y-111309523D01*
X145488095Y-111404761D01*
X145392857Y-111452380D01*
X145297619Y-111452380D01*
X146273809Y-116452380D02*
X146273809Y-115452380D01*
X146035714Y-115452380D01*
X145892857Y-115500000D01*
X145797619Y-115595238D01*
X145750000Y-115690476D01*
X145702380Y-115880952D01*
X145702380Y-116023809D01*
X145750000Y-116214285D01*
X145797619Y-116309523D01*
X145892857Y-116404761D01*
X146035714Y-116452380D01*
X146273809Y-116452380D01*
X145273809Y-116452380D02*
X145273809Y-115452380D01*
X144607142Y-115452380D02*
X144416666Y-115452380D01*
X144321428Y-115500000D01*
X144226190Y-115595238D01*
X144178571Y-115785714D01*
X144178571Y-116119047D01*
X144226190Y-116309523D01*
X144321428Y-116404761D01*
X144416666Y-116452380D01*
X144607142Y-116452380D01*
X144702380Y-116404761D01*
X144797619Y-116309523D01*
X144845238Y-116119047D01*
X144845238Y-115785714D01*
X144797619Y-115595238D01*
X144702380Y-115500000D01*
X144607142Y-115452380D01*
X145595238Y-121357142D02*
X145642857Y-121404761D01*
X145785714Y-121452380D01*
X145880952Y-121452380D01*
X146023809Y-121404761D01*
X146119047Y-121309523D01*
X146166666Y-121214285D01*
X146214285Y-121023809D01*
X146214285Y-120880952D01*
X146166666Y-120690476D01*
X146119047Y-120595238D01*
X146023809Y-120500000D01*
X145880952Y-120452380D01*
X145785714Y-120452380D01*
X145642857Y-120500000D01*
X145595238Y-120547619D01*
X144690476Y-121452380D02*
X145166666Y-121452380D01*
X145166666Y-120452380D01*
X144357142Y-121452380D02*
X144357142Y-120452380D01*
X143785714Y-121452380D02*
X144214285Y-120880952D01*
X143785714Y-120452380D02*
X144357142Y-121023809D01*
X147452380Y-124423809D02*
X147452380Y-125042857D01*
X147833333Y-124709523D01*
X147833333Y-124852380D01*
X147880952Y-124947619D01*
X147928571Y-124995238D01*
X148023809Y-125042857D01*
X148261904Y-125042857D01*
X148357142Y-124995238D01*
X148404761Y-124947619D01*
X148452380Y-124852380D01*
X148452380Y-124566666D01*
X148404761Y-124471428D01*
X148357142Y-124423809D01*
X148357142Y-125471428D02*
X148404761Y-125519047D01*
X148452380Y-125471428D01*
X148404761Y-125423809D01*
X148357142Y-125471428D01*
X148452380Y-125471428D01*
X147452380Y-125852380D02*
X147452380Y-126471428D01*
X147833333Y-126138095D01*
X147833333Y-126280952D01*
X147880952Y-126376190D01*
X147928571Y-126423809D01*
X148023809Y-126471428D01*
X148261904Y-126471428D01*
X148357142Y-126423809D01*
X148404761Y-126376190D01*
X148452380Y-126280952D01*
X148452380Y-125995238D01*
X148404761Y-125900000D01*
X148357142Y-125852380D01*
X147452380Y-126757142D02*
X148452380Y-127090476D01*
X147452380Y-127423809D01*
D13*
G04 #@! TO.C,C10*
X136065366Y-127954504D02*
X136065366Y-128280062D01*
X135045366Y-127954504D02*
X135045366Y-128280062D01*
G04 #@! TO.C,C1*
X132412779Y-106760000D02*
X132087221Y-106760000D01*
X132412779Y-105740000D02*
X132087221Y-105740000D01*
G04 #@! TO.C,C2*
X132625279Y-111490000D02*
X132299721Y-111490000D01*
X132625279Y-112510000D02*
X132299721Y-112510000D01*
G04 #@! TO.C,C5*
X141045366Y-126421205D02*
X141045366Y-126938361D01*
X142465366Y-126421205D02*
X142465366Y-126938361D01*
G04 #@! TO.C,C7*
X139345366Y-126654504D02*
X139345366Y-126980062D01*
X140365366Y-126654504D02*
X140365366Y-126980062D01*
D14*
G04 #@! TO.C,U3*
X133925000Y-107175000D02*
X133975000Y-107175000D01*
X133925000Y-111325000D02*
X134070000Y-111325000D01*
X139075000Y-111325000D02*
X138930000Y-111325000D01*
X139075000Y-107175000D02*
X138930000Y-107175000D01*
X133925000Y-107175000D02*
X133925000Y-111325000D01*
X139075000Y-107175000D02*
X139075000Y-111325000D01*
X133975000Y-107175000D02*
X133975000Y-105775000D01*
D15*
G04 #@! TO.C,G\002A\002A\002A*
G36*
X120917334Y-106520334D02*
X120875000Y-106562667D01*
X120832667Y-106520334D01*
X120875000Y-106478000D01*
X120917334Y-106520334D01*
X120917334Y-106520334D01*
G37*
X120917334Y-106520334D02*
X120875000Y-106562667D01*
X120832667Y-106520334D01*
X120875000Y-106478000D01*
X120917334Y-106520334D01*
G36*
X115668000Y-109991667D02*
X115625667Y-110034000D01*
X115583334Y-109991667D01*
X115625667Y-109949334D01*
X115668000Y-109991667D01*
X115668000Y-109991667D01*
G37*
X115668000Y-109991667D02*
X115625667Y-110034000D01*
X115583334Y-109991667D01*
X115625667Y-109949334D01*
X115668000Y-109991667D01*
G36*
X115922000Y-110076334D02*
X115879667Y-110118667D01*
X115837334Y-110076334D01*
X115879667Y-110034000D01*
X115922000Y-110076334D01*
X115922000Y-110076334D01*
G37*
X115922000Y-110076334D02*
X115879667Y-110118667D01*
X115837334Y-110076334D01*
X115879667Y-110034000D01*
X115922000Y-110076334D01*
G36*
X120188064Y-112636073D02*
X120059263Y-112825317D01*
X119951472Y-113022892D01*
X119924736Y-113185908D01*
X119929200Y-113201831D01*
X119910058Y-113356072D01*
X119783515Y-113545757D01*
X119782009Y-113547386D01*
X119584144Y-113760886D01*
X119531072Y-113495526D01*
X119487069Y-113240071D01*
X119492189Y-113125215D01*
X119552065Y-113127901D01*
X119610324Y-113171085D01*
X119697208Y-113227407D01*
X119711144Y-113166695D01*
X119683080Y-113033286D01*
X119661262Y-112881546D01*
X119688566Y-112846601D01*
X119693053Y-112850352D01*
X119791407Y-112839278D01*
X119950684Y-112732021D01*
X120001297Y-112686345D01*
X120169003Y-112543039D01*
X120232173Y-112528476D01*
X120188064Y-112636073D01*
X120188064Y-112636073D01*
G37*
X120188064Y-112636073D02*
X120059263Y-112825317D01*
X119951472Y-113022892D01*
X119924736Y-113185908D01*
X119929200Y-113201831D01*
X119910058Y-113356072D01*
X119783515Y-113545757D01*
X119782009Y-113547386D01*
X119584144Y-113760886D01*
X119531072Y-113495526D01*
X119487069Y-113240071D01*
X119492189Y-113125215D01*
X119552065Y-113127901D01*
X119610324Y-113171085D01*
X119697208Y-113227407D01*
X119711144Y-113166695D01*
X119683080Y-113033286D01*
X119661262Y-112881546D01*
X119688566Y-112846601D01*
X119693053Y-112850352D01*
X119791407Y-112839278D01*
X119950684Y-112732021D01*
X120001297Y-112686345D01*
X120169003Y-112543039D01*
X120232173Y-112528476D01*
X120188064Y-112636073D01*
G36*
X119224000Y-113801667D02*
X119181667Y-113844000D01*
X119139334Y-113801667D01*
X119181667Y-113759334D01*
X119224000Y-113801667D01*
X119224000Y-113801667D01*
G37*
X119224000Y-113801667D02*
X119181667Y-113844000D01*
X119139334Y-113801667D01*
X119181667Y-113759334D01*
X119224000Y-113801667D01*
G36*
X118755554Y-113632334D02*
X118876836Y-113803691D01*
X119026202Y-114045688D01*
X119181295Y-114317421D01*
X119319755Y-114577986D01*
X119419223Y-114786479D01*
X119457341Y-114901997D01*
X119454756Y-114911467D01*
X119396714Y-114862983D01*
X119276844Y-114699888D01*
X119118094Y-114454155D01*
X119070411Y-114375908D01*
X118898211Y-114079963D01*
X118758443Y-113821658D01*
X118677322Y-113649815D01*
X118671129Y-113632334D01*
X118617510Y-113463000D01*
X118755554Y-113632334D01*
X118755554Y-113632334D01*
G37*
X118755554Y-113632334D02*
X118876836Y-113803691D01*
X119026202Y-114045688D01*
X119181295Y-114317421D01*
X119319755Y-114577986D01*
X119419223Y-114786479D01*
X119457341Y-114901997D01*
X119454756Y-114911467D01*
X119396714Y-114862983D01*
X119276844Y-114699888D01*
X119118094Y-114454155D01*
X119070411Y-114375908D01*
X118898211Y-114079963D01*
X118758443Y-113821658D01*
X118677322Y-113649815D01*
X118671129Y-113632334D01*
X118617510Y-113463000D01*
X118755554Y-113632334D01*
G36*
X119175617Y-115017395D02*
X119292729Y-115273298D01*
X119362344Y-115474892D01*
X119371323Y-115561031D01*
X119318193Y-115601621D01*
X119272597Y-115547468D01*
X119155751Y-115426569D01*
X118979986Y-115297638D01*
X118834724Y-115189442D01*
X118797036Y-115074723D01*
X118845397Y-114880670D01*
X118851352Y-114862527D01*
X118948257Y-114568721D01*
X119175617Y-115017395D01*
X119175617Y-115017395D01*
G37*
X119175617Y-115017395D02*
X119292729Y-115273298D01*
X119362344Y-115474892D01*
X119371323Y-115561031D01*
X119318193Y-115601621D01*
X119272597Y-115547468D01*
X119155751Y-115426569D01*
X118979986Y-115297638D01*
X118834724Y-115189442D01*
X118797036Y-115074723D01*
X118845397Y-114880670D01*
X118851352Y-114862527D01*
X118948257Y-114568721D01*
X119175617Y-115017395D01*
G36*
X119647334Y-106520334D02*
X119605000Y-106562667D01*
X119562667Y-106520334D01*
X119605000Y-106478000D01*
X119647334Y-106520334D01*
X119647334Y-106520334D01*
G37*
X119647334Y-106520334D02*
X119605000Y-106562667D01*
X119562667Y-106520334D01*
X119605000Y-106478000D01*
X119647334Y-106520334D01*
G36*
X123626667Y-107367000D02*
X123584334Y-107409334D01*
X123542000Y-107367000D01*
X123584334Y-107324667D01*
X123626667Y-107367000D01*
X123626667Y-107367000D01*
G37*
X123626667Y-107367000D02*
X123584334Y-107409334D01*
X123542000Y-107367000D01*
X123584334Y-107324667D01*
X123626667Y-107367000D01*
G36*
X119828263Y-107320647D02*
X120197667Y-107365260D01*
X119837834Y-107392165D01*
X119583110Y-107429611D01*
X119484688Y-107480817D01*
X119532219Y-107529525D01*
X119715353Y-107559475D01*
X119944303Y-107559424D01*
X120228071Y-107532017D01*
X120360003Y-107482607D01*
X120370294Y-107430500D01*
X120348918Y-107331631D01*
X120404086Y-107366566D01*
X120521775Y-107526027D01*
X120527246Y-107534347D01*
X120664634Y-107744027D01*
X120396819Y-107690464D01*
X120213916Y-107671589D01*
X120180762Y-107719677D01*
X120185937Y-107729022D01*
X120159749Y-107807311D01*
X120008602Y-107853336D01*
X119774334Y-107885531D01*
X119986000Y-107980732D01*
X120095791Y-108045640D01*
X120049673Y-108067787D01*
X119856037Y-108045408D01*
X119761449Y-108028000D01*
X119603233Y-107925039D01*
X119471044Y-107727113D01*
X119404582Y-107508038D01*
X119416454Y-107386537D01*
X119513414Y-107317200D01*
X119740603Y-107311574D01*
X119828263Y-107320647D01*
X119828263Y-107320647D01*
G37*
X119828263Y-107320647D02*
X120197667Y-107365260D01*
X119837834Y-107392165D01*
X119583110Y-107429611D01*
X119484688Y-107480817D01*
X119532219Y-107529525D01*
X119715353Y-107559475D01*
X119944303Y-107559424D01*
X120228071Y-107532017D01*
X120360003Y-107482607D01*
X120370294Y-107430500D01*
X120348918Y-107331631D01*
X120404086Y-107366566D01*
X120521775Y-107526027D01*
X120527246Y-107534347D01*
X120664634Y-107744027D01*
X120396819Y-107690464D01*
X120213916Y-107671589D01*
X120180762Y-107719677D01*
X120185937Y-107729022D01*
X120159749Y-107807311D01*
X120008602Y-107853336D01*
X119774334Y-107885531D01*
X119986000Y-107980732D01*
X120095791Y-108045640D01*
X120049673Y-108067787D01*
X119856037Y-108045408D01*
X119761449Y-108028000D01*
X119603233Y-107925039D01*
X119471044Y-107727113D01*
X119404582Y-107508038D01*
X119416454Y-107386537D01*
X119513414Y-107317200D01*
X119740603Y-107311574D01*
X119828263Y-107320647D01*
G36*
X119732000Y-108129000D02*
X119689667Y-108171334D01*
X119647334Y-108129000D01*
X119689667Y-108086667D01*
X119732000Y-108129000D01*
X119732000Y-108129000D01*
G37*
X119732000Y-108129000D02*
X119689667Y-108171334D01*
X119647334Y-108129000D01*
X119689667Y-108086667D01*
X119732000Y-108129000D01*
G36*
X119816667Y-108298334D02*
X119774334Y-108340667D01*
X119732000Y-108298334D01*
X119774334Y-108256000D01*
X119816667Y-108298334D01*
X119816667Y-108298334D01*
G37*
X119816667Y-108298334D02*
X119774334Y-108340667D01*
X119732000Y-108298334D01*
X119774334Y-108256000D01*
X119816667Y-108298334D01*
G36*
X125223116Y-109511144D02*
X125235334Y-109654013D01*
X125169592Y-109961554D01*
X124998510Y-110241306D01*
X124761304Y-110448492D01*
X124497191Y-110538336D01*
X124460270Y-110539000D01*
X124436863Y-110504459D01*
X124537563Y-110429797D01*
X124817962Y-110186516D01*
X124990667Y-109822032D01*
X125025954Y-109670584D01*
X125092146Y-109466836D01*
X125167394Y-109412936D01*
X125223116Y-109511144D01*
X125223116Y-109511144D01*
G37*
X125223116Y-109511144D02*
X125235334Y-109654013D01*
X125169592Y-109961554D01*
X124998510Y-110241306D01*
X124761304Y-110448492D01*
X124497191Y-110538336D01*
X124460270Y-110539000D01*
X124436863Y-110504459D01*
X124537563Y-110429797D01*
X124817962Y-110186516D01*
X124990667Y-109822032D01*
X125025954Y-109670584D01*
X125092146Y-109466836D01*
X125167394Y-109412936D01*
X125223116Y-109511144D01*
G36*
X113646855Y-103907915D02*
X113880896Y-103934976D01*
X114235009Y-103983192D01*
X114685708Y-104049272D01*
X115209507Y-104129922D01*
X115583334Y-104189451D01*
X116173356Y-104284119D01*
X116734204Y-104373203D01*
X117235373Y-104451930D01*
X117646358Y-104515522D01*
X117936655Y-104559205D01*
X118030163Y-104572518D01*
X118487326Y-104634707D01*
X118296093Y-104366145D01*
X118185055Y-104185135D01*
X118145134Y-104066688D01*
X118150372Y-104052072D01*
X118241234Y-104059018D01*
X118475814Y-104100934D01*
X118833142Y-104173397D01*
X119292248Y-104271983D01*
X119832163Y-104392269D01*
X120431917Y-104529832D01*
X120589326Y-104566539D01*
X122982767Y-105126517D01*
X123156550Y-104922143D01*
X123338829Y-104769502D01*
X123552121Y-104671837D01*
X123739942Y-104647586D01*
X123838141Y-104699689D01*
X123958083Y-104771800D01*
X124050157Y-104784667D01*
X124264137Y-104836443D01*
X124508011Y-104964615D01*
X124719114Y-105128446D01*
X124834779Y-105287200D01*
X124837538Y-105296514D01*
X124922133Y-105409243D01*
X125087431Y-105534859D01*
X125275017Y-105638692D01*
X125426477Y-105686074D01*
X125474339Y-105674451D01*
X125471886Y-105583717D01*
X125431215Y-105393767D01*
X125417663Y-105342939D01*
X125374544Y-105133478D01*
X125402005Y-105046488D01*
X125437035Y-105038667D01*
X125540110Y-105065404D01*
X125776379Y-105139799D01*
X126120642Y-105253125D01*
X126547699Y-105396656D01*
X127032351Y-105561667D01*
X127549398Y-105739432D01*
X128073640Y-105921225D01*
X128579876Y-106098320D01*
X129042908Y-106261991D01*
X129437534Y-106403513D01*
X129738556Y-106514159D01*
X129920773Y-106585204D01*
X129963627Y-106606071D01*
X129923096Y-106636089D01*
X129723480Y-106642743D01*
X129373341Y-106626523D01*
X128881237Y-106587921D01*
X128255730Y-106527430D01*
X127860000Y-106485234D01*
X127394182Y-106435481D01*
X126991202Y-106394924D01*
X126679359Y-106366210D01*
X126486949Y-106351985D01*
X126438205Y-106352239D01*
X126455160Y-106433074D01*
X126527726Y-106610322D01*
X126559212Y-106678121D01*
X126638985Y-106883101D01*
X126659154Y-107019379D01*
X126651008Y-107037882D01*
X126558991Y-107033125D01*
X126341054Y-106991597D01*
X126034239Y-106922539D01*
X125675589Y-106835190D01*
X125302145Y-106738792D01*
X124950949Y-106642584D01*
X124659045Y-106555808D01*
X124494500Y-106499917D01*
X124398367Y-106511691D01*
X124394934Y-106645261D01*
X124478926Y-106884315D01*
X124645065Y-107212540D01*
X124820265Y-107507187D01*
X125125751Y-108019794D01*
X125358358Y-108463078D01*
X125508442Y-108816599D01*
X125566360Y-109059917D01*
X125566364Y-109088519D01*
X125542668Y-109111907D01*
X125492982Y-108996929D01*
X125475215Y-108938826D01*
X125405062Y-108765142D01*
X125341624Y-108733447D01*
X125330754Y-108746601D01*
X125251297Y-108759597D01*
X125132954Y-108613391D01*
X125125313Y-108600611D01*
X124982094Y-108414610D01*
X124758636Y-108182661D01*
X124557744Y-108001786D01*
X124340206Y-107806226D01*
X124187522Y-107643321D01*
X124134667Y-107553849D01*
X124171230Y-107510761D01*
X124236267Y-107561734D01*
X124357402Y-107646948D01*
X124440271Y-107654462D01*
X124431549Y-107579556D01*
X124431197Y-107578985D01*
X124372975Y-107430731D01*
X124344643Y-107315886D01*
X124331611Y-107282334D01*
X124472938Y-107282334D01*
X124561503Y-107530413D01*
X124689603Y-107775081D01*
X124848664Y-107977088D01*
X125028031Y-108205744D01*
X125157604Y-108442082D01*
X125237482Y-108592803D01*
X125293645Y-108624453D01*
X125299767Y-108613033D01*
X125278056Y-108490005D01*
X125187260Y-108283022D01*
X125116019Y-108153959D01*
X124936775Y-107874545D01*
X124745666Y-107609691D01*
X124686696Y-107536334D01*
X124472938Y-107282334D01*
X124331611Y-107282334D01*
X124275920Y-107138956D01*
X124150338Y-106934301D01*
X124003390Y-106747755D01*
X123870570Y-106625152D01*
X123794730Y-106605785D01*
X123703128Y-106578535D01*
X123627936Y-106480372D01*
X123592701Y-106344184D01*
X123660113Y-106304772D01*
X123793660Y-106362428D01*
X123923000Y-106478000D01*
X124073299Y-106612409D01*
X124167614Y-106639314D01*
X124176725Y-106552979D01*
X124167457Y-106525994D01*
X124180763Y-106387706D01*
X124187525Y-106370426D01*
X124591537Y-106370426D01*
X124686535Y-106410393D01*
X124903232Y-106481841D01*
X125199711Y-106572616D01*
X125534057Y-106670566D01*
X125864351Y-106763538D01*
X126148679Y-106839380D01*
X126345123Y-106885938D01*
X126399500Y-106894601D01*
X126497916Y-106871395D01*
X126505334Y-106854796D01*
X126470096Y-106755207D01*
X126384059Y-106573926D01*
X126372090Y-106550594D01*
X126294741Y-106365670D01*
X126281092Y-106252775D01*
X126285168Y-106246610D01*
X126380066Y-106240965D01*
X126615795Y-106253338D01*
X126965066Y-106281532D01*
X127400587Y-106323355D01*
X127878586Y-106374748D01*
X128369483Y-106428944D01*
X128798382Y-106474082D01*
X129138572Y-106507533D01*
X129363341Y-106526668D01*
X129445866Y-106529023D01*
X129374989Y-106497994D01*
X129165154Y-106421798D01*
X128838312Y-106308016D01*
X128416412Y-106164232D01*
X127921405Y-105998026D01*
X127583525Y-105885756D01*
X127045396Y-105707596D01*
X126558475Y-105546299D01*
X126146637Y-105409780D01*
X125833756Y-105305954D01*
X125643704Y-105242739D01*
X125598889Y-105227707D01*
X125539980Y-105244920D01*
X125552482Y-105379614D01*
X125577722Y-105474978D01*
X125631958Y-105672163D01*
X125658213Y-105783481D01*
X125658667Y-105788364D01*
X125585786Y-105795410D01*
X125406933Y-105772064D01*
X125372756Y-105765875D01*
X125182865Y-105748442D01*
X125037045Y-105802827D01*
X124872001Y-105957908D01*
X124817203Y-106019343D01*
X124669092Y-106205567D01*
X124592658Y-106337289D01*
X124591537Y-106370426D01*
X124187525Y-106370426D01*
X124266274Y-106169212D01*
X124330169Y-106049154D01*
X124494092Y-106049154D01*
X124505673Y-106054667D01*
X124582939Y-105995063D01*
X124600334Y-105970000D01*
X124621908Y-105890846D01*
X124610327Y-105885334D01*
X124533062Y-105944937D01*
X124515667Y-105970000D01*
X124494092Y-106049154D01*
X124330169Y-106049154D01*
X124339447Y-106031722D01*
X124469129Y-105795154D01*
X124663425Y-105795154D01*
X124675007Y-105800667D01*
X124752272Y-105741063D01*
X124769667Y-105716000D01*
X124791242Y-105636846D01*
X124779660Y-105631334D01*
X124702395Y-105690937D01*
X124685000Y-105716000D01*
X124663425Y-105795154D01*
X124469129Y-105795154D01*
X124487571Y-105761513D01*
X124549085Y-105613900D01*
X124527816Y-105596914D01*
X124427594Y-105718589D01*
X124289507Y-105926952D01*
X124138689Y-106155105D01*
X124046900Y-106253107D01*
X123991527Y-106239163D01*
X123967054Y-106186571D01*
X123900678Y-106087869D01*
X123852854Y-106115838D01*
X123752267Y-106161302D01*
X123597853Y-106159032D01*
X123477404Y-106116616D01*
X123457334Y-106081654D01*
X123488061Y-105989045D01*
X123495682Y-105970000D01*
X123626667Y-105970000D01*
X123657645Y-106039690D01*
X123683111Y-106026445D01*
X123693072Y-105927667D01*
X123965334Y-105927667D01*
X124007667Y-105970000D01*
X124050000Y-105927667D01*
X124007667Y-105885334D01*
X123965334Y-105927667D01*
X123693072Y-105927667D01*
X123693244Y-105925965D01*
X123683111Y-105913556D01*
X123632777Y-105925178D01*
X123626667Y-105970000D01*
X123495682Y-105970000D01*
X123566995Y-105791790D01*
X123581126Y-105758334D01*
X123711334Y-105758334D01*
X123753667Y-105800667D01*
X123796000Y-105758334D01*
X124050000Y-105758334D01*
X124092334Y-105800667D01*
X124134667Y-105758334D01*
X124092334Y-105716000D01*
X124050000Y-105758334D01*
X123796000Y-105758334D01*
X123753667Y-105716000D01*
X123711334Y-105758334D01*
X123581126Y-105758334D01*
X123636370Y-105627543D01*
X123649861Y-105589000D01*
X124134667Y-105589000D01*
X124177000Y-105631334D01*
X124219334Y-105589000D01*
X124177000Y-105546667D01*
X124134667Y-105589000D01*
X123649861Y-105589000D01*
X123679497Y-105504334D01*
X123796000Y-105504334D01*
X123838334Y-105546667D01*
X123880667Y-105504334D01*
X123838334Y-105462000D01*
X123796000Y-105504334D01*
X123679497Y-105504334D01*
X123728065Y-105365582D01*
X123767600Y-105148736D01*
X123759727Y-105066261D01*
X123734762Y-104976378D01*
X123788994Y-105000831D01*
X123877542Y-105078173D01*
X124038842Y-105181875D01*
X124112756Y-105157724D01*
X124070310Y-105033155D01*
X124008137Y-104954519D01*
X123956382Y-104920808D01*
X124179883Y-104920808D01*
X124262137Y-105039186D01*
X124396414Y-105152149D01*
X124465642Y-105155081D01*
X124435386Y-105058942D01*
X124390365Y-104998380D01*
X124261148Y-104890452D01*
X124195844Y-104869334D01*
X124179883Y-104920808D01*
X123956382Y-104920808D01*
X123792998Y-104814389D01*
X123553441Y-104796849D01*
X123350785Y-104901228D01*
X123302500Y-104962245D01*
X123236800Y-105115770D01*
X123244404Y-105192626D01*
X123325541Y-105179303D01*
X123375974Y-105120882D01*
X123439148Y-105046665D01*
X123455882Y-105132151D01*
X123456037Y-105144500D01*
X123498768Y-105270162D01*
X123545569Y-105292667D01*
X123557757Y-105356951D01*
X123493220Y-105521663D01*
X123419947Y-105657588D01*
X123206089Y-106022508D01*
X123371540Y-106601059D01*
X123447272Y-106896893D01*
X123490467Y-107129513D01*
X123492411Y-107251243D01*
X123490925Y-107254144D01*
X123491858Y-107370769D01*
X123546151Y-107583198D01*
X123591382Y-107712340D01*
X123692701Y-107931481D01*
X123772350Y-108012316D01*
X123800027Y-107995485D01*
X123854300Y-108012197D01*
X123932012Y-108168531D01*
X124006801Y-108392984D01*
X124116119Y-108731012D01*
X124240299Y-109060216D01*
X124311810Y-109223195D01*
X124416401Y-109465950D01*
X124426306Y-109580472D01*
X124337313Y-109581667D01*
X124225329Y-109529209D01*
X124115468Y-109478636D01*
X124046381Y-109498289D01*
X123987414Y-109619702D01*
X123916068Y-109847323D01*
X123822074Y-109949120D01*
X123632096Y-110060673D01*
X123585524Y-110081293D01*
X123399877Y-110173688D01*
X123313543Y-110285988D01*
X123288964Y-110481501D01*
X123288000Y-110582812D01*
X123298417Y-110814786D01*
X123338929Y-110911949D01*
X123422099Y-110908560D01*
X123502597Y-110846293D01*
X123457051Y-110795826D01*
X123485537Y-110762130D01*
X123650048Y-110727783D01*
X123917418Y-110699112D01*
X123991350Y-110693897D01*
X124561472Y-110615806D01*
X125020530Y-110456989D01*
X125035898Y-110449456D01*
X125272233Y-110325366D01*
X125391698Y-110222272D01*
X125430058Y-110087849D01*
X125423850Y-109881860D01*
X125428166Y-109620296D01*
X125467270Y-109413304D01*
X125484776Y-109373860D01*
X125530681Y-109340758D01*
X125558240Y-109443333D01*
X125570361Y-109696027D01*
X125571426Y-109804176D01*
X125574000Y-110378684D01*
X125195899Y-110540758D01*
X124895954Y-110647062D01*
X124527085Y-110747905D01*
X124286340Y-110799203D01*
X123770621Y-110915258D01*
X123408009Y-111051258D01*
X123182792Y-111214001D01*
X123118358Y-111304577D01*
X123066338Y-111469400D01*
X123011266Y-111753031D01*
X122962175Y-112105378D01*
X122945280Y-112264245D01*
X122882221Y-112729325D01*
X122784474Y-113241580D01*
X122671698Y-113699807D01*
X122656082Y-113753047D01*
X122554657Y-114102112D01*
X122502264Y-114331254D01*
X122495059Y-114481413D01*
X122529197Y-114593532D01*
X122570563Y-114663618D01*
X122661439Y-114927505D01*
X122684101Y-115327593D01*
X122683505Y-115347238D01*
X122708483Y-116012513D01*
X122831935Y-116544147D01*
X122987630Y-116851773D01*
X123126671Y-117111225D01*
X123249455Y-117429080D01*
X123281732Y-117540677D01*
X123362405Y-117821632D01*
X123479752Y-118188727D01*
X123610537Y-118569725D01*
X123631345Y-118627667D01*
X123767246Y-119023779D01*
X123897204Y-119436855D01*
X123995180Y-119783756D01*
X124002563Y-119813000D01*
X124107010Y-120197808D01*
X124233558Y-120616339D01*
X124301270Y-120821725D01*
X124383829Y-121089858D01*
X124427219Y-121290025D01*
X124424268Y-121372059D01*
X124329596Y-121386462D01*
X124088505Y-121401427D01*
X123723908Y-121416159D01*
X123258713Y-121429860D01*
X122715831Y-121441734D01*
X122175184Y-121450259D01*
X121442947Y-121459396D01*
X120866611Y-121471210D01*
X120432835Y-121494075D01*
X120128282Y-121536366D01*
X119939613Y-121606456D01*
X119853491Y-121712720D01*
X119856577Y-121863532D01*
X119935533Y-122067266D01*
X120077021Y-122332295D01*
X120259690Y-122652856D01*
X120465682Y-123014585D01*
X120621060Y-123250667D01*
X120764527Y-123379314D01*
X120934785Y-123418742D01*
X121170537Y-123387164D01*
X121510487Y-123302794D01*
X121594667Y-123281116D01*
X122337466Y-123173474D01*
X123070723Y-123221228D01*
X123776044Y-123410674D01*
X124435033Y-123728105D01*
X125029297Y-124159817D01*
X125540441Y-124692104D01*
X125950069Y-125311262D01*
X126239788Y-126003585D01*
X126391203Y-126755367D01*
X126400103Y-126861500D01*
X126417542Y-127181883D01*
X126410661Y-127368190D01*
X126374154Y-127454608D01*
X126304801Y-127475334D01*
X126191034Y-127546524D01*
X126166667Y-127673746D01*
X126139522Y-127861418D01*
X126069514Y-128136968D01*
X126001931Y-128350971D01*
X125674948Y-129055898D01*
X125218088Y-129676541D01*
X124653132Y-130193319D01*
X124001860Y-130586654D01*
X123286052Y-130836963D01*
X123220333Y-130851569D01*
X122426444Y-130938362D01*
X121655170Y-130867377D01*
X120925864Y-130649465D01*
X120257879Y-130295478D01*
X119670570Y-129816267D01*
X119183289Y-129222685D01*
X118815390Y-128525582D01*
X118746690Y-128343167D01*
X118651345Y-128089211D01*
X118566061Y-127956825D01*
X118564397Y-127956111D01*
X119751814Y-127956111D01*
X119824176Y-128183103D01*
X119979231Y-128464609D01*
X120195962Y-128770615D01*
X120453357Y-129071112D01*
X120730401Y-129336085D01*
X120976214Y-129517560D01*
X121556317Y-129780281D01*
X122193338Y-129901139D01*
X122849172Y-129878429D01*
X123485715Y-129710447D01*
X123654780Y-129637393D01*
X124129617Y-129337585D01*
X124555020Y-128929029D01*
X124886794Y-128459952D01*
X125037073Y-128128980D01*
X125154510Y-127619407D01*
X125186199Y-127066132D01*
X125133174Y-126533990D01*
X125004705Y-126105793D01*
X124726429Y-125640439D01*
X124337429Y-125195527D01*
X123892179Y-124828691D01*
X123672399Y-124696176D01*
X123447065Y-124588516D01*
X123236072Y-124521644D01*
X122987094Y-124486115D01*
X122647809Y-124472482D01*
X122424596Y-124470920D01*
X122039668Y-124479503D01*
X121735489Y-124504135D01*
X121548316Y-124541255D01*
X121512426Y-124560570D01*
X121510582Y-124671898D01*
X121587981Y-124889464D01*
X121726119Y-125181235D01*
X121906491Y-125515174D01*
X122110593Y-125859249D01*
X122319921Y-126181425D01*
X122515971Y-126449667D01*
X122680239Y-126631940D01*
X122733035Y-126673690D01*
X122957726Y-126902945D01*
X123028543Y-127175752D01*
X122942256Y-127458330D01*
X122822537Y-127609827D01*
X122642068Y-127756863D01*
X122479382Y-127786743D01*
X122372778Y-127762993D01*
X122195989Y-127736110D01*
X121904077Y-127719470D01*
X121534496Y-127712341D01*
X121124698Y-127713990D01*
X120712138Y-127723685D01*
X120334268Y-127740693D01*
X120028542Y-127764281D01*
X119832413Y-127793717D01*
X119783156Y-127813644D01*
X119751814Y-127956111D01*
X118564397Y-127956111D01*
X118448706Y-127906486D01*
X118272794Y-127898667D01*
X118049861Y-127919978D01*
X117959957Y-127992969D01*
X117954000Y-128034134D01*
X117882697Y-128220305D01*
X117699653Y-128428572D01*
X117451168Y-128620223D01*
X117183540Y-128756550D01*
X117045326Y-128793864D01*
X116799172Y-128860854D01*
X116647796Y-128995654D01*
X116568390Y-129138206D01*
X116469618Y-129350189D01*
X116444020Y-129455712D01*
X116495369Y-129502770D01*
X116599334Y-129531866D01*
X116728819Y-129623018D01*
X116768625Y-129828217D01*
X116768667Y-129838074D01*
X116768667Y-130100000D01*
X115329334Y-130100000D01*
X115329334Y-129803667D01*
X115355243Y-129587560D01*
X115440365Y-129508847D01*
X115461018Y-129507334D01*
X115570203Y-129432655D01*
X115708879Y-129230879D01*
X115810532Y-129031530D01*
X115927915Y-128763634D01*
X115977977Y-128589582D01*
X115966860Y-128450651D01*
X115900704Y-128288114D01*
X115890514Y-128266658D01*
X115799568Y-127985668D01*
X115753919Y-127667841D01*
X115752667Y-127616639D01*
X115756317Y-127538360D01*
X115760505Y-127473708D01*
X115755087Y-127412588D01*
X115729920Y-127344905D01*
X115674860Y-127260561D01*
X115579765Y-127149461D01*
X115434490Y-127001509D01*
X115275205Y-126850510D01*
X117674156Y-126850510D01*
X117723841Y-126955669D01*
X117764246Y-127013236D01*
X117983707Y-127185386D01*
X118268431Y-127209944D01*
X118412742Y-127169942D01*
X118491707Y-127094562D01*
X118504474Y-127042105D01*
X119630345Y-127042105D01*
X120422006Y-126993717D01*
X120812836Y-126966218D01*
X121176455Y-126934355D01*
X121453628Y-126903539D01*
X121526352Y-126892831D01*
X121839037Y-126840334D01*
X121314685Y-125931749D01*
X121109029Y-125584756D01*
X120929157Y-125298625D01*
X120793588Y-125101626D01*
X120720842Y-125022030D01*
X120718469Y-125021582D01*
X120567400Y-125092822D01*
X120381373Y-125288708D01*
X120181587Y-125574139D01*
X119989242Y-125914010D01*
X119825536Y-126273218D01*
X119711671Y-126616661D01*
X119686986Y-126729553D01*
X119630345Y-127042105D01*
X118504474Y-127042105D01*
X118533648Y-126922247D01*
X118546632Y-126618416D01*
X118546667Y-126596053D01*
X118624694Y-126022177D01*
X118848635Y-125427772D01*
X119203279Y-124844391D01*
X119632166Y-124344288D01*
X120125230Y-123851224D01*
X119836128Y-123356112D01*
X119680027Y-123094785D01*
X119552031Y-122891306D01*
X119481672Y-122792059D01*
X119422240Y-122832246D01*
X119317631Y-123001646D01*
X119180574Y-123270347D01*
X119023798Y-123608439D01*
X118860032Y-123986009D01*
X118702005Y-124373145D01*
X118562446Y-124739937D01*
X118454083Y-125056472D01*
X118389646Y-125292839D01*
X118377334Y-125387148D01*
X118353420Y-125609412D01*
X118274319Y-125694433D01*
X118246792Y-125697334D01*
X118140803Y-125773531D01*
X118000641Y-125984654D01*
X117866539Y-126253896D01*
X117739342Y-126545370D01*
X117677269Y-126728992D01*
X117674156Y-126850510D01*
X115275205Y-126850510D01*
X115228893Y-126806608D01*
X114952829Y-126554663D01*
X114596156Y-126235577D01*
X114148730Y-125839255D01*
X113600408Y-125355600D01*
X112941046Y-124774517D01*
X112556730Y-124435617D01*
X112239463Y-124162456D01*
X112023892Y-123995569D01*
X111890799Y-123922679D01*
X111820969Y-123931511D01*
X111806103Y-123956061D01*
X111835563Y-124109769D01*
X112006089Y-124354043D01*
X112150045Y-124516174D01*
X112605646Y-125122918D01*
X112935644Y-125818863D01*
X113129634Y-126569101D01*
X113177209Y-127338724D01*
X113129815Y-127803241D01*
X113043877Y-128177392D01*
X112917920Y-128559612D01*
X112768382Y-128914714D01*
X112611700Y-129207511D01*
X112464309Y-129402818D01*
X112353004Y-129466158D01*
X112226359Y-129522022D01*
X112022351Y-129668263D01*
X111782524Y-129874695D01*
X111754125Y-129901308D01*
X111470512Y-130147989D01*
X111175784Y-130370374D01*
X110944203Y-130514387D01*
X110234008Y-130788123D01*
X109476754Y-130920389D01*
X108716188Y-130906381D01*
X108226192Y-130812680D01*
X107526993Y-130548610D01*
X106905522Y-130147041D01*
X106492370Y-129765329D01*
X106086184Y-129285190D01*
X105799029Y-128803155D01*
X105593400Y-128252756D01*
X105549930Y-128095127D01*
X105435521Y-127338066D01*
X105451971Y-127052061D01*
X106468116Y-127052061D01*
X106504212Y-127635707D01*
X106639119Y-128175135D01*
X106703478Y-128329322D01*
X107057877Y-128896299D01*
X107531014Y-129363189D01*
X108094718Y-129706234D01*
X108513667Y-129856183D01*
X108903827Y-129908120D01*
X109375558Y-129896988D01*
X109856372Y-129829995D01*
X110273778Y-129714346D01*
X110376334Y-129670990D01*
X110866957Y-129361698D01*
X111304842Y-128940021D01*
X111644546Y-128454596D01*
X111774293Y-128174811D01*
X111924423Y-127546975D01*
X111928835Y-126888996D01*
X111790324Y-126250359D01*
X111646334Y-125909738D01*
X111504122Y-125652015D01*
X111381042Y-125463167D01*
X111307667Y-125386955D01*
X111240485Y-125447194D01*
X111135422Y-125631618D01*
X111011612Y-125904966D01*
X110969000Y-126010988D01*
X110693689Y-126580198D01*
X110364626Y-127027219D01*
X109996551Y-127335165D01*
X109699000Y-127466017D01*
X109385541Y-127539610D01*
X109179849Y-127546251D01*
X109032182Y-127481150D01*
X108938963Y-127392836D01*
X108840573Y-127261383D01*
X108848199Y-127146767D01*
X108927793Y-127011836D01*
X109123336Y-126834749D01*
X109315231Y-126798000D01*
X109563232Y-126747414D01*
X109789887Y-126584927D01*
X110009195Y-126294450D01*
X110235154Y-125859891D01*
X110339571Y-125620612D01*
X110478581Y-125286456D01*
X110589145Y-125016584D01*
X110657430Y-124845005D01*
X110672667Y-124801616D01*
X110600342Y-124762065D01*
X110412037Y-124682523D01*
X110185834Y-124594465D01*
X109651206Y-124465978D01*
X109054553Y-124441597D01*
X108465711Y-124519190D01*
X108031375Y-124660205D01*
X107591764Y-124927768D01*
X107172594Y-125311550D01*
X106824446Y-125761142D01*
X106693398Y-125993667D01*
X106531091Y-126484584D01*
X106468116Y-127052061D01*
X105451971Y-127052061D01*
X105478379Y-126592941D01*
X105666636Y-125879846D01*
X105988422Y-125218873D01*
X106431869Y-124630115D01*
X106985107Y-124133665D01*
X107636268Y-123749614D01*
X108246983Y-123529437D01*
X108557172Y-123460823D01*
X108848859Y-123418623D01*
X108958167Y-123412338D01*
X109163284Y-123382715D01*
X109232856Y-123287468D01*
X109233334Y-123274720D01*
X109259325Y-123195131D01*
X109364033Y-123169613D01*
X109587556Y-123190452D01*
X109635500Y-123197347D01*
X110019169Y-123278302D01*
X110471658Y-123409876D01*
X110910168Y-123567284D01*
X111011334Y-123609236D01*
X111070708Y-123595986D01*
X111149830Y-123500488D01*
X111257028Y-123306473D01*
X111349241Y-123108183D01*
X112156927Y-123108183D01*
X112212969Y-123204070D01*
X112259751Y-123250847D01*
X112359485Y-123341312D01*
X112569137Y-123528256D01*
X112871424Y-123796382D01*
X113249066Y-124130391D01*
X113684780Y-124514985D01*
X114161285Y-124934865D01*
X114301476Y-125058268D01*
X114888725Y-125571497D01*
X115361867Y-125976594D01*
X115730451Y-126281107D01*
X116004030Y-126492587D01*
X116192153Y-126618581D01*
X116304371Y-126666641D01*
X116333476Y-126664512D01*
X116520747Y-126605349D01*
X116712773Y-126563633D01*
X116886727Y-126496850D01*
X117020632Y-126338496D01*
X117114940Y-126145255D01*
X117221437Y-125892830D01*
X117262434Y-125759146D01*
X117237290Y-125706522D01*
X117145366Y-125697279D01*
X117107334Y-125697334D01*
X116990625Y-125664185D01*
X116943535Y-125534778D01*
X116938000Y-125401000D01*
X116949576Y-125206995D01*
X117017860Y-125123930D01*
X117193189Y-125104799D01*
X117255500Y-125104498D01*
X117573000Y-125104330D01*
X118144545Y-123813332D01*
X118334630Y-123380332D01*
X118497944Y-123001371D01*
X118623096Y-122703449D01*
X118698694Y-122513563D01*
X118716045Y-122458834D01*
X118634460Y-122444518D01*
X118402092Y-122431330D01*
X118037487Y-122419643D01*
X117559196Y-122409830D01*
X116985764Y-122402261D01*
X116335741Y-122397311D01*
X115627675Y-122395351D01*
X115553843Y-122395334D01*
X112391686Y-122395334D01*
X112251427Y-122752399D01*
X112170082Y-122977779D01*
X112156927Y-123108183D01*
X111349241Y-123108183D01*
X111400633Y-122997673D01*
X111588976Y-122557817D01*
X111752512Y-122161721D01*
X111972835Y-121615994D01*
X112132502Y-121200897D01*
X112239072Y-120892077D01*
X112300104Y-120665178D01*
X112323158Y-120495848D01*
X112315793Y-120359729D01*
X112314421Y-120351332D01*
X112321982Y-119910442D01*
X112492183Y-119494480D01*
X112787464Y-119147429D01*
X113113240Y-118918054D01*
X113473249Y-118804656D01*
X113901111Y-118802385D01*
X114430448Y-118906392D01*
X114440334Y-118909001D01*
X115033000Y-119065991D01*
X115012848Y-119389092D01*
X114989519Y-119608281D01*
X114957192Y-119743252D01*
X114949528Y-119755361D01*
X114851820Y-119757014D01*
X114640480Y-119718221D01*
X114399458Y-119657598D01*
X113969194Y-119554280D01*
X113657282Y-119524345D01*
X113428516Y-119569809D01*
X113247691Y-119692683D01*
X113215503Y-119725314D01*
X113093398Y-119886759D01*
X113052143Y-120062497D01*
X113072256Y-120318934D01*
X113086443Y-120602442D01*
X113033029Y-120875758D01*
X112914844Y-121179155D01*
X112804441Y-121433722D01*
X112728322Y-121618652D01*
X112704667Y-121687220D01*
X112786252Y-121694020D01*
X113018695Y-121699194D01*
X113383528Y-121702679D01*
X113862282Y-121704415D01*
X114436490Y-121704339D01*
X115087683Y-121702391D01*
X115797394Y-121698507D01*
X115893799Y-121697852D01*
X116755803Y-121690600D01*
X117461220Y-121681647D01*
X118022791Y-121670489D01*
X118453259Y-121656618D01*
X118765366Y-121639530D01*
X118971853Y-121618718D01*
X119085462Y-121593676D01*
X119118187Y-121569834D01*
X119094426Y-121536274D01*
X118987880Y-121510140D01*
X118783161Y-121490671D01*
X118464880Y-121477105D01*
X118017648Y-121468682D01*
X117426076Y-121464640D01*
X116978331Y-121464000D01*
X116315574Y-121463362D01*
X115803551Y-121460582D01*
X115423662Y-121454359D01*
X115157308Y-121443393D01*
X114985892Y-121426384D01*
X114890815Y-121402032D01*
X114853478Y-121369036D01*
X114855283Y-121326097D01*
X114858842Y-121315834D01*
X114905930Y-121191984D01*
X114913697Y-121171645D01*
X115075334Y-121171645D01*
X115138168Y-121206709D01*
X115325385Y-121129604D01*
X115466601Y-121048223D01*
X115678488Y-120859785D01*
X115781770Y-120590259D01*
X115786996Y-120561706D01*
X115851525Y-120194106D01*
X115899225Y-119965763D01*
X115942293Y-119849107D01*
X115992926Y-119816568D01*
X116063322Y-119840575D01*
X116097939Y-119858868D01*
X116182897Y-119892800D01*
X116231645Y-119860110D01*
X116245679Y-119778969D01*
X119537868Y-119778969D01*
X120121767Y-119753651D01*
X120705667Y-119728334D01*
X120888776Y-119178000D01*
X120995046Y-118876978D01*
X121057666Y-118737401D01*
X121074320Y-118756503D01*
X121042693Y-118931518D01*
X120960468Y-119259680D01*
X120959667Y-119262667D01*
X120891774Y-119518408D01*
X120845967Y-119696306D01*
X120833672Y-119749500D01*
X120903288Y-119767325D01*
X120985067Y-119770667D01*
X121169246Y-119820943D01*
X121233420Y-119866620D01*
X121310236Y-119851350D01*
X121403227Y-119672813D01*
X121510388Y-119336097D01*
X121621850Y-118881667D01*
X121651473Y-118770066D01*
X121664850Y-118820656D01*
X121669512Y-118897298D01*
X121657352Y-119070002D01*
X121616095Y-119349019D01*
X121554499Y-119675614D01*
X121550843Y-119693086D01*
X121495135Y-119995561D01*
X121466823Y-120229518D01*
X121471123Y-120349776D01*
X121474435Y-120354787D01*
X121559249Y-120331892D01*
X121703886Y-120189714D01*
X121885870Y-119956960D01*
X122082727Y-119662336D01*
X122269295Y-119339592D01*
X122413836Y-119080624D01*
X122534244Y-118886654D01*
X122601397Y-118802730D01*
X122638205Y-118845277D01*
X122645132Y-119009159D01*
X122626802Y-119249928D01*
X122587839Y-119523139D01*
X122532867Y-119784345D01*
X122481946Y-119950908D01*
X122415019Y-120159789D01*
X122427766Y-120287815D01*
X122531021Y-120408841D01*
X122551957Y-120428187D01*
X122745477Y-120573017D01*
X123011610Y-120730692D01*
X123315522Y-120885938D01*
X123622382Y-121023478D01*
X123897357Y-121128037D01*
X124105614Y-121184339D01*
X124212320Y-121177109D01*
X124219334Y-121159405D01*
X124192895Y-121064143D01*
X124120961Y-120842593D01*
X124014608Y-120528073D01*
X123888648Y-120164572D01*
X123716324Y-119661165D01*
X123525002Y-119084373D01*
X123343953Y-118523117D01*
X123257322Y-118246667D01*
X123128904Y-117849823D01*
X123004987Y-117500306D01*
X122900147Y-117237275D01*
X122831866Y-117103667D01*
X122756269Y-117012934D01*
X122729488Y-117035920D01*
X122741944Y-117195382D01*
X122753949Y-117288765D01*
X122769974Y-117604643D01*
X122752071Y-117954294D01*
X122740758Y-118043898D01*
X122690344Y-118281034D01*
X122638737Y-118363465D01*
X122591734Y-118305672D01*
X122555133Y-118122141D01*
X122534731Y-117827353D01*
X122533844Y-117527000D01*
X122540969Y-117092610D01*
X122539490Y-116804515D01*
X122527400Y-116639803D01*
X122502690Y-116575565D01*
X122463353Y-116588890D01*
X122452587Y-116599900D01*
X122312200Y-116847618D01*
X122209579Y-117219038D01*
X122152865Y-117671140D01*
X122150199Y-118160903D01*
X122151847Y-118189123D01*
X122171394Y-118523689D01*
X122175915Y-118707273D01*
X122161660Y-118757852D01*
X122124879Y-118693402D01*
X122073772Y-118563365D01*
X121937122Y-118252016D01*
X121798860Y-118077401D01*
X121622351Y-118010578D01*
X121386513Y-118020498D01*
X121047411Y-118129868D01*
X120832667Y-118314784D01*
X120681097Y-118489931D01*
X120455493Y-118746978D01*
X120194774Y-119041668D01*
X120079434Y-119171323D01*
X119537868Y-119778969D01*
X116245679Y-119778969D01*
X116254167Y-119729894D01*
X116260453Y-119471246D01*
X116260667Y-119355309D01*
X116271740Y-119054407D01*
X116300830Y-118824873D01*
X116341741Y-118714691D01*
X116343532Y-118713447D01*
X116437752Y-118745115D01*
X116609524Y-118876101D01*
X116823840Y-119079217D01*
X116851532Y-119107962D01*
X117071608Y-119330709D01*
X117202066Y-119437758D01*
X117263451Y-119442009D01*
X117276667Y-119374904D01*
X117345825Y-119198431D01*
X117523143Y-119118151D01*
X117711928Y-119139453D01*
X117827778Y-119154954D01*
X117862039Y-119082903D01*
X117819420Y-118896114D01*
X117776384Y-118767301D01*
X117676421Y-118589565D01*
X117514602Y-118506375D01*
X117260566Y-118511564D01*
X116910651Y-118591492D01*
X116663339Y-118638536D01*
X116481820Y-118602802D01*
X116374139Y-118541922D01*
X116216612Y-118451904D01*
X116135008Y-118430205D01*
X116134812Y-118430402D01*
X116096721Y-118514978D01*
X116010885Y-118726207D01*
X115889554Y-119032395D01*
X115744977Y-119401845D01*
X115589406Y-119802863D01*
X115435090Y-120203754D01*
X115294280Y-120572821D01*
X115179224Y-120878369D01*
X115102174Y-121088704D01*
X115075334Y-121171645D01*
X114913697Y-121171645D01*
X115002909Y-120938052D01*
X115139056Y-120582069D01*
X115303653Y-120152067D01*
X115475196Y-119704218D01*
X116013379Y-118299611D01*
X116841584Y-118299611D01*
X116954041Y-118314269D01*
X116980334Y-118314828D01*
X117124929Y-118305676D01*
X117137660Y-118279172D01*
X117130112Y-118275798D01*
X116962032Y-118259049D01*
X116876112Y-118272660D01*
X116841584Y-118299611D01*
X116013379Y-118299611D01*
X116035925Y-118240769D01*
X116015446Y-118226425D01*
X116466722Y-118226425D01*
X116549945Y-118239983D01*
X116659759Y-118224416D01*
X116661070Y-118195514D01*
X116547753Y-118175303D01*
X116498792Y-118188830D01*
X116466722Y-118226425D01*
X116015446Y-118226425D01*
X115851962Y-118111917D01*
X115761230Y-118030907D01*
X115706216Y-117917400D01*
X115678245Y-117731424D01*
X115672823Y-117562915D01*
X115780467Y-117562915D01*
X115784922Y-117597425D01*
X115830127Y-117784280D01*
X115837334Y-117859653D01*
X115907177Y-117969668D01*
X116069216Y-118079640D01*
X116252213Y-118145215D01*
X116303000Y-118149586D01*
X116321030Y-118126173D01*
X116279581Y-118105176D01*
X116167133Y-118013289D01*
X116012671Y-117833879D01*
X115952003Y-117752027D01*
X115835248Y-117602191D01*
X115780467Y-117562915D01*
X115672823Y-117562915D01*
X115669465Y-117458560D01*
X116182785Y-117458560D01*
X116230917Y-117613929D01*
X116325759Y-117705619D01*
X116528977Y-117836214D01*
X116792160Y-117980663D01*
X117066894Y-118113913D01*
X117304766Y-118210910D01*
X117453649Y-118246667D01*
X117554892Y-118194013D01*
X117732208Y-118058904D01*
X117865898Y-117943364D01*
X118111022Y-117756794D01*
X118282445Y-117701146D01*
X118368859Y-117778498D01*
X118377090Y-117849497D01*
X118312452Y-117959573D01*
X118154096Y-118098377D01*
X118123334Y-118119667D01*
X117931645Y-118273041D01*
X117890999Y-118401406D01*
X118002460Y-118541861D01*
X118138381Y-118644294D01*
X118326320Y-118760563D01*
X118473398Y-118782526D01*
X118502452Y-118773182D01*
X119566047Y-118773182D01*
X119619971Y-118834356D01*
X119811183Y-118816283D01*
X120132302Y-118711571D01*
X120157908Y-118701425D01*
X120372705Y-118591710D01*
X120535999Y-118434889D01*
X120693348Y-118182476D01*
X120752288Y-118068839D01*
X120880414Y-117792563D01*
X120955840Y-117550066D01*
X120991896Y-117276391D01*
X121001915Y-116906581D01*
X121002000Y-116852081D01*
X121015080Y-116444945D01*
X121054393Y-116204907D01*
X121120044Y-116131759D01*
X121212142Y-116225294D01*
X121268561Y-116335423D01*
X121318236Y-116621401D01*
X121292067Y-116779923D01*
X121249902Y-117007146D01*
X121222688Y-117311536D01*
X121217821Y-117463193D01*
X121222233Y-117722851D01*
X121253499Y-117855379D01*
X121329205Y-117902722D01*
X121404167Y-117907693D01*
X121587724Y-117853474D01*
X121777617Y-117724193D01*
X121909200Y-117570682D01*
X121933334Y-117491592D01*
X121961262Y-117350260D01*
X121986054Y-117276463D01*
X121987314Y-117170149D01*
X121922554Y-117163704D01*
X121831874Y-117111173D01*
X121782838Y-116901231D01*
X121780056Y-116870834D01*
X121744389Y-116666601D01*
X121724800Y-116628418D01*
X121933334Y-116628418D01*
X121952683Y-116798341D01*
X121997087Y-116959230D01*
X122046075Y-117045511D01*
X122063006Y-117043818D01*
X122095497Y-116956998D01*
X122162682Y-116744677D01*
X122252933Y-116444231D01*
X122305783Y-116263293D01*
X122397343Y-115930543D01*
X122461744Y-115664113D01*
X122490289Y-115501845D01*
X122487914Y-115471026D01*
X122447158Y-115524403D01*
X122378936Y-115700178D01*
X122315546Y-115901632D01*
X122221281Y-116164408D01*
X122120024Y-116354018D01*
X122056535Y-116416075D01*
X121953698Y-116529982D01*
X121933334Y-116628418D01*
X121724800Y-116628418D01*
X121688922Y-116558488D01*
X121674223Y-116553334D01*
X121606252Y-116488250D01*
X121603459Y-116342092D01*
X121662199Y-116188501D01*
X121694252Y-116148948D01*
X121827095Y-116097159D01*
X121898303Y-116136061D01*
X121982883Y-116155773D01*
X122043535Y-116031020D01*
X122058012Y-115971235D01*
X122137593Y-115753346D01*
X122278340Y-115480223D01*
X122366203Y-115337831D01*
X122509931Y-115104657D01*
X122563543Y-114954273D01*
X122540283Y-114835342D01*
X122509875Y-114780976D01*
X122408774Y-114646725D01*
X122352716Y-114606000D01*
X122302029Y-114679176D01*
X122218318Y-114869500D01*
X122135071Y-115092834D01*
X122024284Y-115376665D01*
X121906289Y-115555794D01*
X121730390Y-115689170D01*
X121532725Y-115793281D01*
X121159085Y-115995669D01*
X120921334Y-116176915D01*
X120793375Y-116365203D01*
X120749107Y-116588719D01*
X120748000Y-116640755D01*
X120714904Y-116882612D01*
X120632581Y-117050490D01*
X120621000Y-117061334D01*
X120504948Y-117202704D01*
X120540672Y-117293060D01*
X120663334Y-117315334D01*
X120799329Y-117375420D01*
X120827427Y-117528828D01*
X120743773Y-117735284D01*
X120708360Y-117785985D01*
X120620333Y-117888965D01*
X120587381Y-117855350D01*
X120581360Y-117707133D01*
X120565286Y-117546433D01*
X120508133Y-117528228D01*
X120460524Y-117561983D01*
X120361702Y-117710809D01*
X120289594Y-117931366D01*
X120289435Y-117932183D01*
X120167534Y-118196858D01*
X119899578Y-118442658D01*
X119656789Y-118640151D01*
X119566047Y-118773182D01*
X118502452Y-118773182D01*
X118669418Y-118719486D01*
X118708418Y-118703347D01*
X118979706Y-118576776D01*
X119281481Y-118417665D01*
X119360156Y-118372690D01*
X119731402Y-118088911D01*
X119964682Y-117741873D01*
X120021836Y-117590500D01*
X120044639Y-117436612D01*
X119995469Y-117406497D01*
X119905891Y-117489936D01*
X119815270Y-117657372D01*
X119639558Y-117933140D01*
X119401858Y-118113491D01*
X119203270Y-118162000D01*
X119061247Y-118107358D01*
X118852717Y-117966155D01*
X118683473Y-117823334D01*
X118461353Y-117639704D01*
X118268716Y-117516714D01*
X118173654Y-117484667D01*
X118063242Y-117424813D01*
X118056122Y-117354278D01*
X117997629Y-117254095D01*
X117820006Y-117143790D01*
X117571417Y-117039450D01*
X117300025Y-116957162D01*
X117053993Y-116913015D01*
X116881484Y-116923096D01*
X116841521Y-116948567D01*
X116791063Y-117029121D01*
X116836253Y-117070443D01*
X117008312Y-117089672D01*
X117107334Y-117094486D01*
X117284832Y-117153353D01*
X117345949Y-117293351D01*
X117375563Y-117416687D01*
X117447896Y-117434336D01*
X117614917Y-117357880D01*
X117621115Y-117354677D01*
X117801701Y-117278892D01*
X117852666Y-117299684D01*
X117776262Y-117407408D01*
X117574745Y-117592423D01*
X117563331Y-117601946D01*
X117375423Y-117749119D01*
X117239751Y-117800481D01*
X117078862Y-117769098D01*
X116922762Y-117710002D01*
X116694579Y-117637009D01*
X116530450Y-117614389D01*
X116497352Y-117622368D01*
X116392645Y-117602163D01*
X116300060Y-117514312D01*
X116203049Y-117412881D01*
X116182785Y-117458560D01*
X115669465Y-117458560D01*
X115668642Y-117433007D01*
X115668000Y-117264261D01*
X115669563Y-117011945D01*
X115840334Y-117011945D01*
X115849732Y-117276881D01*
X115875506Y-117376106D01*
X115906493Y-117310988D01*
X115931531Y-117082893D01*
X115935564Y-117000275D01*
X115950903Y-116817404D01*
X116001765Y-116689921D01*
X116121673Y-116579527D01*
X116344149Y-116447922D01*
X116485124Y-116372389D01*
X116748684Y-116219474D01*
X116940237Y-116083666D01*
X117021378Y-115992487D01*
X117021953Y-115987690D01*
X116956455Y-115981440D01*
X116781389Y-116051931D01*
X116529951Y-116184845D01*
X116433001Y-116241690D01*
X115843334Y-116595667D01*
X115840334Y-117011945D01*
X115669563Y-117011945D01*
X115670166Y-116914736D01*
X115684821Y-116694209D01*
X115724197Y-116562347D01*
X115800530Y-116478813D01*
X115926051Y-116403275D01*
X115929765Y-116401229D01*
X116387040Y-116137051D01*
X116710448Y-115918615D01*
X116922990Y-115727894D01*
X117047667Y-115546862D01*
X117062828Y-115513257D01*
X117195629Y-115272195D01*
X117353703Y-115078574D01*
X117354344Y-115077992D01*
X117469182Y-114924729D01*
X117521839Y-114701265D01*
X117530667Y-114479000D01*
X117550345Y-114175383D01*
X117620643Y-113980510D01*
X117707842Y-113879236D01*
X117898494Y-113683847D01*
X117975661Y-113515510D01*
X117938677Y-113329913D01*
X117786876Y-113082740D01*
X117693967Y-112956850D01*
X117469020Y-112617509D01*
X117248130Y-112217782D01*
X117115251Y-111929178D01*
X116958005Y-111540986D01*
X117063147Y-111540986D01*
X117105232Y-111677694D01*
X117164111Y-111829843D01*
X117282911Y-112105500D01*
X117405033Y-112349814D01*
X117436774Y-112404667D01*
X117570834Y-112609967D01*
X117727213Y-112831576D01*
X117873099Y-113025234D01*
X117975679Y-113146684D01*
X118001723Y-113166667D01*
X117985053Y-113096384D01*
X117914314Y-112912938D01*
X117815145Y-112679834D01*
X117625294Y-112253450D01*
X117485693Y-111956469D01*
X117381252Y-111762072D01*
X117296880Y-111643444D01*
X117217486Y-111573767D01*
X117180320Y-111551749D01*
X117087557Y-111509618D01*
X117063147Y-111540986D01*
X116958005Y-111540986D01*
X116886996Y-111365689D01*
X116171665Y-111121227D01*
X115868428Y-111021209D01*
X116221784Y-111021209D01*
X116260667Y-111050000D01*
X116429520Y-111105126D01*
X116667062Y-111127552D01*
X116684000Y-111127420D01*
X116862753Y-111117709D01*
X116888253Y-111090308D01*
X116811000Y-111050000D01*
X116599208Y-110994126D01*
X116387667Y-110972581D01*
X116228616Y-110980947D01*
X116221784Y-111021209D01*
X115868428Y-111021209D01*
X115448212Y-110882608D01*
X115250989Y-110824222D01*
X116034889Y-110824222D01*
X116046511Y-110874557D01*
X116091334Y-110880667D01*
X116161024Y-110849689D01*
X116147778Y-110824222D01*
X116047298Y-110814089D01*
X116034889Y-110824222D01*
X115250989Y-110824222D01*
X115087281Y-110775758D01*
X115704722Y-110775758D01*
X115787945Y-110789316D01*
X115897759Y-110773749D01*
X115899070Y-110744847D01*
X115856762Y-110737301D01*
X117090609Y-110737301D01*
X117095469Y-110816725D01*
X117253479Y-110866876D01*
X117490673Y-110880667D01*
X117723477Y-110868618D01*
X117818968Y-110824671D01*
X117816521Y-110756890D01*
X117681251Y-110613573D01*
X117457331Y-110578757D01*
X117246717Y-110636430D01*
X117090609Y-110737301D01*
X115856762Y-110737301D01*
X115785753Y-110724636D01*
X115736792Y-110738163D01*
X115704722Y-110775758D01*
X115087281Y-110775758D01*
X114864753Y-110709881D01*
X114406902Y-110599359D01*
X114060278Y-110547349D01*
X113915047Y-110542279D01*
X113501507Y-110480475D01*
X113089377Y-110302515D01*
X112757442Y-110042862D01*
X112747000Y-110031324D01*
X112547210Y-109863902D01*
X112300586Y-109724092D01*
X112295422Y-109721888D01*
X112125904Y-109659121D01*
X112002473Y-109662087D01*
X111868271Y-109749234D01*
X111686626Y-109919408D01*
X111490273Y-110136892D01*
X111349361Y-110342377D01*
X111311091Y-110431502D01*
X111213425Y-110596686D01*
X111061085Y-110607767D01*
X110943600Y-110525067D01*
X110849591Y-110347789D01*
X110902950Y-110133827D01*
X111011333Y-109972437D01*
X111133989Y-109843214D01*
X111178277Y-109846359D01*
X111136663Y-109960429D01*
X111053684Y-110092949D01*
X110975167Y-110278286D01*
X110978076Y-110408121D01*
X111065155Y-110531795D01*
X111144877Y-110502728D01*
X111180651Y-110334967D01*
X111180667Y-110330334D01*
X111242804Y-110109902D01*
X111340379Y-109982046D01*
X111514922Y-109829781D01*
X111721174Y-109646175D01*
X111733799Y-109634807D01*
X111743677Y-109626617D01*
X112468944Y-109626617D01*
X112474507Y-109654732D01*
X112568406Y-109741169D01*
X112767027Y-109901338D01*
X113029770Y-110106451D01*
X113352876Y-110329190D01*
X113612360Y-110438222D01*
X113770603Y-110457334D01*
X113963485Y-110439634D01*
X114057536Y-110396258D01*
X114059334Y-110388589D01*
X113985211Y-110272146D01*
X113932616Y-110233424D01*
X114313334Y-110233424D01*
X114370188Y-110419161D01*
X114546167Y-110528260D01*
X114747402Y-110579028D01*
X114990229Y-110611047D01*
X115218472Y-110621080D01*
X115375951Y-110605887D01*
X115414000Y-110578286D01*
X115361497Y-110485770D01*
X115294560Y-110410464D01*
X115180742Y-110275467D01*
X115146393Y-110216447D01*
X115052829Y-110161480D01*
X114847490Y-110105971D01*
X114715500Y-110082747D01*
X114474064Y-110052780D01*
X114355797Y-110067220D01*
X114316863Y-110142489D01*
X114313334Y-110233424D01*
X113932616Y-110233424D01*
X113788935Y-110127643D01*
X113509644Y-109978583D01*
X113433746Y-109948025D01*
X115329334Y-109948025D01*
X115355986Y-110193207D01*
X115451962Y-110360018D01*
X115641286Y-110460784D01*
X115947982Y-110507832D01*
X116396077Y-110513488D01*
X116430000Y-110512733D01*
X116730386Y-110499507D01*
X116900667Y-110469307D01*
X116980019Y-110409393D01*
X117005227Y-110325662D01*
X116965038Y-110141940D01*
X116857061Y-109995040D01*
X116725877Y-109810617D01*
X116684000Y-109650461D01*
X116620055Y-109521893D01*
X116959835Y-109521893D01*
X117019153Y-109686850D01*
X117230288Y-110013010D01*
X117527836Y-110222164D01*
X117841075Y-110288000D01*
X118085787Y-110242317D01*
X118185347Y-110110785D01*
X118135368Y-109901676D01*
X118088358Y-109821680D01*
X118004818Y-109662274D01*
X118037726Y-109621543D01*
X118182531Y-109699698D01*
X118329648Y-109810461D01*
X118578297Y-110009414D01*
X118393148Y-110244792D01*
X118267565Y-110437676D01*
X118208629Y-110593637D01*
X118208000Y-110604707D01*
X118262995Y-110715463D01*
X118411433Y-110915700D01*
X118628496Y-111173705D01*
X118809633Y-111373467D01*
X119048738Y-111640356D01*
X119225604Y-111859106D01*
X119320034Y-112003275D01*
X119323958Y-112046792D01*
X119201961Y-112028427D01*
X118993602Y-111948486D01*
X118883453Y-111895708D01*
X118668100Y-111796920D01*
X118522572Y-111750789D01*
X118492278Y-111753500D01*
X118525960Y-111830132D01*
X118648643Y-112001545D01*
X118836890Y-112235903D01*
X118917083Y-112330583D01*
X119123593Y-112579716D01*
X119273444Y-112777120D01*
X119343091Y-112891074D01*
X119343925Y-112905631D01*
X119267554Y-112873243D01*
X119114292Y-112741662D01*
X118914198Y-112542978D01*
X118697330Y-112309282D01*
X118493747Y-112072665D01*
X118333507Y-111865217D01*
X118260069Y-111748500D01*
X118146924Y-111567688D01*
X118049625Y-111476115D01*
X118036493Y-111473334D01*
X117956480Y-111533487D01*
X117969423Y-111687580D01*
X118064092Y-111896063D01*
X118215528Y-112103971D01*
X118363999Y-112302014D01*
X118439967Y-112461821D01*
X118441592Y-112508224D01*
X118475944Y-112630698D01*
X118605760Y-112771643D01*
X118745629Y-112921725D01*
X118903681Y-113145893D01*
X119043478Y-113384974D01*
X119128584Y-113579800D01*
X119139334Y-113638118D01*
X119093032Y-113626633D01*
X118972503Y-113512496D01*
X118805312Y-113328375D01*
X118619026Y-113106941D01*
X118441208Y-112880862D01*
X118299424Y-112682808D01*
X118224905Y-112554364D01*
X118131528Y-112367881D01*
X118081724Y-112331052D01*
X118075243Y-112429969D01*
X118111839Y-112650721D01*
X118191263Y-112979397D01*
X118235330Y-113139239D01*
X118335157Y-113512930D01*
X118392505Y-113811868D01*
X118413637Y-114102634D01*
X118404818Y-114451807D01*
X118386030Y-114741086D01*
X118353326Y-115140973D01*
X118313301Y-115425410D01*
X118250183Y-115648066D01*
X118148198Y-115862612D01*
X117991572Y-116122721D01*
X117969851Y-116157178D01*
X117801083Y-116439316D01*
X117675912Y-116676985D01*
X117617121Y-116826212D01*
X117615334Y-116841383D01*
X117692710Y-116968147D01*
X117919679Y-117029616D01*
X118165667Y-117032240D01*
X118314245Y-117012825D01*
X118397511Y-116945614D01*
X118444334Y-116787312D01*
X118474593Y-116568962D01*
X118522612Y-116254451D01*
X118567203Y-116099972D01*
X118603364Y-116107647D01*
X118626093Y-116279597D01*
X118631334Y-116502513D01*
X118635092Y-116775302D01*
X118659409Y-116917290D01*
X118723845Y-116967004D01*
X118847960Y-116962972D01*
X118864167Y-116961124D01*
X119004889Y-116931457D01*
X119072398Y-116853379D01*
X119089731Y-116699507D01*
X119572060Y-116699507D01*
X119656562Y-116703285D01*
X119843796Y-116623318D01*
X119968206Y-116560375D01*
X120214009Y-116399859D01*
X120385764Y-116224208D01*
X120458854Y-116066626D01*
X120411746Y-115962158D01*
X120427116Y-115890062D01*
X120445320Y-115873474D01*
X120843602Y-115873474D01*
X120943262Y-115842133D01*
X121147895Y-115758208D01*
X121361872Y-115663116D01*
X121596192Y-115549805D01*
X121750360Y-115442787D01*
X121860539Y-115298004D01*
X121962892Y-115071397D01*
X122058968Y-114813869D01*
X122174990Y-114463482D01*
X122247216Y-114144393D01*
X122286100Y-113791576D01*
X122295222Y-113534105D01*
X122423221Y-113534105D01*
X122465412Y-113706884D01*
X122535263Y-113759334D01*
X122609842Y-113705665D01*
X122610767Y-113695834D01*
X122625688Y-113586963D01*
X122664955Y-113358667D01*
X122720476Y-113057717D01*
X122727930Y-113018500D01*
X122777013Y-112723484D01*
X122799510Y-112506017D01*
X122791500Y-112406837D01*
X122787035Y-112404667D01*
X122719575Y-112474012D01*
X122614067Y-112650040D01*
X122555984Y-112764500D01*
X122469514Y-113014532D01*
X122424924Y-113287194D01*
X122423221Y-113534105D01*
X122295222Y-113534105D01*
X122302099Y-113340003D01*
X122302698Y-113298068D01*
X122306510Y-112937123D01*
X122306990Y-112820945D01*
X122357759Y-112820945D01*
X122378903Y-112833693D01*
X122449507Y-112702229D01*
X122572642Y-112420383D01*
X122649078Y-112235334D01*
X122846556Y-111689219D01*
X122953618Y-111211542D01*
X122980589Y-110734634D01*
X122947945Y-110276567D01*
X122894416Y-109922313D01*
X122820330Y-109586406D01*
X122736381Y-109303040D01*
X122724790Y-109275617D01*
X122921473Y-109275617D01*
X122937941Y-109498497D01*
X123031376Y-109714399D01*
X123176798Y-109883303D01*
X123349227Y-109965189D01*
X123523683Y-109920035D01*
X123526416Y-109918015D01*
X123645103Y-109784613D01*
X123757020Y-109604183D01*
X123830093Y-109429934D01*
X123807598Y-109325566D01*
X123750393Y-109269283D01*
X123671543Y-109151551D01*
X123720656Y-109049100D01*
X123731073Y-108968567D01*
X123624940Y-108928790D01*
X123449443Y-108927345D01*
X123251768Y-108961806D01*
X123079101Y-109029749D01*
X123006951Y-109085778D01*
X122921473Y-109275617D01*
X122724790Y-109275617D01*
X122653266Y-109106411D01*
X122581681Y-109030714D01*
X122560979Y-109039466D01*
X122564937Y-109137653D01*
X122634995Y-109320035D01*
X122657546Y-109365458D01*
X122729080Y-109613040D01*
X122767387Y-109985286D01*
X122774199Y-110441172D01*
X122751247Y-110939679D01*
X122700266Y-111439783D01*
X122622988Y-111900462D01*
X122536335Y-112235334D01*
X122447222Y-112515974D01*
X122383149Y-112725996D01*
X122357776Y-112820602D01*
X122357759Y-112820945D01*
X122306990Y-112820945D01*
X122307693Y-112650801D01*
X122306221Y-112473514D01*
X122303352Y-112432815D01*
X122262716Y-112509605D01*
X122168670Y-112694054D01*
X122070420Y-112888881D01*
X121953371Y-113142529D01*
X121923841Y-113268270D01*
X121974854Y-113282263D01*
X122104146Y-113292667D01*
X122159661Y-113439655D01*
X122139291Y-113706393D01*
X122064897Y-114001329D01*
X121775204Y-114719297D01*
X121392874Y-115296659D01*
X121141562Y-115555974D01*
X120960215Y-115726638D01*
X120854692Y-115842053D01*
X120843602Y-115873474D01*
X120445320Y-115873474D01*
X120576838Y-115753636D01*
X120845126Y-115566864D01*
X120890775Y-115537793D01*
X121191437Y-115334048D01*
X121339092Y-115201551D01*
X121335360Y-115143673D01*
X121181866Y-115163787D01*
X120880230Y-115265266D01*
X120778784Y-115304976D01*
X120503952Y-115428136D01*
X120303782Y-115564159D01*
X120125944Y-115758575D01*
X119922879Y-116049659D01*
X119706426Y-116386298D01*
X119589084Y-116598379D01*
X119572060Y-116699507D01*
X119089731Y-116699507D01*
X119092026Y-116679143D01*
X119091688Y-116532303D01*
X119086376Y-116130272D01*
X119275935Y-116308354D01*
X119465494Y-116486435D01*
X119641855Y-116140739D01*
X119746330Y-115844578D01*
X119756489Y-115520009D01*
X119669978Y-115125841D01*
X119566911Y-114828831D01*
X119520762Y-114576755D01*
X119533026Y-114352037D01*
X119597755Y-114169237D01*
X119729668Y-114103405D01*
X119833395Y-114098000D01*
X120082957Y-114098000D01*
X119907479Y-114321085D01*
X119757710Y-114597502D01*
X119744807Y-114842769D01*
X119859128Y-115025368D01*
X120091027Y-115113778D01*
X120151100Y-115117390D01*
X120367000Y-115120780D01*
X120134167Y-115247094D01*
X119970084Y-115374495D01*
X119901336Y-115504150D01*
X119901334Y-115504760D01*
X119933384Y-115604203D01*
X119964834Y-115607281D01*
X120419256Y-115383625D01*
X120778506Y-115171512D01*
X121020940Y-114985285D01*
X121124916Y-114839285D01*
X121125120Y-114838370D01*
X121127245Y-114827044D01*
X121371897Y-114827044D01*
X121413521Y-114859636D01*
X121422285Y-114860000D01*
X121529699Y-114792606D01*
X121547932Y-114754167D01*
X121577454Y-114609465D01*
X121613083Y-114370880D01*
X121626185Y-114267334D01*
X121671821Y-113886334D01*
X121560672Y-114182667D01*
X121439778Y-114516428D01*
X121378751Y-114721931D01*
X121371897Y-114827044D01*
X121127245Y-114827044D01*
X121179745Y-114547236D01*
X121183247Y-114380975D01*
X121134461Y-114302666D01*
X121107834Y-114290228D01*
X121031169Y-114329892D01*
X121002375Y-114524716D01*
X121002000Y-114561608D01*
X120982352Y-114758006D01*
X120930159Y-114822802D01*
X120917334Y-114817667D01*
X120849700Y-114699933D01*
X120832667Y-114575603D01*
X120789343Y-114377555D01*
X120730236Y-114283436D01*
X120677083Y-114173616D01*
X120729026Y-114013364D01*
X120769129Y-113941763D01*
X120858064Y-113759265D01*
X120848476Y-113628676D01*
X120788277Y-113528091D01*
X120717004Y-113394457D01*
X120762014Y-113298948D01*
X120876384Y-113215879D01*
X121028993Y-113064934D01*
X121086667Y-112915712D01*
X121121226Y-112757697D01*
X121161552Y-112707046D01*
X121196111Y-112758601D01*
X121212283Y-112939708D01*
X121207609Y-113188882D01*
X121199887Y-113594574D01*
X121222268Y-113914210D01*
X121271137Y-114119374D01*
X121333992Y-114182667D01*
X121394799Y-114109436D01*
X121473038Y-113924655D01*
X121506134Y-113822834D01*
X121614606Y-113517552D01*
X121757702Y-113183078D01*
X121808939Y-113077324D01*
X121939689Y-112778218D01*
X122039550Y-112478237D01*
X122062826Y-112378824D01*
X122089744Y-112235334D01*
X122356667Y-112235334D01*
X122387645Y-112305024D01*
X122413111Y-112291778D01*
X122423244Y-112191298D01*
X122413111Y-112178889D01*
X122362777Y-112190511D01*
X122356667Y-112235334D01*
X122089744Y-112235334D01*
X122121512Y-112066000D01*
X121815756Y-112066000D01*
X121586106Y-112103564D01*
X121509169Y-112212115D01*
X121586948Y-112385442D01*
X121679334Y-112489334D01*
X121809499Y-112654749D01*
X121847997Y-112780077D01*
X121785167Y-112824080D01*
X121700138Y-112760627D01*
X121555169Y-112603619D01*
X121467667Y-112496447D01*
X121319070Y-112316702D01*
X121195224Y-112224290D01*
X121035452Y-112196654D01*
X120779074Y-112211234D01*
X120715516Y-112216819D01*
X120434509Y-112234541D01*
X120289901Y-112220737D01*
X120250846Y-112170397D01*
X120256712Y-112142286D01*
X120356257Y-112057446D01*
X120566432Y-111972781D01*
X120712529Y-111934810D01*
X121010553Y-111837778D01*
X121152711Y-111715876D01*
X121148604Y-111580214D01*
X121007832Y-111441897D01*
X120739996Y-111312034D01*
X120354698Y-111201732D01*
X120028334Y-111143257D01*
X119797040Y-111104967D01*
X119683684Y-111075070D01*
X119710834Y-111060325D01*
X119857765Y-111002406D01*
X119866263Y-110964221D01*
X120132244Y-110964221D01*
X120147824Y-111036224D01*
X120283515Y-111086512D01*
X120431662Y-111120847D01*
X120801250Y-111190020D01*
X121052365Y-111207610D01*
X121166256Y-111172732D01*
X121171090Y-111155834D01*
X121107418Y-111071016D01*
X120951515Y-110945829D01*
X120922079Y-110925664D01*
X120759973Y-110788993D01*
X120741887Y-110682125D01*
X120760278Y-110654206D01*
X120810482Y-110540169D01*
X120751025Y-110416852D01*
X120563963Y-110254399D01*
X120485763Y-110197468D01*
X120288478Y-110056989D01*
X121009647Y-110056989D01*
X121106220Y-110112736D01*
X121184456Y-110118667D01*
X121308598Y-110128328D01*
X121301323Y-110186043D01*
X121217245Y-110284046D01*
X121138021Y-110386103D01*
X121119401Y-110487889D01*
X121167255Y-110639405D01*
X121287455Y-110890658D01*
X121288790Y-110893336D01*
X121411706Y-111179233D01*
X121492024Y-111441315D01*
X121510000Y-111568416D01*
X121577605Y-111761535D01*
X121741826Y-111872954D01*
X121944776Y-111890266D01*
X122128565Y-111801065D01*
X122193940Y-111714988D01*
X122266129Y-111428713D01*
X122243985Y-111067355D01*
X122137665Y-110689081D01*
X121957330Y-110352055D01*
X121955442Y-110349442D01*
X121737387Y-110072460D01*
X121562222Y-109921552D01*
X121392763Y-109873588D01*
X121226771Y-109896146D01*
X121052181Y-109972436D01*
X121009647Y-110056989D01*
X120288478Y-110056989D01*
X120228647Y-110014386D01*
X120286150Y-110320900D01*
X120293960Y-110629629D01*
X120208322Y-110833954D01*
X120132244Y-110964221D01*
X119866263Y-110964221D01*
X119886633Y-110872699D01*
X119813388Y-110702924D01*
X119653980Y-110524803D01*
X119424359Y-110370058D01*
X119345338Y-110333424D01*
X119118239Y-110190656D01*
X119054667Y-110041299D01*
X118995354Y-109875014D01*
X118858862Y-109767347D01*
X118707362Y-109757003D01*
X118653601Y-109791599D01*
X118558211Y-109802882D01*
X118435627Y-109659490D01*
X118414971Y-109625517D01*
X118251770Y-109420991D01*
X118066831Y-109280982D01*
X118063023Y-109279215D01*
X117782844Y-109204796D01*
X117463295Y-109194329D01*
X117181299Y-109245979D01*
X117066208Y-109302980D01*
X116965877Y-109401026D01*
X116959835Y-109521893D01*
X116620055Y-109521893D01*
X116605174Y-109491974D01*
X116370943Y-109393679D01*
X115984680Y-109356912D01*
X115943383Y-109356667D01*
X115799366Y-109370244D01*
X115800048Y-109434719D01*
X115848133Y-109498349D01*
X115915067Y-109597888D01*
X115853303Y-109609303D01*
X115765667Y-109588807D01*
X115518295Y-109565692D01*
X115379170Y-109664962D01*
X115330063Y-109901626D01*
X115329334Y-109948025D01*
X113433746Y-109948025D01*
X113186477Y-109848471D01*
X113128000Y-109829297D01*
X112850040Y-109741379D01*
X112626319Y-109670422D01*
X112535334Y-109641414D01*
X112468944Y-109626617D01*
X111743677Y-109626617D01*
X111870821Y-109521201D01*
X111993435Y-109469047D01*
X112158144Y-109470496D01*
X112421447Y-109517701D01*
X112484254Y-109530572D01*
X112784493Y-109576444D01*
X113194713Y-109617774D01*
X113655563Y-109649383D01*
X114012726Y-109663976D01*
X114447926Y-109673078D01*
X114746739Y-109670326D01*
X114941923Y-109651845D01*
X115066236Y-109613762D01*
X115152438Y-109552201D01*
X115178042Y-109526139D01*
X115262308Y-109422094D01*
X115254969Y-109347061D01*
X115133426Y-109262119D01*
X114977391Y-109180561D01*
X114729044Y-109071155D01*
X114535313Y-109045823D01*
X114310783Y-109093428D01*
X114310252Y-109093587D01*
X113917017Y-109168918D01*
X113519377Y-109174640D01*
X113180616Y-109112857D01*
X113043334Y-109051485D01*
X112939265Y-108975734D01*
X112966219Y-108963178D01*
X112978802Y-108966766D01*
X113295107Y-109033590D01*
X113656907Y-109066667D01*
X113989761Y-109062182D01*
X114186334Y-109028623D01*
X114306723Y-108984445D01*
X114307085Y-108958947D01*
X114170131Y-108946149D01*
X113932334Y-108940783D01*
X113602672Y-108920976D01*
X113186282Y-108874880D01*
X112762035Y-108811572D01*
X112674037Y-108795971D01*
X112300336Y-108731636D01*
X112037925Y-108702735D01*
X111832551Y-108709061D01*
X111629966Y-108750410D01*
X111488704Y-108791479D01*
X110902611Y-108964897D01*
X110387570Y-109105393D01*
X109968368Y-109206788D01*
X109669796Y-109262902D01*
X109559892Y-109272268D01*
X109377075Y-109312221D01*
X109290559Y-109390723D01*
X109282649Y-109533133D01*
X109410223Y-109596539D01*
X109564945Y-109600650D01*
X109704042Y-109590723D01*
X109692662Y-109570342D01*
X109529667Y-109526000D01*
X109436606Y-109492231D01*
X109481903Y-109469851D01*
X109677295Y-109456388D01*
X109883988Y-109451351D01*
X110224095Y-109458469D01*
X110526898Y-109486795D01*
X110723630Y-109529281D01*
X110919779Y-109574660D01*
X111013693Y-109522182D01*
X111081864Y-109490302D01*
X111123894Y-109561235D01*
X111116726Y-109675490D01*
X111049451Y-109695333D01*
X110908464Y-109732707D01*
X110678678Y-109828950D01*
X110496483Y-109918641D01*
X110224635Y-110045642D01*
X110057572Y-110081483D01*
X109973108Y-110045641D01*
X109903666Y-110010015D01*
X110088585Y-110010015D01*
X110173422Y-109992251D01*
X110189485Y-109986223D01*
X110293163Y-109919151D01*
X110293907Y-109881018D01*
X110204342Y-109890515D01*
X110142089Y-109938827D01*
X110088585Y-110010015D01*
X109903666Y-110010015D01*
X109809087Y-109961493D01*
X109721743Y-109949333D01*
X109566269Y-109888559D01*
X109525693Y-109832944D01*
X109729584Y-109832944D01*
X109842041Y-109847603D01*
X109868334Y-109848161D01*
X110012929Y-109839010D01*
X110025660Y-109812505D01*
X110018112Y-109809131D01*
X109850032Y-109792382D01*
X109764112Y-109805994D01*
X109729584Y-109832944D01*
X109525693Y-109832944D01*
X109517951Y-109822333D01*
X109420786Y-109709985D01*
X109368208Y-109695333D01*
X109222896Y-109640660D01*
X109169563Y-109597696D01*
X109113876Y-109450715D01*
X109185948Y-109303817D01*
X109351007Y-109204601D01*
X109469146Y-109187602D01*
X109704792Y-109158220D01*
X110098147Y-109069866D01*
X110648272Y-108922774D01*
X111354231Y-108717177D01*
X111365909Y-108713677D01*
X111760423Y-108622722D01*
X112137950Y-108605136D01*
X112565570Y-108661208D01*
X112831667Y-108719973D01*
X113207606Y-108788232D01*
X113637588Y-108834081D01*
X113908753Y-108845651D01*
X114382454Y-108881508D01*
X114804801Y-108998287D01*
X114967086Y-109065368D01*
X115224606Y-109170871D01*
X115445843Y-109231249D01*
X115689585Y-109254646D01*
X116014622Y-109249202D01*
X116218334Y-109238646D01*
X116637037Y-109211641D01*
X117061457Y-109179117D01*
X117413065Y-109147199D01*
X117474519Y-109140683D01*
X117763436Y-109116604D01*
X117955688Y-109136165D01*
X118122027Y-109217597D01*
X118301834Y-109353853D01*
X118598196Y-109545302D01*
X118844980Y-109596824D01*
X118865982Y-109594949D01*
X119046487Y-109540236D01*
X119088771Y-109458436D01*
X118984636Y-109387724D01*
X118913659Y-109372883D01*
X118727047Y-109279775D01*
X118666821Y-109103954D01*
X118719908Y-108947224D01*
X118779574Y-108866108D01*
X118773949Y-108932247D01*
X118758932Y-108989708D01*
X118756052Y-109157240D01*
X118802856Y-109231020D01*
X118916026Y-109261975D01*
X118932321Y-109158071D01*
X118851392Y-108923576D01*
X118831566Y-108878985D01*
X118806159Y-108810958D01*
X119081480Y-108810958D01*
X119172240Y-108798235D01*
X119286622Y-108797142D01*
X119308667Y-108839608D01*
X119382198Y-108905400D01*
X119559379Y-108933326D01*
X119562667Y-108933334D01*
X119741009Y-108957858D01*
X119816647Y-109016947D01*
X119816667Y-109018000D01*
X119753346Y-109083193D01*
X119714963Y-109081500D01*
X119623866Y-109138823D01*
X119527097Y-109307408D01*
X119508075Y-109356667D01*
X119402891Y-109653000D01*
X119398112Y-109328445D01*
X119372701Y-109103793D01*
X119303641Y-109036313D01*
X119287500Y-109039911D01*
X119224269Y-109141281D01*
X119199302Y-109351972D01*
X119208457Y-109617369D01*
X119247591Y-109882855D01*
X119312562Y-110093815D01*
X119374137Y-110182167D01*
X119527839Y-110268343D01*
X119600016Y-110283559D01*
X119607094Y-110241009D01*
X119499167Y-110146232D01*
X119359357Y-109984900D01*
X119318488Y-109833173D01*
X119331595Y-109719022D01*
X119357531Y-109767214D01*
X119367777Y-109805046D01*
X119442082Y-109961018D01*
X119563091Y-110114594D01*
X119689934Y-110225705D01*
X119781741Y-110254285D01*
X119800741Y-110229521D01*
X119797536Y-110210538D01*
X119905201Y-110210538D01*
X119914119Y-110455731D01*
X119957971Y-110702686D01*
X120006026Y-110842090D01*
X120063881Y-110829515D01*
X120126149Y-110750003D01*
X120218065Y-110578679D01*
X120240000Y-110483485D01*
X120188576Y-110381617D01*
X120155334Y-110372667D01*
X120091688Y-110300211D01*
X120070667Y-110161000D01*
X120041684Y-110001885D01*
X119986000Y-109949334D01*
X119929833Y-110023669D01*
X119905201Y-110210538D01*
X119797536Y-110210538D01*
X119777306Y-110090728D01*
X119692987Y-109923950D01*
X119616190Y-109733037D01*
X119619110Y-109638889D01*
X119760222Y-109638889D01*
X119771845Y-109689223D01*
X119816667Y-109695334D01*
X119886357Y-109664355D01*
X119873111Y-109638889D01*
X119772632Y-109628756D01*
X119760222Y-109638889D01*
X119619110Y-109638889D01*
X119621405Y-109564948D01*
X119698132Y-109471256D01*
X119784243Y-109475754D01*
X119881061Y-109482566D01*
X119890292Y-109459453D01*
X119889988Y-109434679D01*
X120004118Y-109434679D01*
X120064371Y-109541154D01*
X120197667Y-109658899D01*
X120417646Y-109818732D01*
X120528275Y-109853508D01*
X120533453Y-109764059D01*
X120520869Y-109727896D01*
X120511372Y-109634752D01*
X120615048Y-109633139D01*
X120671692Y-109647614D01*
X120811867Y-109681691D01*
X120802096Y-109648333D01*
X120706644Y-109569787D01*
X120629859Y-109526000D01*
X121394854Y-109526000D01*
X121760261Y-109838775D01*
X122092440Y-110185507D01*
X122306346Y-110573297D01*
X122419235Y-111043161D01*
X122447979Y-111473334D01*
X122454656Y-111786295D01*
X122465027Y-111945557D01*
X122483943Y-111966751D01*
X122516257Y-111865505D01*
X122539964Y-111769667D01*
X122576402Y-111437036D01*
X122556664Y-110965288D01*
X122519877Y-110626667D01*
X122449011Y-110169842D01*
X122360257Y-109856903D01*
X122235569Y-109662403D01*
X122056902Y-109560896D01*
X121806212Y-109526934D01*
X121739381Y-109526000D01*
X121394854Y-109526000D01*
X120629859Y-109526000D01*
X120566314Y-109489764D01*
X120504875Y-109535709D01*
X120439403Y-109552647D01*
X120321210Y-109437071D01*
X120317969Y-109432806D01*
X120195559Y-109300764D01*
X120102625Y-109300588D01*
X120054071Y-109341820D01*
X120004118Y-109434679D01*
X119889988Y-109434679D01*
X119887958Y-109269405D01*
X119931991Y-109152121D01*
X119986000Y-109145000D01*
X120046144Y-109112119D01*
X120047914Y-109100262D01*
X120176416Y-109100262D01*
X120247364Y-109231995D01*
X120280252Y-109269701D01*
X120413669Y-109382340D01*
X120525948Y-109364121D01*
X120565438Y-109335201D01*
X120650969Y-109281773D01*
X120637136Y-109327604D01*
X120642401Y-109392815D01*
X120747883Y-109381229D01*
X120885510Y-109298328D01*
X120917334Y-109224789D01*
X120872968Y-109096150D01*
X121311459Y-109096150D01*
X121430565Y-109191203D01*
X121467667Y-109212313D01*
X121692483Y-109321799D01*
X121795744Y-109345560D01*
X121767681Y-109285321D01*
X121647605Y-109180549D01*
X121488966Y-109083754D01*
X121853991Y-109083754D01*
X121930250Y-109101084D01*
X121949503Y-109101370D01*
X122102590Y-109058227D01*
X122145000Y-109018000D01*
X122151832Y-108943208D01*
X122050875Y-108955639D01*
X121933334Y-109018000D01*
X121853991Y-109083754D01*
X121488966Y-109083754D01*
X121465796Y-109069617D01*
X121326019Y-109037664D01*
X121318687Y-109039585D01*
X121311459Y-109096150D01*
X120872968Y-109096150D01*
X120872153Y-109093788D01*
X120779560Y-109059994D01*
X120715250Y-109123306D01*
X120686444Y-109122156D01*
X120673928Y-108986452D01*
X120674263Y-108933334D01*
X120678145Y-108605029D01*
X120666519Y-108424289D01*
X120630276Y-108369468D01*
X120560308Y-108418916D01*
X120491183Y-108498213D01*
X120362305Y-108682110D01*
X120331379Y-108789131D01*
X120395940Y-108795701D01*
X120513708Y-108713622D01*
X120627930Y-108622973D01*
X120627760Y-108647070D01*
X120591379Y-108696437D01*
X120521894Y-108907205D01*
X120538095Y-109035104D01*
X120573776Y-109169345D01*
X120541896Y-109156407D01*
X120466123Y-109060334D01*
X120349105Y-108949184D01*
X120248891Y-108978045D01*
X120230767Y-108994833D01*
X120176416Y-109100262D01*
X120047914Y-109100262D01*
X120070643Y-108948005D01*
X120070667Y-108941309D01*
X120016249Y-108712548D01*
X119881581Y-108572412D01*
X119709540Y-108548665D01*
X119581288Y-108624426D01*
X119498324Y-108719871D01*
X119550638Y-108730001D01*
X119612333Y-108716257D01*
X119765393Y-108717347D01*
X119913261Y-108767314D01*
X119993379Y-108838538D01*
X119982974Y-108879915D01*
X119881577Y-108890933D01*
X119684895Y-108865510D01*
X119646760Y-108857850D01*
X119428207Y-108778157D01*
X119362369Y-108658967D01*
X119362759Y-108652665D01*
X119316718Y-108531241D01*
X119256926Y-108510000D01*
X119150136Y-108530627D01*
X119139334Y-108545409D01*
X119112984Y-108644893D01*
X119087573Y-108715702D01*
X119081480Y-108810958D01*
X118806159Y-108810958D01*
X118753350Y-108669567D01*
X118713602Y-108489619D01*
X118755531Y-108489619D01*
X118771558Y-108531397D01*
X118840673Y-108551989D01*
X118893988Y-108462047D01*
X118946599Y-108366283D01*
X118965346Y-108383000D01*
X118999302Y-108405187D01*
X119062339Y-108325978D01*
X119119669Y-108200803D01*
X119138037Y-108107834D01*
X119071106Y-108014158D01*
X119012334Y-108002000D01*
X118908402Y-108072177D01*
X118885334Y-108166337D01*
X118845786Y-108328875D01*
X118799286Y-108383854D01*
X118755531Y-108489619D01*
X118713602Y-108489619D01*
X118697947Y-108418747D01*
X118660147Y-108089206D01*
X118636920Y-107681843D01*
X118722684Y-107681843D01*
X118740289Y-107744897D01*
X118772025Y-107684646D01*
X118883794Y-107616367D01*
X119040507Y-107626490D01*
X119185652Y-107650925D01*
X119181396Y-107623021D01*
X119113024Y-107576926D01*
X118929901Y-107519001D01*
X118779090Y-107560220D01*
X118722684Y-107681843D01*
X118636920Y-107681843D01*
X118634740Y-107643625D01*
X118626400Y-107409334D01*
X118628202Y-107372370D01*
X118631334Y-107372370D01*
X118653241Y-107466275D01*
X118744611Y-107420559D01*
X118758334Y-107409334D01*
X118862004Y-107276841D01*
X118878649Y-107208467D01*
X118853430Y-107173224D01*
X118829085Y-107219361D01*
X118745843Y-107288056D01*
X118708769Y-107277864D01*
X118643732Y-107303003D01*
X118631334Y-107372370D01*
X118628202Y-107372370D01*
X118644771Y-107032576D01*
X118715261Y-106696838D01*
X118733532Y-106652948D01*
X118813829Y-106652948D01*
X118837077Y-106782082D01*
X118887696Y-106861847D01*
X118993073Y-106972897D01*
X119009041Y-106942292D01*
X118940868Y-106777101D01*
X118862414Y-106653718D01*
X118813829Y-106652948D01*
X118733532Y-106652948D01*
X118752760Y-106606761D01*
X118969506Y-106606761D01*
X119014865Y-106747178D01*
X119026445Y-106760222D01*
X119090771Y-106808588D01*
X119127943Y-106754369D01*
X119160056Y-106605000D01*
X119156439Y-106433379D01*
X119085259Y-106393334D01*
X118997473Y-106460731D01*
X118969506Y-106606761D01*
X118752760Y-106606761D01*
X118824534Y-106434359D01*
X118959254Y-106277379D01*
X119103105Y-106256960D01*
X119247163Y-106244413D01*
X119287927Y-106224000D01*
X119435667Y-106224000D01*
X119439537Y-106302144D01*
X119468007Y-106308667D01*
X119587698Y-106246881D01*
X119605000Y-106224000D01*
X119601130Y-106145857D01*
X119572660Y-106139334D01*
X119452969Y-106201119D01*
X119435667Y-106224000D01*
X119287927Y-106224000D01*
X119362447Y-106186684D01*
X119578045Y-106069714D01*
X119711751Y-106017742D01*
X119841894Y-105988901D01*
X119857084Y-106047856D01*
X119805203Y-106173015D01*
X119718834Y-106318794D01*
X119656120Y-106358286D01*
X119546181Y-106361840D01*
X119414500Y-106400546D01*
X119258684Y-106532186D01*
X119235254Y-106724309D01*
X119329834Y-106896821D01*
X119392562Y-106975056D01*
X119330797Y-106951331D01*
X119324200Y-106947609D01*
X119187302Y-106956062D01*
X119094060Y-107041022D01*
X118983416Y-107250307D01*
X119024882Y-107391240D01*
X119139334Y-107451667D01*
X119249303Y-107522446D01*
X119299178Y-107674164D01*
X119308667Y-107880706D01*
X119326762Y-108107172D01*
X119372649Y-108240460D01*
X119398330Y-108256000D01*
X119456628Y-108298956D01*
X119448788Y-108319500D01*
X119489648Y-108370923D01*
X119619739Y-108395622D01*
X119830060Y-108461948D01*
X120034948Y-108600881D01*
X120240000Y-108793517D01*
X120240000Y-108611377D01*
X120306461Y-108434168D01*
X120446110Y-108294189D01*
X120470777Y-108265218D01*
X120832667Y-108265218D01*
X120886797Y-108424378D01*
X121006145Y-108558794D01*
X121094542Y-108594667D01*
X121171173Y-108527431D01*
X121204608Y-108460742D01*
X121255723Y-108224864D01*
X121218912Y-108057283D01*
X121119130Y-108002000D01*
X121024821Y-108044744D01*
X121020193Y-108197711D01*
X121026461Y-108233223D01*
X121050346Y-108387177D01*
X121021179Y-108391236D01*
X120951664Y-108301708D01*
X120862127Y-108203561D01*
X120832981Y-108249642D01*
X120832667Y-108265218D01*
X120470777Y-108265218D01*
X120603930Y-108108838D01*
X120676466Y-107932221D01*
X120854652Y-107932221D01*
X120996242Y-107945863D01*
X121085691Y-107935537D01*
X121289187Y-107938183D01*
X121393198Y-108038366D01*
X121400690Y-108056034D01*
X121452068Y-108167791D01*
X121480675Y-108120900D01*
X121494467Y-108055493D01*
X121468050Y-107891821D01*
X121611643Y-107891821D01*
X121644066Y-108032215D01*
X121755127Y-108152242D01*
X121828514Y-108171334D01*
X121906047Y-108152403D01*
X121866535Y-108071512D01*
X121805864Y-108001481D01*
X121667735Y-107877376D01*
X121611643Y-107891821D01*
X121468050Y-107891821D01*
X121464757Y-107871423D01*
X121393634Y-107764682D01*
X121273146Y-107679973D01*
X121136254Y-107702438D01*
X121046832Y-107746663D01*
X120870940Y-107863025D01*
X120854652Y-107932221D01*
X120676466Y-107932221D01*
X120722740Y-107819553D01*
X120767316Y-107577056D01*
X120840024Y-107577056D01*
X120899637Y-107643234D01*
X121065500Y-107627878D01*
X121282581Y-107619426D01*
X121425334Y-107662187D01*
X121600402Y-107739779D01*
X121706731Y-107719492D01*
X121709951Y-107621000D01*
X121597803Y-107526585D01*
X121433208Y-107494000D01*
X121222819Y-107456970D01*
X121100075Y-107388875D01*
X120994718Y-107331240D01*
X120915104Y-107410041D01*
X120840024Y-107577056D01*
X120767316Y-107577056D01*
X120783212Y-107490584D01*
X120771535Y-107212382D01*
X120721151Y-107079648D01*
X120603377Y-107017800D01*
X120380412Y-106998926D01*
X119979171Y-106987350D01*
X119723151Y-106974631D01*
X119588274Y-106955996D01*
X119550466Y-106926673D01*
X119585652Y-106881890D01*
X119626635Y-106849518D01*
X119719739Y-106762553D01*
X119672742Y-106731515D01*
X119647334Y-106729326D01*
X119610014Y-106700595D01*
X119710834Y-106644695D01*
X119858177Y-106537737D01*
X119901334Y-106438395D01*
X119942601Y-106323930D01*
X119979075Y-106308667D01*
X120119403Y-106280735D01*
X120200592Y-106253495D01*
X120295960Y-106232989D01*
X120282742Y-106310120D01*
X120247322Y-106379653D01*
X120136874Y-106511554D01*
X120050821Y-106540658D01*
X119963590Y-106583680D01*
X119946400Y-106716784D01*
X120006881Y-106872638D01*
X120012339Y-106880167D01*
X120132088Y-106954237D01*
X120300954Y-106984244D01*
X120445380Y-106965690D01*
X120494000Y-106909616D01*
X120422807Y-106831899D01*
X120250426Y-106748386D01*
X120240000Y-106744687D01*
X120064579Y-106670520D01*
X120021508Y-106638155D01*
X120324667Y-106638155D01*
X120378408Y-106727692D01*
X120401323Y-106732000D01*
X120504342Y-106782438D01*
X120687383Y-106912113D01*
X120832667Y-107028334D01*
X121054422Y-107198550D01*
X121223017Y-107301046D01*
X121314701Y-107326184D01*
X121305722Y-107264324D01*
X121259078Y-107201376D01*
X121201307Y-107041276D01*
X121281232Y-106925349D01*
X121387997Y-106901334D01*
X121483731Y-106977249D01*
X121510000Y-107149125D01*
X121570647Y-107362961D01*
X121736853Y-107451215D01*
X121915822Y-107425580D01*
X121975700Y-107369040D01*
X121905060Y-107255668D01*
X121894655Y-107244039D01*
X121790663Y-107095021D01*
X121764000Y-107013622D01*
X121706883Y-106897911D01*
X121592815Y-106772658D01*
X121469208Y-106677662D01*
X121353957Y-106665915D01*
X121175313Y-106735404D01*
X121124276Y-106759535D01*
X120883917Y-106866911D01*
X120776138Y-106892204D01*
X120785780Y-106836081D01*
X120834365Y-106772287D01*
X120938977Y-106684665D01*
X120982864Y-106684642D01*
X121080286Y-106683213D01*
X121185664Y-106639664D01*
X121425082Y-106589885D01*
X121642721Y-106707544D01*
X121812171Y-106943511D01*
X121999054Y-107181626D01*
X122219275Y-107323115D01*
X122397528Y-107377431D01*
X122485763Y-107389264D01*
X122486558Y-107388549D01*
X122437403Y-107326102D01*
X122291242Y-107180986D01*
X122077951Y-106982666D01*
X122042202Y-106950320D01*
X121711218Y-106687534D01*
X121409367Y-106513742D01*
X121269874Y-106466098D01*
X121115848Y-106429657D01*
X121106245Y-106415867D01*
X121250531Y-106422319D01*
X121397742Y-106433529D01*
X121729020Y-106434794D01*
X121911225Y-106374977D01*
X121924856Y-106361215D01*
X121953822Y-106289742D01*
X121850390Y-106279537D01*
X121775601Y-106288904D01*
X121525881Y-106265211D01*
X121402701Y-106189273D01*
X121179859Y-106066820D01*
X120925693Y-106108375D01*
X120689221Y-106273164D01*
X120562786Y-106398274D01*
X120532422Y-106448279D01*
X120548628Y-106442984D01*
X120656612Y-106464299D01*
X120694540Y-106521867D01*
X120697071Y-106608010D01*
X120581946Y-106607990D01*
X120534078Y-106596869D01*
X120369471Y-106586713D01*
X120324667Y-106638155D01*
X120021508Y-106638155D01*
X119986275Y-106611680D01*
X119986000Y-106609404D01*
X120044908Y-106581199D01*
X120055232Y-106583833D01*
X120148852Y-106544336D01*
X120314418Y-106427986D01*
X120502161Y-106275656D01*
X120662312Y-106128216D01*
X120745101Y-106026540D01*
X120748000Y-106014920D01*
X120673091Y-105983187D01*
X120487385Y-105960865D01*
X120430500Y-105957986D01*
X120113000Y-105945971D01*
X120451667Y-105891130D01*
X120692195Y-105873813D01*
X120868662Y-105898981D01*
X120895089Y-105912617D01*
X121057834Y-105951539D01*
X121140702Y-105934892D01*
X121311606Y-105953352D01*
X121446054Y-106057403D01*
X121628581Y-106184381D01*
X121856608Y-106179923D01*
X122036359Y-106161737D01*
X122100273Y-106225219D01*
X122102667Y-106256627D01*
X122035030Y-106393628D01*
X121917320Y-106486570D01*
X121809738Y-106553021D01*
X121798996Y-106617685D01*
X121897986Y-106722095D01*
X122023153Y-106827524D01*
X122304300Y-107063344D01*
X122475985Y-107217018D01*
X122560393Y-107312903D01*
X122579711Y-107375355D01*
X122562185Y-107419282D01*
X122448110Y-107468745D01*
X122305097Y-107456914D01*
X122146441Y-107437810D01*
X122119695Y-107499290D01*
X122225615Y-107650608D01*
X122330174Y-107764534D01*
X122453247Y-107912675D01*
X122485549Y-107995606D01*
X122471932Y-108002000D01*
X122360574Y-107945421D01*
X122203727Y-107807485D01*
X122187334Y-107790333D01*
X121993648Y-107620841D01*
X121877958Y-107594264D01*
X121848526Y-107699206D01*
X121913615Y-107924275D01*
X121981868Y-108073659D01*
X122082742Y-108247970D01*
X122159591Y-108337491D01*
X122187845Y-108321716D01*
X122160065Y-108222395D01*
X122189475Y-108124727D01*
X122327267Y-108066055D01*
X122515556Y-108053300D01*
X122696457Y-108093381D01*
X122780000Y-108148289D01*
X122843280Y-108228080D01*
X122796742Y-108252741D01*
X122613713Y-108233110D01*
X122582625Y-108228491D01*
X122381466Y-108206723D01*
X122318056Y-108230612D01*
X122353903Y-108295003D01*
X122399043Y-108416125D01*
X122324094Y-108467345D01*
X122183291Y-108421043D01*
X121991698Y-108351926D01*
X121901800Y-108341963D01*
X121794831Y-108358393D01*
X121825283Y-108438686D01*
X121859467Y-108481711D01*
X121924406Y-108577783D01*
X121867472Y-108592533D01*
X121751323Y-108566895D01*
X121505303Y-108560731D01*
X121260754Y-108622975D01*
X120994529Y-108734914D01*
X121317157Y-108880399D01*
X121542485Y-108968112D01*
X121712699Y-108976631D01*
X121921139Y-108908222D01*
X121951160Y-108895783D01*
X122264549Y-108813355D01*
X122526912Y-108869805D01*
X122712376Y-108997926D01*
X122826641Y-109068542D01*
X122943287Y-109042014D01*
X123091100Y-108936844D01*
X123326283Y-108805498D01*
X123580440Y-108800241D01*
X123603225Y-108804291D01*
X123757634Y-108825801D01*
X123844102Y-108803028D01*
X123863125Y-108711129D01*
X123815196Y-108525263D01*
X123700812Y-108220588D01*
X123618922Y-108016104D01*
X123473475Y-107602526D01*
X123347557Y-107155334D01*
X123372667Y-107155334D01*
X123403645Y-107225024D01*
X123429111Y-107211778D01*
X123439244Y-107111298D01*
X123429111Y-107098889D01*
X123378777Y-107110511D01*
X123372667Y-107155334D01*
X123347557Y-107155334D01*
X123344108Y-107143088D01*
X123259088Y-106738676D01*
X123161000Y-106110351D01*
X121552334Y-105748171D01*
X121052095Y-105636036D01*
X120608686Y-105537570D01*
X120248488Y-105458557D01*
X119997885Y-105404779D01*
X119883257Y-105382019D01*
X119880167Y-105381662D01*
X119819377Y-105435979D01*
X119836084Y-105569995D01*
X119919052Y-105719192D01*
X119943667Y-105746238D01*
X120056497Y-105890225D01*
X120039937Y-105953880D01*
X119922500Y-105930286D01*
X119809331Y-105894740D01*
X119552293Y-105818967D01*
X119170563Y-105708465D01*
X118683313Y-105568733D01*
X118109720Y-105405270D01*
X117468958Y-105223574D01*
X116780201Y-105029143D01*
X116768667Y-105025895D01*
X115909844Y-104781963D01*
X115203696Y-104576448D01*
X114638946Y-104405415D01*
X114204317Y-104264931D01*
X114049620Y-104209148D01*
X114558223Y-104209148D01*
X114561124Y-104222003D01*
X114618656Y-104248914D01*
X114741744Y-104293176D01*
X114941309Y-104358083D01*
X115228275Y-104446930D01*
X115613565Y-104563010D01*
X116108102Y-104709617D01*
X116722808Y-104890047D01*
X117468607Y-105107594D01*
X118356421Y-105365551D01*
X119286425Y-105635137D01*
X119814517Y-105788100D01*
X119682349Y-105532515D01*
X119603412Y-105350692D01*
X119585093Y-105243917D01*
X119588211Y-105238901D01*
X119678502Y-105245347D01*
X119908105Y-105285530D01*
X120251524Y-105354307D01*
X120683260Y-105446536D01*
X121177817Y-105557075D01*
X121266620Y-105577390D01*
X121772776Y-105691798D01*
X122223614Y-105790341D01*
X122592772Y-105867533D01*
X122853886Y-105917883D01*
X122980596Y-105935904D01*
X122986515Y-105935450D01*
X123087249Y-105860490D01*
X123225820Y-105702725D01*
X123238921Y-105685422D01*
X123329702Y-105541996D01*
X123337582Y-105436640D01*
X123242205Y-105352676D01*
X123023213Y-105273428D01*
X122660249Y-105182217D01*
X122610667Y-105170739D01*
X122361427Y-105113025D01*
X121981342Y-105024668D01*
X121504448Y-104913596D01*
X120964782Y-104787740D01*
X120396379Y-104655026D01*
X120245286Y-104619721D01*
X119716005Y-104497805D01*
X119244509Y-104392593D01*
X118854859Y-104309176D01*
X118571118Y-104252644D01*
X118417345Y-104228086D01*
X118397021Y-104228757D01*
X118414814Y-104314097D01*
X118503462Y-104475059D01*
X118509037Y-104483630D01*
X118595403Y-104651989D01*
X118604712Y-104754609D01*
X118602964Y-104756591D01*
X118508341Y-104758223D01*
X118270653Y-104734987D01*
X117913833Y-104690022D01*
X117461820Y-104626469D01*
X116938547Y-104547466D01*
X116599195Y-104493772D01*
X116041823Y-104405900D01*
X115538849Y-104330035D01*
X115114819Y-104269600D01*
X114794280Y-104228017D01*
X114601781Y-104208711D01*
X114558223Y-104209148D01*
X114049620Y-104209148D01*
X113888532Y-104151061D01*
X113853129Y-104135556D01*
X114256889Y-104135556D01*
X114268511Y-104185890D01*
X114313334Y-104192000D01*
X114383024Y-104161022D01*
X114369778Y-104135556D01*
X114269298Y-104125423D01*
X114256889Y-104135556D01*
X113853129Y-104135556D01*
X113680313Y-104059872D01*
X113568384Y-103987430D01*
X113541467Y-103929800D01*
X113556373Y-103905303D01*
X113646855Y-103907915D01*
X113646855Y-103907915D01*
G37*
X113646855Y-103907915D02*
X113880896Y-103934976D01*
X114235009Y-103983192D01*
X114685708Y-104049272D01*
X115209507Y-104129922D01*
X115583334Y-104189451D01*
X116173356Y-104284119D01*
X116734204Y-104373203D01*
X117235373Y-104451930D01*
X117646358Y-104515522D01*
X117936655Y-104559205D01*
X118030163Y-104572518D01*
X118487326Y-104634707D01*
X118296093Y-104366145D01*
X118185055Y-104185135D01*
X118145134Y-104066688D01*
X118150372Y-104052072D01*
X118241234Y-104059018D01*
X118475814Y-104100934D01*
X118833142Y-104173397D01*
X119292248Y-104271983D01*
X119832163Y-104392269D01*
X120431917Y-104529832D01*
X120589326Y-104566539D01*
X122982767Y-105126517D01*
X123156550Y-104922143D01*
X123338829Y-104769502D01*
X123552121Y-104671837D01*
X123739942Y-104647586D01*
X123838141Y-104699689D01*
X123958083Y-104771800D01*
X124050157Y-104784667D01*
X124264137Y-104836443D01*
X124508011Y-104964615D01*
X124719114Y-105128446D01*
X124834779Y-105287200D01*
X124837538Y-105296514D01*
X124922133Y-105409243D01*
X125087431Y-105534859D01*
X125275017Y-105638692D01*
X125426477Y-105686074D01*
X125474339Y-105674451D01*
X125471886Y-105583717D01*
X125431215Y-105393767D01*
X125417663Y-105342939D01*
X125374544Y-105133478D01*
X125402005Y-105046488D01*
X125437035Y-105038667D01*
X125540110Y-105065404D01*
X125776379Y-105139799D01*
X126120642Y-105253125D01*
X126547699Y-105396656D01*
X127032351Y-105561667D01*
X127549398Y-105739432D01*
X128073640Y-105921225D01*
X128579876Y-106098320D01*
X129042908Y-106261991D01*
X129437534Y-106403513D01*
X129738556Y-106514159D01*
X129920773Y-106585204D01*
X129963627Y-106606071D01*
X129923096Y-106636089D01*
X129723480Y-106642743D01*
X129373341Y-106626523D01*
X128881237Y-106587921D01*
X128255730Y-106527430D01*
X127860000Y-106485234D01*
X127394182Y-106435481D01*
X126991202Y-106394924D01*
X126679359Y-106366210D01*
X126486949Y-106351985D01*
X126438205Y-106352239D01*
X126455160Y-106433074D01*
X126527726Y-106610322D01*
X126559212Y-106678121D01*
X126638985Y-106883101D01*
X126659154Y-107019379D01*
X126651008Y-107037882D01*
X126558991Y-107033125D01*
X126341054Y-106991597D01*
X126034239Y-106922539D01*
X125675589Y-106835190D01*
X125302145Y-106738792D01*
X124950949Y-106642584D01*
X124659045Y-106555808D01*
X124494500Y-106499917D01*
X124398367Y-106511691D01*
X124394934Y-106645261D01*
X124478926Y-106884315D01*
X124645065Y-107212540D01*
X124820265Y-107507187D01*
X125125751Y-108019794D01*
X125358358Y-108463078D01*
X125508442Y-108816599D01*
X125566360Y-109059917D01*
X125566364Y-109088519D01*
X125542668Y-109111907D01*
X125492982Y-108996929D01*
X125475215Y-108938826D01*
X125405062Y-108765142D01*
X125341624Y-108733447D01*
X125330754Y-108746601D01*
X125251297Y-108759597D01*
X125132954Y-108613391D01*
X125125313Y-108600611D01*
X124982094Y-108414610D01*
X124758636Y-108182661D01*
X124557744Y-108001786D01*
X124340206Y-107806226D01*
X124187522Y-107643321D01*
X124134667Y-107553849D01*
X124171230Y-107510761D01*
X124236267Y-107561734D01*
X124357402Y-107646948D01*
X124440271Y-107654462D01*
X124431549Y-107579556D01*
X124431197Y-107578985D01*
X124372975Y-107430731D01*
X124344643Y-107315886D01*
X124331611Y-107282334D01*
X124472938Y-107282334D01*
X124561503Y-107530413D01*
X124689603Y-107775081D01*
X124848664Y-107977088D01*
X125028031Y-108205744D01*
X125157604Y-108442082D01*
X125237482Y-108592803D01*
X125293645Y-108624453D01*
X125299767Y-108613033D01*
X125278056Y-108490005D01*
X125187260Y-108283022D01*
X125116019Y-108153959D01*
X124936775Y-107874545D01*
X124745666Y-107609691D01*
X124686696Y-107536334D01*
X124472938Y-107282334D01*
X124331611Y-107282334D01*
X124275920Y-107138956D01*
X124150338Y-106934301D01*
X124003390Y-106747755D01*
X123870570Y-106625152D01*
X123794730Y-106605785D01*
X123703128Y-106578535D01*
X123627936Y-106480372D01*
X123592701Y-106344184D01*
X123660113Y-106304772D01*
X123793660Y-106362428D01*
X123923000Y-106478000D01*
X124073299Y-106612409D01*
X124167614Y-106639314D01*
X124176725Y-106552979D01*
X124167457Y-106525994D01*
X124180763Y-106387706D01*
X124187525Y-106370426D01*
X124591537Y-106370426D01*
X124686535Y-106410393D01*
X124903232Y-106481841D01*
X125199711Y-106572616D01*
X125534057Y-106670566D01*
X125864351Y-106763538D01*
X126148679Y-106839380D01*
X126345123Y-106885938D01*
X126399500Y-106894601D01*
X126497916Y-106871395D01*
X126505334Y-106854796D01*
X126470096Y-106755207D01*
X126384059Y-106573926D01*
X126372090Y-106550594D01*
X126294741Y-106365670D01*
X126281092Y-106252775D01*
X126285168Y-106246610D01*
X126380066Y-106240965D01*
X126615795Y-106253338D01*
X126965066Y-106281532D01*
X127400587Y-106323355D01*
X127878586Y-106374748D01*
X128369483Y-106428944D01*
X128798382Y-106474082D01*
X129138572Y-106507533D01*
X129363341Y-106526668D01*
X129445866Y-106529023D01*
X129374989Y-106497994D01*
X129165154Y-106421798D01*
X128838312Y-106308016D01*
X128416412Y-106164232D01*
X127921405Y-105998026D01*
X127583525Y-105885756D01*
X127045396Y-105707596D01*
X126558475Y-105546299D01*
X126146637Y-105409780D01*
X125833756Y-105305954D01*
X125643704Y-105242739D01*
X125598889Y-105227707D01*
X125539980Y-105244920D01*
X125552482Y-105379614D01*
X125577722Y-105474978D01*
X125631958Y-105672163D01*
X125658213Y-105783481D01*
X125658667Y-105788364D01*
X125585786Y-105795410D01*
X125406933Y-105772064D01*
X125372756Y-105765875D01*
X125182865Y-105748442D01*
X125037045Y-105802827D01*
X124872001Y-105957908D01*
X124817203Y-106019343D01*
X124669092Y-106205567D01*
X124592658Y-106337289D01*
X124591537Y-106370426D01*
X124187525Y-106370426D01*
X124266274Y-106169212D01*
X124330169Y-106049154D01*
X124494092Y-106049154D01*
X124505673Y-106054667D01*
X124582939Y-105995063D01*
X124600334Y-105970000D01*
X124621908Y-105890846D01*
X124610327Y-105885334D01*
X124533062Y-105944937D01*
X124515667Y-105970000D01*
X124494092Y-106049154D01*
X124330169Y-106049154D01*
X124339447Y-106031722D01*
X124469129Y-105795154D01*
X124663425Y-105795154D01*
X124675007Y-105800667D01*
X124752272Y-105741063D01*
X124769667Y-105716000D01*
X124791242Y-105636846D01*
X124779660Y-105631334D01*
X124702395Y-105690937D01*
X124685000Y-105716000D01*
X124663425Y-105795154D01*
X124469129Y-105795154D01*
X124487571Y-105761513D01*
X124549085Y-105613900D01*
X124527816Y-105596914D01*
X124427594Y-105718589D01*
X124289507Y-105926952D01*
X124138689Y-106155105D01*
X124046900Y-106253107D01*
X123991527Y-106239163D01*
X123967054Y-106186571D01*
X123900678Y-106087869D01*
X123852854Y-106115838D01*
X123752267Y-106161302D01*
X123597853Y-106159032D01*
X123477404Y-106116616D01*
X123457334Y-106081654D01*
X123488061Y-105989045D01*
X123495682Y-105970000D01*
X123626667Y-105970000D01*
X123657645Y-106039690D01*
X123683111Y-106026445D01*
X123693072Y-105927667D01*
X123965334Y-105927667D01*
X124007667Y-105970000D01*
X124050000Y-105927667D01*
X124007667Y-105885334D01*
X123965334Y-105927667D01*
X123693072Y-105927667D01*
X123693244Y-105925965D01*
X123683111Y-105913556D01*
X123632777Y-105925178D01*
X123626667Y-105970000D01*
X123495682Y-105970000D01*
X123566995Y-105791790D01*
X123581126Y-105758334D01*
X123711334Y-105758334D01*
X123753667Y-105800667D01*
X123796000Y-105758334D01*
X124050000Y-105758334D01*
X124092334Y-105800667D01*
X124134667Y-105758334D01*
X124092334Y-105716000D01*
X124050000Y-105758334D01*
X123796000Y-105758334D01*
X123753667Y-105716000D01*
X123711334Y-105758334D01*
X123581126Y-105758334D01*
X123636370Y-105627543D01*
X123649861Y-105589000D01*
X124134667Y-105589000D01*
X124177000Y-105631334D01*
X124219334Y-105589000D01*
X124177000Y-105546667D01*
X124134667Y-105589000D01*
X123649861Y-105589000D01*
X123679497Y-105504334D01*
X123796000Y-105504334D01*
X123838334Y-105546667D01*
X123880667Y-105504334D01*
X123838334Y-105462000D01*
X123796000Y-105504334D01*
X123679497Y-105504334D01*
X123728065Y-105365582D01*
X123767600Y-105148736D01*
X123759727Y-105066261D01*
X123734762Y-104976378D01*
X123788994Y-105000831D01*
X123877542Y-105078173D01*
X124038842Y-105181875D01*
X124112756Y-105157724D01*
X124070310Y-105033155D01*
X124008137Y-104954519D01*
X123956382Y-104920808D01*
X124179883Y-104920808D01*
X124262137Y-105039186D01*
X124396414Y-105152149D01*
X124465642Y-105155081D01*
X124435386Y-105058942D01*
X124390365Y-104998380D01*
X124261148Y-104890452D01*
X124195844Y-104869334D01*
X124179883Y-104920808D01*
X123956382Y-104920808D01*
X123792998Y-104814389D01*
X123553441Y-104796849D01*
X123350785Y-104901228D01*
X123302500Y-104962245D01*
X123236800Y-105115770D01*
X123244404Y-105192626D01*
X123325541Y-105179303D01*
X123375974Y-105120882D01*
X123439148Y-105046665D01*
X123455882Y-105132151D01*
X123456037Y-105144500D01*
X123498768Y-105270162D01*
X123545569Y-105292667D01*
X123557757Y-105356951D01*
X123493220Y-105521663D01*
X123419947Y-105657588D01*
X123206089Y-106022508D01*
X123371540Y-106601059D01*
X123447272Y-106896893D01*
X123490467Y-107129513D01*
X123492411Y-107251243D01*
X123490925Y-107254144D01*
X123491858Y-107370769D01*
X123546151Y-107583198D01*
X123591382Y-107712340D01*
X123692701Y-107931481D01*
X123772350Y-108012316D01*
X123800027Y-107995485D01*
X123854300Y-108012197D01*
X123932012Y-108168531D01*
X124006801Y-108392984D01*
X124116119Y-108731012D01*
X124240299Y-109060216D01*
X124311810Y-109223195D01*
X124416401Y-109465950D01*
X124426306Y-109580472D01*
X124337313Y-109581667D01*
X124225329Y-109529209D01*
X124115468Y-109478636D01*
X124046381Y-109498289D01*
X123987414Y-109619702D01*
X123916068Y-109847323D01*
X123822074Y-109949120D01*
X123632096Y-110060673D01*
X123585524Y-110081293D01*
X123399877Y-110173688D01*
X123313543Y-110285988D01*
X123288964Y-110481501D01*
X123288000Y-110582812D01*
X123298417Y-110814786D01*
X123338929Y-110911949D01*
X123422099Y-110908560D01*
X123502597Y-110846293D01*
X123457051Y-110795826D01*
X123485537Y-110762130D01*
X123650048Y-110727783D01*
X123917418Y-110699112D01*
X123991350Y-110693897D01*
X124561472Y-110615806D01*
X125020530Y-110456989D01*
X125035898Y-110449456D01*
X125272233Y-110325366D01*
X125391698Y-110222272D01*
X125430058Y-110087849D01*
X125423850Y-109881860D01*
X125428166Y-109620296D01*
X125467270Y-109413304D01*
X125484776Y-109373860D01*
X125530681Y-109340758D01*
X125558240Y-109443333D01*
X125570361Y-109696027D01*
X125571426Y-109804176D01*
X125574000Y-110378684D01*
X125195899Y-110540758D01*
X124895954Y-110647062D01*
X124527085Y-110747905D01*
X124286340Y-110799203D01*
X123770621Y-110915258D01*
X123408009Y-111051258D01*
X123182792Y-111214001D01*
X123118358Y-111304577D01*
X123066338Y-111469400D01*
X123011266Y-111753031D01*
X122962175Y-112105378D01*
X122945280Y-112264245D01*
X122882221Y-112729325D01*
X122784474Y-113241580D01*
X122671698Y-113699807D01*
X122656082Y-113753047D01*
X122554657Y-114102112D01*
X122502264Y-114331254D01*
X122495059Y-114481413D01*
X122529197Y-114593532D01*
X122570563Y-114663618D01*
X122661439Y-114927505D01*
X122684101Y-115327593D01*
X122683505Y-115347238D01*
X122708483Y-116012513D01*
X122831935Y-116544147D01*
X122987630Y-116851773D01*
X123126671Y-117111225D01*
X123249455Y-117429080D01*
X123281732Y-117540677D01*
X123362405Y-117821632D01*
X123479752Y-118188727D01*
X123610537Y-118569725D01*
X123631345Y-118627667D01*
X123767246Y-119023779D01*
X123897204Y-119436855D01*
X123995180Y-119783756D01*
X124002563Y-119813000D01*
X124107010Y-120197808D01*
X124233558Y-120616339D01*
X124301270Y-120821725D01*
X124383829Y-121089858D01*
X124427219Y-121290025D01*
X124424268Y-121372059D01*
X124329596Y-121386462D01*
X124088505Y-121401427D01*
X123723908Y-121416159D01*
X123258713Y-121429860D01*
X122715831Y-121441734D01*
X122175184Y-121450259D01*
X121442947Y-121459396D01*
X120866611Y-121471210D01*
X120432835Y-121494075D01*
X120128282Y-121536366D01*
X119939613Y-121606456D01*
X119853491Y-121712720D01*
X119856577Y-121863532D01*
X119935533Y-122067266D01*
X120077021Y-122332295D01*
X120259690Y-122652856D01*
X120465682Y-123014585D01*
X120621060Y-123250667D01*
X120764527Y-123379314D01*
X120934785Y-123418742D01*
X121170537Y-123387164D01*
X121510487Y-123302794D01*
X121594667Y-123281116D01*
X122337466Y-123173474D01*
X123070723Y-123221228D01*
X123776044Y-123410674D01*
X124435033Y-123728105D01*
X125029297Y-124159817D01*
X125540441Y-124692104D01*
X125950069Y-125311262D01*
X126239788Y-126003585D01*
X126391203Y-126755367D01*
X126400103Y-126861500D01*
X126417542Y-127181883D01*
X126410661Y-127368190D01*
X126374154Y-127454608D01*
X126304801Y-127475334D01*
X126191034Y-127546524D01*
X126166667Y-127673746D01*
X126139522Y-127861418D01*
X126069514Y-128136968D01*
X126001931Y-128350971D01*
X125674948Y-129055898D01*
X125218088Y-129676541D01*
X124653132Y-130193319D01*
X124001860Y-130586654D01*
X123286052Y-130836963D01*
X123220333Y-130851569D01*
X122426444Y-130938362D01*
X121655170Y-130867377D01*
X120925864Y-130649465D01*
X120257879Y-130295478D01*
X119670570Y-129816267D01*
X119183289Y-129222685D01*
X118815390Y-128525582D01*
X118746690Y-128343167D01*
X118651345Y-128089211D01*
X118566061Y-127956825D01*
X118564397Y-127956111D01*
X119751814Y-127956111D01*
X119824176Y-128183103D01*
X119979231Y-128464609D01*
X120195962Y-128770615D01*
X120453357Y-129071112D01*
X120730401Y-129336085D01*
X120976214Y-129517560D01*
X121556317Y-129780281D01*
X122193338Y-129901139D01*
X122849172Y-129878429D01*
X123485715Y-129710447D01*
X123654780Y-129637393D01*
X124129617Y-129337585D01*
X124555020Y-128929029D01*
X124886794Y-128459952D01*
X125037073Y-128128980D01*
X125154510Y-127619407D01*
X125186199Y-127066132D01*
X125133174Y-126533990D01*
X125004705Y-126105793D01*
X124726429Y-125640439D01*
X124337429Y-125195527D01*
X123892179Y-124828691D01*
X123672399Y-124696176D01*
X123447065Y-124588516D01*
X123236072Y-124521644D01*
X122987094Y-124486115D01*
X122647809Y-124472482D01*
X122424596Y-124470920D01*
X122039668Y-124479503D01*
X121735489Y-124504135D01*
X121548316Y-124541255D01*
X121512426Y-124560570D01*
X121510582Y-124671898D01*
X121587981Y-124889464D01*
X121726119Y-125181235D01*
X121906491Y-125515174D01*
X122110593Y-125859249D01*
X122319921Y-126181425D01*
X122515971Y-126449667D01*
X122680239Y-126631940D01*
X122733035Y-126673690D01*
X122957726Y-126902945D01*
X123028543Y-127175752D01*
X122942256Y-127458330D01*
X122822537Y-127609827D01*
X122642068Y-127756863D01*
X122479382Y-127786743D01*
X122372778Y-127762993D01*
X122195989Y-127736110D01*
X121904077Y-127719470D01*
X121534496Y-127712341D01*
X121124698Y-127713990D01*
X120712138Y-127723685D01*
X120334268Y-127740693D01*
X120028542Y-127764281D01*
X119832413Y-127793717D01*
X119783156Y-127813644D01*
X119751814Y-127956111D01*
X118564397Y-127956111D01*
X118448706Y-127906486D01*
X118272794Y-127898667D01*
X118049861Y-127919978D01*
X117959957Y-127992969D01*
X117954000Y-128034134D01*
X117882697Y-128220305D01*
X117699653Y-128428572D01*
X117451168Y-128620223D01*
X117183540Y-128756550D01*
X117045326Y-128793864D01*
X116799172Y-128860854D01*
X116647796Y-128995654D01*
X116568390Y-129138206D01*
X116469618Y-129350189D01*
X116444020Y-129455712D01*
X116495369Y-129502770D01*
X116599334Y-129531866D01*
X116728819Y-129623018D01*
X116768625Y-129828217D01*
X116768667Y-129838074D01*
X116768667Y-130100000D01*
X115329334Y-130100000D01*
X115329334Y-129803667D01*
X115355243Y-129587560D01*
X115440365Y-129508847D01*
X115461018Y-129507334D01*
X115570203Y-129432655D01*
X115708879Y-129230879D01*
X115810532Y-129031530D01*
X115927915Y-128763634D01*
X115977977Y-128589582D01*
X115966860Y-128450651D01*
X115900704Y-128288114D01*
X115890514Y-128266658D01*
X115799568Y-127985668D01*
X115753919Y-127667841D01*
X115752667Y-127616639D01*
X115756317Y-127538360D01*
X115760505Y-127473708D01*
X115755087Y-127412588D01*
X115729920Y-127344905D01*
X115674860Y-127260561D01*
X115579765Y-127149461D01*
X115434490Y-127001509D01*
X115275205Y-126850510D01*
X117674156Y-126850510D01*
X117723841Y-126955669D01*
X117764246Y-127013236D01*
X117983707Y-127185386D01*
X118268431Y-127209944D01*
X118412742Y-127169942D01*
X118491707Y-127094562D01*
X118504474Y-127042105D01*
X119630345Y-127042105D01*
X120422006Y-126993717D01*
X120812836Y-126966218D01*
X121176455Y-126934355D01*
X121453628Y-126903539D01*
X121526352Y-126892831D01*
X121839037Y-126840334D01*
X121314685Y-125931749D01*
X121109029Y-125584756D01*
X120929157Y-125298625D01*
X120793588Y-125101626D01*
X120720842Y-125022030D01*
X120718469Y-125021582D01*
X120567400Y-125092822D01*
X120381373Y-125288708D01*
X120181587Y-125574139D01*
X119989242Y-125914010D01*
X119825536Y-126273218D01*
X119711671Y-126616661D01*
X119686986Y-126729553D01*
X119630345Y-127042105D01*
X118504474Y-127042105D01*
X118533648Y-126922247D01*
X118546632Y-126618416D01*
X118546667Y-126596053D01*
X118624694Y-126022177D01*
X118848635Y-125427772D01*
X119203279Y-124844391D01*
X119632166Y-124344288D01*
X120125230Y-123851224D01*
X119836128Y-123356112D01*
X119680027Y-123094785D01*
X119552031Y-122891306D01*
X119481672Y-122792059D01*
X119422240Y-122832246D01*
X119317631Y-123001646D01*
X119180574Y-123270347D01*
X119023798Y-123608439D01*
X118860032Y-123986009D01*
X118702005Y-124373145D01*
X118562446Y-124739937D01*
X118454083Y-125056472D01*
X118389646Y-125292839D01*
X118377334Y-125387148D01*
X118353420Y-125609412D01*
X118274319Y-125694433D01*
X118246792Y-125697334D01*
X118140803Y-125773531D01*
X118000641Y-125984654D01*
X117866539Y-126253896D01*
X117739342Y-126545370D01*
X117677269Y-126728992D01*
X117674156Y-126850510D01*
X115275205Y-126850510D01*
X115228893Y-126806608D01*
X114952829Y-126554663D01*
X114596156Y-126235577D01*
X114148730Y-125839255D01*
X113600408Y-125355600D01*
X112941046Y-124774517D01*
X112556730Y-124435617D01*
X112239463Y-124162456D01*
X112023892Y-123995569D01*
X111890799Y-123922679D01*
X111820969Y-123931511D01*
X111806103Y-123956061D01*
X111835563Y-124109769D01*
X112006089Y-124354043D01*
X112150045Y-124516174D01*
X112605646Y-125122918D01*
X112935644Y-125818863D01*
X113129634Y-126569101D01*
X113177209Y-127338724D01*
X113129815Y-127803241D01*
X113043877Y-128177392D01*
X112917920Y-128559612D01*
X112768382Y-128914714D01*
X112611700Y-129207511D01*
X112464309Y-129402818D01*
X112353004Y-129466158D01*
X112226359Y-129522022D01*
X112022351Y-129668263D01*
X111782524Y-129874695D01*
X111754125Y-129901308D01*
X111470512Y-130147989D01*
X111175784Y-130370374D01*
X110944203Y-130514387D01*
X110234008Y-130788123D01*
X109476754Y-130920389D01*
X108716188Y-130906381D01*
X108226192Y-130812680D01*
X107526993Y-130548610D01*
X106905522Y-130147041D01*
X106492370Y-129765329D01*
X106086184Y-129285190D01*
X105799029Y-128803155D01*
X105593400Y-128252756D01*
X105549930Y-128095127D01*
X105435521Y-127338066D01*
X105451971Y-127052061D01*
X106468116Y-127052061D01*
X106504212Y-127635707D01*
X106639119Y-128175135D01*
X106703478Y-128329322D01*
X107057877Y-128896299D01*
X107531014Y-129363189D01*
X108094718Y-129706234D01*
X108513667Y-129856183D01*
X108903827Y-129908120D01*
X109375558Y-129896988D01*
X109856372Y-129829995D01*
X110273778Y-129714346D01*
X110376334Y-129670990D01*
X110866957Y-129361698D01*
X111304842Y-128940021D01*
X111644546Y-128454596D01*
X111774293Y-128174811D01*
X111924423Y-127546975D01*
X111928835Y-126888996D01*
X111790324Y-126250359D01*
X111646334Y-125909738D01*
X111504122Y-125652015D01*
X111381042Y-125463167D01*
X111307667Y-125386955D01*
X111240485Y-125447194D01*
X111135422Y-125631618D01*
X111011612Y-125904966D01*
X110969000Y-126010988D01*
X110693689Y-126580198D01*
X110364626Y-127027219D01*
X109996551Y-127335165D01*
X109699000Y-127466017D01*
X109385541Y-127539610D01*
X109179849Y-127546251D01*
X109032182Y-127481150D01*
X108938963Y-127392836D01*
X108840573Y-127261383D01*
X108848199Y-127146767D01*
X108927793Y-127011836D01*
X109123336Y-126834749D01*
X109315231Y-126798000D01*
X109563232Y-126747414D01*
X109789887Y-126584927D01*
X110009195Y-126294450D01*
X110235154Y-125859891D01*
X110339571Y-125620612D01*
X110478581Y-125286456D01*
X110589145Y-125016584D01*
X110657430Y-124845005D01*
X110672667Y-124801616D01*
X110600342Y-124762065D01*
X110412037Y-124682523D01*
X110185834Y-124594465D01*
X109651206Y-124465978D01*
X109054553Y-124441597D01*
X108465711Y-124519190D01*
X108031375Y-124660205D01*
X107591764Y-124927768D01*
X107172594Y-125311550D01*
X106824446Y-125761142D01*
X106693398Y-125993667D01*
X106531091Y-126484584D01*
X106468116Y-127052061D01*
X105451971Y-127052061D01*
X105478379Y-126592941D01*
X105666636Y-125879846D01*
X105988422Y-125218873D01*
X106431869Y-124630115D01*
X106985107Y-124133665D01*
X107636268Y-123749614D01*
X108246983Y-123529437D01*
X108557172Y-123460823D01*
X108848859Y-123418623D01*
X108958167Y-123412338D01*
X109163284Y-123382715D01*
X109232856Y-123287468D01*
X109233334Y-123274720D01*
X109259325Y-123195131D01*
X109364033Y-123169613D01*
X109587556Y-123190452D01*
X109635500Y-123197347D01*
X110019169Y-123278302D01*
X110471658Y-123409876D01*
X110910168Y-123567284D01*
X111011334Y-123609236D01*
X111070708Y-123595986D01*
X111149830Y-123500488D01*
X111257028Y-123306473D01*
X111349241Y-123108183D01*
X112156927Y-123108183D01*
X112212969Y-123204070D01*
X112259751Y-123250847D01*
X112359485Y-123341312D01*
X112569137Y-123528256D01*
X112871424Y-123796382D01*
X113249066Y-124130391D01*
X113684780Y-124514985D01*
X114161285Y-124934865D01*
X114301476Y-125058268D01*
X114888725Y-125571497D01*
X115361867Y-125976594D01*
X115730451Y-126281107D01*
X116004030Y-126492587D01*
X116192153Y-126618581D01*
X116304371Y-126666641D01*
X116333476Y-126664512D01*
X116520747Y-126605349D01*
X116712773Y-126563633D01*
X116886727Y-126496850D01*
X117020632Y-126338496D01*
X117114940Y-126145255D01*
X117221437Y-125892830D01*
X117262434Y-125759146D01*
X117237290Y-125706522D01*
X117145366Y-125697279D01*
X117107334Y-125697334D01*
X116990625Y-125664185D01*
X116943535Y-125534778D01*
X116938000Y-125401000D01*
X116949576Y-125206995D01*
X117017860Y-125123930D01*
X117193189Y-125104799D01*
X117255500Y-125104498D01*
X117573000Y-125104330D01*
X118144545Y-123813332D01*
X118334630Y-123380332D01*
X118497944Y-123001371D01*
X118623096Y-122703449D01*
X118698694Y-122513563D01*
X118716045Y-122458834D01*
X118634460Y-122444518D01*
X118402092Y-122431330D01*
X118037487Y-122419643D01*
X117559196Y-122409830D01*
X116985764Y-122402261D01*
X116335741Y-122397311D01*
X115627675Y-122395351D01*
X115553843Y-122395334D01*
X112391686Y-122395334D01*
X112251427Y-122752399D01*
X112170082Y-122977779D01*
X112156927Y-123108183D01*
X111349241Y-123108183D01*
X111400633Y-122997673D01*
X111588976Y-122557817D01*
X111752512Y-122161721D01*
X111972835Y-121615994D01*
X112132502Y-121200897D01*
X112239072Y-120892077D01*
X112300104Y-120665178D01*
X112323158Y-120495848D01*
X112315793Y-120359729D01*
X112314421Y-120351332D01*
X112321982Y-119910442D01*
X112492183Y-119494480D01*
X112787464Y-119147429D01*
X113113240Y-118918054D01*
X113473249Y-118804656D01*
X113901111Y-118802385D01*
X114430448Y-118906392D01*
X114440334Y-118909001D01*
X115033000Y-119065991D01*
X115012848Y-119389092D01*
X114989519Y-119608281D01*
X114957192Y-119743252D01*
X114949528Y-119755361D01*
X114851820Y-119757014D01*
X114640480Y-119718221D01*
X114399458Y-119657598D01*
X113969194Y-119554280D01*
X113657282Y-119524345D01*
X113428516Y-119569809D01*
X113247691Y-119692683D01*
X113215503Y-119725314D01*
X113093398Y-119886759D01*
X113052143Y-120062497D01*
X113072256Y-120318934D01*
X113086443Y-120602442D01*
X113033029Y-120875758D01*
X112914844Y-121179155D01*
X112804441Y-121433722D01*
X112728322Y-121618652D01*
X112704667Y-121687220D01*
X112786252Y-121694020D01*
X113018695Y-121699194D01*
X113383528Y-121702679D01*
X113862282Y-121704415D01*
X114436490Y-121704339D01*
X115087683Y-121702391D01*
X115797394Y-121698507D01*
X115893799Y-121697852D01*
X116755803Y-121690600D01*
X117461220Y-121681647D01*
X118022791Y-121670489D01*
X118453259Y-121656618D01*
X118765366Y-121639530D01*
X118971853Y-121618718D01*
X119085462Y-121593676D01*
X119118187Y-121569834D01*
X119094426Y-121536274D01*
X118987880Y-121510140D01*
X118783161Y-121490671D01*
X118464880Y-121477105D01*
X118017648Y-121468682D01*
X117426076Y-121464640D01*
X116978331Y-121464000D01*
X116315574Y-121463362D01*
X115803551Y-121460582D01*
X115423662Y-121454359D01*
X115157308Y-121443393D01*
X114985892Y-121426384D01*
X114890815Y-121402032D01*
X114853478Y-121369036D01*
X114855283Y-121326097D01*
X114858842Y-121315834D01*
X114905930Y-121191984D01*
X114913697Y-121171645D01*
X115075334Y-121171645D01*
X115138168Y-121206709D01*
X115325385Y-121129604D01*
X115466601Y-121048223D01*
X115678488Y-120859785D01*
X115781770Y-120590259D01*
X115786996Y-120561706D01*
X115851525Y-120194106D01*
X115899225Y-119965763D01*
X115942293Y-119849107D01*
X115992926Y-119816568D01*
X116063322Y-119840575D01*
X116097939Y-119858868D01*
X116182897Y-119892800D01*
X116231645Y-119860110D01*
X116245679Y-119778969D01*
X119537868Y-119778969D01*
X120121767Y-119753651D01*
X120705667Y-119728334D01*
X120888776Y-119178000D01*
X120995046Y-118876978D01*
X121057666Y-118737401D01*
X121074320Y-118756503D01*
X121042693Y-118931518D01*
X120960468Y-119259680D01*
X120959667Y-119262667D01*
X120891774Y-119518408D01*
X120845967Y-119696306D01*
X120833672Y-119749500D01*
X120903288Y-119767325D01*
X120985067Y-119770667D01*
X121169246Y-119820943D01*
X121233420Y-119866620D01*
X121310236Y-119851350D01*
X121403227Y-119672813D01*
X121510388Y-119336097D01*
X121621850Y-118881667D01*
X121651473Y-118770066D01*
X121664850Y-118820656D01*
X121669512Y-118897298D01*
X121657352Y-119070002D01*
X121616095Y-119349019D01*
X121554499Y-119675614D01*
X121550843Y-119693086D01*
X121495135Y-119995561D01*
X121466823Y-120229518D01*
X121471123Y-120349776D01*
X121474435Y-120354787D01*
X121559249Y-120331892D01*
X121703886Y-120189714D01*
X121885870Y-119956960D01*
X122082727Y-119662336D01*
X122269295Y-119339592D01*
X122413836Y-119080624D01*
X122534244Y-118886654D01*
X122601397Y-118802730D01*
X122638205Y-118845277D01*
X122645132Y-119009159D01*
X122626802Y-119249928D01*
X122587839Y-119523139D01*
X122532867Y-119784345D01*
X122481946Y-119950908D01*
X122415019Y-120159789D01*
X122427766Y-120287815D01*
X122531021Y-120408841D01*
X122551957Y-120428187D01*
X122745477Y-120573017D01*
X123011610Y-120730692D01*
X123315522Y-120885938D01*
X123622382Y-121023478D01*
X123897357Y-121128037D01*
X124105614Y-121184339D01*
X124212320Y-121177109D01*
X124219334Y-121159405D01*
X124192895Y-121064143D01*
X124120961Y-120842593D01*
X124014608Y-120528073D01*
X123888648Y-120164572D01*
X123716324Y-119661165D01*
X123525002Y-119084373D01*
X123343953Y-118523117D01*
X123257322Y-118246667D01*
X123128904Y-117849823D01*
X123004987Y-117500306D01*
X122900147Y-117237275D01*
X122831866Y-117103667D01*
X122756269Y-117012934D01*
X122729488Y-117035920D01*
X122741944Y-117195382D01*
X122753949Y-117288765D01*
X122769974Y-117604643D01*
X122752071Y-117954294D01*
X122740758Y-118043898D01*
X122690344Y-118281034D01*
X122638737Y-118363465D01*
X122591734Y-118305672D01*
X122555133Y-118122141D01*
X122534731Y-117827353D01*
X122533844Y-117527000D01*
X122540969Y-117092610D01*
X122539490Y-116804515D01*
X122527400Y-116639803D01*
X122502690Y-116575565D01*
X122463353Y-116588890D01*
X122452587Y-116599900D01*
X122312200Y-116847618D01*
X122209579Y-117219038D01*
X122152865Y-117671140D01*
X122150199Y-118160903D01*
X122151847Y-118189123D01*
X122171394Y-118523689D01*
X122175915Y-118707273D01*
X122161660Y-118757852D01*
X122124879Y-118693402D01*
X122073772Y-118563365D01*
X121937122Y-118252016D01*
X121798860Y-118077401D01*
X121622351Y-118010578D01*
X121386513Y-118020498D01*
X121047411Y-118129868D01*
X120832667Y-118314784D01*
X120681097Y-118489931D01*
X120455493Y-118746978D01*
X120194774Y-119041668D01*
X120079434Y-119171323D01*
X119537868Y-119778969D01*
X116245679Y-119778969D01*
X116254167Y-119729894D01*
X116260453Y-119471246D01*
X116260667Y-119355309D01*
X116271740Y-119054407D01*
X116300830Y-118824873D01*
X116341741Y-118714691D01*
X116343532Y-118713447D01*
X116437752Y-118745115D01*
X116609524Y-118876101D01*
X116823840Y-119079217D01*
X116851532Y-119107962D01*
X117071608Y-119330709D01*
X117202066Y-119437758D01*
X117263451Y-119442009D01*
X117276667Y-119374904D01*
X117345825Y-119198431D01*
X117523143Y-119118151D01*
X117711928Y-119139453D01*
X117827778Y-119154954D01*
X117862039Y-119082903D01*
X117819420Y-118896114D01*
X117776384Y-118767301D01*
X117676421Y-118589565D01*
X117514602Y-118506375D01*
X117260566Y-118511564D01*
X116910651Y-118591492D01*
X116663339Y-118638536D01*
X116481820Y-118602802D01*
X116374139Y-118541922D01*
X116216612Y-118451904D01*
X116135008Y-118430205D01*
X116134812Y-118430402D01*
X116096721Y-118514978D01*
X116010885Y-118726207D01*
X115889554Y-119032395D01*
X115744977Y-119401845D01*
X115589406Y-119802863D01*
X115435090Y-120203754D01*
X115294280Y-120572821D01*
X115179224Y-120878369D01*
X115102174Y-121088704D01*
X115075334Y-121171645D01*
X114913697Y-121171645D01*
X115002909Y-120938052D01*
X115139056Y-120582069D01*
X115303653Y-120152067D01*
X115475196Y-119704218D01*
X116013379Y-118299611D01*
X116841584Y-118299611D01*
X116954041Y-118314269D01*
X116980334Y-118314828D01*
X117124929Y-118305676D01*
X117137660Y-118279172D01*
X117130112Y-118275798D01*
X116962032Y-118259049D01*
X116876112Y-118272660D01*
X116841584Y-118299611D01*
X116013379Y-118299611D01*
X116035925Y-118240769D01*
X116015446Y-118226425D01*
X116466722Y-118226425D01*
X116549945Y-118239983D01*
X116659759Y-118224416D01*
X116661070Y-118195514D01*
X116547753Y-118175303D01*
X116498792Y-118188830D01*
X116466722Y-118226425D01*
X116015446Y-118226425D01*
X115851962Y-118111917D01*
X115761230Y-118030907D01*
X115706216Y-117917400D01*
X115678245Y-117731424D01*
X115672823Y-117562915D01*
X115780467Y-117562915D01*
X115784922Y-117597425D01*
X115830127Y-117784280D01*
X115837334Y-117859653D01*
X115907177Y-117969668D01*
X116069216Y-118079640D01*
X116252213Y-118145215D01*
X116303000Y-118149586D01*
X116321030Y-118126173D01*
X116279581Y-118105176D01*
X116167133Y-118013289D01*
X116012671Y-117833879D01*
X115952003Y-117752027D01*
X115835248Y-117602191D01*
X115780467Y-117562915D01*
X115672823Y-117562915D01*
X115669465Y-117458560D01*
X116182785Y-117458560D01*
X116230917Y-117613929D01*
X116325759Y-117705619D01*
X116528977Y-117836214D01*
X116792160Y-117980663D01*
X117066894Y-118113913D01*
X117304766Y-118210910D01*
X117453649Y-118246667D01*
X117554892Y-118194013D01*
X117732208Y-118058904D01*
X117865898Y-117943364D01*
X118111022Y-117756794D01*
X118282445Y-117701146D01*
X118368859Y-117778498D01*
X118377090Y-117849497D01*
X118312452Y-117959573D01*
X118154096Y-118098377D01*
X118123334Y-118119667D01*
X117931645Y-118273041D01*
X117890999Y-118401406D01*
X118002460Y-118541861D01*
X118138381Y-118644294D01*
X118326320Y-118760563D01*
X118473398Y-118782526D01*
X118502452Y-118773182D01*
X119566047Y-118773182D01*
X119619971Y-118834356D01*
X119811183Y-118816283D01*
X120132302Y-118711571D01*
X120157908Y-118701425D01*
X120372705Y-118591710D01*
X120535999Y-118434889D01*
X120693348Y-118182476D01*
X120752288Y-118068839D01*
X120880414Y-117792563D01*
X120955840Y-117550066D01*
X120991896Y-117276391D01*
X121001915Y-116906581D01*
X121002000Y-116852081D01*
X121015080Y-116444945D01*
X121054393Y-116204907D01*
X121120044Y-116131759D01*
X121212142Y-116225294D01*
X121268561Y-116335423D01*
X121318236Y-116621401D01*
X121292067Y-116779923D01*
X121249902Y-117007146D01*
X121222688Y-117311536D01*
X121217821Y-117463193D01*
X121222233Y-117722851D01*
X121253499Y-117855379D01*
X121329205Y-117902722D01*
X121404167Y-117907693D01*
X121587724Y-117853474D01*
X121777617Y-117724193D01*
X121909200Y-117570682D01*
X121933334Y-117491592D01*
X121961262Y-117350260D01*
X121986054Y-117276463D01*
X121987314Y-117170149D01*
X121922554Y-117163704D01*
X121831874Y-117111173D01*
X121782838Y-116901231D01*
X121780056Y-116870834D01*
X121744389Y-116666601D01*
X121724800Y-116628418D01*
X121933334Y-116628418D01*
X121952683Y-116798341D01*
X121997087Y-116959230D01*
X122046075Y-117045511D01*
X122063006Y-117043818D01*
X122095497Y-116956998D01*
X122162682Y-116744677D01*
X122252933Y-116444231D01*
X122305783Y-116263293D01*
X122397343Y-115930543D01*
X122461744Y-115664113D01*
X122490289Y-115501845D01*
X122487914Y-115471026D01*
X122447158Y-115524403D01*
X122378936Y-115700178D01*
X122315546Y-115901632D01*
X122221281Y-116164408D01*
X122120024Y-116354018D01*
X122056535Y-116416075D01*
X121953698Y-116529982D01*
X121933334Y-116628418D01*
X121724800Y-116628418D01*
X121688922Y-116558488D01*
X121674223Y-116553334D01*
X121606252Y-116488250D01*
X121603459Y-116342092D01*
X121662199Y-116188501D01*
X121694252Y-116148948D01*
X121827095Y-116097159D01*
X121898303Y-116136061D01*
X121982883Y-116155773D01*
X122043535Y-116031020D01*
X122058012Y-115971235D01*
X122137593Y-115753346D01*
X122278340Y-115480223D01*
X122366203Y-115337831D01*
X122509931Y-115104657D01*
X122563543Y-114954273D01*
X122540283Y-114835342D01*
X122509875Y-114780976D01*
X122408774Y-114646725D01*
X122352716Y-114606000D01*
X122302029Y-114679176D01*
X122218318Y-114869500D01*
X122135071Y-115092834D01*
X122024284Y-115376665D01*
X121906289Y-115555794D01*
X121730390Y-115689170D01*
X121532725Y-115793281D01*
X121159085Y-115995669D01*
X120921334Y-116176915D01*
X120793375Y-116365203D01*
X120749107Y-116588719D01*
X120748000Y-116640755D01*
X120714904Y-116882612D01*
X120632581Y-117050490D01*
X120621000Y-117061334D01*
X120504948Y-117202704D01*
X120540672Y-117293060D01*
X120663334Y-117315334D01*
X120799329Y-117375420D01*
X120827427Y-117528828D01*
X120743773Y-117735284D01*
X120708360Y-117785985D01*
X120620333Y-117888965D01*
X120587381Y-117855350D01*
X120581360Y-117707133D01*
X120565286Y-117546433D01*
X120508133Y-117528228D01*
X120460524Y-117561983D01*
X120361702Y-117710809D01*
X120289594Y-117931366D01*
X120289435Y-117932183D01*
X120167534Y-118196858D01*
X119899578Y-118442658D01*
X119656789Y-118640151D01*
X119566047Y-118773182D01*
X118502452Y-118773182D01*
X118669418Y-118719486D01*
X118708418Y-118703347D01*
X118979706Y-118576776D01*
X119281481Y-118417665D01*
X119360156Y-118372690D01*
X119731402Y-118088911D01*
X119964682Y-117741873D01*
X120021836Y-117590500D01*
X120044639Y-117436612D01*
X119995469Y-117406497D01*
X119905891Y-117489936D01*
X119815270Y-117657372D01*
X119639558Y-117933140D01*
X119401858Y-118113491D01*
X119203270Y-118162000D01*
X119061247Y-118107358D01*
X118852717Y-117966155D01*
X118683473Y-117823334D01*
X118461353Y-117639704D01*
X118268716Y-117516714D01*
X118173654Y-117484667D01*
X118063242Y-117424813D01*
X118056122Y-117354278D01*
X117997629Y-117254095D01*
X117820006Y-117143790D01*
X117571417Y-117039450D01*
X117300025Y-116957162D01*
X117053993Y-116913015D01*
X116881484Y-116923096D01*
X116841521Y-116948567D01*
X116791063Y-117029121D01*
X116836253Y-117070443D01*
X117008312Y-117089672D01*
X117107334Y-117094486D01*
X117284832Y-117153353D01*
X117345949Y-117293351D01*
X117375563Y-117416687D01*
X117447896Y-117434336D01*
X117614917Y-117357880D01*
X117621115Y-117354677D01*
X117801701Y-117278892D01*
X117852666Y-117299684D01*
X117776262Y-117407408D01*
X117574745Y-117592423D01*
X117563331Y-117601946D01*
X117375423Y-117749119D01*
X117239751Y-117800481D01*
X117078862Y-117769098D01*
X116922762Y-117710002D01*
X116694579Y-117637009D01*
X116530450Y-117614389D01*
X116497352Y-117622368D01*
X116392645Y-117602163D01*
X116300060Y-117514312D01*
X116203049Y-117412881D01*
X116182785Y-117458560D01*
X115669465Y-117458560D01*
X115668642Y-117433007D01*
X115668000Y-117264261D01*
X115669563Y-117011945D01*
X115840334Y-117011945D01*
X115849732Y-117276881D01*
X115875506Y-117376106D01*
X115906493Y-117310988D01*
X115931531Y-117082893D01*
X115935564Y-117000275D01*
X115950903Y-116817404D01*
X116001765Y-116689921D01*
X116121673Y-116579527D01*
X116344149Y-116447922D01*
X116485124Y-116372389D01*
X116748684Y-116219474D01*
X116940237Y-116083666D01*
X117021378Y-115992487D01*
X117021953Y-115987690D01*
X116956455Y-115981440D01*
X116781389Y-116051931D01*
X116529951Y-116184845D01*
X116433001Y-116241690D01*
X115843334Y-116595667D01*
X115840334Y-117011945D01*
X115669563Y-117011945D01*
X115670166Y-116914736D01*
X115684821Y-116694209D01*
X115724197Y-116562347D01*
X115800530Y-116478813D01*
X115926051Y-116403275D01*
X115929765Y-116401229D01*
X116387040Y-116137051D01*
X116710448Y-115918615D01*
X116922990Y-115727894D01*
X117047667Y-115546862D01*
X117062828Y-115513257D01*
X117195629Y-115272195D01*
X117353703Y-115078574D01*
X117354344Y-115077992D01*
X117469182Y-114924729D01*
X117521839Y-114701265D01*
X117530667Y-114479000D01*
X117550345Y-114175383D01*
X117620643Y-113980510D01*
X117707842Y-113879236D01*
X117898494Y-113683847D01*
X117975661Y-113515510D01*
X117938677Y-113329913D01*
X117786876Y-113082740D01*
X117693967Y-112956850D01*
X117469020Y-112617509D01*
X117248130Y-112217782D01*
X117115251Y-111929178D01*
X116958005Y-111540986D01*
X117063147Y-111540986D01*
X117105232Y-111677694D01*
X117164111Y-111829843D01*
X117282911Y-112105500D01*
X117405033Y-112349814D01*
X117436774Y-112404667D01*
X117570834Y-112609967D01*
X117727213Y-112831576D01*
X117873099Y-113025234D01*
X117975679Y-113146684D01*
X118001723Y-113166667D01*
X117985053Y-113096384D01*
X117914314Y-112912938D01*
X117815145Y-112679834D01*
X117625294Y-112253450D01*
X117485693Y-111956469D01*
X117381252Y-111762072D01*
X117296880Y-111643444D01*
X117217486Y-111573767D01*
X117180320Y-111551749D01*
X117087557Y-111509618D01*
X117063147Y-111540986D01*
X116958005Y-111540986D01*
X116886996Y-111365689D01*
X116171665Y-111121227D01*
X115868428Y-111021209D01*
X116221784Y-111021209D01*
X116260667Y-111050000D01*
X116429520Y-111105126D01*
X116667062Y-111127552D01*
X116684000Y-111127420D01*
X116862753Y-111117709D01*
X116888253Y-111090308D01*
X116811000Y-111050000D01*
X116599208Y-110994126D01*
X116387667Y-110972581D01*
X116228616Y-110980947D01*
X116221784Y-111021209D01*
X115868428Y-111021209D01*
X115448212Y-110882608D01*
X115250989Y-110824222D01*
X116034889Y-110824222D01*
X116046511Y-110874557D01*
X116091334Y-110880667D01*
X116161024Y-110849689D01*
X116147778Y-110824222D01*
X116047298Y-110814089D01*
X116034889Y-110824222D01*
X115250989Y-110824222D01*
X115087281Y-110775758D01*
X115704722Y-110775758D01*
X115787945Y-110789316D01*
X115897759Y-110773749D01*
X115899070Y-110744847D01*
X115856762Y-110737301D01*
X117090609Y-110737301D01*
X117095469Y-110816725D01*
X117253479Y-110866876D01*
X117490673Y-110880667D01*
X117723477Y-110868618D01*
X117818968Y-110824671D01*
X117816521Y-110756890D01*
X117681251Y-110613573D01*
X117457331Y-110578757D01*
X117246717Y-110636430D01*
X117090609Y-110737301D01*
X115856762Y-110737301D01*
X115785753Y-110724636D01*
X115736792Y-110738163D01*
X115704722Y-110775758D01*
X115087281Y-110775758D01*
X114864753Y-110709881D01*
X114406902Y-110599359D01*
X114060278Y-110547349D01*
X113915047Y-110542279D01*
X113501507Y-110480475D01*
X113089377Y-110302515D01*
X112757442Y-110042862D01*
X112747000Y-110031324D01*
X112547210Y-109863902D01*
X112300586Y-109724092D01*
X112295422Y-109721888D01*
X112125904Y-109659121D01*
X112002473Y-109662087D01*
X111868271Y-109749234D01*
X111686626Y-109919408D01*
X111490273Y-110136892D01*
X111349361Y-110342377D01*
X111311091Y-110431502D01*
X111213425Y-110596686D01*
X111061085Y-110607767D01*
X110943600Y-110525067D01*
X110849591Y-110347789D01*
X110902950Y-110133827D01*
X111011333Y-109972437D01*
X111133989Y-109843214D01*
X111178277Y-109846359D01*
X111136663Y-109960429D01*
X111053684Y-110092949D01*
X110975167Y-110278286D01*
X110978076Y-110408121D01*
X111065155Y-110531795D01*
X111144877Y-110502728D01*
X111180651Y-110334967D01*
X111180667Y-110330334D01*
X111242804Y-110109902D01*
X111340379Y-109982046D01*
X111514922Y-109829781D01*
X111721174Y-109646175D01*
X111733799Y-109634807D01*
X111743677Y-109626617D01*
X112468944Y-109626617D01*
X112474507Y-109654732D01*
X112568406Y-109741169D01*
X112767027Y-109901338D01*
X113029770Y-110106451D01*
X113352876Y-110329190D01*
X113612360Y-110438222D01*
X113770603Y-110457334D01*
X113963485Y-110439634D01*
X114057536Y-110396258D01*
X114059334Y-110388589D01*
X113985211Y-110272146D01*
X113932616Y-110233424D01*
X114313334Y-110233424D01*
X114370188Y-110419161D01*
X114546167Y-110528260D01*
X114747402Y-110579028D01*
X114990229Y-110611047D01*
X115218472Y-110621080D01*
X115375951Y-110605887D01*
X115414000Y-110578286D01*
X115361497Y-110485770D01*
X115294560Y-110410464D01*
X115180742Y-110275467D01*
X115146393Y-110216447D01*
X115052829Y-110161480D01*
X114847490Y-110105971D01*
X114715500Y-110082747D01*
X114474064Y-110052780D01*
X114355797Y-110067220D01*
X114316863Y-110142489D01*
X114313334Y-110233424D01*
X113932616Y-110233424D01*
X113788935Y-110127643D01*
X113509644Y-109978583D01*
X113433746Y-109948025D01*
X115329334Y-109948025D01*
X115355986Y-110193207D01*
X115451962Y-110360018D01*
X115641286Y-110460784D01*
X115947982Y-110507832D01*
X116396077Y-110513488D01*
X116430000Y-110512733D01*
X116730386Y-110499507D01*
X116900667Y-110469307D01*
X116980019Y-110409393D01*
X117005227Y-110325662D01*
X116965038Y-110141940D01*
X116857061Y-109995040D01*
X116725877Y-109810617D01*
X116684000Y-109650461D01*
X116620055Y-109521893D01*
X116959835Y-109521893D01*
X117019153Y-109686850D01*
X117230288Y-110013010D01*
X117527836Y-110222164D01*
X117841075Y-110288000D01*
X118085787Y-110242317D01*
X118185347Y-110110785D01*
X118135368Y-109901676D01*
X118088358Y-109821680D01*
X118004818Y-109662274D01*
X118037726Y-109621543D01*
X118182531Y-109699698D01*
X118329648Y-109810461D01*
X118578297Y-110009414D01*
X118393148Y-110244792D01*
X118267565Y-110437676D01*
X118208629Y-110593637D01*
X118208000Y-110604707D01*
X118262995Y-110715463D01*
X118411433Y-110915700D01*
X118628496Y-111173705D01*
X118809633Y-111373467D01*
X119048738Y-111640356D01*
X119225604Y-111859106D01*
X119320034Y-112003275D01*
X119323958Y-112046792D01*
X119201961Y-112028427D01*
X118993602Y-111948486D01*
X118883453Y-111895708D01*
X118668100Y-111796920D01*
X118522572Y-111750789D01*
X118492278Y-111753500D01*
X118525960Y-111830132D01*
X118648643Y-112001545D01*
X118836890Y-112235903D01*
X118917083Y-112330583D01*
X119123593Y-112579716D01*
X119273444Y-112777120D01*
X119343091Y-112891074D01*
X119343925Y-112905631D01*
X119267554Y-112873243D01*
X119114292Y-112741662D01*
X118914198Y-112542978D01*
X118697330Y-112309282D01*
X118493747Y-112072665D01*
X118333507Y-111865217D01*
X118260069Y-111748500D01*
X118146924Y-111567688D01*
X118049625Y-111476115D01*
X118036493Y-111473334D01*
X117956480Y-111533487D01*
X117969423Y-111687580D01*
X118064092Y-111896063D01*
X118215528Y-112103971D01*
X118363999Y-112302014D01*
X118439967Y-112461821D01*
X118441592Y-112508224D01*
X118475944Y-112630698D01*
X118605760Y-112771643D01*
X118745629Y-112921725D01*
X118903681Y-113145893D01*
X119043478Y-113384974D01*
X119128584Y-113579800D01*
X119139334Y-113638118D01*
X119093032Y-113626633D01*
X118972503Y-113512496D01*
X118805312Y-113328375D01*
X118619026Y-113106941D01*
X118441208Y-112880862D01*
X118299424Y-112682808D01*
X118224905Y-112554364D01*
X118131528Y-112367881D01*
X118081724Y-112331052D01*
X118075243Y-112429969D01*
X118111839Y-112650721D01*
X118191263Y-112979397D01*
X118235330Y-113139239D01*
X118335157Y-113512930D01*
X118392505Y-113811868D01*
X118413637Y-114102634D01*
X118404818Y-114451807D01*
X118386030Y-114741086D01*
X118353326Y-115140973D01*
X118313301Y-115425410D01*
X118250183Y-115648066D01*
X118148198Y-115862612D01*
X117991572Y-116122721D01*
X117969851Y-116157178D01*
X117801083Y-116439316D01*
X117675912Y-116676985D01*
X117617121Y-116826212D01*
X117615334Y-116841383D01*
X117692710Y-116968147D01*
X117919679Y-117029616D01*
X118165667Y-117032240D01*
X118314245Y-117012825D01*
X118397511Y-116945614D01*
X118444334Y-116787312D01*
X118474593Y-116568962D01*
X118522612Y-116254451D01*
X118567203Y-116099972D01*
X118603364Y-116107647D01*
X118626093Y-116279597D01*
X118631334Y-116502513D01*
X118635092Y-116775302D01*
X118659409Y-116917290D01*
X118723845Y-116967004D01*
X118847960Y-116962972D01*
X118864167Y-116961124D01*
X119004889Y-116931457D01*
X119072398Y-116853379D01*
X119089731Y-116699507D01*
X119572060Y-116699507D01*
X119656562Y-116703285D01*
X119843796Y-116623318D01*
X119968206Y-116560375D01*
X120214009Y-116399859D01*
X120385764Y-116224208D01*
X120458854Y-116066626D01*
X120411746Y-115962158D01*
X120427116Y-115890062D01*
X120445320Y-115873474D01*
X120843602Y-115873474D01*
X120943262Y-115842133D01*
X121147895Y-115758208D01*
X121361872Y-115663116D01*
X121596192Y-115549805D01*
X121750360Y-115442787D01*
X121860539Y-115298004D01*
X121962892Y-115071397D01*
X122058968Y-114813869D01*
X122174990Y-114463482D01*
X122247216Y-114144393D01*
X122286100Y-113791576D01*
X122295222Y-113534105D01*
X122423221Y-113534105D01*
X122465412Y-113706884D01*
X122535263Y-113759334D01*
X122609842Y-113705665D01*
X122610767Y-113695834D01*
X122625688Y-113586963D01*
X122664955Y-113358667D01*
X122720476Y-113057717D01*
X122727930Y-113018500D01*
X122777013Y-112723484D01*
X122799510Y-112506017D01*
X122791500Y-112406837D01*
X122787035Y-112404667D01*
X122719575Y-112474012D01*
X122614067Y-112650040D01*
X122555984Y-112764500D01*
X122469514Y-113014532D01*
X122424924Y-113287194D01*
X122423221Y-113534105D01*
X122295222Y-113534105D01*
X122302099Y-113340003D01*
X122302698Y-113298068D01*
X122306510Y-112937123D01*
X122306990Y-112820945D01*
X122357759Y-112820945D01*
X122378903Y-112833693D01*
X122449507Y-112702229D01*
X122572642Y-112420383D01*
X122649078Y-112235334D01*
X122846556Y-111689219D01*
X122953618Y-111211542D01*
X122980589Y-110734634D01*
X122947945Y-110276567D01*
X122894416Y-109922313D01*
X122820330Y-109586406D01*
X122736381Y-109303040D01*
X122724790Y-109275617D01*
X122921473Y-109275617D01*
X122937941Y-109498497D01*
X123031376Y-109714399D01*
X123176798Y-109883303D01*
X123349227Y-109965189D01*
X123523683Y-109920035D01*
X123526416Y-109918015D01*
X123645103Y-109784613D01*
X123757020Y-109604183D01*
X123830093Y-109429934D01*
X123807598Y-109325566D01*
X123750393Y-109269283D01*
X123671543Y-109151551D01*
X123720656Y-109049100D01*
X123731073Y-108968567D01*
X123624940Y-108928790D01*
X123449443Y-108927345D01*
X123251768Y-108961806D01*
X123079101Y-109029749D01*
X123006951Y-109085778D01*
X122921473Y-109275617D01*
X122724790Y-109275617D01*
X122653266Y-109106411D01*
X122581681Y-109030714D01*
X122560979Y-109039466D01*
X122564937Y-109137653D01*
X122634995Y-109320035D01*
X122657546Y-109365458D01*
X122729080Y-109613040D01*
X122767387Y-109985286D01*
X122774199Y-110441172D01*
X122751247Y-110939679D01*
X122700266Y-111439783D01*
X122622988Y-111900462D01*
X122536335Y-112235334D01*
X122447222Y-112515974D01*
X122383149Y-112725996D01*
X122357776Y-112820602D01*
X122357759Y-112820945D01*
X122306990Y-112820945D01*
X122307693Y-112650801D01*
X122306221Y-112473514D01*
X122303352Y-112432815D01*
X122262716Y-112509605D01*
X122168670Y-112694054D01*
X122070420Y-112888881D01*
X121953371Y-113142529D01*
X121923841Y-113268270D01*
X121974854Y-113282263D01*
X122104146Y-113292667D01*
X122159661Y-113439655D01*
X122139291Y-113706393D01*
X122064897Y-114001329D01*
X121775204Y-114719297D01*
X121392874Y-115296659D01*
X121141562Y-115555974D01*
X120960215Y-115726638D01*
X120854692Y-115842053D01*
X120843602Y-115873474D01*
X120445320Y-115873474D01*
X120576838Y-115753636D01*
X120845126Y-115566864D01*
X120890775Y-115537793D01*
X121191437Y-115334048D01*
X121339092Y-115201551D01*
X121335360Y-115143673D01*
X121181866Y-115163787D01*
X120880230Y-115265266D01*
X120778784Y-115304976D01*
X120503952Y-115428136D01*
X120303782Y-115564159D01*
X120125944Y-115758575D01*
X119922879Y-116049659D01*
X119706426Y-116386298D01*
X119589084Y-116598379D01*
X119572060Y-116699507D01*
X119089731Y-116699507D01*
X119092026Y-116679143D01*
X119091688Y-116532303D01*
X119086376Y-116130272D01*
X119275935Y-116308354D01*
X119465494Y-116486435D01*
X119641855Y-116140739D01*
X119746330Y-115844578D01*
X119756489Y-115520009D01*
X119669978Y-115125841D01*
X119566911Y-114828831D01*
X119520762Y-114576755D01*
X119533026Y-114352037D01*
X119597755Y-114169237D01*
X119729668Y-114103405D01*
X119833395Y-114098000D01*
X120082957Y-114098000D01*
X119907479Y-114321085D01*
X119757710Y-114597502D01*
X119744807Y-114842769D01*
X119859128Y-115025368D01*
X120091027Y-115113778D01*
X120151100Y-115117390D01*
X120367000Y-115120780D01*
X120134167Y-115247094D01*
X119970084Y-115374495D01*
X119901336Y-115504150D01*
X119901334Y-115504760D01*
X119933384Y-115604203D01*
X119964834Y-115607281D01*
X120419256Y-115383625D01*
X120778506Y-115171512D01*
X121020940Y-114985285D01*
X121124916Y-114839285D01*
X121125120Y-114838370D01*
X121127245Y-114827044D01*
X121371897Y-114827044D01*
X121413521Y-114859636D01*
X121422285Y-114860000D01*
X121529699Y-114792606D01*
X121547932Y-114754167D01*
X121577454Y-114609465D01*
X121613083Y-114370880D01*
X121626185Y-114267334D01*
X121671821Y-113886334D01*
X121560672Y-114182667D01*
X121439778Y-114516428D01*
X121378751Y-114721931D01*
X121371897Y-114827044D01*
X121127245Y-114827044D01*
X121179745Y-114547236D01*
X121183247Y-114380975D01*
X121134461Y-114302666D01*
X121107834Y-114290228D01*
X121031169Y-114329892D01*
X121002375Y-114524716D01*
X121002000Y-114561608D01*
X120982352Y-114758006D01*
X120930159Y-114822802D01*
X120917334Y-114817667D01*
X120849700Y-114699933D01*
X120832667Y-114575603D01*
X120789343Y-114377555D01*
X120730236Y-114283436D01*
X120677083Y-114173616D01*
X120729026Y-114013364D01*
X120769129Y-113941763D01*
X120858064Y-113759265D01*
X120848476Y-113628676D01*
X120788277Y-113528091D01*
X120717004Y-113394457D01*
X120762014Y-113298948D01*
X120876384Y-113215879D01*
X121028993Y-113064934D01*
X121086667Y-112915712D01*
X121121226Y-112757697D01*
X121161552Y-112707046D01*
X121196111Y-112758601D01*
X121212283Y-112939708D01*
X121207609Y-113188882D01*
X121199887Y-113594574D01*
X121222268Y-113914210D01*
X121271137Y-114119374D01*
X121333992Y-114182667D01*
X121394799Y-114109436D01*
X121473038Y-113924655D01*
X121506134Y-113822834D01*
X121614606Y-113517552D01*
X121757702Y-113183078D01*
X121808939Y-113077324D01*
X121939689Y-112778218D01*
X122039550Y-112478237D01*
X122062826Y-112378824D01*
X122089744Y-112235334D01*
X122356667Y-112235334D01*
X122387645Y-112305024D01*
X122413111Y-112291778D01*
X122423244Y-112191298D01*
X122413111Y-112178889D01*
X122362777Y-112190511D01*
X122356667Y-112235334D01*
X122089744Y-112235334D01*
X122121512Y-112066000D01*
X121815756Y-112066000D01*
X121586106Y-112103564D01*
X121509169Y-112212115D01*
X121586948Y-112385442D01*
X121679334Y-112489334D01*
X121809499Y-112654749D01*
X121847997Y-112780077D01*
X121785167Y-112824080D01*
X121700138Y-112760627D01*
X121555169Y-112603619D01*
X121467667Y-112496447D01*
X121319070Y-112316702D01*
X121195224Y-112224290D01*
X121035452Y-112196654D01*
X120779074Y-112211234D01*
X120715516Y-112216819D01*
X120434509Y-112234541D01*
X120289901Y-112220737D01*
X120250846Y-112170397D01*
X120256712Y-112142286D01*
X120356257Y-112057446D01*
X120566432Y-111972781D01*
X120712529Y-111934810D01*
X121010553Y-111837778D01*
X121152711Y-111715876D01*
X121148604Y-111580214D01*
X121007832Y-111441897D01*
X120739996Y-111312034D01*
X120354698Y-111201732D01*
X120028334Y-111143257D01*
X119797040Y-111104967D01*
X119683684Y-111075070D01*
X119710834Y-111060325D01*
X119857765Y-111002406D01*
X119866263Y-110964221D01*
X120132244Y-110964221D01*
X120147824Y-111036224D01*
X120283515Y-111086512D01*
X120431662Y-111120847D01*
X120801250Y-111190020D01*
X121052365Y-111207610D01*
X121166256Y-111172732D01*
X121171090Y-111155834D01*
X121107418Y-111071016D01*
X120951515Y-110945829D01*
X120922079Y-110925664D01*
X120759973Y-110788993D01*
X120741887Y-110682125D01*
X120760278Y-110654206D01*
X120810482Y-110540169D01*
X120751025Y-110416852D01*
X120563963Y-110254399D01*
X120485763Y-110197468D01*
X120288478Y-110056989D01*
X121009647Y-110056989D01*
X121106220Y-110112736D01*
X121184456Y-110118667D01*
X121308598Y-110128328D01*
X121301323Y-110186043D01*
X121217245Y-110284046D01*
X121138021Y-110386103D01*
X121119401Y-110487889D01*
X121167255Y-110639405D01*
X121287455Y-110890658D01*
X121288790Y-110893336D01*
X121411706Y-111179233D01*
X121492024Y-111441315D01*
X121510000Y-111568416D01*
X121577605Y-111761535D01*
X121741826Y-111872954D01*
X121944776Y-111890266D01*
X122128565Y-111801065D01*
X122193940Y-111714988D01*
X122266129Y-111428713D01*
X122243985Y-111067355D01*
X122137665Y-110689081D01*
X121957330Y-110352055D01*
X121955442Y-110349442D01*
X121737387Y-110072460D01*
X121562222Y-109921552D01*
X121392763Y-109873588D01*
X121226771Y-109896146D01*
X121052181Y-109972436D01*
X121009647Y-110056989D01*
X120288478Y-110056989D01*
X120228647Y-110014386D01*
X120286150Y-110320900D01*
X120293960Y-110629629D01*
X120208322Y-110833954D01*
X120132244Y-110964221D01*
X119866263Y-110964221D01*
X119886633Y-110872699D01*
X119813388Y-110702924D01*
X119653980Y-110524803D01*
X119424359Y-110370058D01*
X119345338Y-110333424D01*
X119118239Y-110190656D01*
X119054667Y-110041299D01*
X118995354Y-109875014D01*
X118858862Y-109767347D01*
X118707362Y-109757003D01*
X118653601Y-109791599D01*
X118558211Y-109802882D01*
X118435627Y-109659490D01*
X118414971Y-109625517D01*
X118251770Y-109420991D01*
X118066831Y-109280982D01*
X118063023Y-109279215D01*
X117782844Y-109204796D01*
X117463295Y-109194329D01*
X117181299Y-109245979D01*
X117066208Y-109302980D01*
X116965877Y-109401026D01*
X116959835Y-109521893D01*
X116620055Y-109521893D01*
X116605174Y-109491974D01*
X116370943Y-109393679D01*
X115984680Y-109356912D01*
X115943383Y-109356667D01*
X115799366Y-109370244D01*
X115800048Y-109434719D01*
X115848133Y-109498349D01*
X115915067Y-109597888D01*
X115853303Y-109609303D01*
X115765667Y-109588807D01*
X115518295Y-109565692D01*
X115379170Y-109664962D01*
X115330063Y-109901626D01*
X115329334Y-109948025D01*
X113433746Y-109948025D01*
X113186477Y-109848471D01*
X113128000Y-109829297D01*
X112850040Y-109741379D01*
X112626319Y-109670422D01*
X112535334Y-109641414D01*
X112468944Y-109626617D01*
X111743677Y-109626617D01*
X111870821Y-109521201D01*
X111993435Y-109469047D01*
X112158144Y-109470496D01*
X112421447Y-109517701D01*
X112484254Y-109530572D01*
X112784493Y-109576444D01*
X113194713Y-109617774D01*
X113655563Y-109649383D01*
X114012726Y-109663976D01*
X114447926Y-109673078D01*
X114746739Y-109670326D01*
X114941923Y-109651845D01*
X115066236Y-109613762D01*
X115152438Y-109552201D01*
X115178042Y-109526139D01*
X115262308Y-109422094D01*
X115254969Y-109347061D01*
X115133426Y-109262119D01*
X114977391Y-109180561D01*
X114729044Y-109071155D01*
X114535313Y-109045823D01*
X114310783Y-109093428D01*
X114310252Y-109093587D01*
X113917017Y-109168918D01*
X113519377Y-109174640D01*
X113180616Y-109112857D01*
X113043334Y-109051485D01*
X112939265Y-108975734D01*
X112966219Y-108963178D01*
X112978802Y-108966766D01*
X113295107Y-109033590D01*
X113656907Y-109066667D01*
X113989761Y-109062182D01*
X114186334Y-109028623D01*
X114306723Y-108984445D01*
X114307085Y-108958947D01*
X114170131Y-108946149D01*
X113932334Y-108940783D01*
X113602672Y-108920976D01*
X113186282Y-108874880D01*
X112762035Y-108811572D01*
X112674037Y-108795971D01*
X112300336Y-108731636D01*
X112037925Y-108702735D01*
X111832551Y-108709061D01*
X111629966Y-108750410D01*
X111488704Y-108791479D01*
X110902611Y-108964897D01*
X110387570Y-109105393D01*
X109968368Y-109206788D01*
X109669796Y-109262902D01*
X109559892Y-109272268D01*
X109377075Y-109312221D01*
X109290559Y-109390723D01*
X109282649Y-109533133D01*
X109410223Y-109596539D01*
X109564945Y-109600650D01*
X109704042Y-109590723D01*
X109692662Y-109570342D01*
X109529667Y-109526000D01*
X109436606Y-109492231D01*
X109481903Y-109469851D01*
X109677295Y-109456388D01*
X109883988Y-109451351D01*
X110224095Y-109458469D01*
X110526898Y-109486795D01*
X110723630Y-109529281D01*
X110919779Y-109574660D01*
X111013693Y-109522182D01*
X111081864Y-109490302D01*
X111123894Y-109561235D01*
X111116726Y-109675490D01*
X111049451Y-109695333D01*
X110908464Y-109732707D01*
X110678678Y-109828950D01*
X110496483Y-109918641D01*
X110224635Y-110045642D01*
X110057572Y-110081483D01*
X109973108Y-110045641D01*
X109903666Y-110010015D01*
X110088585Y-110010015D01*
X110173422Y-109992251D01*
X110189485Y-109986223D01*
X110293163Y-109919151D01*
X110293907Y-109881018D01*
X110204342Y-109890515D01*
X110142089Y-109938827D01*
X110088585Y-110010015D01*
X109903666Y-110010015D01*
X109809087Y-109961493D01*
X109721743Y-109949333D01*
X109566269Y-109888559D01*
X109525693Y-109832944D01*
X109729584Y-109832944D01*
X109842041Y-109847603D01*
X109868334Y-109848161D01*
X110012929Y-109839010D01*
X110025660Y-109812505D01*
X110018112Y-109809131D01*
X109850032Y-109792382D01*
X109764112Y-109805994D01*
X109729584Y-109832944D01*
X109525693Y-109832944D01*
X109517951Y-109822333D01*
X109420786Y-109709985D01*
X109368208Y-109695333D01*
X109222896Y-109640660D01*
X109169563Y-109597696D01*
X109113876Y-109450715D01*
X109185948Y-109303817D01*
X109351007Y-109204601D01*
X109469146Y-109187602D01*
X109704792Y-109158220D01*
X110098147Y-109069866D01*
X110648272Y-108922774D01*
X111354231Y-108717177D01*
X111365909Y-108713677D01*
X111760423Y-108622722D01*
X112137950Y-108605136D01*
X112565570Y-108661208D01*
X112831667Y-108719973D01*
X113207606Y-108788232D01*
X113637588Y-108834081D01*
X113908753Y-108845651D01*
X114382454Y-108881508D01*
X114804801Y-108998287D01*
X114967086Y-109065368D01*
X115224606Y-109170871D01*
X115445843Y-109231249D01*
X115689585Y-109254646D01*
X116014622Y-109249202D01*
X116218334Y-109238646D01*
X116637037Y-109211641D01*
X117061457Y-109179117D01*
X117413065Y-109147199D01*
X117474519Y-109140683D01*
X117763436Y-109116604D01*
X117955688Y-109136165D01*
X118122027Y-109217597D01*
X118301834Y-109353853D01*
X118598196Y-109545302D01*
X118844980Y-109596824D01*
X118865982Y-109594949D01*
X119046487Y-109540236D01*
X119088771Y-109458436D01*
X118984636Y-109387724D01*
X118913659Y-109372883D01*
X118727047Y-109279775D01*
X118666821Y-109103954D01*
X118719908Y-108947224D01*
X118779574Y-108866108D01*
X118773949Y-108932247D01*
X118758932Y-108989708D01*
X118756052Y-109157240D01*
X118802856Y-109231020D01*
X118916026Y-109261975D01*
X118932321Y-109158071D01*
X118851392Y-108923576D01*
X118831566Y-108878985D01*
X118806159Y-108810958D01*
X119081480Y-108810958D01*
X119172240Y-108798235D01*
X119286622Y-108797142D01*
X119308667Y-108839608D01*
X119382198Y-108905400D01*
X119559379Y-108933326D01*
X119562667Y-108933334D01*
X119741009Y-108957858D01*
X119816647Y-109016947D01*
X119816667Y-109018000D01*
X119753346Y-109083193D01*
X119714963Y-109081500D01*
X119623866Y-109138823D01*
X119527097Y-109307408D01*
X119508075Y-109356667D01*
X119402891Y-109653000D01*
X119398112Y-109328445D01*
X119372701Y-109103793D01*
X119303641Y-109036313D01*
X119287500Y-109039911D01*
X119224269Y-109141281D01*
X119199302Y-109351972D01*
X119208457Y-109617369D01*
X119247591Y-109882855D01*
X119312562Y-110093815D01*
X119374137Y-110182167D01*
X119527839Y-110268343D01*
X119600016Y-110283559D01*
X119607094Y-110241009D01*
X119499167Y-110146232D01*
X119359357Y-109984900D01*
X119318488Y-109833173D01*
X119331595Y-109719022D01*
X119357531Y-109767214D01*
X119367777Y-109805046D01*
X119442082Y-109961018D01*
X119563091Y-110114594D01*
X119689934Y-110225705D01*
X119781741Y-110254285D01*
X119800741Y-110229521D01*
X119797536Y-110210538D01*
X119905201Y-110210538D01*
X119914119Y-110455731D01*
X119957971Y-110702686D01*
X120006026Y-110842090D01*
X120063881Y-110829515D01*
X120126149Y-110750003D01*
X120218065Y-110578679D01*
X120240000Y-110483485D01*
X120188576Y-110381617D01*
X120155334Y-110372667D01*
X120091688Y-110300211D01*
X120070667Y-110161000D01*
X120041684Y-110001885D01*
X119986000Y-109949334D01*
X119929833Y-110023669D01*
X119905201Y-110210538D01*
X119797536Y-110210538D01*
X119777306Y-110090728D01*
X119692987Y-109923950D01*
X119616190Y-109733037D01*
X119619110Y-109638889D01*
X119760222Y-109638889D01*
X119771845Y-109689223D01*
X119816667Y-109695334D01*
X119886357Y-109664355D01*
X119873111Y-109638889D01*
X119772632Y-109628756D01*
X119760222Y-109638889D01*
X119619110Y-109638889D01*
X119621405Y-109564948D01*
X119698132Y-109471256D01*
X119784243Y-109475754D01*
X119881061Y-109482566D01*
X119890292Y-109459453D01*
X119889988Y-109434679D01*
X120004118Y-109434679D01*
X120064371Y-109541154D01*
X120197667Y-109658899D01*
X120417646Y-109818732D01*
X120528275Y-109853508D01*
X120533453Y-109764059D01*
X120520869Y-109727896D01*
X120511372Y-109634752D01*
X120615048Y-109633139D01*
X120671692Y-109647614D01*
X120811867Y-109681691D01*
X120802096Y-109648333D01*
X120706644Y-109569787D01*
X120629859Y-109526000D01*
X121394854Y-109526000D01*
X121760261Y-109838775D01*
X122092440Y-110185507D01*
X122306346Y-110573297D01*
X122419235Y-111043161D01*
X122447979Y-111473334D01*
X122454656Y-111786295D01*
X122465027Y-111945557D01*
X122483943Y-111966751D01*
X122516257Y-111865505D01*
X122539964Y-111769667D01*
X122576402Y-111437036D01*
X122556664Y-110965288D01*
X122519877Y-110626667D01*
X122449011Y-110169842D01*
X122360257Y-109856903D01*
X122235569Y-109662403D01*
X122056902Y-109560896D01*
X121806212Y-109526934D01*
X121739381Y-109526000D01*
X121394854Y-109526000D01*
X120629859Y-109526000D01*
X120566314Y-109489764D01*
X120504875Y-109535709D01*
X120439403Y-109552647D01*
X120321210Y-109437071D01*
X120317969Y-109432806D01*
X120195559Y-109300764D01*
X120102625Y-109300588D01*
X120054071Y-109341820D01*
X120004118Y-109434679D01*
X119889988Y-109434679D01*
X119887958Y-109269405D01*
X119931991Y-109152121D01*
X119986000Y-109145000D01*
X120046144Y-109112119D01*
X120047914Y-109100262D01*
X120176416Y-109100262D01*
X120247364Y-109231995D01*
X120280252Y-109269701D01*
X120413669Y-109382340D01*
X120525948Y-109364121D01*
X120565438Y-109335201D01*
X120650969Y-109281773D01*
X120637136Y-109327604D01*
X120642401Y-109392815D01*
X120747883Y-109381229D01*
X120885510Y-109298328D01*
X120917334Y-109224789D01*
X120872968Y-109096150D01*
X121311459Y-109096150D01*
X121430565Y-109191203D01*
X121467667Y-109212313D01*
X121692483Y-109321799D01*
X121795744Y-109345560D01*
X121767681Y-109285321D01*
X121647605Y-109180549D01*
X121488966Y-109083754D01*
X121853991Y-109083754D01*
X121930250Y-109101084D01*
X121949503Y-109101370D01*
X122102590Y-109058227D01*
X122145000Y-109018000D01*
X122151832Y-108943208D01*
X122050875Y-108955639D01*
X121933334Y-109018000D01*
X121853991Y-109083754D01*
X121488966Y-109083754D01*
X121465796Y-109069617D01*
X121326019Y-109037664D01*
X121318687Y-109039585D01*
X121311459Y-109096150D01*
X120872968Y-109096150D01*
X120872153Y-109093788D01*
X120779560Y-109059994D01*
X120715250Y-109123306D01*
X120686444Y-109122156D01*
X120673928Y-108986452D01*
X120674263Y-108933334D01*
X120678145Y-108605029D01*
X120666519Y-108424289D01*
X120630276Y-108369468D01*
X120560308Y-108418916D01*
X120491183Y-108498213D01*
X120362305Y-108682110D01*
X120331379Y-108789131D01*
X120395940Y-108795701D01*
X120513708Y-108713622D01*
X120627930Y-108622973D01*
X120627760Y-108647070D01*
X120591379Y-108696437D01*
X120521894Y-108907205D01*
X120538095Y-109035104D01*
X120573776Y-109169345D01*
X120541896Y-109156407D01*
X120466123Y-109060334D01*
X120349105Y-108949184D01*
X120248891Y-108978045D01*
X120230767Y-108994833D01*
X120176416Y-109100262D01*
X120047914Y-109100262D01*
X120070643Y-108948005D01*
X120070667Y-108941309D01*
X120016249Y-108712548D01*
X119881581Y-108572412D01*
X119709540Y-108548665D01*
X119581288Y-108624426D01*
X119498324Y-108719871D01*
X119550638Y-108730001D01*
X119612333Y-108716257D01*
X119765393Y-108717347D01*
X119913261Y-108767314D01*
X119993379Y-108838538D01*
X119982974Y-108879915D01*
X119881577Y-108890933D01*
X119684895Y-108865510D01*
X119646760Y-108857850D01*
X119428207Y-108778157D01*
X119362369Y-108658967D01*
X119362759Y-108652665D01*
X119316718Y-108531241D01*
X119256926Y-108510000D01*
X119150136Y-108530627D01*
X119139334Y-108545409D01*
X119112984Y-108644893D01*
X119087573Y-108715702D01*
X119081480Y-108810958D01*
X118806159Y-108810958D01*
X118753350Y-108669567D01*
X118713602Y-108489619D01*
X118755531Y-108489619D01*
X118771558Y-108531397D01*
X118840673Y-108551989D01*
X118893988Y-108462047D01*
X118946599Y-108366283D01*
X118965346Y-108383000D01*
X118999302Y-108405187D01*
X119062339Y-108325978D01*
X119119669Y-108200803D01*
X119138037Y-108107834D01*
X119071106Y-108014158D01*
X119012334Y-108002000D01*
X118908402Y-108072177D01*
X118885334Y-108166337D01*
X118845786Y-108328875D01*
X118799286Y-108383854D01*
X118755531Y-108489619D01*
X118713602Y-108489619D01*
X118697947Y-108418747D01*
X118660147Y-108089206D01*
X118636920Y-107681843D01*
X118722684Y-107681843D01*
X118740289Y-107744897D01*
X118772025Y-107684646D01*
X118883794Y-107616367D01*
X119040507Y-107626490D01*
X119185652Y-107650925D01*
X119181396Y-107623021D01*
X119113024Y-107576926D01*
X118929901Y-107519001D01*
X118779090Y-107560220D01*
X118722684Y-107681843D01*
X118636920Y-107681843D01*
X118634740Y-107643625D01*
X118626400Y-107409334D01*
X118628202Y-107372370D01*
X118631334Y-107372370D01*
X118653241Y-107466275D01*
X118744611Y-107420559D01*
X118758334Y-107409334D01*
X118862004Y-107276841D01*
X118878649Y-107208467D01*
X118853430Y-107173224D01*
X118829085Y-107219361D01*
X118745843Y-107288056D01*
X118708769Y-107277864D01*
X118643732Y-107303003D01*
X118631334Y-107372370D01*
X118628202Y-107372370D01*
X118644771Y-107032576D01*
X118715261Y-106696838D01*
X118733532Y-106652948D01*
X118813829Y-106652948D01*
X118837077Y-106782082D01*
X118887696Y-106861847D01*
X118993073Y-106972897D01*
X119009041Y-106942292D01*
X118940868Y-106777101D01*
X118862414Y-106653718D01*
X118813829Y-106652948D01*
X118733532Y-106652948D01*
X118752760Y-106606761D01*
X118969506Y-106606761D01*
X119014865Y-106747178D01*
X119026445Y-106760222D01*
X119090771Y-106808588D01*
X119127943Y-106754369D01*
X119160056Y-106605000D01*
X119156439Y-106433379D01*
X119085259Y-106393334D01*
X118997473Y-106460731D01*
X118969506Y-106606761D01*
X118752760Y-106606761D01*
X118824534Y-106434359D01*
X118959254Y-106277379D01*
X119103105Y-106256960D01*
X119247163Y-106244413D01*
X119287927Y-106224000D01*
X119435667Y-106224000D01*
X119439537Y-106302144D01*
X119468007Y-106308667D01*
X119587698Y-106246881D01*
X119605000Y-106224000D01*
X119601130Y-106145857D01*
X119572660Y-106139334D01*
X119452969Y-106201119D01*
X119435667Y-106224000D01*
X119287927Y-106224000D01*
X119362447Y-106186684D01*
X119578045Y-106069714D01*
X119711751Y-106017742D01*
X119841894Y-105988901D01*
X119857084Y-106047856D01*
X119805203Y-106173015D01*
X119718834Y-106318794D01*
X119656120Y-106358286D01*
X119546181Y-106361840D01*
X119414500Y-106400546D01*
X119258684Y-106532186D01*
X119235254Y-106724309D01*
X119329834Y-106896821D01*
X119392562Y-106975056D01*
X119330797Y-106951331D01*
X119324200Y-106947609D01*
X119187302Y-106956062D01*
X119094060Y-107041022D01*
X118983416Y-107250307D01*
X119024882Y-107391240D01*
X119139334Y-107451667D01*
X119249303Y-107522446D01*
X119299178Y-107674164D01*
X119308667Y-107880706D01*
X119326762Y-108107172D01*
X119372649Y-108240460D01*
X119398330Y-108256000D01*
X119456628Y-108298956D01*
X119448788Y-108319500D01*
X119489648Y-108370923D01*
X119619739Y-108395622D01*
X119830060Y-108461948D01*
X120034948Y-108600881D01*
X120240000Y-108793517D01*
X120240000Y-108611377D01*
X120306461Y-108434168D01*
X120446110Y-108294189D01*
X120470777Y-108265218D01*
X120832667Y-108265218D01*
X120886797Y-108424378D01*
X121006145Y-108558794D01*
X121094542Y-108594667D01*
X121171173Y-108527431D01*
X121204608Y-108460742D01*
X121255723Y-108224864D01*
X121218912Y-108057283D01*
X121119130Y-108002000D01*
X121024821Y-108044744D01*
X121020193Y-108197711D01*
X121026461Y-108233223D01*
X121050346Y-108387177D01*
X121021179Y-108391236D01*
X120951664Y-108301708D01*
X120862127Y-108203561D01*
X120832981Y-108249642D01*
X120832667Y-108265218D01*
X120470777Y-108265218D01*
X120603930Y-108108838D01*
X120676466Y-107932221D01*
X120854652Y-107932221D01*
X120996242Y-107945863D01*
X121085691Y-107935537D01*
X121289187Y-107938183D01*
X121393198Y-108038366D01*
X121400690Y-108056034D01*
X121452068Y-108167791D01*
X121480675Y-108120900D01*
X121494467Y-108055493D01*
X121468050Y-107891821D01*
X121611643Y-107891821D01*
X121644066Y-108032215D01*
X121755127Y-108152242D01*
X121828514Y-108171334D01*
X121906047Y-108152403D01*
X121866535Y-108071512D01*
X121805864Y-108001481D01*
X121667735Y-107877376D01*
X121611643Y-107891821D01*
X121468050Y-107891821D01*
X121464757Y-107871423D01*
X121393634Y-107764682D01*
X121273146Y-107679973D01*
X121136254Y-107702438D01*
X121046832Y-107746663D01*
X120870940Y-107863025D01*
X120854652Y-107932221D01*
X120676466Y-107932221D01*
X120722740Y-107819553D01*
X120767316Y-107577056D01*
X120840024Y-107577056D01*
X120899637Y-107643234D01*
X121065500Y-107627878D01*
X121282581Y-107619426D01*
X121425334Y-107662187D01*
X121600402Y-107739779D01*
X121706731Y-107719492D01*
X121709951Y-107621000D01*
X121597803Y-107526585D01*
X121433208Y-107494000D01*
X121222819Y-107456970D01*
X121100075Y-107388875D01*
X120994718Y-107331240D01*
X120915104Y-107410041D01*
X120840024Y-107577056D01*
X120767316Y-107577056D01*
X120783212Y-107490584D01*
X120771535Y-107212382D01*
X120721151Y-107079648D01*
X120603377Y-107017800D01*
X120380412Y-106998926D01*
X119979171Y-106987350D01*
X119723151Y-106974631D01*
X119588274Y-106955996D01*
X119550466Y-106926673D01*
X119585652Y-106881890D01*
X119626635Y-106849518D01*
X119719739Y-106762553D01*
X119672742Y-106731515D01*
X119647334Y-106729326D01*
X119610014Y-106700595D01*
X119710834Y-106644695D01*
X119858177Y-106537737D01*
X119901334Y-106438395D01*
X119942601Y-106323930D01*
X119979075Y-106308667D01*
X120119403Y-106280735D01*
X120200592Y-106253495D01*
X120295960Y-106232989D01*
X120282742Y-106310120D01*
X120247322Y-106379653D01*
X120136874Y-106511554D01*
X120050821Y-106540658D01*
X119963590Y-106583680D01*
X119946400Y-106716784D01*
X120006881Y-106872638D01*
X120012339Y-106880167D01*
X120132088Y-106954237D01*
X120300954Y-106984244D01*
X120445380Y-106965690D01*
X120494000Y-106909616D01*
X120422807Y-106831899D01*
X120250426Y-106748386D01*
X120240000Y-106744687D01*
X120064579Y-106670520D01*
X120021508Y-106638155D01*
X120324667Y-106638155D01*
X120378408Y-106727692D01*
X120401323Y-106732000D01*
X120504342Y-106782438D01*
X120687383Y-106912113D01*
X120832667Y-107028334D01*
X121054422Y-107198550D01*
X121223017Y-107301046D01*
X121314701Y-107326184D01*
X121305722Y-107264324D01*
X121259078Y-107201376D01*
X121201307Y-107041276D01*
X121281232Y-106925349D01*
X121387997Y-106901334D01*
X121483731Y-106977249D01*
X121510000Y-107149125D01*
X121570647Y-107362961D01*
X121736853Y-107451215D01*
X121915822Y-107425580D01*
X121975700Y-107369040D01*
X121905060Y-107255668D01*
X121894655Y-107244039D01*
X121790663Y-107095021D01*
X121764000Y-107013622D01*
X121706883Y-106897911D01*
X121592815Y-106772658D01*
X121469208Y-106677662D01*
X121353957Y-106665915D01*
X121175313Y-106735404D01*
X121124276Y-106759535D01*
X120883917Y-106866911D01*
X120776138Y-106892204D01*
X120785780Y-106836081D01*
X120834365Y-106772287D01*
X120938977Y-106684665D01*
X120982864Y-106684642D01*
X121080286Y-106683213D01*
X121185664Y-106639664D01*
X121425082Y-106589885D01*
X121642721Y-106707544D01*
X121812171Y-106943511D01*
X121999054Y-107181626D01*
X122219275Y-107323115D01*
X122397528Y-107377431D01*
X122485763Y-107389264D01*
X122486558Y-107388549D01*
X122437403Y-107326102D01*
X122291242Y-107180986D01*
X122077951Y-106982666D01*
X122042202Y-106950320D01*
X121711218Y-106687534D01*
X121409367Y-106513742D01*
X121269874Y-106466098D01*
X121115848Y-106429657D01*
X121106245Y-106415867D01*
X121250531Y-106422319D01*
X121397742Y-106433529D01*
X121729020Y-106434794D01*
X121911225Y-106374977D01*
X121924856Y-106361215D01*
X121953822Y-106289742D01*
X121850390Y-106279537D01*
X121775601Y-106288904D01*
X121525881Y-106265211D01*
X121402701Y-106189273D01*
X121179859Y-106066820D01*
X120925693Y-106108375D01*
X120689221Y-106273164D01*
X120562786Y-106398274D01*
X120532422Y-106448279D01*
X120548628Y-106442984D01*
X120656612Y-106464299D01*
X120694540Y-106521867D01*
X120697071Y-106608010D01*
X120581946Y-106607990D01*
X120534078Y-106596869D01*
X120369471Y-106586713D01*
X120324667Y-106638155D01*
X120021508Y-106638155D01*
X119986275Y-106611680D01*
X119986000Y-106609404D01*
X120044908Y-106581199D01*
X120055232Y-106583833D01*
X120148852Y-106544336D01*
X120314418Y-106427986D01*
X120502161Y-106275656D01*
X120662312Y-106128216D01*
X120745101Y-106026540D01*
X120748000Y-106014920D01*
X120673091Y-105983187D01*
X120487385Y-105960865D01*
X120430500Y-105957986D01*
X120113000Y-105945971D01*
X120451667Y-105891130D01*
X120692195Y-105873813D01*
X120868662Y-105898981D01*
X120895089Y-105912617D01*
X121057834Y-105951539D01*
X121140702Y-105934892D01*
X121311606Y-105953352D01*
X121446054Y-106057403D01*
X121628581Y-106184381D01*
X121856608Y-106179923D01*
X122036359Y-106161737D01*
X122100273Y-106225219D01*
X122102667Y-106256627D01*
X122035030Y-106393628D01*
X121917320Y-106486570D01*
X121809738Y-106553021D01*
X121798996Y-106617685D01*
X121897986Y-106722095D01*
X122023153Y-106827524D01*
X122304300Y-107063344D01*
X122475985Y-107217018D01*
X122560393Y-107312903D01*
X122579711Y-107375355D01*
X122562185Y-107419282D01*
X122448110Y-107468745D01*
X122305097Y-107456914D01*
X122146441Y-107437810D01*
X122119695Y-107499290D01*
X122225615Y-107650608D01*
X122330174Y-107764534D01*
X122453247Y-107912675D01*
X122485549Y-107995606D01*
X122471932Y-108002000D01*
X122360574Y-107945421D01*
X122203727Y-107807485D01*
X122187334Y-107790333D01*
X121993648Y-107620841D01*
X121877958Y-107594264D01*
X121848526Y-107699206D01*
X121913615Y-107924275D01*
X121981868Y-108073659D01*
X122082742Y-108247970D01*
X122159591Y-108337491D01*
X122187845Y-108321716D01*
X122160065Y-108222395D01*
X122189475Y-108124727D01*
X122327267Y-108066055D01*
X122515556Y-108053300D01*
X122696457Y-108093381D01*
X122780000Y-108148289D01*
X122843280Y-108228080D01*
X122796742Y-108252741D01*
X122613713Y-108233110D01*
X122582625Y-108228491D01*
X122381466Y-108206723D01*
X122318056Y-108230612D01*
X122353903Y-108295003D01*
X122399043Y-108416125D01*
X122324094Y-108467345D01*
X122183291Y-108421043D01*
X121991698Y-108351926D01*
X121901800Y-108341963D01*
X121794831Y-108358393D01*
X121825283Y-108438686D01*
X121859467Y-108481711D01*
X121924406Y-108577783D01*
X121867472Y-108592533D01*
X121751323Y-108566895D01*
X121505303Y-108560731D01*
X121260754Y-108622975D01*
X120994529Y-108734914D01*
X121317157Y-108880399D01*
X121542485Y-108968112D01*
X121712699Y-108976631D01*
X121921139Y-108908222D01*
X121951160Y-108895783D01*
X122264549Y-108813355D01*
X122526912Y-108869805D01*
X122712376Y-108997926D01*
X122826641Y-109068542D01*
X122943287Y-109042014D01*
X123091100Y-108936844D01*
X123326283Y-108805498D01*
X123580440Y-108800241D01*
X123603225Y-108804291D01*
X123757634Y-108825801D01*
X123844102Y-108803028D01*
X123863125Y-108711129D01*
X123815196Y-108525263D01*
X123700812Y-108220588D01*
X123618922Y-108016104D01*
X123473475Y-107602526D01*
X123347557Y-107155334D01*
X123372667Y-107155334D01*
X123403645Y-107225024D01*
X123429111Y-107211778D01*
X123439244Y-107111298D01*
X123429111Y-107098889D01*
X123378777Y-107110511D01*
X123372667Y-107155334D01*
X123347557Y-107155334D01*
X123344108Y-107143088D01*
X123259088Y-106738676D01*
X123161000Y-106110351D01*
X121552334Y-105748171D01*
X121052095Y-105636036D01*
X120608686Y-105537570D01*
X120248488Y-105458557D01*
X119997885Y-105404779D01*
X119883257Y-105382019D01*
X119880167Y-105381662D01*
X119819377Y-105435979D01*
X119836084Y-105569995D01*
X119919052Y-105719192D01*
X119943667Y-105746238D01*
X120056497Y-105890225D01*
X120039937Y-105953880D01*
X119922500Y-105930286D01*
X119809331Y-105894740D01*
X119552293Y-105818967D01*
X119170563Y-105708465D01*
X118683313Y-105568733D01*
X118109720Y-105405270D01*
X117468958Y-105223574D01*
X116780201Y-105029143D01*
X116768667Y-105025895D01*
X115909844Y-104781963D01*
X115203696Y-104576448D01*
X114638946Y-104405415D01*
X114204317Y-104264931D01*
X114049620Y-104209148D01*
X114558223Y-104209148D01*
X114561124Y-104222003D01*
X114618656Y-104248914D01*
X114741744Y-104293176D01*
X114941309Y-104358083D01*
X115228275Y-104446930D01*
X115613565Y-104563010D01*
X116108102Y-104709617D01*
X116722808Y-104890047D01*
X117468607Y-105107594D01*
X118356421Y-105365551D01*
X119286425Y-105635137D01*
X119814517Y-105788100D01*
X119682349Y-105532515D01*
X119603412Y-105350692D01*
X119585093Y-105243917D01*
X119588211Y-105238901D01*
X119678502Y-105245347D01*
X119908105Y-105285530D01*
X120251524Y-105354307D01*
X120683260Y-105446536D01*
X121177817Y-105557075D01*
X121266620Y-105577390D01*
X121772776Y-105691798D01*
X122223614Y-105790341D01*
X122592772Y-105867533D01*
X122853886Y-105917883D01*
X122980596Y-105935904D01*
X122986515Y-105935450D01*
X123087249Y-105860490D01*
X123225820Y-105702725D01*
X123238921Y-105685422D01*
X123329702Y-105541996D01*
X123337582Y-105436640D01*
X123242205Y-105352676D01*
X123023213Y-105273428D01*
X122660249Y-105182217D01*
X122610667Y-105170739D01*
X122361427Y-105113025D01*
X121981342Y-105024668D01*
X121504448Y-104913596D01*
X120964782Y-104787740D01*
X120396379Y-104655026D01*
X120245286Y-104619721D01*
X119716005Y-104497805D01*
X119244509Y-104392593D01*
X118854859Y-104309176D01*
X118571118Y-104252644D01*
X118417345Y-104228086D01*
X118397021Y-104228757D01*
X118414814Y-104314097D01*
X118503462Y-104475059D01*
X118509037Y-104483630D01*
X118595403Y-104651989D01*
X118604712Y-104754609D01*
X118602964Y-104756591D01*
X118508341Y-104758223D01*
X118270653Y-104734987D01*
X117913833Y-104690022D01*
X117461820Y-104626469D01*
X116938547Y-104547466D01*
X116599195Y-104493772D01*
X116041823Y-104405900D01*
X115538849Y-104330035D01*
X115114819Y-104269600D01*
X114794280Y-104228017D01*
X114601781Y-104208711D01*
X114558223Y-104209148D01*
X114049620Y-104209148D01*
X113888532Y-104151061D01*
X113853129Y-104135556D01*
X114256889Y-104135556D01*
X114268511Y-104185890D01*
X114313334Y-104192000D01*
X114383024Y-104161022D01*
X114369778Y-104135556D01*
X114269298Y-104125423D01*
X114256889Y-104135556D01*
X113853129Y-104135556D01*
X113680313Y-104059872D01*
X113568384Y-103987430D01*
X113541467Y-103929800D01*
X113556373Y-103905303D01*
X113646855Y-103907915D01*
D13*
G04 #@! TO.C,C11*
X133445366Y-127954504D02*
X133445366Y-128280062D01*
X134465366Y-127954504D02*
X134465366Y-128280062D01*
G04 #@! TO.C,C12*
X131818145Y-113707283D02*
X131492587Y-113707283D01*
X131818145Y-114727283D02*
X131492587Y-114727283D01*
D14*
G04 #@! TO.C,U4*
X139080366Y-123942283D02*
X138855366Y-123942283D01*
X139080366Y-116692283D02*
X138780366Y-116692283D01*
X131830366Y-116692283D02*
X132130366Y-116692283D01*
X131830366Y-123942283D02*
X132130366Y-123942283D01*
X139080366Y-123942283D02*
X139080366Y-123642283D01*
X131830366Y-123942283D02*
X131830366Y-123642283D01*
X131830366Y-116692283D02*
X131830366Y-116992283D01*
X139080366Y-116692283D02*
X139080366Y-116992283D01*
X138855366Y-123942283D02*
X138855366Y-125167283D01*
G04 #@! TO.C,C10*
X137312508Y-126424425D02*
X137360127Y-126376806D01*
X137407746Y-126233949D01*
X137407746Y-126138711D01*
X137360127Y-125995854D01*
X137264889Y-125900616D01*
X137169651Y-125852997D01*
X136979175Y-125805378D01*
X136836318Y-125805378D01*
X136645842Y-125852997D01*
X136550604Y-125900616D01*
X136455366Y-125995854D01*
X136407746Y-126138711D01*
X136407746Y-126233949D01*
X136455366Y-126376806D01*
X136502985Y-126424425D01*
X137407746Y-127376806D02*
X137407746Y-126805378D01*
X137407746Y-127091092D02*
X136407746Y-127091092D01*
X136550604Y-126995854D01*
X136645842Y-126900616D01*
X136693461Y-126805378D01*
X136407746Y-127995854D02*
X136407746Y-128091092D01*
X136455366Y-128186330D01*
X136502985Y-128233949D01*
X136598223Y-128281568D01*
X136788699Y-128329187D01*
X137026794Y-128329187D01*
X137217270Y-128281568D01*
X137312508Y-128233949D01*
X137360127Y-128186330D01*
X137407746Y-128091092D01*
X137407746Y-127995854D01*
X137360127Y-127900616D01*
X137312508Y-127852997D01*
X137217270Y-127805378D01*
X137026794Y-127757759D01*
X136788699Y-127757759D01*
X136598223Y-127805378D01*
X136502985Y-127852997D01*
X136455366Y-127900616D01*
X136407746Y-127995854D01*
G04 #@! TO.C,C1*
X130916666Y-108107142D02*
X130964285Y-108154761D01*
X131107142Y-108202380D01*
X131202380Y-108202380D01*
X131345238Y-108154761D01*
X131440476Y-108059523D01*
X131488095Y-107964285D01*
X131535714Y-107773809D01*
X131535714Y-107630952D01*
X131488095Y-107440476D01*
X131440476Y-107345238D01*
X131345238Y-107250000D01*
X131202380Y-107202380D01*
X131107142Y-107202380D01*
X130964285Y-107250000D01*
X130916666Y-107297619D01*
X129964285Y-108202380D02*
X130535714Y-108202380D01*
X130250000Y-108202380D02*
X130250000Y-107202380D01*
X130345238Y-107345238D01*
X130440476Y-107440476D01*
X130535714Y-107488095D01*
G04 #@! TO.C,C2*
X130166666Y-112457142D02*
X130214285Y-112504761D01*
X130357142Y-112552380D01*
X130452380Y-112552380D01*
X130595238Y-112504761D01*
X130690476Y-112409523D01*
X130738095Y-112314285D01*
X130785714Y-112123809D01*
X130785714Y-111980952D01*
X130738095Y-111790476D01*
X130690476Y-111695238D01*
X130595238Y-111600000D01*
X130452380Y-111552380D01*
X130357142Y-111552380D01*
X130214285Y-111600000D01*
X130166666Y-111647619D01*
X129785714Y-111647619D02*
X129738095Y-111600000D01*
X129642857Y-111552380D01*
X129404761Y-111552380D01*
X129309523Y-111600000D01*
X129261904Y-111647619D01*
X129214285Y-111742857D01*
X129214285Y-111838095D01*
X129261904Y-111980952D01*
X129833333Y-112552380D01*
X129214285Y-112552380D01*
G04 #@! TO.C,C5*
X142557142Y-129233333D02*
X142604761Y-129185714D01*
X142652380Y-129042857D01*
X142652380Y-128947619D01*
X142604761Y-128804761D01*
X142509523Y-128709523D01*
X142414285Y-128661904D01*
X142223809Y-128614285D01*
X142080952Y-128614285D01*
X141890476Y-128661904D01*
X141795238Y-128709523D01*
X141700000Y-128804761D01*
X141652380Y-128947619D01*
X141652380Y-129042857D01*
X141700000Y-129185714D01*
X141747619Y-129233333D01*
X141652380Y-130138095D02*
X141652380Y-129661904D01*
X142128571Y-129614285D01*
X142080952Y-129661904D01*
X142033333Y-129757142D01*
X142033333Y-129995238D01*
X142080952Y-130090476D01*
X142128571Y-130138095D01*
X142223809Y-130185714D01*
X142461904Y-130185714D01*
X142557142Y-130138095D01*
X142604761Y-130090476D01*
X142652380Y-129995238D01*
X142652380Y-129757142D01*
X142604761Y-129661904D01*
X142557142Y-129614285D01*
G04 #@! TO.C,C7*
X140557142Y-129133333D02*
X140604761Y-129085714D01*
X140652380Y-128942857D01*
X140652380Y-128847619D01*
X140604761Y-128704761D01*
X140509523Y-128609523D01*
X140414285Y-128561904D01*
X140223809Y-128514285D01*
X140080952Y-128514285D01*
X139890476Y-128561904D01*
X139795238Y-128609523D01*
X139700000Y-128704761D01*
X139652380Y-128847619D01*
X139652380Y-128942857D01*
X139700000Y-129085714D01*
X139747619Y-129133333D01*
X139652380Y-129466666D02*
X139652380Y-130133333D01*
X140652380Y-129704761D01*
G04 #@! TO.C,U3*
X132452380Y-108938095D02*
X133261904Y-108938095D01*
X133357142Y-108985714D01*
X133404761Y-109033333D01*
X133452380Y-109128571D01*
X133452380Y-109319047D01*
X133404761Y-109414285D01*
X133357142Y-109461904D01*
X133261904Y-109509523D01*
X132452380Y-109509523D01*
X132452380Y-109890476D02*
X132452380Y-110509523D01*
X132833333Y-110176190D01*
X132833333Y-110319047D01*
X132880952Y-110414285D01*
X132928571Y-110461904D01*
X133023809Y-110509523D01*
X133261904Y-110509523D01*
X133357142Y-110461904D01*
X133404761Y-110414285D01*
X133452380Y-110319047D01*
X133452380Y-110033333D01*
X133404761Y-109938095D01*
X133357142Y-109890476D01*
G04 #@! TO.C,C11*
X132857142Y-126157142D02*
X132904761Y-126109523D01*
X132952380Y-125966666D01*
X132952380Y-125871428D01*
X132904761Y-125728571D01*
X132809523Y-125633333D01*
X132714285Y-125585714D01*
X132523809Y-125538095D01*
X132380952Y-125538095D01*
X132190476Y-125585714D01*
X132095238Y-125633333D01*
X132000000Y-125728571D01*
X131952380Y-125871428D01*
X131952380Y-125966666D01*
X132000000Y-126109523D01*
X132047619Y-126157142D01*
X132952380Y-127109523D02*
X132952380Y-126538095D01*
X132952380Y-126823809D02*
X131952380Y-126823809D01*
X132095238Y-126728571D01*
X132190476Y-126633333D01*
X132238095Y-126538095D01*
X132952380Y-128061904D02*
X132952380Y-127490476D01*
X132952380Y-127776190D02*
X131952380Y-127776190D01*
X132095238Y-127680952D01*
X132190476Y-127585714D01*
X132238095Y-127490476D01*
G04 #@! TO.C,C12*
X129442857Y-114657142D02*
X129490476Y-114704761D01*
X129633333Y-114752380D01*
X129728571Y-114752380D01*
X129871428Y-114704761D01*
X129966666Y-114609523D01*
X130014285Y-114514285D01*
X130061904Y-114323809D01*
X130061904Y-114180952D01*
X130014285Y-113990476D01*
X129966666Y-113895238D01*
X129871428Y-113800000D01*
X129728571Y-113752380D01*
X129633333Y-113752380D01*
X129490476Y-113800000D01*
X129442857Y-113847619D01*
X128490476Y-114752380D02*
X129061904Y-114752380D01*
X128776190Y-114752380D02*
X128776190Y-113752380D01*
X128871428Y-113895238D01*
X128966666Y-113990476D01*
X129061904Y-114038095D01*
X128109523Y-113847619D02*
X128061904Y-113800000D01*
X127966666Y-113752380D01*
X127728571Y-113752380D01*
X127633333Y-113800000D01*
X127585714Y-113847619D01*
X127538095Y-113942857D01*
X127538095Y-114038095D01*
X127585714Y-114180952D01*
X128157142Y-114752380D01*
X127538095Y-114752380D01*
G04 #@! TO.C,U4*
X140757746Y-119555378D02*
X141567270Y-119555378D01*
X141662508Y-119602997D01*
X141710127Y-119650616D01*
X141757746Y-119745854D01*
X141757746Y-119936330D01*
X141710127Y-120031568D01*
X141662508Y-120079187D01*
X141567270Y-120126806D01*
X140757746Y-120126806D01*
X141091080Y-121031568D02*
X141757746Y-121031568D01*
X140710127Y-120793473D02*
X141424413Y-120555378D01*
X141424413Y-121174425D01*
G04 #@! TD*
M02*
