G04 #@! TF.GenerationSoftware,KiCad,Pcbnew,(5.0.0)*
G04 #@! TF.CreationDate,2019-02-21T23:12:31-08:00*
G04 #@! TF.ProjectId,bms4_f051,626D73345F663035312E6B696361645F,rev?*
G04 #@! TF.SameCoordinates,Original*
G04 #@! TF.FileFunction,Copper,L1,Top,Signal*
G04 #@! TF.FilePolarity,Positive*
%FSLAX46Y46*%
G04 Gerber Fmt 4.6, Leading zero omitted, Abs format (unit mm)*
G04 Created by KiCad (PCBNEW (5.0.0)) date 02/21/19 23:12:31*
%MOMM*%
%LPD*%
G01*
G04 APERTURE LIST*
G04 #@! TA.AperFunction,Conductor*
%ADD10C,0.100000*%
G04 #@! TD*
G04 #@! TA.AperFunction,SMDPad,CuDef*
%ADD11C,0.975000*%
G04 #@! TD*
G04 #@! TA.AperFunction,SMDPad,CuDef*
%ADD12C,0.875000*%
G04 #@! TD*
G04 #@! TA.AperFunction,SMDPad,CuDef*
%ADD13R,1.500000X1.100000*%
G04 #@! TD*
G04 #@! TA.AperFunction,ComponentPad*
%ADD14O,1.700000X1.950000*%
G04 #@! TD*
G04 #@! TA.AperFunction,ComponentPad*
%ADD15R,1.700000X1.950000*%
G04 #@! TD*
G04 #@! TA.AperFunction,ComponentPad*
%ADD16R,1.950000X1.700000*%
G04 #@! TD*
G04 #@! TA.AperFunction,ComponentPad*
%ADD17O,1.950000X1.700000*%
G04 #@! TD*
G04 #@! TA.AperFunction,ComponentPad*
%ADD18R,1.700000X1.700000*%
G04 #@! TD*
G04 #@! TA.AperFunction,ComponentPad*
%ADD19O,1.700000X1.700000*%
G04 #@! TD*
G04 #@! TA.AperFunction,SMDPad,CuDef*
%ADD20R,0.800000X0.900000*%
G04 #@! TD*
G04 #@! TA.AperFunction,SMDPad,CuDef*
%ADD21R,0.650000X0.400000*%
G04 #@! TD*
G04 #@! TA.AperFunction,SMDPad,CuDef*
%ADD22R,1.100000X0.400000*%
G04 #@! TD*
G04 #@! TA.AperFunction,SMDPad,CuDef*
%ADD23C,0.850000*%
G04 #@! TD*
G04 #@! TA.AperFunction,SMDPad,CuDef*
%ADD24R,1.000000X1.500000*%
G04 #@! TD*
G04 #@! TA.AperFunction,SMDPad,CuDef*
%ADD25R,1.000000X1.800000*%
G04 #@! TD*
G04 #@! TA.AperFunction,SMDPad,CuDef*
%ADD26R,2.200000X1.840000*%
G04 #@! TD*
G04 #@! TA.AperFunction,SMDPad,CuDef*
%ADD27C,1.000000*%
G04 #@! TD*
G04 #@! TA.AperFunction,SMDPad,CuDef*
%ADD28C,1.350000*%
G04 #@! TD*
G04 #@! TA.AperFunction,ViaPad*
%ADD29C,0.800000*%
G04 #@! TD*
G04 #@! TA.AperFunction,Conductor*
%ADD30C,0.800000*%
G04 #@! TD*
G04 #@! TA.AperFunction,Conductor*
%ADD31C,0.500000*%
G04 #@! TD*
G04 #@! TA.AperFunction,Conductor*
%ADD32C,0.250000*%
G04 #@! TD*
G04 APERTURE END LIST*
D10*
G04 #@! TO.N,+BATT*
G04 #@! TO.C,C3*
G36*
X136455142Y-119351174D02*
X136478803Y-119354684D01*
X136502007Y-119360496D01*
X136524529Y-119368554D01*
X136546153Y-119378782D01*
X136566670Y-119391079D01*
X136585883Y-119405329D01*
X136603607Y-119421393D01*
X136619671Y-119439117D01*
X136633921Y-119458330D01*
X136646218Y-119478847D01*
X136656446Y-119500471D01*
X136664504Y-119522993D01*
X136670316Y-119546197D01*
X136673826Y-119569858D01*
X136675000Y-119593750D01*
X136675000Y-120506250D01*
X136673826Y-120530142D01*
X136670316Y-120553803D01*
X136664504Y-120577007D01*
X136656446Y-120599529D01*
X136646218Y-120621153D01*
X136633921Y-120641670D01*
X136619671Y-120660883D01*
X136603607Y-120678607D01*
X136585883Y-120694671D01*
X136566670Y-120708921D01*
X136546153Y-120721218D01*
X136524529Y-120731446D01*
X136502007Y-120739504D01*
X136478803Y-120745316D01*
X136455142Y-120748826D01*
X136431250Y-120750000D01*
X135943750Y-120750000D01*
X135919858Y-120748826D01*
X135896197Y-120745316D01*
X135872993Y-120739504D01*
X135850471Y-120731446D01*
X135828847Y-120721218D01*
X135808330Y-120708921D01*
X135789117Y-120694671D01*
X135771393Y-120678607D01*
X135755329Y-120660883D01*
X135741079Y-120641670D01*
X135728782Y-120621153D01*
X135718554Y-120599529D01*
X135710496Y-120577007D01*
X135704684Y-120553803D01*
X135701174Y-120530142D01*
X135700000Y-120506250D01*
X135700000Y-119593750D01*
X135701174Y-119569858D01*
X135704684Y-119546197D01*
X135710496Y-119522993D01*
X135718554Y-119500471D01*
X135728782Y-119478847D01*
X135741079Y-119458330D01*
X135755329Y-119439117D01*
X135771393Y-119421393D01*
X135789117Y-119405329D01*
X135808330Y-119391079D01*
X135828847Y-119378782D01*
X135850471Y-119368554D01*
X135872993Y-119360496D01*
X135896197Y-119354684D01*
X135919858Y-119351174D01*
X135943750Y-119350000D01*
X136431250Y-119350000D01*
X136455142Y-119351174D01*
X136455142Y-119351174D01*
G37*
D11*
G04 #@! TD*
G04 #@! TO.P,C3,1*
G04 #@! TO.N,+BATT*
X136187500Y-120050000D03*
D10*
G04 #@! TO.N,GND*
G04 #@! TO.C,C3*
G36*
X134580142Y-119351174D02*
X134603803Y-119354684D01*
X134627007Y-119360496D01*
X134649529Y-119368554D01*
X134671153Y-119378782D01*
X134691670Y-119391079D01*
X134710883Y-119405329D01*
X134728607Y-119421393D01*
X134744671Y-119439117D01*
X134758921Y-119458330D01*
X134771218Y-119478847D01*
X134781446Y-119500471D01*
X134789504Y-119522993D01*
X134795316Y-119546197D01*
X134798826Y-119569858D01*
X134800000Y-119593750D01*
X134800000Y-120506250D01*
X134798826Y-120530142D01*
X134795316Y-120553803D01*
X134789504Y-120577007D01*
X134781446Y-120599529D01*
X134771218Y-120621153D01*
X134758921Y-120641670D01*
X134744671Y-120660883D01*
X134728607Y-120678607D01*
X134710883Y-120694671D01*
X134691670Y-120708921D01*
X134671153Y-120721218D01*
X134649529Y-120731446D01*
X134627007Y-120739504D01*
X134603803Y-120745316D01*
X134580142Y-120748826D01*
X134556250Y-120750000D01*
X134068750Y-120750000D01*
X134044858Y-120748826D01*
X134021197Y-120745316D01*
X133997993Y-120739504D01*
X133975471Y-120731446D01*
X133953847Y-120721218D01*
X133933330Y-120708921D01*
X133914117Y-120694671D01*
X133896393Y-120678607D01*
X133880329Y-120660883D01*
X133866079Y-120641670D01*
X133853782Y-120621153D01*
X133843554Y-120599529D01*
X133835496Y-120577007D01*
X133829684Y-120553803D01*
X133826174Y-120530142D01*
X133825000Y-120506250D01*
X133825000Y-119593750D01*
X133826174Y-119569858D01*
X133829684Y-119546197D01*
X133835496Y-119522993D01*
X133843554Y-119500471D01*
X133853782Y-119478847D01*
X133866079Y-119458330D01*
X133880329Y-119439117D01*
X133896393Y-119421393D01*
X133914117Y-119405329D01*
X133933330Y-119391079D01*
X133953847Y-119378782D01*
X133975471Y-119368554D01*
X133997993Y-119360496D01*
X134021197Y-119354684D01*
X134044858Y-119351174D01*
X134068750Y-119350000D01*
X134556250Y-119350000D01*
X134580142Y-119351174D01*
X134580142Y-119351174D01*
G37*
D11*
G04 #@! TD*
G04 #@! TO.P,C3,2*
G04 #@! TO.N,GND*
X134312500Y-120050000D03*
D10*
G04 #@! TO.N,GND*
G04 #@! TO.C,C4*
G36*
X134580142Y-109851174D02*
X134603803Y-109854684D01*
X134627007Y-109860496D01*
X134649529Y-109868554D01*
X134671153Y-109878782D01*
X134691670Y-109891079D01*
X134710883Y-109905329D01*
X134728607Y-109921393D01*
X134744671Y-109939117D01*
X134758921Y-109958330D01*
X134771218Y-109978847D01*
X134781446Y-110000471D01*
X134789504Y-110022993D01*
X134795316Y-110046197D01*
X134798826Y-110069858D01*
X134800000Y-110093750D01*
X134800000Y-111006250D01*
X134798826Y-111030142D01*
X134795316Y-111053803D01*
X134789504Y-111077007D01*
X134781446Y-111099529D01*
X134771218Y-111121153D01*
X134758921Y-111141670D01*
X134744671Y-111160883D01*
X134728607Y-111178607D01*
X134710883Y-111194671D01*
X134691670Y-111208921D01*
X134671153Y-111221218D01*
X134649529Y-111231446D01*
X134627007Y-111239504D01*
X134603803Y-111245316D01*
X134580142Y-111248826D01*
X134556250Y-111250000D01*
X134068750Y-111250000D01*
X134044858Y-111248826D01*
X134021197Y-111245316D01*
X133997993Y-111239504D01*
X133975471Y-111231446D01*
X133953847Y-111221218D01*
X133933330Y-111208921D01*
X133914117Y-111194671D01*
X133896393Y-111178607D01*
X133880329Y-111160883D01*
X133866079Y-111141670D01*
X133853782Y-111121153D01*
X133843554Y-111099529D01*
X133835496Y-111077007D01*
X133829684Y-111053803D01*
X133826174Y-111030142D01*
X133825000Y-111006250D01*
X133825000Y-110093750D01*
X133826174Y-110069858D01*
X133829684Y-110046197D01*
X133835496Y-110022993D01*
X133843554Y-110000471D01*
X133853782Y-109978847D01*
X133866079Y-109958330D01*
X133880329Y-109939117D01*
X133896393Y-109921393D01*
X133914117Y-109905329D01*
X133933330Y-109891079D01*
X133953847Y-109878782D01*
X133975471Y-109868554D01*
X133997993Y-109860496D01*
X134021197Y-109854684D01*
X134044858Y-109851174D01*
X134068750Y-109850000D01*
X134556250Y-109850000D01*
X134580142Y-109851174D01*
X134580142Y-109851174D01*
G37*
D11*
G04 #@! TD*
G04 #@! TO.P,C4,2*
G04 #@! TO.N,GND*
X134312500Y-110550000D03*
D10*
G04 #@! TO.N,+BATT*
G04 #@! TO.C,C4*
G36*
X136455142Y-109851174D02*
X136478803Y-109854684D01*
X136502007Y-109860496D01*
X136524529Y-109868554D01*
X136546153Y-109878782D01*
X136566670Y-109891079D01*
X136585883Y-109905329D01*
X136603607Y-109921393D01*
X136619671Y-109939117D01*
X136633921Y-109958330D01*
X136646218Y-109978847D01*
X136656446Y-110000471D01*
X136664504Y-110022993D01*
X136670316Y-110046197D01*
X136673826Y-110069858D01*
X136675000Y-110093750D01*
X136675000Y-111006250D01*
X136673826Y-111030142D01*
X136670316Y-111053803D01*
X136664504Y-111077007D01*
X136656446Y-111099529D01*
X136646218Y-111121153D01*
X136633921Y-111141670D01*
X136619671Y-111160883D01*
X136603607Y-111178607D01*
X136585883Y-111194671D01*
X136566670Y-111208921D01*
X136546153Y-111221218D01*
X136524529Y-111231446D01*
X136502007Y-111239504D01*
X136478803Y-111245316D01*
X136455142Y-111248826D01*
X136431250Y-111250000D01*
X135943750Y-111250000D01*
X135919858Y-111248826D01*
X135896197Y-111245316D01*
X135872993Y-111239504D01*
X135850471Y-111231446D01*
X135828847Y-111221218D01*
X135808330Y-111208921D01*
X135789117Y-111194671D01*
X135771393Y-111178607D01*
X135755329Y-111160883D01*
X135741079Y-111141670D01*
X135728782Y-111121153D01*
X135718554Y-111099529D01*
X135710496Y-111077007D01*
X135704684Y-111053803D01*
X135701174Y-111030142D01*
X135700000Y-111006250D01*
X135700000Y-110093750D01*
X135701174Y-110069858D01*
X135704684Y-110046197D01*
X135710496Y-110022993D01*
X135718554Y-110000471D01*
X135728782Y-109978847D01*
X135741079Y-109958330D01*
X135755329Y-109939117D01*
X135771393Y-109921393D01*
X135789117Y-109905329D01*
X135808330Y-109891079D01*
X135828847Y-109878782D01*
X135850471Y-109868554D01*
X135872993Y-109860496D01*
X135896197Y-109854684D01*
X135919858Y-109851174D01*
X135943750Y-109850000D01*
X136431250Y-109850000D01*
X136455142Y-109851174D01*
X136455142Y-109851174D01*
G37*
D11*
G04 #@! TD*
G04 #@! TO.P,C4,1*
G04 #@! TO.N,+BATT*
X136187500Y-110550000D03*
D10*
G04 #@! TO.N,GND*
G04 #@! TO.C,C6*
G36*
X109430142Y-107776174D02*
X109453803Y-107779684D01*
X109477007Y-107785496D01*
X109499529Y-107793554D01*
X109521153Y-107803782D01*
X109541670Y-107816079D01*
X109560883Y-107830329D01*
X109578607Y-107846393D01*
X109594671Y-107864117D01*
X109608921Y-107883330D01*
X109621218Y-107903847D01*
X109631446Y-107925471D01*
X109639504Y-107947993D01*
X109645316Y-107971197D01*
X109648826Y-107994858D01*
X109650000Y-108018750D01*
X109650000Y-108506250D01*
X109648826Y-108530142D01*
X109645316Y-108553803D01*
X109639504Y-108577007D01*
X109631446Y-108599529D01*
X109621218Y-108621153D01*
X109608921Y-108641670D01*
X109594671Y-108660883D01*
X109578607Y-108678607D01*
X109560883Y-108694671D01*
X109541670Y-108708921D01*
X109521153Y-108721218D01*
X109499529Y-108731446D01*
X109477007Y-108739504D01*
X109453803Y-108745316D01*
X109430142Y-108748826D01*
X109406250Y-108750000D01*
X108493750Y-108750000D01*
X108469858Y-108748826D01*
X108446197Y-108745316D01*
X108422993Y-108739504D01*
X108400471Y-108731446D01*
X108378847Y-108721218D01*
X108358330Y-108708921D01*
X108339117Y-108694671D01*
X108321393Y-108678607D01*
X108305329Y-108660883D01*
X108291079Y-108641670D01*
X108278782Y-108621153D01*
X108268554Y-108599529D01*
X108260496Y-108577007D01*
X108254684Y-108553803D01*
X108251174Y-108530142D01*
X108250000Y-108506250D01*
X108250000Y-108018750D01*
X108251174Y-107994858D01*
X108254684Y-107971197D01*
X108260496Y-107947993D01*
X108268554Y-107925471D01*
X108278782Y-107903847D01*
X108291079Y-107883330D01*
X108305329Y-107864117D01*
X108321393Y-107846393D01*
X108339117Y-107830329D01*
X108358330Y-107816079D01*
X108378847Y-107803782D01*
X108400471Y-107793554D01*
X108422993Y-107785496D01*
X108446197Y-107779684D01*
X108469858Y-107776174D01*
X108493750Y-107775000D01*
X109406250Y-107775000D01*
X109430142Y-107776174D01*
X109430142Y-107776174D01*
G37*
D11*
G04 #@! TD*
G04 #@! TO.P,C6,2*
G04 #@! TO.N,GND*
X108950000Y-108262500D03*
D10*
G04 #@! TO.N,+BATT*
G04 #@! TO.C,C6*
G36*
X109430142Y-105901174D02*
X109453803Y-105904684D01*
X109477007Y-105910496D01*
X109499529Y-105918554D01*
X109521153Y-105928782D01*
X109541670Y-105941079D01*
X109560883Y-105955329D01*
X109578607Y-105971393D01*
X109594671Y-105989117D01*
X109608921Y-106008330D01*
X109621218Y-106028847D01*
X109631446Y-106050471D01*
X109639504Y-106072993D01*
X109645316Y-106096197D01*
X109648826Y-106119858D01*
X109650000Y-106143750D01*
X109650000Y-106631250D01*
X109648826Y-106655142D01*
X109645316Y-106678803D01*
X109639504Y-106702007D01*
X109631446Y-106724529D01*
X109621218Y-106746153D01*
X109608921Y-106766670D01*
X109594671Y-106785883D01*
X109578607Y-106803607D01*
X109560883Y-106819671D01*
X109541670Y-106833921D01*
X109521153Y-106846218D01*
X109499529Y-106856446D01*
X109477007Y-106864504D01*
X109453803Y-106870316D01*
X109430142Y-106873826D01*
X109406250Y-106875000D01*
X108493750Y-106875000D01*
X108469858Y-106873826D01*
X108446197Y-106870316D01*
X108422993Y-106864504D01*
X108400471Y-106856446D01*
X108378847Y-106846218D01*
X108358330Y-106833921D01*
X108339117Y-106819671D01*
X108321393Y-106803607D01*
X108305329Y-106785883D01*
X108291079Y-106766670D01*
X108278782Y-106746153D01*
X108268554Y-106724529D01*
X108260496Y-106702007D01*
X108254684Y-106678803D01*
X108251174Y-106655142D01*
X108250000Y-106631250D01*
X108250000Y-106143750D01*
X108251174Y-106119858D01*
X108254684Y-106096197D01*
X108260496Y-106072993D01*
X108268554Y-106050471D01*
X108278782Y-106028847D01*
X108291079Y-106008330D01*
X108305329Y-105989117D01*
X108321393Y-105971393D01*
X108339117Y-105955329D01*
X108358330Y-105941079D01*
X108378847Y-105928782D01*
X108400471Y-105918554D01*
X108422993Y-105910496D01*
X108446197Y-105904684D01*
X108469858Y-105901174D01*
X108493750Y-105900000D01*
X109406250Y-105900000D01*
X109430142Y-105901174D01*
X109430142Y-105901174D01*
G37*
D11*
G04 #@! TD*
G04 #@! TO.P,C6,1*
G04 #@! TO.N,+BATT*
X108950000Y-106387500D03*
D10*
G04 #@! TO.N,+3V3*
G04 #@! TO.C,C8*
G36*
X116727691Y-106101053D02*
X116748926Y-106104203D01*
X116769750Y-106109419D01*
X116789962Y-106116651D01*
X116809368Y-106125830D01*
X116827781Y-106136866D01*
X116845024Y-106149654D01*
X116860930Y-106164070D01*
X116875346Y-106179976D01*
X116888134Y-106197219D01*
X116899170Y-106215632D01*
X116908349Y-106235038D01*
X116915581Y-106255250D01*
X116920797Y-106276074D01*
X116923947Y-106297309D01*
X116925000Y-106318750D01*
X116925000Y-106756250D01*
X116923947Y-106777691D01*
X116920797Y-106798926D01*
X116915581Y-106819750D01*
X116908349Y-106839962D01*
X116899170Y-106859368D01*
X116888134Y-106877781D01*
X116875346Y-106895024D01*
X116860930Y-106910930D01*
X116845024Y-106925346D01*
X116827781Y-106938134D01*
X116809368Y-106949170D01*
X116789962Y-106958349D01*
X116769750Y-106965581D01*
X116748926Y-106970797D01*
X116727691Y-106973947D01*
X116706250Y-106975000D01*
X116193750Y-106975000D01*
X116172309Y-106973947D01*
X116151074Y-106970797D01*
X116130250Y-106965581D01*
X116110038Y-106958349D01*
X116090632Y-106949170D01*
X116072219Y-106938134D01*
X116054976Y-106925346D01*
X116039070Y-106910930D01*
X116024654Y-106895024D01*
X116011866Y-106877781D01*
X116000830Y-106859368D01*
X115991651Y-106839962D01*
X115984419Y-106819750D01*
X115979203Y-106798926D01*
X115976053Y-106777691D01*
X115975000Y-106756250D01*
X115975000Y-106318750D01*
X115976053Y-106297309D01*
X115979203Y-106276074D01*
X115984419Y-106255250D01*
X115991651Y-106235038D01*
X116000830Y-106215632D01*
X116011866Y-106197219D01*
X116024654Y-106179976D01*
X116039070Y-106164070D01*
X116054976Y-106149654D01*
X116072219Y-106136866D01*
X116090632Y-106125830D01*
X116110038Y-106116651D01*
X116130250Y-106109419D01*
X116151074Y-106104203D01*
X116172309Y-106101053D01*
X116193750Y-106100000D01*
X116706250Y-106100000D01*
X116727691Y-106101053D01*
X116727691Y-106101053D01*
G37*
D12*
G04 #@! TD*
G04 #@! TO.P,C8,1*
G04 #@! TO.N,+3V3*
X116450000Y-106537500D03*
D10*
G04 #@! TO.N,GND*
G04 #@! TO.C,C8*
G36*
X116727691Y-107676053D02*
X116748926Y-107679203D01*
X116769750Y-107684419D01*
X116789962Y-107691651D01*
X116809368Y-107700830D01*
X116827781Y-107711866D01*
X116845024Y-107724654D01*
X116860930Y-107739070D01*
X116875346Y-107754976D01*
X116888134Y-107772219D01*
X116899170Y-107790632D01*
X116908349Y-107810038D01*
X116915581Y-107830250D01*
X116920797Y-107851074D01*
X116923947Y-107872309D01*
X116925000Y-107893750D01*
X116925000Y-108331250D01*
X116923947Y-108352691D01*
X116920797Y-108373926D01*
X116915581Y-108394750D01*
X116908349Y-108414962D01*
X116899170Y-108434368D01*
X116888134Y-108452781D01*
X116875346Y-108470024D01*
X116860930Y-108485930D01*
X116845024Y-108500346D01*
X116827781Y-108513134D01*
X116809368Y-108524170D01*
X116789962Y-108533349D01*
X116769750Y-108540581D01*
X116748926Y-108545797D01*
X116727691Y-108548947D01*
X116706250Y-108550000D01*
X116193750Y-108550000D01*
X116172309Y-108548947D01*
X116151074Y-108545797D01*
X116130250Y-108540581D01*
X116110038Y-108533349D01*
X116090632Y-108524170D01*
X116072219Y-108513134D01*
X116054976Y-108500346D01*
X116039070Y-108485930D01*
X116024654Y-108470024D01*
X116011866Y-108452781D01*
X116000830Y-108434368D01*
X115991651Y-108414962D01*
X115984419Y-108394750D01*
X115979203Y-108373926D01*
X115976053Y-108352691D01*
X115975000Y-108331250D01*
X115975000Y-107893750D01*
X115976053Y-107872309D01*
X115979203Y-107851074D01*
X115984419Y-107830250D01*
X115991651Y-107810038D01*
X116000830Y-107790632D01*
X116011866Y-107772219D01*
X116024654Y-107754976D01*
X116039070Y-107739070D01*
X116054976Y-107724654D01*
X116072219Y-107711866D01*
X116090632Y-107700830D01*
X116110038Y-107691651D01*
X116130250Y-107684419D01*
X116151074Y-107679203D01*
X116172309Y-107676053D01*
X116193750Y-107675000D01*
X116706250Y-107675000D01*
X116727691Y-107676053D01*
X116727691Y-107676053D01*
G37*
D12*
G04 #@! TD*
G04 #@! TO.P,C8,2*
G04 #@! TO.N,GND*
X116450000Y-108112500D03*
D10*
G04 #@! TO.N,GND*
G04 #@! TO.C,C9*
G36*
X148527691Y-110026053D02*
X148548926Y-110029203D01*
X148569750Y-110034419D01*
X148589962Y-110041651D01*
X148609368Y-110050830D01*
X148627781Y-110061866D01*
X148645024Y-110074654D01*
X148660930Y-110089070D01*
X148675346Y-110104976D01*
X148688134Y-110122219D01*
X148699170Y-110140632D01*
X148708349Y-110160038D01*
X148715581Y-110180250D01*
X148720797Y-110201074D01*
X148723947Y-110222309D01*
X148725000Y-110243750D01*
X148725000Y-110756250D01*
X148723947Y-110777691D01*
X148720797Y-110798926D01*
X148715581Y-110819750D01*
X148708349Y-110839962D01*
X148699170Y-110859368D01*
X148688134Y-110877781D01*
X148675346Y-110895024D01*
X148660930Y-110910930D01*
X148645024Y-110925346D01*
X148627781Y-110938134D01*
X148609368Y-110949170D01*
X148589962Y-110958349D01*
X148569750Y-110965581D01*
X148548926Y-110970797D01*
X148527691Y-110973947D01*
X148506250Y-110975000D01*
X148068750Y-110975000D01*
X148047309Y-110973947D01*
X148026074Y-110970797D01*
X148005250Y-110965581D01*
X147985038Y-110958349D01*
X147965632Y-110949170D01*
X147947219Y-110938134D01*
X147929976Y-110925346D01*
X147914070Y-110910930D01*
X147899654Y-110895024D01*
X147886866Y-110877781D01*
X147875830Y-110859368D01*
X147866651Y-110839962D01*
X147859419Y-110819750D01*
X147854203Y-110798926D01*
X147851053Y-110777691D01*
X147850000Y-110756250D01*
X147850000Y-110243750D01*
X147851053Y-110222309D01*
X147854203Y-110201074D01*
X147859419Y-110180250D01*
X147866651Y-110160038D01*
X147875830Y-110140632D01*
X147886866Y-110122219D01*
X147899654Y-110104976D01*
X147914070Y-110089070D01*
X147929976Y-110074654D01*
X147947219Y-110061866D01*
X147965632Y-110050830D01*
X147985038Y-110041651D01*
X148005250Y-110034419D01*
X148026074Y-110029203D01*
X148047309Y-110026053D01*
X148068750Y-110025000D01*
X148506250Y-110025000D01*
X148527691Y-110026053D01*
X148527691Y-110026053D01*
G37*
D12*
G04 #@! TD*
G04 #@! TO.P,C9,2*
G04 #@! TO.N,GND*
X148287500Y-110500000D03*
D10*
G04 #@! TO.N,/Reset*
G04 #@! TO.C,C9*
G36*
X146952691Y-110026053D02*
X146973926Y-110029203D01*
X146994750Y-110034419D01*
X147014962Y-110041651D01*
X147034368Y-110050830D01*
X147052781Y-110061866D01*
X147070024Y-110074654D01*
X147085930Y-110089070D01*
X147100346Y-110104976D01*
X147113134Y-110122219D01*
X147124170Y-110140632D01*
X147133349Y-110160038D01*
X147140581Y-110180250D01*
X147145797Y-110201074D01*
X147148947Y-110222309D01*
X147150000Y-110243750D01*
X147150000Y-110756250D01*
X147148947Y-110777691D01*
X147145797Y-110798926D01*
X147140581Y-110819750D01*
X147133349Y-110839962D01*
X147124170Y-110859368D01*
X147113134Y-110877781D01*
X147100346Y-110895024D01*
X147085930Y-110910930D01*
X147070024Y-110925346D01*
X147052781Y-110938134D01*
X147034368Y-110949170D01*
X147014962Y-110958349D01*
X146994750Y-110965581D01*
X146973926Y-110970797D01*
X146952691Y-110973947D01*
X146931250Y-110975000D01*
X146493750Y-110975000D01*
X146472309Y-110973947D01*
X146451074Y-110970797D01*
X146430250Y-110965581D01*
X146410038Y-110958349D01*
X146390632Y-110949170D01*
X146372219Y-110938134D01*
X146354976Y-110925346D01*
X146339070Y-110910930D01*
X146324654Y-110895024D01*
X146311866Y-110877781D01*
X146300830Y-110859368D01*
X146291651Y-110839962D01*
X146284419Y-110819750D01*
X146279203Y-110798926D01*
X146276053Y-110777691D01*
X146275000Y-110756250D01*
X146275000Y-110243750D01*
X146276053Y-110222309D01*
X146279203Y-110201074D01*
X146284419Y-110180250D01*
X146291651Y-110160038D01*
X146300830Y-110140632D01*
X146311866Y-110122219D01*
X146324654Y-110104976D01*
X146339070Y-110089070D01*
X146354976Y-110074654D01*
X146372219Y-110061866D01*
X146390632Y-110050830D01*
X146410038Y-110041651D01*
X146430250Y-110034419D01*
X146451074Y-110029203D01*
X146472309Y-110026053D01*
X146493750Y-110025000D01*
X146931250Y-110025000D01*
X146952691Y-110026053D01*
X146952691Y-110026053D01*
G37*
D12*
G04 #@! TD*
G04 #@! TO.P,C9,1*
G04 #@! TO.N,/Reset*
X146712500Y-110500000D03*
D13*
G04 #@! TO.P,D1,1*
G04 #@! TO.N,/LED_G*
X124200000Y-107550000D03*
G04 #@! TO.P,D1,2*
G04 #@! TO.N,/LED_R*
X121200000Y-107550000D03*
G04 #@! TO.P,D1,3*
G04 #@! TO.N,Net-(D1-Pad3)*
X121200000Y-106050000D03*
G04 #@! TO.P,D1,4*
G04 #@! TO.N,Net-(D1-Pad4)*
X124200000Y-106050000D03*
G04 #@! TD*
D14*
G04 #@! TO.P,J1,4*
G04 #@! TO.N,GNDA*
X138500000Y-104000000D03*
G04 #@! TO.P,J1,3*
G04 #@! TO.N,Net-(J1-Pad3)*
X136000000Y-104000000D03*
G04 #@! TO.P,J1,2*
G04 #@! TO.N,Net-(J1-Pad2)*
X133500000Y-104000000D03*
D15*
G04 #@! TO.P,J1,1*
G04 #@! TO.N,+3.3VA*
X131000000Y-104000000D03*
G04 #@! TD*
D16*
G04 #@! TO.P,J2,1*
G04 #@! TO.N,+BATT*
X104000000Y-122500000D03*
D17*
G04 #@! TO.P,J2,2*
G04 #@! TO.N,/Batt3*
X104000000Y-120000000D03*
G04 #@! TO.P,J2,3*
G04 #@! TO.N,/Batt2*
X104000000Y-117500000D03*
G04 #@! TO.P,J2,4*
G04 #@! TO.N,/Batt1*
X104000000Y-115000000D03*
G04 #@! TO.P,J2,5*
G04 #@! TO.N,GND*
X104000000Y-112500000D03*
G04 #@! TD*
D18*
G04 #@! TO.P,J3,1*
G04 #@! TO.N,+3V3*
X147500000Y-123100000D03*
D19*
G04 #@! TO.P,J3,2*
G04 #@! TO.N,/SWCLK*
X147500000Y-120560000D03*
G04 #@! TO.P,J3,3*
G04 #@! TO.N,GND*
X147500000Y-118020000D03*
G04 #@! TO.P,J3,4*
G04 #@! TO.N,/SWDIO*
X147500000Y-115480000D03*
G04 #@! TO.P,J3,5*
G04 #@! TO.N,/Reset*
X147500000Y-112940000D03*
G04 #@! TD*
D15*
G04 #@! TO.P,J4,1*
G04 #@! TO.N,+3V3*
X131000000Y-131000000D03*
D14*
G04 #@! TO.P,J4,2*
G04 #@! TO.N,/RxDown*
X133500000Y-131000000D03*
G04 #@! TO.P,J4,3*
G04 #@! TO.N,/TxDown*
X136000000Y-131000000D03*
G04 #@! TO.P,J4,4*
G04 #@! TO.N,GND*
X138500000Y-131000000D03*
G04 #@! TD*
D20*
G04 #@! TO.P,Q1,1*
G04 #@! TO.N,Net-(Q1-Pad1)*
X118050000Y-130000000D03*
G04 #@! TO.P,Q1,2*
G04 #@! TO.N,Net-(Q1-Pad2)*
X119950000Y-130000000D03*
G04 #@! TO.P,Q1,3*
G04 #@! TO.N,/Batt3*
X119000000Y-128000000D03*
G04 #@! TD*
G04 #@! TO.P,Q2,3*
G04 #@! TO.N,/Batt2*
X119000000Y-123000000D03*
G04 #@! TO.P,Q2,2*
G04 #@! TO.N,Net-(Q2-Pad2)*
X119950000Y-125000000D03*
G04 #@! TO.P,Q2,1*
G04 #@! TO.N,Net-(Q2-Pad1)*
X118050000Y-125000000D03*
G04 #@! TD*
D21*
G04 #@! TO.P,Q3,1*
G04 #@! TO.N,GND*
X124050000Y-128350000D03*
G04 #@! TO.P,Q3,3*
G04 #@! TO.N,Net-(Q1-Pad1)*
X124050000Y-129650000D03*
G04 #@! TO.P,Q3,5*
G04 #@! TO.N,Net-(Q3-Pad5)*
X125950000Y-129000000D03*
G04 #@! TO.P,Q3,2*
G04 #@! TO.N,/Bal4*
X124050000Y-129000000D03*
G04 #@! TO.P,Q3,4*
G04 #@! TO.N,+BATT*
X125950000Y-129650000D03*
G04 #@! TO.P,Q3,6*
G04 #@! TO.N,Net-(Q3-Pad5)*
X125950000Y-128350000D03*
G04 #@! TD*
G04 #@! TO.P,Q4,6*
G04 #@! TO.N,Net-(Q4-Pad5)*
X125950000Y-123350000D03*
G04 #@! TO.P,Q4,4*
G04 #@! TO.N,/Batt3*
X125950000Y-124650000D03*
G04 #@! TO.P,Q4,2*
G04 #@! TO.N,/Bal3*
X124050000Y-124000000D03*
G04 #@! TO.P,Q4,5*
G04 #@! TO.N,Net-(Q4-Pad5)*
X125950000Y-124000000D03*
G04 #@! TO.P,Q4,3*
G04 #@! TO.N,Net-(Q2-Pad1)*
X124050000Y-124650000D03*
G04 #@! TO.P,Q4,1*
G04 #@! TO.N,GND*
X124050000Y-123350000D03*
G04 #@! TD*
D20*
G04 #@! TO.P,Q5,1*
G04 #@! TO.N,Net-(Q5-Pad1)*
X118050000Y-120000000D03*
G04 #@! TO.P,Q5,2*
G04 #@! TO.N,Net-(Q5-Pad2)*
X119950000Y-120000000D03*
G04 #@! TO.P,Q5,3*
G04 #@! TO.N,/Batt1*
X119000000Y-118000000D03*
G04 #@! TD*
G04 #@! TO.P,Q6,3*
G04 #@! TO.N,GND*
X119000000Y-113000000D03*
G04 #@! TO.P,Q6,2*
G04 #@! TO.N,Net-(Q6-Pad2)*
X119950000Y-115000000D03*
G04 #@! TO.P,Q6,1*
G04 #@! TO.N,Net-(Q6-Pad1)*
X118050000Y-115000000D03*
G04 #@! TD*
D21*
G04 #@! TO.P,Q7,1*
G04 #@! TO.N,GND*
X124050000Y-118350000D03*
G04 #@! TO.P,Q7,3*
G04 #@! TO.N,Net-(Q5-Pad1)*
X124050000Y-119650000D03*
G04 #@! TO.P,Q7,5*
G04 #@! TO.N,Net-(Q7-Pad5)*
X125950000Y-119000000D03*
G04 #@! TO.P,Q7,2*
G04 #@! TO.N,/Bal2*
X124050000Y-119000000D03*
G04 #@! TO.P,Q7,4*
G04 #@! TO.N,/Batt2*
X125950000Y-119650000D03*
G04 #@! TO.P,Q7,6*
G04 #@! TO.N,Net-(Q7-Pad5)*
X125950000Y-118350000D03*
G04 #@! TD*
G04 #@! TO.P,Q8,6*
G04 #@! TO.N,Net-(Q8-Pad5)*
X125950000Y-113350000D03*
G04 #@! TO.P,Q8,4*
G04 #@! TO.N,/Batt1*
X125950000Y-114650000D03*
G04 #@! TO.P,Q8,2*
G04 #@! TO.N,/Bal1*
X124050000Y-114000000D03*
G04 #@! TO.P,Q8,5*
G04 #@! TO.N,Net-(Q8-Pad5)*
X125950000Y-114000000D03*
G04 #@! TO.P,Q8,3*
G04 #@! TO.N,Net-(Q6-Pad1)*
X124050000Y-114650000D03*
G04 #@! TO.P,Q8,1*
G04 #@! TO.N,GND*
X124050000Y-113350000D03*
G04 #@! TD*
D10*
G04 #@! TO.N,Net-(R1-Pad1)*
G04 #@! TO.C,R1*
G36*
X131027691Y-123526053D02*
X131048926Y-123529203D01*
X131069750Y-123534419D01*
X131089962Y-123541651D01*
X131109368Y-123550830D01*
X131127781Y-123561866D01*
X131145024Y-123574654D01*
X131160930Y-123589070D01*
X131175346Y-123604976D01*
X131188134Y-123622219D01*
X131199170Y-123640632D01*
X131208349Y-123660038D01*
X131215581Y-123680250D01*
X131220797Y-123701074D01*
X131223947Y-123722309D01*
X131225000Y-123743750D01*
X131225000Y-124256250D01*
X131223947Y-124277691D01*
X131220797Y-124298926D01*
X131215581Y-124319750D01*
X131208349Y-124339962D01*
X131199170Y-124359368D01*
X131188134Y-124377781D01*
X131175346Y-124395024D01*
X131160930Y-124410930D01*
X131145024Y-124425346D01*
X131127781Y-124438134D01*
X131109368Y-124449170D01*
X131089962Y-124458349D01*
X131069750Y-124465581D01*
X131048926Y-124470797D01*
X131027691Y-124473947D01*
X131006250Y-124475000D01*
X130568750Y-124475000D01*
X130547309Y-124473947D01*
X130526074Y-124470797D01*
X130505250Y-124465581D01*
X130485038Y-124458349D01*
X130465632Y-124449170D01*
X130447219Y-124438134D01*
X130429976Y-124425346D01*
X130414070Y-124410930D01*
X130399654Y-124395024D01*
X130386866Y-124377781D01*
X130375830Y-124359368D01*
X130366651Y-124339962D01*
X130359419Y-124319750D01*
X130354203Y-124298926D01*
X130351053Y-124277691D01*
X130350000Y-124256250D01*
X130350000Y-123743750D01*
X130351053Y-123722309D01*
X130354203Y-123701074D01*
X130359419Y-123680250D01*
X130366651Y-123660038D01*
X130375830Y-123640632D01*
X130386866Y-123622219D01*
X130399654Y-123604976D01*
X130414070Y-123589070D01*
X130429976Y-123574654D01*
X130447219Y-123561866D01*
X130465632Y-123550830D01*
X130485038Y-123541651D01*
X130505250Y-123534419D01*
X130526074Y-123529203D01*
X130547309Y-123526053D01*
X130568750Y-123525000D01*
X131006250Y-123525000D01*
X131027691Y-123526053D01*
X131027691Y-123526053D01*
G37*
D12*
G04 #@! TD*
G04 #@! TO.P,R1,1*
G04 #@! TO.N,Net-(R1-Pad1)*
X130787500Y-124000000D03*
D10*
G04 #@! TO.N,+BATT*
G04 #@! TO.C,R1*
G36*
X129452691Y-123526053D02*
X129473926Y-123529203D01*
X129494750Y-123534419D01*
X129514962Y-123541651D01*
X129534368Y-123550830D01*
X129552781Y-123561866D01*
X129570024Y-123574654D01*
X129585930Y-123589070D01*
X129600346Y-123604976D01*
X129613134Y-123622219D01*
X129624170Y-123640632D01*
X129633349Y-123660038D01*
X129640581Y-123680250D01*
X129645797Y-123701074D01*
X129648947Y-123722309D01*
X129650000Y-123743750D01*
X129650000Y-124256250D01*
X129648947Y-124277691D01*
X129645797Y-124298926D01*
X129640581Y-124319750D01*
X129633349Y-124339962D01*
X129624170Y-124359368D01*
X129613134Y-124377781D01*
X129600346Y-124395024D01*
X129585930Y-124410930D01*
X129570024Y-124425346D01*
X129552781Y-124438134D01*
X129534368Y-124449170D01*
X129514962Y-124458349D01*
X129494750Y-124465581D01*
X129473926Y-124470797D01*
X129452691Y-124473947D01*
X129431250Y-124475000D01*
X128993750Y-124475000D01*
X128972309Y-124473947D01*
X128951074Y-124470797D01*
X128930250Y-124465581D01*
X128910038Y-124458349D01*
X128890632Y-124449170D01*
X128872219Y-124438134D01*
X128854976Y-124425346D01*
X128839070Y-124410930D01*
X128824654Y-124395024D01*
X128811866Y-124377781D01*
X128800830Y-124359368D01*
X128791651Y-124339962D01*
X128784419Y-124319750D01*
X128779203Y-124298926D01*
X128776053Y-124277691D01*
X128775000Y-124256250D01*
X128775000Y-123743750D01*
X128776053Y-123722309D01*
X128779203Y-123701074D01*
X128784419Y-123680250D01*
X128791651Y-123660038D01*
X128800830Y-123640632D01*
X128811866Y-123622219D01*
X128824654Y-123604976D01*
X128839070Y-123589070D01*
X128854976Y-123574654D01*
X128872219Y-123561866D01*
X128890632Y-123550830D01*
X128910038Y-123541651D01*
X128930250Y-123534419D01*
X128951074Y-123529203D01*
X128972309Y-123526053D01*
X128993750Y-123525000D01*
X129431250Y-123525000D01*
X129452691Y-123526053D01*
X129452691Y-123526053D01*
G37*
D12*
G04 #@! TD*
G04 #@! TO.P,R1,2*
G04 #@! TO.N,+BATT*
X129212500Y-124000000D03*
D10*
G04 #@! TO.N,/Batt3*
G04 #@! TO.C,R2*
G36*
X129452691Y-121526053D02*
X129473926Y-121529203D01*
X129494750Y-121534419D01*
X129514962Y-121541651D01*
X129534368Y-121550830D01*
X129552781Y-121561866D01*
X129570024Y-121574654D01*
X129585930Y-121589070D01*
X129600346Y-121604976D01*
X129613134Y-121622219D01*
X129624170Y-121640632D01*
X129633349Y-121660038D01*
X129640581Y-121680250D01*
X129645797Y-121701074D01*
X129648947Y-121722309D01*
X129650000Y-121743750D01*
X129650000Y-122256250D01*
X129648947Y-122277691D01*
X129645797Y-122298926D01*
X129640581Y-122319750D01*
X129633349Y-122339962D01*
X129624170Y-122359368D01*
X129613134Y-122377781D01*
X129600346Y-122395024D01*
X129585930Y-122410930D01*
X129570024Y-122425346D01*
X129552781Y-122438134D01*
X129534368Y-122449170D01*
X129514962Y-122458349D01*
X129494750Y-122465581D01*
X129473926Y-122470797D01*
X129452691Y-122473947D01*
X129431250Y-122475000D01*
X128993750Y-122475000D01*
X128972309Y-122473947D01*
X128951074Y-122470797D01*
X128930250Y-122465581D01*
X128910038Y-122458349D01*
X128890632Y-122449170D01*
X128872219Y-122438134D01*
X128854976Y-122425346D01*
X128839070Y-122410930D01*
X128824654Y-122395024D01*
X128811866Y-122377781D01*
X128800830Y-122359368D01*
X128791651Y-122339962D01*
X128784419Y-122319750D01*
X128779203Y-122298926D01*
X128776053Y-122277691D01*
X128775000Y-122256250D01*
X128775000Y-121743750D01*
X128776053Y-121722309D01*
X128779203Y-121701074D01*
X128784419Y-121680250D01*
X128791651Y-121660038D01*
X128800830Y-121640632D01*
X128811866Y-121622219D01*
X128824654Y-121604976D01*
X128839070Y-121589070D01*
X128854976Y-121574654D01*
X128872219Y-121561866D01*
X128890632Y-121550830D01*
X128910038Y-121541651D01*
X128930250Y-121534419D01*
X128951074Y-121529203D01*
X128972309Y-121526053D01*
X128993750Y-121525000D01*
X129431250Y-121525000D01*
X129452691Y-121526053D01*
X129452691Y-121526053D01*
G37*
D12*
G04 #@! TD*
G04 #@! TO.P,R2,2*
G04 #@! TO.N,/Batt3*
X129212500Y-122000000D03*
D10*
G04 #@! TO.N,Net-(R13-Pad2)*
G04 #@! TO.C,R2*
G36*
X131027691Y-121526053D02*
X131048926Y-121529203D01*
X131069750Y-121534419D01*
X131089962Y-121541651D01*
X131109368Y-121550830D01*
X131127781Y-121561866D01*
X131145024Y-121574654D01*
X131160930Y-121589070D01*
X131175346Y-121604976D01*
X131188134Y-121622219D01*
X131199170Y-121640632D01*
X131208349Y-121660038D01*
X131215581Y-121680250D01*
X131220797Y-121701074D01*
X131223947Y-121722309D01*
X131225000Y-121743750D01*
X131225000Y-122256250D01*
X131223947Y-122277691D01*
X131220797Y-122298926D01*
X131215581Y-122319750D01*
X131208349Y-122339962D01*
X131199170Y-122359368D01*
X131188134Y-122377781D01*
X131175346Y-122395024D01*
X131160930Y-122410930D01*
X131145024Y-122425346D01*
X131127781Y-122438134D01*
X131109368Y-122449170D01*
X131089962Y-122458349D01*
X131069750Y-122465581D01*
X131048926Y-122470797D01*
X131027691Y-122473947D01*
X131006250Y-122475000D01*
X130568750Y-122475000D01*
X130547309Y-122473947D01*
X130526074Y-122470797D01*
X130505250Y-122465581D01*
X130485038Y-122458349D01*
X130465632Y-122449170D01*
X130447219Y-122438134D01*
X130429976Y-122425346D01*
X130414070Y-122410930D01*
X130399654Y-122395024D01*
X130386866Y-122377781D01*
X130375830Y-122359368D01*
X130366651Y-122339962D01*
X130359419Y-122319750D01*
X130354203Y-122298926D01*
X130351053Y-122277691D01*
X130350000Y-122256250D01*
X130350000Y-121743750D01*
X130351053Y-121722309D01*
X130354203Y-121701074D01*
X130359419Y-121680250D01*
X130366651Y-121660038D01*
X130375830Y-121640632D01*
X130386866Y-121622219D01*
X130399654Y-121604976D01*
X130414070Y-121589070D01*
X130429976Y-121574654D01*
X130447219Y-121561866D01*
X130465632Y-121550830D01*
X130485038Y-121541651D01*
X130505250Y-121534419D01*
X130526074Y-121529203D01*
X130547309Y-121526053D01*
X130568750Y-121525000D01*
X131006250Y-121525000D01*
X131027691Y-121526053D01*
X131027691Y-121526053D01*
G37*
D12*
G04 #@! TD*
G04 #@! TO.P,R2,1*
G04 #@! TO.N,Net-(R13-Pad2)*
X130787500Y-122000000D03*
D10*
G04 #@! TO.N,Net-(R10-Pad2)*
G04 #@! TO.C,R3*
G36*
X139452691Y-123526053D02*
X139473926Y-123529203D01*
X139494750Y-123534419D01*
X139514962Y-123541651D01*
X139534368Y-123550830D01*
X139552781Y-123561866D01*
X139570024Y-123574654D01*
X139585930Y-123589070D01*
X139600346Y-123604976D01*
X139613134Y-123622219D01*
X139624170Y-123640632D01*
X139633349Y-123660038D01*
X139640581Y-123680250D01*
X139645797Y-123701074D01*
X139648947Y-123722309D01*
X139650000Y-123743750D01*
X139650000Y-124256250D01*
X139648947Y-124277691D01*
X139645797Y-124298926D01*
X139640581Y-124319750D01*
X139633349Y-124339962D01*
X139624170Y-124359368D01*
X139613134Y-124377781D01*
X139600346Y-124395024D01*
X139585930Y-124410930D01*
X139570024Y-124425346D01*
X139552781Y-124438134D01*
X139534368Y-124449170D01*
X139514962Y-124458349D01*
X139494750Y-124465581D01*
X139473926Y-124470797D01*
X139452691Y-124473947D01*
X139431250Y-124475000D01*
X138993750Y-124475000D01*
X138972309Y-124473947D01*
X138951074Y-124470797D01*
X138930250Y-124465581D01*
X138910038Y-124458349D01*
X138890632Y-124449170D01*
X138872219Y-124438134D01*
X138854976Y-124425346D01*
X138839070Y-124410930D01*
X138824654Y-124395024D01*
X138811866Y-124377781D01*
X138800830Y-124359368D01*
X138791651Y-124339962D01*
X138784419Y-124319750D01*
X138779203Y-124298926D01*
X138776053Y-124277691D01*
X138775000Y-124256250D01*
X138775000Y-123743750D01*
X138776053Y-123722309D01*
X138779203Y-123701074D01*
X138784419Y-123680250D01*
X138791651Y-123660038D01*
X138800830Y-123640632D01*
X138811866Y-123622219D01*
X138824654Y-123604976D01*
X138839070Y-123589070D01*
X138854976Y-123574654D01*
X138872219Y-123561866D01*
X138890632Y-123550830D01*
X138910038Y-123541651D01*
X138930250Y-123534419D01*
X138951074Y-123529203D01*
X138972309Y-123526053D01*
X138993750Y-123525000D01*
X139431250Y-123525000D01*
X139452691Y-123526053D01*
X139452691Y-123526053D01*
G37*
D12*
G04 #@! TD*
G04 #@! TO.P,R3,1*
G04 #@! TO.N,Net-(R10-Pad2)*
X139212500Y-124000000D03*
D10*
G04 #@! TO.N,/Batt3*
G04 #@! TO.C,R3*
G36*
X141027691Y-123526053D02*
X141048926Y-123529203D01*
X141069750Y-123534419D01*
X141089962Y-123541651D01*
X141109368Y-123550830D01*
X141127781Y-123561866D01*
X141145024Y-123574654D01*
X141160930Y-123589070D01*
X141175346Y-123604976D01*
X141188134Y-123622219D01*
X141199170Y-123640632D01*
X141208349Y-123660038D01*
X141215581Y-123680250D01*
X141220797Y-123701074D01*
X141223947Y-123722309D01*
X141225000Y-123743750D01*
X141225000Y-124256250D01*
X141223947Y-124277691D01*
X141220797Y-124298926D01*
X141215581Y-124319750D01*
X141208349Y-124339962D01*
X141199170Y-124359368D01*
X141188134Y-124377781D01*
X141175346Y-124395024D01*
X141160930Y-124410930D01*
X141145024Y-124425346D01*
X141127781Y-124438134D01*
X141109368Y-124449170D01*
X141089962Y-124458349D01*
X141069750Y-124465581D01*
X141048926Y-124470797D01*
X141027691Y-124473947D01*
X141006250Y-124475000D01*
X140568750Y-124475000D01*
X140547309Y-124473947D01*
X140526074Y-124470797D01*
X140505250Y-124465581D01*
X140485038Y-124458349D01*
X140465632Y-124449170D01*
X140447219Y-124438134D01*
X140429976Y-124425346D01*
X140414070Y-124410930D01*
X140399654Y-124395024D01*
X140386866Y-124377781D01*
X140375830Y-124359368D01*
X140366651Y-124339962D01*
X140359419Y-124319750D01*
X140354203Y-124298926D01*
X140351053Y-124277691D01*
X140350000Y-124256250D01*
X140350000Y-123743750D01*
X140351053Y-123722309D01*
X140354203Y-123701074D01*
X140359419Y-123680250D01*
X140366651Y-123660038D01*
X140375830Y-123640632D01*
X140386866Y-123622219D01*
X140399654Y-123604976D01*
X140414070Y-123589070D01*
X140429976Y-123574654D01*
X140447219Y-123561866D01*
X140465632Y-123550830D01*
X140485038Y-123541651D01*
X140505250Y-123534419D01*
X140526074Y-123529203D01*
X140547309Y-123526053D01*
X140568750Y-123525000D01*
X141006250Y-123525000D01*
X141027691Y-123526053D01*
X141027691Y-123526053D01*
G37*
D12*
G04 #@! TD*
G04 #@! TO.P,R3,2*
G04 #@! TO.N,/Batt3*
X140787500Y-124000000D03*
D10*
G04 #@! TO.N,/Batt2*
G04 #@! TO.C,R4*
G36*
X141027691Y-121526053D02*
X141048926Y-121529203D01*
X141069750Y-121534419D01*
X141089962Y-121541651D01*
X141109368Y-121550830D01*
X141127781Y-121561866D01*
X141145024Y-121574654D01*
X141160930Y-121589070D01*
X141175346Y-121604976D01*
X141188134Y-121622219D01*
X141199170Y-121640632D01*
X141208349Y-121660038D01*
X141215581Y-121680250D01*
X141220797Y-121701074D01*
X141223947Y-121722309D01*
X141225000Y-121743750D01*
X141225000Y-122256250D01*
X141223947Y-122277691D01*
X141220797Y-122298926D01*
X141215581Y-122319750D01*
X141208349Y-122339962D01*
X141199170Y-122359368D01*
X141188134Y-122377781D01*
X141175346Y-122395024D01*
X141160930Y-122410930D01*
X141145024Y-122425346D01*
X141127781Y-122438134D01*
X141109368Y-122449170D01*
X141089962Y-122458349D01*
X141069750Y-122465581D01*
X141048926Y-122470797D01*
X141027691Y-122473947D01*
X141006250Y-122475000D01*
X140568750Y-122475000D01*
X140547309Y-122473947D01*
X140526074Y-122470797D01*
X140505250Y-122465581D01*
X140485038Y-122458349D01*
X140465632Y-122449170D01*
X140447219Y-122438134D01*
X140429976Y-122425346D01*
X140414070Y-122410930D01*
X140399654Y-122395024D01*
X140386866Y-122377781D01*
X140375830Y-122359368D01*
X140366651Y-122339962D01*
X140359419Y-122319750D01*
X140354203Y-122298926D01*
X140351053Y-122277691D01*
X140350000Y-122256250D01*
X140350000Y-121743750D01*
X140351053Y-121722309D01*
X140354203Y-121701074D01*
X140359419Y-121680250D01*
X140366651Y-121660038D01*
X140375830Y-121640632D01*
X140386866Y-121622219D01*
X140399654Y-121604976D01*
X140414070Y-121589070D01*
X140429976Y-121574654D01*
X140447219Y-121561866D01*
X140465632Y-121550830D01*
X140485038Y-121541651D01*
X140505250Y-121534419D01*
X140526074Y-121529203D01*
X140547309Y-121526053D01*
X140568750Y-121525000D01*
X141006250Y-121525000D01*
X141027691Y-121526053D01*
X141027691Y-121526053D01*
G37*
D12*
G04 #@! TD*
G04 #@! TO.P,R4,2*
G04 #@! TO.N,/Batt2*
X140787500Y-122000000D03*
D10*
G04 #@! TO.N,Net-(R14-Pad2)*
G04 #@! TO.C,R4*
G36*
X139452691Y-121526053D02*
X139473926Y-121529203D01*
X139494750Y-121534419D01*
X139514962Y-121541651D01*
X139534368Y-121550830D01*
X139552781Y-121561866D01*
X139570024Y-121574654D01*
X139585930Y-121589070D01*
X139600346Y-121604976D01*
X139613134Y-121622219D01*
X139624170Y-121640632D01*
X139633349Y-121660038D01*
X139640581Y-121680250D01*
X139645797Y-121701074D01*
X139648947Y-121722309D01*
X139650000Y-121743750D01*
X139650000Y-122256250D01*
X139648947Y-122277691D01*
X139645797Y-122298926D01*
X139640581Y-122319750D01*
X139633349Y-122339962D01*
X139624170Y-122359368D01*
X139613134Y-122377781D01*
X139600346Y-122395024D01*
X139585930Y-122410930D01*
X139570024Y-122425346D01*
X139552781Y-122438134D01*
X139534368Y-122449170D01*
X139514962Y-122458349D01*
X139494750Y-122465581D01*
X139473926Y-122470797D01*
X139452691Y-122473947D01*
X139431250Y-122475000D01*
X138993750Y-122475000D01*
X138972309Y-122473947D01*
X138951074Y-122470797D01*
X138930250Y-122465581D01*
X138910038Y-122458349D01*
X138890632Y-122449170D01*
X138872219Y-122438134D01*
X138854976Y-122425346D01*
X138839070Y-122410930D01*
X138824654Y-122395024D01*
X138811866Y-122377781D01*
X138800830Y-122359368D01*
X138791651Y-122339962D01*
X138784419Y-122319750D01*
X138779203Y-122298926D01*
X138776053Y-122277691D01*
X138775000Y-122256250D01*
X138775000Y-121743750D01*
X138776053Y-121722309D01*
X138779203Y-121701074D01*
X138784419Y-121680250D01*
X138791651Y-121660038D01*
X138800830Y-121640632D01*
X138811866Y-121622219D01*
X138824654Y-121604976D01*
X138839070Y-121589070D01*
X138854976Y-121574654D01*
X138872219Y-121561866D01*
X138890632Y-121550830D01*
X138910038Y-121541651D01*
X138930250Y-121534419D01*
X138951074Y-121529203D01*
X138972309Y-121526053D01*
X138993750Y-121525000D01*
X139431250Y-121525000D01*
X139452691Y-121526053D01*
X139452691Y-121526053D01*
G37*
D12*
G04 #@! TD*
G04 #@! TO.P,R4,1*
G04 #@! TO.N,Net-(R14-Pad2)*
X139212500Y-122000000D03*
D10*
G04 #@! TO.N,Net-(R11-Pad2)*
G04 #@! TO.C,R5*
G36*
X131027691Y-114026053D02*
X131048926Y-114029203D01*
X131069750Y-114034419D01*
X131089962Y-114041651D01*
X131109368Y-114050830D01*
X131127781Y-114061866D01*
X131145024Y-114074654D01*
X131160930Y-114089070D01*
X131175346Y-114104976D01*
X131188134Y-114122219D01*
X131199170Y-114140632D01*
X131208349Y-114160038D01*
X131215581Y-114180250D01*
X131220797Y-114201074D01*
X131223947Y-114222309D01*
X131225000Y-114243750D01*
X131225000Y-114756250D01*
X131223947Y-114777691D01*
X131220797Y-114798926D01*
X131215581Y-114819750D01*
X131208349Y-114839962D01*
X131199170Y-114859368D01*
X131188134Y-114877781D01*
X131175346Y-114895024D01*
X131160930Y-114910930D01*
X131145024Y-114925346D01*
X131127781Y-114938134D01*
X131109368Y-114949170D01*
X131089962Y-114958349D01*
X131069750Y-114965581D01*
X131048926Y-114970797D01*
X131027691Y-114973947D01*
X131006250Y-114975000D01*
X130568750Y-114975000D01*
X130547309Y-114973947D01*
X130526074Y-114970797D01*
X130505250Y-114965581D01*
X130485038Y-114958349D01*
X130465632Y-114949170D01*
X130447219Y-114938134D01*
X130429976Y-114925346D01*
X130414070Y-114910930D01*
X130399654Y-114895024D01*
X130386866Y-114877781D01*
X130375830Y-114859368D01*
X130366651Y-114839962D01*
X130359419Y-114819750D01*
X130354203Y-114798926D01*
X130351053Y-114777691D01*
X130350000Y-114756250D01*
X130350000Y-114243750D01*
X130351053Y-114222309D01*
X130354203Y-114201074D01*
X130359419Y-114180250D01*
X130366651Y-114160038D01*
X130375830Y-114140632D01*
X130386866Y-114122219D01*
X130399654Y-114104976D01*
X130414070Y-114089070D01*
X130429976Y-114074654D01*
X130447219Y-114061866D01*
X130465632Y-114050830D01*
X130485038Y-114041651D01*
X130505250Y-114034419D01*
X130526074Y-114029203D01*
X130547309Y-114026053D01*
X130568750Y-114025000D01*
X131006250Y-114025000D01*
X131027691Y-114026053D01*
X131027691Y-114026053D01*
G37*
D12*
G04 #@! TD*
G04 #@! TO.P,R5,1*
G04 #@! TO.N,Net-(R11-Pad2)*
X130787500Y-114500000D03*
D10*
G04 #@! TO.N,/Batt2*
G04 #@! TO.C,R5*
G36*
X129452691Y-114026053D02*
X129473926Y-114029203D01*
X129494750Y-114034419D01*
X129514962Y-114041651D01*
X129534368Y-114050830D01*
X129552781Y-114061866D01*
X129570024Y-114074654D01*
X129585930Y-114089070D01*
X129600346Y-114104976D01*
X129613134Y-114122219D01*
X129624170Y-114140632D01*
X129633349Y-114160038D01*
X129640581Y-114180250D01*
X129645797Y-114201074D01*
X129648947Y-114222309D01*
X129650000Y-114243750D01*
X129650000Y-114756250D01*
X129648947Y-114777691D01*
X129645797Y-114798926D01*
X129640581Y-114819750D01*
X129633349Y-114839962D01*
X129624170Y-114859368D01*
X129613134Y-114877781D01*
X129600346Y-114895024D01*
X129585930Y-114910930D01*
X129570024Y-114925346D01*
X129552781Y-114938134D01*
X129534368Y-114949170D01*
X129514962Y-114958349D01*
X129494750Y-114965581D01*
X129473926Y-114970797D01*
X129452691Y-114973947D01*
X129431250Y-114975000D01*
X128993750Y-114975000D01*
X128972309Y-114973947D01*
X128951074Y-114970797D01*
X128930250Y-114965581D01*
X128910038Y-114958349D01*
X128890632Y-114949170D01*
X128872219Y-114938134D01*
X128854976Y-114925346D01*
X128839070Y-114910930D01*
X128824654Y-114895024D01*
X128811866Y-114877781D01*
X128800830Y-114859368D01*
X128791651Y-114839962D01*
X128784419Y-114819750D01*
X128779203Y-114798926D01*
X128776053Y-114777691D01*
X128775000Y-114756250D01*
X128775000Y-114243750D01*
X128776053Y-114222309D01*
X128779203Y-114201074D01*
X128784419Y-114180250D01*
X128791651Y-114160038D01*
X128800830Y-114140632D01*
X128811866Y-114122219D01*
X128824654Y-114104976D01*
X128839070Y-114089070D01*
X128854976Y-114074654D01*
X128872219Y-114061866D01*
X128890632Y-114050830D01*
X128910038Y-114041651D01*
X128930250Y-114034419D01*
X128951074Y-114029203D01*
X128972309Y-114026053D01*
X128993750Y-114025000D01*
X129431250Y-114025000D01*
X129452691Y-114026053D01*
X129452691Y-114026053D01*
G37*
D12*
G04 #@! TD*
G04 #@! TO.P,R5,2*
G04 #@! TO.N,/Batt2*
X129212500Y-114500000D03*
D10*
G04 #@! TO.N,/Batt1*
G04 #@! TO.C,R6*
G36*
X129452691Y-112026053D02*
X129473926Y-112029203D01*
X129494750Y-112034419D01*
X129514962Y-112041651D01*
X129534368Y-112050830D01*
X129552781Y-112061866D01*
X129570024Y-112074654D01*
X129585930Y-112089070D01*
X129600346Y-112104976D01*
X129613134Y-112122219D01*
X129624170Y-112140632D01*
X129633349Y-112160038D01*
X129640581Y-112180250D01*
X129645797Y-112201074D01*
X129648947Y-112222309D01*
X129650000Y-112243750D01*
X129650000Y-112756250D01*
X129648947Y-112777691D01*
X129645797Y-112798926D01*
X129640581Y-112819750D01*
X129633349Y-112839962D01*
X129624170Y-112859368D01*
X129613134Y-112877781D01*
X129600346Y-112895024D01*
X129585930Y-112910930D01*
X129570024Y-112925346D01*
X129552781Y-112938134D01*
X129534368Y-112949170D01*
X129514962Y-112958349D01*
X129494750Y-112965581D01*
X129473926Y-112970797D01*
X129452691Y-112973947D01*
X129431250Y-112975000D01*
X128993750Y-112975000D01*
X128972309Y-112973947D01*
X128951074Y-112970797D01*
X128930250Y-112965581D01*
X128910038Y-112958349D01*
X128890632Y-112949170D01*
X128872219Y-112938134D01*
X128854976Y-112925346D01*
X128839070Y-112910930D01*
X128824654Y-112895024D01*
X128811866Y-112877781D01*
X128800830Y-112859368D01*
X128791651Y-112839962D01*
X128784419Y-112819750D01*
X128779203Y-112798926D01*
X128776053Y-112777691D01*
X128775000Y-112756250D01*
X128775000Y-112243750D01*
X128776053Y-112222309D01*
X128779203Y-112201074D01*
X128784419Y-112180250D01*
X128791651Y-112160038D01*
X128800830Y-112140632D01*
X128811866Y-112122219D01*
X128824654Y-112104976D01*
X128839070Y-112089070D01*
X128854976Y-112074654D01*
X128872219Y-112061866D01*
X128890632Y-112050830D01*
X128910038Y-112041651D01*
X128930250Y-112034419D01*
X128951074Y-112029203D01*
X128972309Y-112026053D01*
X128993750Y-112025000D01*
X129431250Y-112025000D01*
X129452691Y-112026053D01*
X129452691Y-112026053D01*
G37*
D12*
G04 #@! TD*
G04 #@! TO.P,R6,2*
G04 #@! TO.N,/Batt1*
X129212500Y-112500000D03*
D10*
G04 #@! TO.N,Net-(R15-Pad2)*
G04 #@! TO.C,R6*
G36*
X131027691Y-112026053D02*
X131048926Y-112029203D01*
X131069750Y-112034419D01*
X131089962Y-112041651D01*
X131109368Y-112050830D01*
X131127781Y-112061866D01*
X131145024Y-112074654D01*
X131160930Y-112089070D01*
X131175346Y-112104976D01*
X131188134Y-112122219D01*
X131199170Y-112140632D01*
X131208349Y-112160038D01*
X131215581Y-112180250D01*
X131220797Y-112201074D01*
X131223947Y-112222309D01*
X131225000Y-112243750D01*
X131225000Y-112756250D01*
X131223947Y-112777691D01*
X131220797Y-112798926D01*
X131215581Y-112819750D01*
X131208349Y-112839962D01*
X131199170Y-112859368D01*
X131188134Y-112877781D01*
X131175346Y-112895024D01*
X131160930Y-112910930D01*
X131145024Y-112925346D01*
X131127781Y-112938134D01*
X131109368Y-112949170D01*
X131089962Y-112958349D01*
X131069750Y-112965581D01*
X131048926Y-112970797D01*
X131027691Y-112973947D01*
X131006250Y-112975000D01*
X130568750Y-112975000D01*
X130547309Y-112973947D01*
X130526074Y-112970797D01*
X130505250Y-112965581D01*
X130485038Y-112958349D01*
X130465632Y-112949170D01*
X130447219Y-112938134D01*
X130429976Y-112925346D01*
X130414070Y-112910930D01*
X130399654Y-112895024D01*
X130386866Y-112877781D01*
X130375830Y-112859368D01*
X130366651Y-112839962D01*
X130359419Y-112819750D01*
X130354203Y-112798926D01*
X130351053Y-112777691D01*
X130350000Y-112756250D01*
X130350000Y-112243750D01*
X130351053Y-112222309D01*
X130354203Y-112201074D01*
X130359419Y-112180250D01*
X130366651Y-112160038D01*
X130375830Y-112140632D01*
X130386866Y-112122219D01*
X130399654Y-112104976D01*
X130414070Y-112089070D01*
X130429976Y-112074654D01*
X130447219Y-112061866D01*
X130465632Y-112050830D01*
X130485038Y-112041651D01*
X130505250Y-112034419D01*
X130526074Y-112029203D01*
X130547309Y-112026053D01*
X130568750Y-112025000D01*
X131006250Y-112025000D01*
X131027691Y-112026053D01*
X131027691Y-112026053D01*
G37*
D12*
G04 #@! TD*
G04 #@! TO.P,R6,1*
G04 #@! TO.N,Net-(R15-Pad2)*
X130787500Y-112500000D03*
D10*
G04 #@! TO.N,Net-(R12-Pad2)*
G04 #@! TO.C,R7*
G36*
X139452691Y-114026053D02*
X139473926Y-114029203D01*
X139494750Y-114034419D01*
X139514962Y-114041651D01*
X139534368Y-114050830D01*
X139552781Y-114061866D01*
X139570024Y-114074654D01*
X139585930Y-114089070D01*
X139600346Y-114104976D01*
X139613134Y-114122219D01*
X139624170Y-114140632D01*
X139633349Y-114160038D01*
X139640581Y-114180250D01*
X139645797Y-114201074D01*
X139648947Y-114222309D01*
X139650000Y-114243750D01*
X139650000Y-114756250D01*
X139648947Y-114777691D01*
X139645797Y-114798926D01*
X139640581Y-114819750D01*
X139633349Y-114839962D01*
X139624170Y-114859368D01*
X139613134Y-114877781D01*
X139600346Y-114895024D01*
X139585930Y-114910930D01*
X139570024Y-114925346D01*
X139552781Y-114938134D01*
X139534368Y-114949170D01*
X139514962Y-114958349D01*
X139494750Y-114965581D01*
X139473926Y-114970797D01*
X139452691Y-114973947D01*
X139431250Y-114975000D01*
X138993750Y-114975000D01*
X138972309Y-114973947D01*
X138951074Y-114970797D01*
X138930250Y-114965581D01*
X138910038Y-114958349D01*
X138890632Y-114949170D01*
X138872219Y-114938134D01*
X138854976Y-114925346D01*
X138839070Y-114910930D01*
X138824654Y-114895024D01*
X138811866Y-114877781D01*
X138800830Y-114859368D01*
X138791651Y-114839962D01*
X138784419Y-114819750D01*
X138779203Y-114798926D01*
X138776053Y-114777691D01*
X138775000Y-114756250D01*
X138775000Y-114243750D01*
X138776053Y-114222309D01*
X138779203Y-114201074D01*
X138784419Y-114180250D01*
X138791651Y-114160038D01*
X138800830Y-114140632D01*
X138811866Y-114122219D01*
X138824654Y-114104976D01*
X138839070Y-114089070D01*
X138854976Y-114074654D01*
X138872219Y-114061866D01*
X138890632Y-114050830D01*
X138910038Y-114041651D01*
X138930250Y-114034419D01*
X138951074Y-114029203D01*
X138972309Y-114026053D01*
X138993750Y-114025000D01*
X139431250Y-114025000D01*
X139452691Y-114026053D01*
X139452691Y-114026053D01*
G37*
D12*
G04 #@! TD*
G04 #@! TO.P,R7,1*
G04 #@! TO.N,Net-(R12-Pad2)*
X139212500Y-114500000D03*
D10*
G04 #@! TO.N,/Batt1*
G04 #@! TO.C,R7*
G36*
X141027691Y-114026053D02*
X141048926Y-114029203D01*
X141069750Y-114034419D01*
X141089962Y-114041651D01*
X141109368Y-114050830D01*
X141127781Y-114061866D01*
X141145024Y-114074654D01*
X141160930Y-114089070D01*
X141175346Y-114104976D01*
X141188134Y-114122219D01*
X141199170Y-114140632D01*
X141208349Y-114160038D01*
X141215581Y-114180250D01*
X141220797Y-114201074D01*
X141223947Y-114222309D01*
X141225000Y-114243750D01*
X141225000Y-114756250D01*
X141223947Y-114777691D01*
X141220797Y-114798926D01*
X141215581Y-114819750D01*
X141208349Y-114839962D01*
X141199170Y-114859368D01*
X141188134Y-114877781D01*
X141175346Y-114895024D01*
X141160930Y-114910930D01*
X141145024Y-114925346D01*
X141127781Y-114938134D01*
X141109368Y-114949170D01*
X141089962Y-114958349D01*
X141069750Y-114965581D01*
X141048926Y-114970797D01*
X141027691Y-114973947D01*
X141006250Y-114975000D01*
X140568750Y-114975000D01*
X140547309Y-114973947D01*
X140526074Y-114970797D01*
X140505250Y-114965581D01*
X140485038Y-114958349D01*
X140465632Y-114949170D01*
X140447219Y-114938134D01*
X140429976Y-114925346D01*
X140414070Y-114910930D01*
X140399654Y-114895024D01*
X140386866Y-114877781D01*
X140375830Y-114859368D01*
X140366651Y-114839962D01*
X140359419Y-114819750D01*
X140354203Y-114798926D01*
X140351053Y-114777691D01*
X140350000Y-114756250D01*
X140350000Y-114243750D01*
X140351053Y-114222309D01*
X140354203Y-114201074D01*
X140359419Y-114180250D01*
X140366651Y-114160038D01*
X140375830Y-114140632D01*
X140386866Y-114122219D01*
X140399654Y-114104976D01*
X140414070Y-114089070D01*
X140429976Y-114074654D01*
X140447219Y-114061866D01*
X140465632Y-114050830D01*
X140485038Y-114041651D01*
X140505250Y-114034419D01*
X140526074Y-114029203D01*
X140547309Y-114026053D01*
X140568750Y-114025000D01*
X141006250Y-114025000D01*
X141027691Y-114026053D01*
X141027691Y-114026053D01*
G37*
D12*
G04 #@! TD*
G04 #@! TO.P,R7,2*
G04 #@! TO.N,/Batt1*
X140787500Y-114500000D03*
D10*
G04 #@! TO.N,GND*
G04 #@! TO.C,R8*
G36*
X141027691Y-112026053D02*
X141048926Y-112029203D01*
X141069750Y-112034419D01*
X141089962Y-112041651D01*
X141109368Y-112050830D01*
X141127781Y-112061866D01*
X141145024Y-112074654D01*
X141160930Y-112089070D01*
X141175346Y-112104976D01*
X141188134Y-112122219D01*
X141199170Y-112140632D01*
X141208349Y-112160038D01*
X141215581Y-112180250D01*
X141220797Y-112201074D01*
X141223947Y-112222309D01*
X141225000Y-112243750D01*
X141225000Y-112756250D01*
X141223947Y-112777691D01*
X141220797Y-112798926D01*
X141215581Y-112819750D01*
X141208349Y-112839962D01*
X141199170Y-112859368D01*
X141188134Y-112877781D01*
X141175346Y-112895024D01*
X141160930Y-112910930D01*
X141145024Y-112925346D01*
X141127781Y-112938134D01*
X141109368Y-112949170D01*
X141089962Y-112958349D01*
X141069750Y-112965581D01*
X141048926Y-112970797D01*
X141027691Y-112973947D01*
X141006250Y-112975000D01*
X140568750Y-112975000D01*
X140547309Y-112973947D01*
X140526074Y-112970797D01*
X140505250Y-112965581D01*
X140485038Y-112958349D01*
X140465632Y-112949170D01*
X140447219Y-112938134D01*
X140429976Y-112925346D01*
X140414070Y-112910930D01*
X140399654Y-112895024D01*
X140386866Y-112877781D01*
X140375830Y-112859368D01*
X140366651Y-112839962D01*
X140359419Y-112819750D01*
X140354203Y-112798926D01*
X140351053Y-112777691D01*
X140350000Y-112756250D01*
X140350000Y-112243750D01*
X140351053Y-112222309D01*
X140354203Y-112201074D01*
X140359419Y-112180250D01*
X140366651Y-112160038D01*
X140375830Y-112140632D01*
X140386866Y-112122219D01*
X140399654Y-112104976D01*
X140414070Y-112089070D01*
X140429976Y-112074654D01*
X140447219Y-112061866D01*
X140465632Y-112050830D01*
X140485038Y-112041651D01*
X140505250Y-112034419D01*
X140526074Y-112029203D01*
X140547309Y-112026053D01*
X140568750Y-112025000D01*
X141006250Y-112025000D01*
X141027691Y-112026053D01*
X141027691Y-112026053D01*
G37*
D12*
G04 #@! TD*
G04 #@! TO.P,R8,2*
G04 #@! TO.N,GND*
X140787500Y-112500000D03*
D10*
G04 #@! TO.N,Net-(R16-Pad2)*
G04 #@! TO.C,R8*
G36*
X139452691Y-112026053D02*
X139473926Y-112029203D01*
X139494750Y-112034419D01*
X139514962Y-112041651D01*
X139534368Y-112050830D01*
X139552781Y-112061866D01*
X139570024Y-112074654D01*
X139585930Y-112089070D01*
X139600346Y-112104976D01*
X139613134Y-112122219D01*
X139624170Y-112140632D01*
X139633349Y-112160038D01*
X139640581Y-112180250D01*
X139645797Y-112201074D01*
X139648947Y-112222309D01*
X139650000Y-112243750D01*
X139650000Y-112756250D01*
X139648947Y-112777691D01*
X139645797Y-112798926D01*
X139640581Y-112819750D01*
X139633349Y-112839962D01*
X139624170Y-112859368D01*
X139613134Y-112877781D01*
X139600346Y-112895024D01*
X139585930Y-112910930D01*
X139570024Y-112925346D01*
X139552781Y-112938134D01*
X139534368Y-112949170D01*
X139514962Y-112958349D01*
X139494750Y-112965581D01*
X139473926Y-112970797D01*
X139452691Y-112973947D01*
X139431250Y-112975000D01*
X138993750Y-112975000D01*
X138972309Y-112973947D01*
X138951074Y-112970797D01*
X138930250Y-112965581D01*
X138910038Y-112958349D01*
X138890632Y-112949170D01*
X138872219Y-112938134D01*
X138854976Y-112925346D01*
X138839070Y-112910930D01*
X138824654Y-112895024D01*
X138811866Y-112877781D01*
X138800830Y-112859368D01*
X138791651Y-112839962D01*
X138784419Y-112819750D01*
X138779203Y-112798926D01*
X138776053Y-112777691D01*
X138775000Y-112756250D01*
X138775000Y-112243750D01*
X138776053Y-112222309D01*
X138779203Y-112201074D01*
X138784419Y-112180250D01*
X138791651Y-112160038D01*
X138800830Y-112140632D01*
X138811866Y-112122219D01*
X138824654Y-112104976D01*
X138839070Y-112089070D01*
X138854976Y-112074654D01*
X138872219Y-112061866D01*
X138890632Y-112050830D01*
X138910038Y-112041651D01*
X138930250Y-112034419D01*
X138951074Y-112029203D01*
X138972309Y-112026053D01*
X138993750Y-112025000D01*
X139431250Y-112025000D01*
X139452691Y-112026053D01*
X139452691Y-112026053D01*
G37*
D12*
G04 #@! TD*
G04 #@! TO.P,R8,1*
G04 #@! TO.N,Net-(R16-Pad2)*
X139212500Y-112500000D03*
D10*
G04 #@! TO.N,Net-(R1-Pad1)*
G04 #@! TO.C,R9*
G36*
X131452691Y-125526053D02*
X131473926Y-125529203D01*
X131494750Y-125534419D01*
X131514962Y-125541651D01*
X131534368Y-125550830D01*
X131552781Y-125561866D01*
X131570024Y-125574654D01*
X131585930Y-125589070D01*
X131600346Y-125604976D01*
X131613134Y-125622219D01*
X131624170Y-125640632D01*
X131633349Y-125660038D01*
X131640581Y-125680250D01*
X131645797Y-125701074D01*
X131648947Y-125722309D01*
X131650000Y-125743750D01*
X131650000Y-126256250D01*
X131648947Y-126277691D01*
X131645797Y-126298926D01*
X131640581Y-126319750D01*
X131633349Y-126339962D01*
X131624170Y-126359368D01*
X131613134Y-126377781D01*
X131600346Y-126395024D01*
X131585930Y-126410930D01*
X131570024Y-126425346D01*
X131552781Y-126438134D01*
X131534368Y-126449170D01*
X131514962Y-126458349D01*
X131494750Y-126465581D01*
X131473926Y-126470797D01*
X131452691Y-126473947D01*
X131431250Y-126475000D01*
X130993750Y-126475000D01*
X130972309Y-126473947D01*
X130951074Y-126470797D01*
X130930250Y-126465581D01*
X130910038Y-126458349D01*
X130890632Y-126449170D01*
X130872219Y-126438134D01*
X130854976Y-126425346D01*
X130839070Y-126410930D01*
X130824654Y-126395024D01*
X130811866Y-126377781D01*
X130800830Y-126359368D01*
X130791651Y-126339962D01*
X130784419Y-126319750D01*
X130779203Y-126298926D01*
X130776053Y-126277691D01*
X130775000Y-126256250D01*
X130775000Y-125743750D01*
X130776053Y-125722309D01*
X130779203Y-125701074D01*
X130784419Y-125680250D01*
X130791651Y-125660038D01*
X130800830Y-125640632D01*
X130811866Y-125622219D01*
X130824654Y-125604976D01*
X130839070Y-125589070D01*
X130854976Y-125574654D01*
X130872219Y-125561866D01*
X130890632Y-125550830D01*
X130910038Y-125541651D01*
X130930250Y-125534419D01*
X130951074Y-125529203D01*
X130972309Y-125526053D01*
X130993750Y-125525000D01*
X131431250Y-125525000D01*
X131452691Y-125526053D01*
X131452691Y-125526053D01*
G37*
D12*
G04 #@! TD*
G04 #@! TO.P,R9,2*
G04 #@! TO.N,Net-(R1-Pad1)*
X131212500Y-126000000D03*
D10*
G04 #@! TO.N,GND*
G04 #@! TO.C,R9*
G36*
X133027691Y-125526053D02*
X133048926Y-125529203D01*
X133069750Y-125534419D01*
X133089962Y-125541651D01*
X133109368Y-125550830D01*
X133127781Y-125561866D01*
X133145024Y-125574654D01*
X133160930Y-125589070D01*
X133175346Y-125604976D01*
X133188134Y-125622219D01*
X133199170Y-125640632D01*
X133208349Y-125660038D01*
X133215581Y-125680250D01*
X133220797Y-125701074D01*
X133223947Y-125722309D01*
X133225000Y-125743750D01*
X133225000Y-126256250D01*
X133223947Y-126277691D01*
X133220797Y-126298926D01*
X133215581Y-126319750D01*
X133208349Y-126339962D01*
X133199170Y-126359368D01*
X133188134Y-126377781D01*
X133175346Y-126395024D01*
X133160930Y-126410930D01*
X133145024Y-126425346D01*
X133127781Y-126438134D01*
X133109368Y-126449170D01*
X133089962Y-126458349D01*
X133069750Y-126465581D01*
X133048926Y-126470797D01*
X133027691Y-126473947D01*
X133006250Y-126475000D01*
X132568750Y-126475000D01*
X132547309Y-126473947D01*
X132526074Y-126470797D01*
X132505250Y-126465581D01*
X132485038Y-126458349D01*
X132465632Y-126449170D01*
X132447219Y-126438134D01*
X132429976Y-126425346D01*
X132414070Y-126410930D01*
X132399654Y-126395024D01*
X132386866Y-126377781D01*
X132375830Y-126359368D01*
X132366651Y-126339962D01*
X132359419Y-126319750D01*
X132354203Y-126298926D01*
X132351053Y-126277691D01*
X132350000Y-126256250D01*
X132350000Y-125743750D01*
X132351053Y-125722309D01*
X132354203Y-125701074D01*
X132359419Y-125680250D01*
X132366651Y-125660038D01*
X132375830Y-125640632D01*
X132386866Y-125622219D01*
X132399654Y-125604976D01*
X132414070Y-125589070D01*
X132429976Y-125574654D01*
X132447219Y-125561866D01*
X132465632Y-125550830D01*
X132485038Y-125541651D01*
X132505250Y-125534419D01*
X132526074Y-125529203D01*
X132547309Y-125526053D01*
X132568750Y-125525000D01*
X133006250Y-125525000D01*
X133027691Y-125526053D01*
X133027691Y-125526053D01*
G37*
D12*
G04 #@! TD*
G04 #@! TO.P,R9,1*
G04 #@! TO.N,GND*
X132787500Y-126000000D03*
D10*
G04 #@! TO.N,Net-(R10-Pad2)*
G04 #@! TO.C,R10*
G36*
X139527691Y-125526053D02*
X139548926Y-125529203D01*
X139569750Y-125534419D01*
X139589962Y-125541651D01*
X139609368Y-125550830D01*
X139627781Y-125561866D01*
X139645024Y-125574654D01*
X139660930Y-125589070D01*
X139675346Y-125604976D01*
X139688134Y-125622219D01*
X139699170Y-125640632D01*
X139708349Y-125660038D01*
X139715581Y-125680250D01*
X139720797Y-125701074D01*
X139723947Y-125722309D01*
X139725000Y-125743750D01*
X139725000Y-126256250D01*
X139723947Y-126277691D01*
X139720797Y-126298926D01*
X139715581Y-126319750D01*
X139708349Y-126339962D01*
X139699170Y-126359368D01*
X139688134Y-126377781D01*
X139675346Y-126395024D01*
X139660930Y-126410930D01*
X139645024Y-126425346D01*
X139627781Y-126438134D01*
X139609368Y-126449170D01*
X139589962Y-126458349D01*
X139569750Y-126465581D01*
X139548926Y-126470797D01*
X139527691Y-126473947D01*
X139506250Y-126475000D01*
X139068750Y-126475000D01*
X139047309Y-126473947D01*
X139026074Y-126470797D01*
X139005250Y-126465581D01*
X138985038Y-126458349D01*
X138965632Y-126449170D01*
X138947219Y-126438134D01*
X138929976Y-126425346D01*
X138914070Y-126410930D01*
X138899654Y-126395024D01*
X138886866Y-126377781D01*
X138875830Y-126359368D01*
X138866651Y-126339962D01*
X138859419Y-126319750D01*
X138854203Y-126298926D01*
X138851053Y-126277691D01*
X138850000Y-126256250D01*
X138850000Y-125743750D01*
X138851053Y-125722309D01*
X138854203Y-125701074D01*
X138859419Y-125680250D01*
X138866651Y-125660038D01*
X138875830Y-125640632D01*
X138886866Y-125622219D01*
X138899654Y-125604976D01*
X138914070Y-125589070D01*
X138929976Y-125574654D01*
X138947219Y-125561866D01*
X138965632Y-125550830D01*
X138985038Y-125541651D01*
X139005250Y-125534419D01*
X139026074Y-125529203D01*
X139047309Y-125526053D01*
X139068750Y-125525000D01*
X139506250Y-125525000D01*
X139527691Y-125526053D01*
X139527691Y-125526053D01*
G37*
D12*
G04 #@! TD*
G04 #@! TO.P,R10,2*
G04 #@! TO.N,Net-(R10-Pad2)*
X139287500Y-126000000D03*
D10*
G04 #@! TO.N,GND*
G04 #@! TO.C,R10*
G36*
X137952691Y-125526053D02*
X137973926Y-125529203D01*
X137994750Y-125534419D01*
X138014962Y-125541651D01*
X138034368Y-125550830D01*
X138052781Y-125561866D01*
X138070024Y-125574654D01*
X138085930Y-125589070D01*
X138100346Y-125604976D01*
X138113134Y-125622219D01*
X138124170Y-125640632D01*
X138133349Y-125660038D01*
X138140581Y-125680250D01*
X138145797Y-125701074D01*
X138148947Y-125722309D01*
X138150000Y-125743750D01*
X138150000Y-126256250D01*
X138148947Y-126277691D01*
X138145797Y-126298926D01*
X138140581Y-126319750D01*
X138133349Y-126339962D01*
X138124170Y-126359368D01*
X138113134Y-126377781D01*
X138100346Y-126395024D01*
X138085930Y-126410930D01*
X138070024Y-126425346D01*
X138052781Y-126438134D01*
X138034368Y-126449170D01*
X138014962Y-126458349D01*
X137994750Y-126465581D01*
X137973926Y-126470797D01*
X137952691Y-126473947D01*
X137931250Y-126475000D01*
X137493750Y-126475000D01*
X137472309Y-126473947D01*
X137451074Y-126470797D01*
X137430250Y-126465581D01*
X137410038Y-126458349D01*
X137390632Y-126449170D01*
X137372219Y-126438134D01*
X137354976Y-126425346D01*
X137339070Y-126410930D01*
X137324654Y-126395024D01*
X137311866Y-126377781D01*
X137300830Y-126359368D01*
X137291651Y-126339962D01*
X137284419Y-126319750D01*
X137279203Y-126298926D01*
X137276053Y-126277691D01*
X137275000Y-126256250D01*
X137275000Y-125743750D01*
X137276053Y-125722309D01*
X137279203Y-125701074D01*
X137284419Y-125680250D01*
X137291651Y-125660038D01*
X137300830Y-125640632D01*
X137311866Y-125622219D01*
X137324654Y-125604976D01*
X137339070Y-125589070D01*
X137354976Y-125574654D01*
X137372219Y-125561866D01*
X137390632Y-125550830D01*
X137410038Y-125541651D01*
X137430250Y-125534419D01*
X137451074Y-125529203D01*
X137472309Y-125526053D01*
X137493750Y-125525000D01*
X137931250Y-125525000D01*
X137952691Y-125526053D01*
X137952691Y-125526053D01*
G37*
D12*
G04 #@! TD*
G04 #@! TO.P,R10,1*
G04 #@! TO.N,GND*
X137712500Y-126000000D03*
D10*
G04 #@! TO.N,Net-(R11-Pad2)*
G04 #@! TO.C,R11*
G36*
X131452691Y-116026053D02*
X131473926Y-116029203D01*
X131494750Y-116034419D01*
X131514962Y-116041651D01*
X131534368Y-116050830D01*
X131552781Y-116061866D01*
X131570024Y-116074654D01*
X131585930Y-116089070D01*
X131600346Y-116104976D01*
X131613134Y-116122219D01*
X131624170Y-116140632D01*
X131633349Y-116160038D01*
X131640581Y-116180250D01*
X131645797Y-116201074D01*
X131648947Y-116222309D01*
X131650000Y-116243750D01*
X131650000Y-116756250D01*
X131648947Y-116777691D01*
X131645797Y-116798926D01*
X131640581Y-116819750D01*
X131633349Y-116839962D01*
X131624170Y-116859368D01*
X131613134Y-116877781D01*
X131600346Y-116895024D01*
X131585930Y-116910930D01*
X131570024Y-116925346D01*
X131552781Y-116938134D01*
X131534368Y-116949170D01*
X131514962Y-116958349D01*
X131494750Y-116965581D01*
X131473926Y-116970797D01*
X131452691Y-116973947D01*
X131431250Y-116975000D01*
X130993750Y-116975000D01*
X130972309Y-116973947D01*
X130951074Y-116970797D01*
X130930250Y-116965581D01*
X130910038Y-116958349D01*
X130890632Y-116949170D01*
X130872219Y-116938134D01*
X130854976Y-116925346D01*
X130839070Y-116910930D01*
X130824654Y-116895024D01*
X130811866Y-116877781D01*
X130800830Y-116859368D01*
X130791651Y-116839962D01*
X130784419Y-116819750D01*
X130779203Y-116798926D01*
X130776053Y-116777691D01*
X130775000Y-116756250D01*
X130775000Y-116243750D01*
X130776053Y-116222309D01*
X130779203Y-116201074D01*
X130784419Y-116180250D01*
X130791651Y-116160038D01*
X130800830Y-116140632D01*
X130811866Y-116122219D01*
X130824654Y-116104976D01*
X130839070Y-116089070D01*
X130854976Y-116074654D01*
X130872219Y-116061866D01*
X130890632Y-116050830D01*
X130910038Y-116041651D01*
X130930250Y-116034419D01*
X130951074Y-116029203D01*
X130972309Y-116026053D01*
X130993750Y-116025000D01*
X131431250Y-116025000D01*
X131452691Y-116026053D01*
X131452691Y-116026053D01*
G37*
D12*
G04 #@! TD*
G04 #@! TO.P,R11,2*
G04 #@! TO.N,Net-(R11-Pad2)*
X131212500Y-116500000D03*
D10*
G04 #@! TO.N,GND*
G04 #@! TO.C,R11*
G36*
X133027691Y-116026053D02*
X133048926Y-116029203D01*
X133069750Y-116034419D01*
X133089962Y-116041651D01*
X133109368Y-116050830D01*
X133127781Y-116061866D01*
X133145024Y-116074654D01*
X133160930Y-116089070D01*
X133175346Y-116104976D01*
X133188134Y-116122219D01*
X133199170Y-116140632D01*
X133208349Y-116160038D01*
X133215581Y-116180250D01*
X133220797Y-116201074D01*
X133223947Y-116222309D01*
X133225000Y-116243750D01*
X133225000Y-116756250D01*
X133223947Y-116777691D01*
X133220797Y-116798926D01*
X133215581Y-116819750D01*
X133208349Y-116839962D01*
X133199170Y-116859368D01*
X133188134Y-116877781D01*
X133175346Y-116895024D01*
X133160930Y-116910930D01*
X133145024Y-116925346D01*
X133127781Y-116938134D01*
X133109368Y-116949170D01*
X133089962Y-116958349D01*
X133069750Y-116965581D01*
X133048926Y-116970797D01*
X133027691Y-116973947D01*
X133006250Y-116975000D01*
X132568750Y-116975000D01*
X132547309Y-116973947D01*
X132526074Y-116970797D01*
X132505250Y-116965581D01*
X132485038Y-116958349D01*
X132465632Y-116949170D01*
X132447219Y-116938134D01*
X132429976Y-116925346D01*
X132414070Y-116910930D01*
X132399654Y-116895024D01*
X132386866Y-116877781D01*
X132375830Y-116859368D01*
X132366651Y-116839962D01*
X132359419Y-116819750D01*
X132354203Y-116798926D01*
X132351053Y-116777691D01*
X132350000Y-116756250D01*
X132350000Y-116243750D01*
X132351053Y-116222309D01*
X132354203Y-116201074D01*
X132359419Y-116180250D01*
X132366651Y-116160038D01*
X132375830Y-116140632D01*
X132386866Y-116122219D01*
X132399654Y-116104976D01*
X132414070Y-116089070D01*
X132429976Y-116074654D01*
X132447219Y-116061866D01*
X132465632Y-116050830D01*
X132485038Y-116041651D01*
X132505250Y-116034419D01*
X132526074Y-116029203D01*
X132547309Y-116026053D01*
X132568750Y-116025000D01*
X133006250Y-116025000D01*
X133027691Y-116026053D01*
X133027691Y-116026053D01*
G37*
D12*
G04 #@! TD*
G04 #@! TO.P,R11,1*
G04 #@! TO.N,GND*
X132787500Y-116500000D03*
D10*
G04 #@! TO.N,Net-(R12-Pad2)*
G04 #@! TO.C,R12*
G36*
X139452691Y-115776053D02*
X139473926Y-115779203D01*
X139494750Y-115784419D01*
X139514962Y-115791651D01*
X139534368Y-115800830D01*
X139552781Y-115811866D01*
X139570024Y-115824654D01*
X139585930Y-115839070D01*
X139600346Y-115854976D01*
X139613134Y-115872219D01*
X139624170Y-115890632D01*
X139633349Y-115910038D01*
X139640581Y-115930250D01*
X139645797Y-115951074D01*
X139648947Y-115972309D01*
X139650000Y-115993750D01*
X139650000Y-116506250D01*
X139648947Y-116527691D01*
X139645797Y-116548926D01*
X139640581Y-116569750D01*
X139633349Y-116589962D01*
X139624170Y-116609368D01*
X139613134Y-116627781D01*
X139600346Y-116645024D01*
X139585930Y-116660930D01*
X139570024Y-116675346D01*
X139552781Y-116688134D01*
X139534368Y-116699170D01*
X139514962Y-116708349D01*
X139494750Y-116715581D01*
X139473926Y-116720797D01*
X139452691Y-116723947D01*
X139431250Y-116725000D01*
X138993750Y-116725000D01*
X138972309Y-116723947D01*
X138951074Y-116720797D01*
X138930250Y-116715581D01*
X138910038Y-116708349D01*
X138890632Y-116699170D01*
X138872219Y-116688134D01*
X138854976Y-116675346D01*
X138839070Y-116660930D01*
X138824654Y-116645024D01*
X138811866Y-116627781D01*
X138800830Y-116609368D01*
X138791651Y-116589962D01*
X138784419Y-116569750D01*
X138779203Y-116548926D01*
X138776053Y-116527691D01*
X138775000Y-116506250D01*
X138775000Y-115993750D01*
X138776053Y-115972309D01*
X138779203Y-115951074D01*
X138784419Y-115930250D01*
X138791651Y-115910038D01*
X138800830Y-115890632D01*
X138811866Y-115872219D01*
X138824654Y-115854976D01*
X138839070Y-115839070D01*
X138854976Y-115824654D01*
X138872219Y-115811866D01*
X138890632Y-115800830D01*
X138910038Y-115791651D01*
X138930250Y-115784419D01*
X138951074Y-115779203D01*
X138972309Y-115776053D01*
X138993750Y-115775000D01*
X139431250Y-115775000D01*
X139452691Y-115776053D01*
X139452691Y-115776053D01*
G37*
D12*
G04 #@! TD*
G04 #@! TO.P,R12,2*
G04 #@! TO.N,Net-(R12-Pad2)*
X139212500Y-116250000D03*
D10*
G04 #@! TO.N,GND*
G04 #@! TO.C,R12*
G36*
X141027691Y-115776053D02*
X141048926Y-115779203D01*
X141069750Y-115784419D01*
X141089962Y-115791651D01*
X141109368Y-115800830D01*
X141127781Y-115811866D01*
X141145024Y-115824654D01*
X141160930Y-115839070D01*
X141175346Y-115854976D01*
X141188134Y-115872219D01*
X141199170Y-115890632D01*
X141208349Y-115910038D01*
X141215581Y-115930250D01*
X141220797Y-115951074D01*
X141223947Y-115972309D01*
X141225000Y-115993750D01*
X141225000Y-116506250D01*
X141223947Y-116527691D01*
X141220797Y-116548926D01*
X141215581Y-116569750D01*
X141208349Y-116589962D01*
X141199170Y-116609368D01*
X141188134Y-116627781D01*
X141175346Y-116645024D01*
X141160930Y-116660930D01*
X141145024Y-116675346D01*
X141127781Y-116688134D01*
X141109368Y-116699170D01*
X141089962Y-116708349D01*
X141069750Y-116715581D01*
X141048926Y-116720797D01*
X141027691Y-116723947D01*
X141006250Y-116725000D01*
X140568750Y-116725000D01*
X140547309Y-116723947D01*
X140526074Y-116720797D01*
X140505250Y-116715581D01*
X140485038Y-116708349D01*
X140465632Y-116699170D01*
X140447219Y-116688134D01*
X140429976Y-116675346D01*
X140414070Y-116660930D01*
X140399654Y-116645024D01*
X140386866Y-116627781D01*
X140375830Y-116609368D01*
X140366651Y-116589962D01*
X140359419Y-116569750D01*
X140354203Y-116548926D01*
X140351053Y-116527691D01*
X140350000Y-116506250D01*
X140350000Y-115993750D01*
X140351053Y-115972309D01*
X140354203Y-115951074D01*
X140359419Y-115930250D01*
X140366651Y-115910038D01*
X140375830Y-115890632D01*
X140386866Y-115872219D01*
X140399654Y-115854976D01*
X140414070Y-115839070D01*
X140429976Y-115824654D01*
X140447219Y-115811866D01*
X140465632Y-115800830D01*
X140485038Y-115791651D01*
X140505250Y-115784419D01*
X140526074Y-115779203D01*
X140547309Y-115776053D01*
X140568750Y-115775000D01*
X141006250Y-115775000D01*
X141027691Y-115776053D01*
X141027691Y-115776053D01*
G37*
D12*
G04 #@! TD*
G04 #@! TO.P,R12,1*
G04 #@! TO.N,GND*
X140787500Y-116250000D03*
D10*
G04 #@! TO.N,/Vsense4*
G04 #@! TO.C,R13*
G36*
X133027691Y-119526053D02*
X133048926Y-119529203D01*
X133069750Y-119534419D01*
X133089962Y-119541651D01*
X133109368Y-119550830D01*
X133127781Y-119561866D01*
X133145024Y-119574654D01*
X133160930Y-119589070D01*
X133175346Y-119604976D01*
X133188134Y-119622219D01*
X133199170Y-119640632D01*
X133208349Y-119660038D01*
X133215581Y-119680250D01*
X133220797Y-119701074D01*
X133223947Y-119722309D01*
X133225000Y-119743750D01*
X133225000Y-120256250D01*
X133223947Y-120277691D01*
X133220797Y-120298926D01*
X133215581Y-120319750D01*
X133208349Y-120339962D01*
X133199170Y-120359368D01*
X133188134Y-120377781D01*
X133175346Y-120395024D01*
X133160930Y-120410930D01*
X133145024Y-120425346D01*
X133127781Y-120438134D01*
X133109368Y-120449170D01*
X133089962Y-120458349D01*
X133069750Y-120465581D01*
X133048926Y-120470797D01*
X133027691Y-120473947D01*
X133006250Y-120475000D01*
X132568750Y-120475000D01*
X132547309Y-120473947D01*
X132526074Y-120470797D01*
X132505250Y-120465581D01*
X132485038Y-120458349D01*
X132465632Y-120449170D01*
X132447219Y-120438134D01*
X132429976Y-120425346D01*
X132414070Y-120410930D01*
X132399654Y-120395024D01*
X132386866Y-120377781D01*
X132375830Y-120359368D01*
X132366651Y-120339962D01*
X132359419Y-120319750D01*
X132354203Y-120298926D01*
X132351053Y-120277691D01*
X132350000Y-120256250D01*
X132350000Y-119743750D01*
X132351053Y-119722309D01*
X132354203Y-119701074D01*
X132359419Y-119680250D01*
X132366651Y-119660038D01*
X132375830Y-119640632D01*
X132386866Y-119622219D01*
X132399654Y-119604976D01*
X132414070Y-119589070D01*
X132429976Y-119574654D01*
X132447219Y-119561866D01*
X132465632Y-119550830D01*
X132485038Y-119541651D01*
X132505250Y-119534419D01*
X132526074Y-119529203D01*
X132547309Y-119526053D01*
X132568750Y-119525000D01*
X133006250Y-119525000D01*
X133027691Y-119526053D01*
X133027691Y-119526053D01*
G37*
D12*
G04 #@! TD*
G04 #@! TO.P,R13,1*
G04 #@! TO.N,/Vsense4*
X132787500Y-120000000D03*
D10*
G04 #@! TO.N,Net-(R13-Pad2)*
G04 #@! TO.C,R13*
G36*
X131452691Y-119526053D02*
X131473926Y-119529203D01*
X131494750Y-119534419D01*
X131514962Y-119541651D01*
X131534368Y-119550830D01*
X131552781Y-119561866D01*
X131570024Y-119574654D01*
X131585930Y-119589070D01*
X131600346Y-119604976D01*
X131613134Y-119622219D01*
X131624170Y-119640632D01*
X131633349Y-119660038D01*
X131640581Y-119680250D01*
X131645797Y-119701074D01*
X131648947Y-119722309D01*
X131650000Y-119743750D01*
X131650000Y-120256250D01*
X131648947Y-120277691D01*
X131645797Y-120298926D01*
X131640581Y-120319750D01*
X131633349Y-120339962D01*
X131624170Y-120359368D01*
X131613134Y-120377781D01*
X131600346Y-120395024D01*
X131585930Y-120410930D01*
X131570024Y-120425346D01*
X131552781Y-120438134D01*
X131534368Y-120449170D01*
X131514962Y-120458349D01*
X131494750Y-120465581D01*
X131473926Y-120470797D01*
X131452691Y-120473947D01*
X131431250Y-120475000D01*
X130993750Y-120475000D01*
X130972309Y-120473947D01*
X130951074Y-120470797D01*
X130930250Y-120465581D01*
X130910038Y-120458349D01*
X130890632Y-120449170D01*
X130872219Y-120438134D01*
X130854976Y-120425346D01*
X130839070Y-120410930D01*
X130824654Y-120395024D01*
X130811866Y-120377781D01*
X130800830Y-120359368D01*
X130791651Y-120339962D01*
X130784419Y-120319750D01*
X130779203Y-120298926D01*
X130776053Y-120277691D01*
X130775000Y-120256250D01*
X130775000Y-119743750D01*
X130776053Y-119722309D01*
X130779203Y-119701074D01*
X130784419Y-119680250D01*
X130791651Y-119660038D01*
X130800830Y-119640632D01*
X130811866Y-119622219D01*
X130824654Y-119604976D01*
X130839070Y-119589070D01*
X130854976Y-119574654D01*
X130872219Y-119561866D01*
X130890632Y-119550830D01*
X130910038Y-119541651D01*
X130930250Y-119534419D01*
X130951074Y-119529203D01*
X130972309Y-119526053D01*
X130993750Y-119525000D01*
X131431250Y-119525000D01*
X131452691Y-119526053D01*
X131452691Y-119526053D01*
G37*
D12*
G04 #@! TD*
G04 #@! TO.P,R13,2*
G04 #@! TO.N,Net-(R13-Pad2)*
X131212500Y-120000000D03*
D10*
G04 #@! TO.N,/Vsense3*
G04 #@! TO.C,R14*
G36*
X137952691Y-119526053D02*
X137973926Y-119529203D01*
X137994750Y-119534419D01*
X138014962Y-119541651D01*
X138034368Y-119550830D01*
X138052781Y-119561866D01*
X138070024Y-119574654D01*
X138085930Y-119589070D01*
X138100346Y-119604976D01*
X138113134Y-119622219D01*
X138124170Y-119640632D01*
X138133349Y-119660038D01*
X138140581Y-119680250D01*
X138145797Y-119701074D01*
X138148947Y-119722309D01*
X138150000Y-119743750D01*
X138150000Y-120256250D01*
X138148947Y-120277691D01*
X138145797Y-120298926D01*
X138140581Y-120319750D01*
X138133349Y-120339962D01*
X138124170Y-120359368D01*
X138113134Y-120377781D01*
X138100346Y-120395024D01*
X138085930Y-120410930D01*
X138070024Y-120425346D01*
X138052781Y-120438134D01*
X138034368Y-120449170D01*
X138014962Y-120458349D01*
X137994750Y-120465581D01*
X137973926Y-120470797D01*
X137952691Y-120473947D01*
X137931250Y-120475000D01*
X137493750Y-120475000D01*
X137472309Y-120473947D01*
X137451074Y-120470797D01*
X137430250Y-120465581D01*
X137410038Y-120458349D01*
X137390632Y-120449170D01*
X137372219Y-120438134D01*
X137354976Y-120425346D01*
X137339070Y-120410930D01*
X137324654Y-120395024D01*
X137311866Y-120377781D01*
X137300830Y-120359368D01*
X137291651Y-120339962D01*
X137284419Y-120319750D01*
X137279203Y-120298926D01*
X137276053Y-120277691D01*
X137275000Y-120256250D01*
X137275000Y-119743750D01*
X137276053Y-119722309D01*
X137279203Y-119701074D01*
X137284419Y-119680250D01*
X137291651Y-119660038D01*
X137300830Y-119640632D01*
X137311866Y-119622219D01*
X137324654Y-119604976D01*
X137339070Y-119589070D01*
X137354976Y-119574654D01*
X137372219Y-119561866D01*
X137390632Y-119550830D01*
X137410038Y-119541651D01*
X137430250Y-119534419D01*
X137451074Y-119529203D01*
X137472309Y-119526053D01*
X137493750Y-119525000D01*
X137931250Y-119525000D01*
X137952691Y-119526053D01*
X137952691Y-119526053D01*
G37*
D12*
G04 #@! TD*
G04 #@! TO.P,R14,1*
G04 #@! TO.N,/Vsense3*
X137712500Y-120000000D03*
D10*
G04 #@! TO.N,Net-(R14-Pad2)*
G04 #@! TO.C,R14*
G36*
X139527691Y-119526053D02*
X139548926Y-119529203D01*
X139569750Y-119534419D01*
X139589962Y-119541651D01*
X139609368Y-119550830D01*
X139627781Y-119561866D01*
X139645024Y-119574654D01*
X139660930Y-119589070D01*
X139675346Y-119604976D01*
X139688134Y-119622219D01*
X139699170Y-119640632D01*
X139708349Y-119660038D01*
X139715581Y-119680250D01*
X139720797Y-119701074D01*
X139723947Y-119722309D01*
X139725000Y-119743750D01*
X139725000Y-120256250D01*
X139723947Y-120277691D01*
X139720797Y-120298926D01*
X139715581Y-120319750D01*
X139708349Y-120339962D01*
X139699170Y-120359368D01*
X139688134Y-120377781D01*
X139675346Y-120395024D01*
X139660930Y-120410930D01*
X139645024Y-120425346D01*
X139627781Y-120438134D01*
X139609368Y-120449170D01*
X139589962Y-120458349D01*
X139569750Y-120465581D01*
X139548926Y-120470797D01*
X139527691Y-120473947D01*
X139506250Y-120475000D01*
X139068750Y-120475000D01*
X139047309Y-120473947D01*
X139026074Y-120470797D01*
X139005250Y-120465581D01*
X138985038Y-120458349D01*
X138965632Y-120449170D01*
X138947219Y-120438134D01*
X138929976Y-120425346D01*
X138914070Y-120410930D01*
X138899654Y-120395024D01*
X138886866Y-120377781D01*
X138875830Y-120359368D01*
X138866651Y-120339962D01*
X138859419Y-120319750D01*
X138854203Y-120298926D01*
X138851053Y-120277691D01*
X138850000Y-120256250D01*
X138850000Y-119743750D01*
X138851053Y-119722309D01*
X138854203Y-119701074D01*
X138859419Y-119680250D01*
X138866651Y-119660038D01*
X138875830Y-119640632D01*
X138886866Y-119622219D01*
X138899654Y-119604976D01*
X138914070Y-119589070D01*
X138929976Y-119574654D01*
X138947219Y-119561866D01*
X138965632Y-119550830D01*
X138985038Y-119541651D01*
X139005250Y-119534419D01*
X139026074Y-119529203D01*
X139047309Y-119526053D01*
X139068750Y-119525000D01*
X139506250Y-119525000D01*
X139527691Y-119526053D01*
X139527691Y-119526053D01*
G37*
D12*
G04 #@! TD*
G04 #@! TO.P,R14,2*
G04 #@! TO.N,Net-(R14-Pad2)*
X139287500Y-120000000D03*
D10*
G04 #@! TO.N,/Vsense2*
G04 #@! TO.C,R15*
G36*
X133027691Y-110026053D02*
X133048926Y-110029203D01*
X133069750Y-110034419D01*
X133089962Y-110041651D01*
X133109368Y-110050830D01*
X133127781Y-110061866D01*
X133145024Y-110074654D01*
X133160930Y-110089070D01*
X133175346Y-110104976D01*
X133188134Y-110122219D01*
X133199170Y-110140632D01*
X133208349Y-110160038D01*
X133215581Y-110180250D01*
X133220797Y-110201074D01*
X133223947Y-110222309D01*
X133225000Y-110243750D01*
X133225000Y-110756250D01*
X133223947Y-110777691D01*
X133220797Y-110798926D01*
X133215581Y-110819750D01*
X133208349Y-110839962D01*
X133199170Y-110859368D01*
X133188134Y-110877781D01*
X133175346Y-110895024D01*
X133160930Y-110910930D01*
X133145024Y-110925346D01*
X133127781Y-110938134D01*
X133109368Y-110949170D01*
X133089962Y-110958349D01*
X133069750Y-110965581D01*
X133048926Y-110970797D01*
X133027691Y-110973947D01*
X133006250Y-110975000D01*
X132568750Y-110975000D01*
X132547309Y-110973947D01*
X132526074Y-110970797D01*
X132505250Y-110965581D01*
X132485038Y-110958349D01*
X132465632Y-110949170D01*
X132447219Y-110938134D01*
X132429976Y-110925346D01*
X132414070Y-110910930D01*
X132399654Y-110895024D01*
X132386866Y-110877781D01*
X132375830Y-110859368D01*
X132366651Y-110839962D01*
X132359419Y-110819750D01*
X132354203Y-110798926D01*
X132351053Y-110777691D01*
X132350000Y-110756250D01*
X132350000Y-110243750D01*
X132351053Y-110222309D01*
X132354203Y-110201074D01*
X132359419Y-110180250D01*
X132366651Y-110160038D01*
X132375830Y-110140632D01*
X132386866Y-110122219D01*
X132399654Y-110104976D01*
X132414070Y-110089070D01*
X132429976Y-110074654D01*
X132447219Y-110061866D01*
X132465632Y-110050830D01*
X132485038Y-110041651D01*
X132505250Y-110034419D01*
X132526074Y-110029203D01*
X132547309Y-110026053D01*
X132568750Y-110025000D01*
X133006250Y-110025000D01*
X133027691Y-110026053D01*
X133027691Y-110026053D01*
G37*
D12*
G04 #@! TD*
G04 #@! TO.P,R15,1*
G04 #@! TO.N,/Vsense2*
X132787500Y-110500000D03*
D10*
G04 #@! TO.N,Net-(R15-Pad2)*
G04 #@! TO.C,R15*
G36*
X131452691Y-110026053D02*
X131473926Y-110029203D01*
X131494750Y-110034419D01*
X131514962Y-110041651D01*
X131534368Y-110050830D01*
X131552781Y-110061866D01*
X131570024Y-110074654D01*
X131585930Y-110089070D01*
X131600346Y-110104976D01*
X131613134Y-110122219D01*
X131624170Y-110140632D01*
X131633349Y-110160038D01*
X131640581Y-110180250D01*
X131645797Y-110201074D01*
X131648947Y-110222309D01*
X131650000Y-110243750D01*
X131650000Y-110756250D01*
X131648947Y-110777691D01*
X131645797Y-110798926D01*
X131640581Y-110819750D01*
X131633349Y-110839962D01*
X131624170Y-110859368D01*
X131613134Y-110877781D01*
X131600346Y-110895024D01*
X131585930Y-110910930D01*
X131570024Y-110925346D01*
X131552781Y-110938134D01*
X131534368Y-110949170D01*
X131514962Y-110958349D01*
X131494750Y-110965581D01*
X131473926Y-110970797D01*
X131452691Y-110973947D01*
X131431250Y-110975000D01*
X130993750Y-110975000D01*
X130972309Y-110973947D01*
X130951074Y-110970797D01*
X130930250Y-110965581D01*
X130910038Y-110958349D01*
X130890632Y-110949170D01*
X130872219Y-110938134D01*
X130854976Y-110925346D01*
X130839070Y-110910930D01*
X130824654Y-110895024D01*
X130811866Y-110877781D01*
X130800830Y-110859368D01*
X130791651Y-110839962D01*
X130784419Y-110819750D01*
X130779203Y-110798926D01*
X130776053Y-110777691D01*
X130775000Y-110756250D01*
X130775000Y-110243750D01*
X130776053Y-110222309D01*
X130779203Y-110201074D01*
X130784419Y-110180250D01*
X130791651Y-110160038D01*
X130800830Y-110140632D01*
X130811866Y-110122219D01*
X130824654Y-110104976D01*
X130839070Y-110089070D01*
X130854976Y-110074654D01*
X130872219Y-110061866D01*
X130890632Y-110050830D01*
X130910038Y-110041651D01*
X130930250Y-110034419D01*
X130951074Y-110029203D01*
X130972309Y-110026053D01*
X130993750Y-110025000D01*
X131431250Y-110025000D01*
X131452691Y-110026053D01*
X131452691Y-110026053D01*
G37*
D12*
G04 #@! TD*
G04 #@! TO.P,R15,2*
G04 #@! TO.N,Net-(R15-Pad2)*
X131212500Y-110500000D03*
D10*
G04 #@! TO.N,/Vsense1*
G04 #@! TO.C,R16*
G36*
X137952691Y-110026053D02*
X137973926Y-110029203D01*
X137994750Y-110034419D01*
X138014962Y-110041651D01*
X138034368Y-110050830D01*
X138052781Y-110061866D01*
X138070024Y-110074654D01*
X138085930Y-110089070D01*
X138100346Y-110104976D01*
X138113134Y-110122219D01*
X138124170Y-110140632D01*
X138133349Y-110160038D01*
X138140581Y-110180250D01*
X138145797Y-110201074D01*
X138148947Y-110222309D01*
X138150000Y-110243750D01*
X138150000Y-110756250D01*
X138148947Y-110777691D01*
X138145797Y-110798926D01*
X138140581Y-110819750D01*
X138133349Y-110839962D01*
X138124170Y-110859368D01*
X138113134Y-110877781D01*
X138100346Y-110895024D01*
X138085930Y-110910930D01*
X138070024Y-110925346D01*
X138052781Y-110938134D01*
X138034368Y-110949170D01*
X138014962Y-110958349D01*
X137994750Y-110965581D01*
X137973926Y-110970797D01*
X137952691Y-110973947D01*
X137931250Y-110975000D01*
X137493750Y-110975000D01*
X137472309Y-110973947D01*
X137451074Y-110970797D01*
X137430250Y-110965581D01*
X137410038Y-110958349D01*
X137390632Y-110949170D01*
X137372219Y-110938134D01*
X137354976Y-110925346D01*
X137339070Y-110910930D01*
X137324654Y-110895024D01*
X137311866Y-110877781D01*
X137300830Y-110859368D01*
X137291651Y-110839962D01*
X137284419Y-110819750D01*
X137279203Y-110798926D01*
X137276053Y-110777691D01*
X137275000Y-110756250D01*
X137275000Y-110243750D01*
X137276053Y-110222309D01*
X137279203Y-110201074D01*
X137284419Y-110180250D01*
X137291651Y-110160038D01*
X137300830Y-110140632D01*
X137311866Y-110122219D01*
X137324654Y-110104976D01*
X137339070Y-110089070D01*
X137354976Y-110074654D01*
X137372219Y-110061866D01*
X137390632Y-110050830D01*
X137410038Y-110041651D01*
X137430250Y-110034419D01*
X137451074Y-110029203D01*
X137472309Y-110026053D01*
X137493750Y-110025000D01*
X137931250Y-110025000D01*
X137952691Y-110026053D01*
X137952691Y-110026053D01*
G37*
D12*
G04 #@! TD*
G04 #@! TO.P,R16,1*
G04 #@! TO.N,/Vsense1*
X137712500Y-110500000D03*
D10*
G04 #@! TO.N,Net-(R16-Pad2)*
G04 #@! TO.C,R16*
G36*
X139527691Y-110026053D02*
X139548926Y-110029203D01*
X139569750Y-110034419D01*
X139589962Y-110041651D01*
X139609368Y-110050830D01*
X139627781Y-110061866D01*
X139645024Y-110074654D01*
X139660930Y-110089070D01*
X139675346Y-110104976D01*
X139688134Y-110122219D01*
X139699170Y-110140632D01*
X139708349Y-110160038D01*
X139715581Y-110180250D01*
X139720797Y-110201074D01*
X139723947Y-110222309D01*
X139725000Y-110243750D01*
X139725000Y-110756250D01*
X139723947Y-110777691D01*
X139720797Y-110798926D01*
X139715581Y-110819750D01*
X139708349Y-110839962D01*
X139699170Y-110859368D01*
X139688134Y-110877781D01*
X139675346Y-110895024D01*
X139660930Y-110910930D01*
X139645024Y-110925346D01*
X139627781Y-110938134D01*
X139609368Y-110949170D01*
X139589962Y-110958349D01*
X139569750Y-110965581D01*
X139548926Y-110970797D01*
X139527691Y-110973947D01*
X139506250Y-110975000D01*
X139068750Y-110975000D01*
X139047309Y-110973947D01*
X139026074Y-110970797D01*
X139005250Y-110965581D01*
X138985038Y-110958349D01*
X138965632Y-110949170D01*
X138947219Y-110938134D01*
X138929976Y-110925346D01*
X138914070Y-110910930D01*
X138899654Y-110895024D01*
X138886866Y-110877781D01*
X138875830Y-110859368D01*
X138866651Y-110839962D01*
X138859419Y-110819750D01*
X138854203Y-110798926D01*
X138851053Y-110777691D01*
X138850000Y-110756250D01*
X138850000Y-110243750D01*
X138851053Y-110222309D01*
X138854203Y-110201074D01*
X138859419Y-110180250D01*
X138866651Y-110160038D01*
X138875830Y-110140632D01*
X138886866Y-110122219D01*
X138899654Y-110104976D01*
X138914070Y-110089070D01*
X138929976Y-110074654D01*
X138947219Y-110061866D01*
X138965632Y-110050830D01*
X138985038Y-110041651D01*
X139005250Y-110034419D01*
X139026074Y-110029203D01*
X139047309Y-110026053D01*
X139068750Y-110025000D01*
X139506250Y-110025000D01*
X139527691Y-110026053D01*
X139527691Y-110026053D01*
G37*
D12*
G04 #@! TD*
G04 #@! TO.P,R16,2*
G04 #@! TO.N,Net-(R16-Pad2)*
X139287500Y-110500000D03*
D10*
G04 #@! TO.N,GND*
G04 #@! TO.C,R19*
G36*
X121277691Y-103626053D02*
X121298926Y-103629203D01*
X121319750Y-103634419D01*
X121339962Y-103641651D01*
X121359368Y-103650830D01*
X121377781Y-103661866D01*
X121395024Y-103674654D01*
X121410930Y-103689070D01*
X121425346Y-103704976D01*
X121438134Y-103722219D01*
X121449170Y-103740632D01*
X121458349Y-103760038D01*
X121465581Y-103780250D01*
X121470797Y-103801074D01*
X121473947Y-103822309D01*
X121475000Y-103843750D01*
X121475000Y-104356250D01*
X121473947Y-104377691D01*
X121470797Y-104398926D01*
X121465581Y-104419750D01*
X121458349Y-104439962D01*
X121449170Y-104459368D01*
X121438134Y-104477781D01*
X121425346Y-104495024D01*
X121410930Y-104510930D01*
X121395024Y-104525346D01*
X121377781Y-104538134D01*
X121359368Y-104549170D01*
X121339962Y-104558349D01*
X121319750Y-104565581D01*
X121298926Y-104570797D01*
X121277691Y-104573947D01*
X121256250Y-104575000D01*
X120818750Y-104575000D01*
X120797309Y-104573947D01*
X120776074Y-104570797D01*
X120755250Y-104565581D01*
X120735038Y-104558349D01*
X120715632Y-104549170D01*
X120697219Y-104538134D01*
X120679976Y-104525346D01*
X120664070Y-104510930D01*
X120649654Y-104495024D01*
X120636866Y-104477781D01*
X120625830Y-104459368D01*
X120616651Y-104439962D01*
X120609419Y-104419750D01*
X120604203Y-104398926D01*
X120601053Y-104377691D01*
X120600000Y-104356250D01*
X120600000Y-103843750D01*
X120601053Y-103822309D01*
X120604203Y-103801074D01*
X120609419Y-103780250D01*
X120616651Y-103760038D01*
X120625830Y-103740632D01*
X120636866Y-103722219D01*
X120649654Y-103704976D01*
X120664070Y-103689070D01*
X120679976Y-103674654D01*
X120697219Y-103661866D01*
X120715632Y-103650830D01*
X120735038Y-103641651D01*
X120755250Y-103634419D01*
X120776074Y-103629203D01*
X120797309Y-103626053D01*
X120818750Y-103625000D01*
X121256250Y-103625000D01*
X121277691Y-103626053D01*
X121277691Y-103626053D01*
G37*
D12*
G04 #@! TD*
G04 #@! TO.P,R19,2*
G04 #@! TO.N,GND*
X121037500Y-104100000D03*
D10*
G04 #@! TO.N,Net-(D1-Pad3)*
G04 #@! TO.C,R19*
G36*
X119702691Y-103626053D02*
X119723926Y-103629203D01*
X119744750Y-103634419D01*
X119764962Y-103641651D01*
X119784368Y-103650830D01*
X119802781Y-103661866D01*
X119820024Y-103674654D01*
X119835930Y-103689070D01*
X119850346Y-103704976D01*
X119863134Y-103722219D01*
X119874170Y-103740632D01*
X119883349Y-103760038D01*
X119890581Y-103780250D01*
X119895797Y-103801074D01*
X119898947Y-103822309D01*
X119900000Y-103843750D01*
X119900000Y-104356250D01*
X119898947Y-104377691D01*
X119895797Y-104398926D01*
X119890581Y-104419750D01*
X119883349Y-104439962D01*
X119874170Y-104459368D01*
X119863134Y-104477781D01*
X119850346Y-104495024D01*
X119835930Y-104510930D01*
X119820024Y-104525346D01*
X119802781Y-104538134D01*
X119784368Y-104549170D01*
X119764962Y-104558349D01*
X119744750Y-104565581D01*
X119723926Y-104570797D01*
X119702691Y-104573947D01*
X119681250Y-104575000D01*
X119243750Y-104575000D01*
X119222309Y-104573947D01*
X119201074Y-104570797D01*
X119180250Y-104565581D01*
X119160038Y-104558349D01*
X119140632Y-104549170D01*
X119122219Y-104538134D01*
X119104976Y-104525346D01*
X119089070Y-104510930D01*
X119074654Y-104495024D01*
X119061866Y-104477781D01*
X119050830Y-104459368D01*
X119041651Y-104439962D01*
X119034419Y-104419750D01*
X119029203Y-104398926D01*
X119026053Y-104377691D01*
X119025000Y-104356250D01*
X119025000Y-103843750D01*
X119026053Y-103822309D01*
X119029203Y-103801074D01*
X119034419Y-103780250D01*
X119041651Y-103760038D01*
X119050830Y-103740632D01*
X119061866Y-103722219D01*
X119074654Y-103704976D01*
X119089070Y-103689070D01*
X119104976Y-103674654D01*
X119122219Y-103661866D01*
X119140632Y-103650830D01*
X119160038Y-103641651D01*
X119180250Y-103634419D01*
X119201074Y-103629203D01*
X119222309Y-103626053D01*
X119243750Y-103625000D01*
X119681250Y-103625000D01*
X119702691Y-103626053D01*
X119702691Y-103626053D01*
G37*
D12*
G04 #@! TD*
G04 #@! TO.P,R19,1*
G04 #@! TO.N,Net-(D1-Pad3)*
X119462500Y-104100000D03*
D10*
G04 #@! TO.N,GND*
G04 #@! TO.C,R20*
G36*
X124702691Y-103626053D02*
X124723926Y-103629203D01*
X124744750Y-103634419D01*
X124764962Y-103641651D01*
X124784368Y-103650830D01*
X124802781Y-103661866D01*
X124820024Y-103674654D01*
X124835930Y-103689070D01*
X124850346Y-103704976D01*
X124863134Y-103722219D01*
X124874170Y-103740632D01*
X124883349Y-103760038D01*
X124890581Y-103780250D01*
X124895797Y-103801074D01*
X124898947Y-103822309D01*
X124900000Y-103843750D01*
X124900000Y-104356250D01*
X124898947Y-104377691D01*
X124895797Y-104398926D01*
X124890581Y-104419750D01*
X124883349Y-104439962D01*
X124874170Y-104459368D01*
X124863134Y-104477781D01*
X124850346Y-104495024D01*
X124835930Y-104510930D01*
X124820024Y-104525346D01*
X124802781Y-104538134D01*
X124784368Y-104549170D01*
X124764962Y-104558349D01*
X124744750Y-104565581D01*
X124723926Y-104570797D01*
X124702691Y-104573947D01*
X124681250Y-104575000D01*
X124243750Y-104575000D01*
X124222309Y-104573947D01*
X124201074Y-104570797D01*
X124180250Y-104565581D01*
X124160038Y-104558349D01*
X124140632Y-104549170D01*
X124122219Y-104538134D01*
X124104976Y-104525346D01*
X124089070Y-104510930D01*
X124074654Y-104495024D01*
X124061866Y-104477781D01*
X124050830Y-104459368D01*
X124041651Y-104439962D01*
X124034419Y-104419750D01*
X124029203Y-104398926D01*
X124026053Y-104377691D01*
X124025000Y-104356250D01*
X124025000Y-103843750D01*
X124026053Y-103822309D01*
X124029203Y-103801074D01*
X124034419Y-103780250D01*
X124041651Y-103760038D01*
X124050830Y-103740632D01*
X124061866Y-103722219D01*
X124074654Y-103704976D01*
X124089070Y-103689070D01*
X124104976Y-103674654D01*
X124122219Y-103661866D01*
X124140632Y-103650830D01*
X124160038Y-103641651D01*
X124180250Y-103634419D01*
X124201074Y-103629203D01*
X124222309Y-103626053D01*
X124243750Y-103625000D01*
X124681250Y-103625000D01*
X124702691Y-103626053D01*
X124702691Y-103626053D01*
G37*
D12*
G04 #@! TD*
G04 #@! TO.P,R20,1*
G04 #@! TO.N,GND*
X124462500Y-104100000D03*
D10*
G04 #@! TO.N,Net-(D1-Pad4)*
G04 #@! TO.C,R20*
G36*
X126277691Y-103626053D02*
X126298926Y-103629203D01*
X126319750Y-103634419D01*
X126339962Y-103641651D01*
X126359368Y-103650830D01*
X126377781Y-103661866D01*
X126395024Y-103674654D01*
X126410930Y-103689070D01*
X126425346Y-103704976D01*
X126438134Y-103722219D01*
X126449170Y-103740632D01*
X126458349Y-103760038D01*
X126465581Y-103780250D01*
X126470797Y-103801074D01*
X126473947Y-103822309D01*
X126475000Y-103843750D01*
X126475000Y-104356250D01*
X126473947Y-104377691D01*
X126470797Y-104398926D01*
X126465581Y-104419750D01*
X126458349Y-104439962D01*
X126449170Y-104459368D01*
X126438134Y-104477781D01*
X126425346Y-104495024D01*
X126410930Y-104510930D01*
X126395024Y-104525346D01*
X126377781Y-104538134D01*
X126359368Y-104549170D01*
X126339962Y-104558349D01*
X126319750Y-104565581D01*
X126298926Y-104570797D01*
X126277691Y-104573947D01*
X126256250Y-104575000D01*
X125818750Y-104575000D01*
X125797309Y-104573947D01*
X125776074Y-104570797D01*
X125755250Y-104565581D01*
X125735038Y-104558349D01*
X125715632Y-104549170D01*
X125697219Y-104538134D01*
X125679976Y-104525346D01*
X125664070Y-104510930D01*
X125649654Y-104495024D01*
X125636866Y-104477781D01*
X125625830Y-104459368D01*
X125616651Y-104439962D01*
X125609419Y-104419750D01*
X125604203Y-104398926D01*
X125601053Y-104377691D01*
X125600000Y-104356250D01*
X125600000Y-103843750D01*
X125601053Y-103822309D01*
X125604203Y-103801074D01*
X125609419Y-103780250D01*
X125616651Y-103760038D01*
X125625830Y-103740632D01*
X125636866Y-103722219D01*
X125649654Y-103704976D01*
X125664070Y-103689070D01*
X125679976Y-103674654D01*
X125697219Y-103661866D01*
X125715632Y-103650830D01*
X125735038Y-103641651D01*
X125755250Y-103634419D01*
X125776074Y-103629203D01*
X125797309Y-103626053D01*
X125818750Y-103625000D01*
X126256250Y-103625000D01*
X126277691Y-103626053D01*
X126277691Y-103626053D01*
G37*
D12*
G04 #@! TD*
G04 #@! TO.P,R20,2*
G04 #@! TO.N,Net-(D1-Pad4)*
X126037500Y-104100000D03*
D10*
G04 #@! TO.N,/Batt3*
G04 #@! TO.C,R21*
G36*
X122277691Y-127776053D02*
X122298926Y-127779203D01*
X122319750Y-127784419D01*
X122339962Y-127791651D01*
X122359368Y-127800830D01*
X122377781Y-127811866D01*
X122395024Y-127824654D01*
X122410930Y-127839070D01*
X122425346Y-127854976D01*
X122438134Y-127872219D01*
X122449170Y-127890632D01*
X122458349Y-127910038D01*
X122465581Y-127930250D01*
X122470797Y-127951074D01*
X122473947Y-127972309D01*
X122475000Y-127993750D01*
X122475000Y-128431250D01*
X122473947Y-128452691D01*
X122470797Y-128473926D01*
X122465581Y-128494750D01*
X122458349Y-128514962D01*
X122449170Y-128534368D01*
X122438134Y-128552781D01*
X122425346Y-128570024D01*
X122410930Y-128585930D01*
X122395024Y-128600346D01*
X122377781Y-128613134D01*
X122359368Y-128624170D01*
X122339962Y-128633349D01*
X122319750Y-128640581D01*
X122298926Y-128645797D01*
X122277691Y-128648947D01*
X122256250Y-128650000D01*
X121743750Y-128650000D01*
X121722309Y-128648947D01*
X121701074Y-128645797D01*
X121680250Y-128640581D01*
X121660038Y-128633349D01*
X121640632Y-128624170D01*
X121622219Y-128613134D01*
X121604976Y-128600346D01*
X121589070Y-128585930D01*
X121574654Y-128570024D01*
X121561866Y-128552781D01*
X121550830Y-128534368D01*
X121541651Y-128514962D01*
X121534419Y-128494750D01*
X121529203Y-128473926D01*
X121526053Y-128452691D01*
X121525000Y-128431250D01*
X121525000Y-127993750D01*
X121526053Y-127972309D01*
X121529203Y-127951074D01*
X121534419Y-127930250D01*
X121541651Y-127910038D01*
X121550830Y-127890632D01*
X121561866Y-127872219D01*
X121574654Y-127854976D01*
X121589070Y-127839070D01*
X121604976Y-127824654D01*
X121622219Y-127811866D01*
X121640632Y-127800830D01*
X121660038Y-127791651D01*
X121680250Y-127784419D01*
X121701074Y-127779203D01*
X121722309Y-127776053D01*
X121743750Y-127775000D01*
X122256250Y-127775000D01*
X122277691Y-127776053D01*
X122277691Y-127776053D01*
G37*
D12*
G04 #@! TD*
G04 #@! TO.P,R21,1*
G04 #@! TO.N,/Batt3*
X122000000Y-128212500D03*
D10*
G04 #@! TO.N,Net-(Q1-Pad1)*
G04 #@! TO.C,R21*
G36*
X122277691Y-129351053D02*
X122298926Y-129354203D01*
X122319750Y-129359419D01*
X122339962Y-129366651D01*
X122359368Y-129375830D01*
X122377781Y-129386866D01*
X122395024Y-129399654D01*
X122410930Y-129414070D01*
X122425346Y-129429976D01*
X122438134Y-129447219D01*
X122449170Y-129465632D01*
X122458349Y-129485038D01*
X122465581Y-129505250D01*
X122470797Y-129526074D01*
X122473947Y-129547309D01*
X122475000Y-129568750D01*
X122475000Y-130006250D01*
X122473947Y-130027691D01*
X122470797Y-130048926D01*
X122465581Y-130069750D01*
X122458349Y-130089962D01*
X122449170Y-130109368D01*
X122438134Y-130127781D01*
X122425346Y-130145024D01*
X122410930Y-130160930D01*
X122395024Y-130175346D01*
X122377781Y-130188134D01*
X122359368Y-130199170D01*
X122339962Y-130208349D01*
X122319750Y-130215581D01*
X122298926Y-130220797D01*
X122277691Y-130223947D01*
X122256250Y-130225000D01*
X121743750Y-130225000D01*
X121722309Y-130223947D01*
X121701074Y-130220797D01*
X121680250Y-130215581D01*
X121660038Y-130208349D01*
X121640632Y-130199170D01*
X121622219Y-130188134D01*
X121604976Y-130175346D01*
X121589070Y-130160930D01*
X121574654Y-130145024D01*
X121561866Y-130127781D01*
X121550830Y-130109368D01*
X121541651Y-130089962D01*
X121534419Y-130069750D01*
X121529203Y-130048926D01*
X121526053Y-130027691D01*
X121525000Y-130006250D01*
X121525000Y-129568750D01*
X121526053Y-129547309D01*
X121529203Y-129526074D01*
X121534419Y-129505250D01*
X121541651Y-129485038D01*
X121550830Y-129465632D01*
X121561866Y-129447219D01*
X121574654Y-129429976D01*
X121589070Y-129414070D01*
X121604976Y-129399654D01*
X121622219Y-129386866D01*
X121640632Y-129375830D01*
X121660038Y-129366651D01*
X121680250Y-129359419D01*
X121701074Y-129354203D01*
X121722309Y-129351053D01*
X121743750Y-129350000D01*
X122256250Y-129350000D01*
X122277691Y-129351053D01*
X122277691Y-129351053D01*
G37*
D12*
G04 #@! TD*
G04 #@! TO.P,R21,2*
G04 #@! TO.N,Net-(Q1-Pad1)*
X122000000Y-129787500D03*
D10*
G04 #@! TO.N,Net-(Q2-Pad1)*
G04 #@! TO.C,R22*
G36*
X122277691Y-124351053D02*
X122298926Y-124354203D01*
X122319750Y-124359419D01*
X122339962Y-124366651D01*
X122359368Y-124375830D01*
X122377781Y-124386866D01*
X122395024Y-124399654D01*
X122410930Y-124414070D01*
X122425346Y-124429976D01*
X122438134Y-124447219D01*
X122449170Y-124465632D01*
X122458349Y-124485038D01*
X122465581Y-124505250D01*
X122470797Y-124526074D01*
X122473947Y-124547309D01*
X122475000Y-124568750D01*
X122475000Y-125006250D01*
X122473947Y-125027691D01*
X122470797Y-125048926D01*
X122465581Y-125069750D01*
X122458349Y-125089962D01*
X122449170Y-125109368D01*
X122438134Y-125127781D01*
X122425346Y-125145024D01*
X122410930Y-125160930D01*
X122395024Y-125175346D01*
X122377781Y-125188134D01*
X122359368Y-125199170D01*
X122339962Y-125208349D01*
X122319750Y-125215581D01*
X122298926Y-125220797D01*
X122277691Y-125223947D01*
X122256250Y-125225000D01*
X121743750Y-125225000D01*
X121722309Y-125223947D01*
X121701074Y-125220797D01*
X121680250Y-125215581D01*
X121660038Y-125208349D01*
X121640632Y-125199170D01*
X121622219Y-125188134D01*
X121604976Y-125175346D01*
X121589070Y-125160930D01*
X121574654Y-125145024D01*
X121561866Y-125127781D01*
X121550830Y-125109368D01*
X121541651Y-125089962D01*
X121534419Y-125069750D01*
X121529203Y-125048926D01*
X121526053Y-125027691D01*
X121525000Y-125006250D01*
X121525000Y-124568750D01*
X121526053Y-124547309D01*
X121529203Y-124526074D01*
X121534419Y-124505250D01*
X121541651Y-124485038D01*
X121550830Y-124465632D01*
X121561866Y-124447219D01*
X121574654Y-124429976D01*
X121589070Y-124414070D01*
X121604976Y-124399654D01*
X121622219Y-124386866D01*
X121640632Y-124375830D01*
X121660038Y-124366651D01*
X121680250Y-124359419D01*
X121701074Y-124354203D01*
X121722309Y-124351053D01*
X121743750Y-124350000D01*
X122256250Y-124350000D01*
X122277691Y-124351053D01*
X122277691Y-124351053D01*
G37*
D12*
G04 #@! TD*
G04 #@! TO.P,R22,2*
G04 #@! TO.N,Net-(Q2-Pad1)*
X122000000Y-124787500D03*
D10*
G04 #@! TO.N,/Batt2*
G04 #@! TO.C,R22*
G36*
X122277691Y-122776053D02*
X122298926Y-122779203D01*
X122319750Y-122784419D01*
X122339962Y-122791651D01*
X122359368Y-122800830D01*
X122377781Y-122811866D01*
X122395024Y-122824654D01*
X122410930Y-122839070D01*
X122425346Y-122854976D01*
X122438134Y-122872219D01*
X122449170Y-122890632D01*
X122458349Y-122910038D01*
X122465581Y-122930250D01*
X122470797Y-122951074D01*
X122473947Y-122972309D01*
X122475000Y-122993750D01*
X122475000Y-123431250D01*
X122473947Y-123452691D01*
X122470797Y-123473926D01*
X122465581Y-123494750D01*
X122458349Y-123514962D01*
X122449170Y-123534368D01*
X122438134Y-123552781D01*
X122425346Y-123570024D01*
X122410930Y-123585930D01*
X122395024Y-123600346D01*
X122377781Y-123613134D01*
X122359368Y-123624170D01*
X122339962Y-123633349D01*
X122319750Y-123640581D01*
X122298926Y-123645797D01*
X122277691Y-123648947D01*
X122256250Y-123650000D01*
X121743750Y-123650000D01*
X121722309Y-123648947D01*
X121701074Y-123645797D01*
X121680250Y-123640581D01*
X121660038Y-123633349D01*
X121640632Y-123624170D01*
X121622219Y-123613134D01*
X121604976Y-123600346D01*
X121589070Y-123585930D01*
X121574654Y-123570024D01*
X121561866Y-123552781D01*
X121550830Y-123534368D01*
X121541651Y-123514962D01*
X121534419Y-123494750D01*
X121529203Y-123473926D01*
X121526053Y-123452691D01*
X121525000Y-123431250D01*
X121525000Y-122993750D01*
X121526053Y-122972309D01*
X121529203Y-122951074D01*
X121534419Y-122930250D01*
X121541651Y-122910038D01*
X121550830Y-122890632D01*
X121561866Y-122872219D01*
X121574654Y-122854976D01*
X121589070Y-122839070D01*
X121604976Y-122824654D01*
X121622219Y-122811866D01*
X121640632Y-122800830D01*
X121660038Y-122791651D01*
X121680250Y-122784419D01*
X121701074Y-122779203D01*
X121722309Y-122776053D01*
X121743750Y-122775000D01*
X122256250Y-122775000D01*
X122277691Y-122776053D01*
X122277691Y-122776053D01*
G37*
D12*
G04 #@! TD*
G04 #@! TO.P,R22,1*
G04 #@! TO.N,/Batt2*
X122000000Y-123212500D03*
D10*
G04 #@! TO.N,/Batt1*
G04 #@! TO.C,R25*
G36*
X122277691Y-117776053D02*
X122298926Y-117779203D01*
X122319750Y-117784419D01*
X122339962Y-117791651D01*
X122359368Y-117800830D01*
X122377781Y-117811866D01*
X122395024Y-117824654D01*
X122410930Y-117839070D01*
X122425346Y-117854976D01*
X122438134Y-117872219D01*
X122449170Y-117890632D01*
X122458349Y-117910038D01*
X122465581Y-117930250D01*
X122470797Y-117951074D01*
X122473947Y-117972309D01*
X122475000Y-117993750D01*
X122475000Y-118431250D01*
X122473947Y-118452691D01*
X122470797Y-118473926D01*
X122465581Y-118494750D01*
X122458349Y-118514962D01*
X122449170Y-118534368D01*
X122438134Y-118552781D01*
X122425346Y-118570024D01*
X122410930Y-118585930D01*
X122395024Y-118600346D01*
X122377781Y-118613134D01*
X122359368Y-118624170D01*
X122339962Y-118633349D01*
X122319750Y-118640581D01*
X122298926Y-118645797D01*
X122277691Y-118648947D01*
X122256250Y-118650000D01*
X121743750Y-118650000D01*
X121722309Y-118648947D01*
X121701074Y-118645797D01*
X121680250Y-118640581D01*
X121660038Y-118633349D01*
X121640632Y-118624170D01*
X121622219Y-118613134D01*
X121604976Y-118600346D01*
X121589070Y-118585930D01*
X121574654Y-118570024D01*
X121561866Y-118552781D01*
X121550830Y-118534368D01*
X121541651Y-118514962D01*
X121534419Y-118494750D01*
X121529203Y-118473926D01*
X121526053Y-118452691D01*
X121525000Y-118431250D01*
X121525000Y-117993750D01*
X121526053Y-117972309D01*
X121529203Y-117951074D01*
X121534419Y-117930250D01*
X121541651Y-117910038D01*
X121550830Y-117890632D01*
X121561866Y-117872219D01*
X121574654Y-117854976D01*
X121589070Y-117839070D01*
X121604976Y-117824654D01*
X121622219Y-117811866D01*
X121640632Y-117800830D01*
X121660038Y-117791651D01*
X121680250Y-117784419D01*
X121701074Y-117779203D01*
X121722309Y-117776053D01*
X121743750Y-117775000D01*
X122256250Y-117775000D01*
X122277691Y-117776053D01*
X122277691Y-117776053D01*
G37*
D12*
G04 #@! TD*
G04 #@! TO.P,R25,1*
G04 #@! TO.N,/Batt1*
X122000000Y-118212500D03*
D10*
G04 #@! TO.N,Net-(Q5-Pad1)*
G04 #@! TO.C,R25*
G36*
X122277691Y-119351053D02*
X122298926Y-119354203D01*
X122319750Y-119359419D01*
X122339962Y-119366651D01*
X122359368Y-119375830D01*
X122377781Y-119386866D01*
X122395024Y-119399654D01*
X122410930Y-119414070D01*
X122425346Y-119429976D01*
X122438134Y-119447219D01*
X122449170Y-119465632D01*
X122458349Y-119485038D01*
X122465581Y-119505250D01*
X122470797Y-119526074D01*
X122473947Y-119547309D01*
X122475000Y-119568750D01*
X122475000Y-120006250D01*
X122473947Y-120027691D01*
X122470797Y-120048926D01*
X122465581Y-120069750D01*
X122458349Y-120089962D01*
X122449170Y-120109368D01*
X122438134Y-120127781D01*
X122425346Y-120145024D01*
X122410930Y-120160930D01*
X122395024Y-120175346D01*
X122377781Y-120188134D01*
X122359368Y-120199170D01*
X122339962Y-120208349D01*
X122319750Y-120215581D01*
X122298926Y-120220797D01*
X122277691Y-120223947D01*
X122256250Y-120225000D01*
X121743750Y-120225000D01*
X121722309Y-120223947D01*
X121701074Y-120220797D01*
X121680250Y-120215581D01*
X121660038Y-120208349D01*
X121640632Y-120199170D01*
X121622219Y-120188134D01*
X121604976Y-120175346D01*
X121589070Y-120160930D01*
X121574654Y-120145024D01*
X121561866Y-120127781D01*
X121550830Y-120109368D01*
X121541651Y-120089962D01*
X121534419Y-120069750D01*
X121529203Y-120048926D01*
X121526053Y-120027691D01*
X121525000Y-120006250D01*
X121525000Y-119568750D01*
X121526053Y-119547309D01*
X121529203Y-119526074D01*
X121534419Y-119505250D01*
X121541651Y-119485038D01*
X121550830Y-119465632D01*
X121561866Y-119447219D01*
X121574654Y-119429976D01*
X121589070Y-119414070D01*
X121604976Y-119399654D01*
X121622219Y-119386866D01*
X121640632Y-119375830D01*
X121660038Y-119366651D01*
X121680250Y-119359419D01*
X121701074Y-119354203D01*
X121722309Y-119351053D01*
X121743750Y-119350000D01*
X122256250Y-119350000D01*
X122277691Y-119351053D01*
X122277691Y-119351053D01*
G37*
D12*
G04 #@! TD*
G04 #@! TO.P,R25,2*
G04 #@! TO.N,Net-(Q5-Pad1)*
X122000000Y-119787500D03*
D10*
G04 #@! TO.N,Net-(Q6-Pad1)*
G04 #@! TO.C,R26*
G36*
X122277691Y-114351053D02*
X122298926Y-114354203D01*
X122319750Y-114359419D01*
X122339962Y-114366651D01*
X122359368Y-114375830D01*
X122377781Y-114386866D01*
X122395024Y-114399654D01*
X122410930Y-114414070D01*
X122425346Y-114429976D01*
X122438134Y-114447219D01*
X122449170Y-114465632D01*
X122458349Y-114485038D01*
X122465581Y-114505250D01*
X122470797Y-114526074D01*
X122473947Y-114547309D01*
X122475000Y-114568750D01*
X122475000Y-115006250D01*
X122473947Y-115027691D01*
X122470797Y-115048926D01*
X122465581Y-115069750D01*
X122458349Y-115089962D01*
X122449170Y-115109368D01*
X122438134Y-115127781D01*
X122425346Y-115145024D01*
X122410930Y-115160930D01*
X122395024Y-115175346D01*
X122377781Y-115188134D01*
X122359368Y-115199170D01*
X122339962Y-115208349D01*
X122319750Y-115215581D01*
X122298926Y-115220797D01*
X122277691Y-115223947D01*
X122256250Y-115225000D01*
X121743750Y-115225000D01*
X121722309Y-115223947D01*
X121701074Y-115220797D01*
X121680250Y-115215581D01*
X121660038Y-115208349D01*
X121640632Y-115199170D01*
X121622219Y-115188134D01*
X121604976Y-115175346D01*
X121589070Y-115160930D01*
X121574654Y-115145024D01*
X121561866Y-115127781D01*
X121550830Y-115109368D01*
X121541651Y-115089962D01*
X121534419Y-115069750D01*
X121529203Y-115048926D01*
X121526053Y-115027691D01*
X121525000Y-115006250D01*
X121525000Y-114568750D01*
X121526053Y-114547309D01*
X121529203Y-114526074D01*
X121534419Y-114505250D01*
X121541651Y-114485038D01*
X121550830Y-114465632D01*
X121561866Y-114447219D01*
X121574654Y-114429976D01*
X121589070Y-114414070D01*
X121604976Y-114399654D01*
X121622219Y-114386866D01*
X121640632Y-114375830D01*
X121660038Y-114366651D01*
X121680250Y-114359419D01*
X121701074Y-114354203D01*
X121722309Y-114351053D01*
X121743750Y-114350000D01*
X122256250Y-114350000D01*
X122277691Y-114351053D01*
X122277691Y-114351053D01*
G37*
D12*
G04 #@! TD*
G04 #@! TO.P,R26,2*
G04 #@! TO.N,Net-(Q6-Pad1)*
X122000000Y-114787500D03*
D10*
G04 #@! TO.N,GND*
G04 #@! TO.C,R26*
G36*
X122277691Y-112776053D02*
X122298926Y-112779203D01*
X122319750Y-112784419D01*
X122339962Y-112791651D01*
X122359368Y-112800830D01*
X122377781Y-112811866D01*
X122395024Y-112824654D01*
X122410930Y-112839070D01*
X122425346Y-112854976D01*
X122438134Y-112872219D01*
X122449170Y-112890632D01*
X122458349Y-112910038D01*
X122465581Y-112930250D01*
X122470797Y-112951074D01*
X122473947Y-112972309D01*
X122475000Y-112993750D01*
X122475000Y-113431250D01*
X122473947Y-113452691D01*
X122470797Y-113473926D01*
X122465581Y-113494750D01*
X122458349Y-113514962D01*
X122449170Y-113534368D01*
X122438134Y-113552781D01*
X122425346Y-113570024D01*
X122410930Y-113585930D01*
X122395024Y-113600346D01*
X122377781Y-113613134D01*
X122359368Y-113624170D01*
X122339962Y-113633349D01*
X122319750Y-113640581D01*
X122298926Y-113645797D01*
X122277691Y-113648947D01*
X122256250Y-113650000D01*
X121743750Y-113650000D01*
X121722309Y-113648947D01*
X121701074Y-113645797D01*
X121680250Y-113640581D01*
X121660038Y-113633349D01*
X121640632Y-113624170D01*
X121622219Y-113613134D01*
X121604976Y-113600346D01*
X121589070Y-113585930D01*
X121574654Y-113570024D01*
X121561866Y-113552781D01*
X121550830Y-113534368D01*
X121541651Y-113514962D01*
X121534419Y-113494750D01*
X121529203Y-113473926D01*
X121526053Y-113452691D01*
X121525000Y-113431250D01*
X121525000Y-112993750D01*
X121526053Y-112972309D01*
X121529203Y-112951074D01*
X121534419Y-112930250D01*
X121541651Y-112910038D01*
X121550830Y-112890632D01*
X121561866Y-112872219D01*
X121574654Y-112854976D01*
X121589070Y-112839070D01*
X121604976Y-112824654D01*
X121622219Y-112811866D01*
X121640632Y-112800830D01*
X121660038Y-112791651D01*
X121680250Y-112784419D01*
X121701074Y-112779203D01*
X121722309Y-112776053D01*
X121743750Y-112775000D01*
X122256250Y-112775000D01*
X122277691Y-112776053D01*
X122277691Y-112776053D01*
G37*
D12*
G04 #@! TD*
G04 #@! TO.P,R26,1*
G04 #@! TO.N,GND*
X122000000Y-113212500D03*
D22*
G04 #@! TO.P,U1,8*
G04 #@! TO.N,+BATT*
X137150000Y-122025000D03*
G04 #@! TO.P,U1,7*
G04 #@! TO.N,/Vsense3*
X137150000Y-122675000D03*
G04 #@! TO.P,U1,6*
G04 #@! TO.N,Net-(R14-Pad2)*
X137150000Y-123325000D03*
G04 #@! TO.P,U1,5*
G04 #@! TO.N,Net-(R10-Pad2)*
X137150000Y-123975000D03*
G04 #@! TO.P,U1,4*
G04 #@! TO.N,GND*
X132850000Y-123975000D03*
G04 #@! TO.P,U1,3*
G04 #@! TO.N,Net-(R1-Pad1)*
X132850000Y-123325000D03*
G04 #@! TO.P,U1,2*
G04 #@! TO.N,Net-(R13-Pad2)*
X132850000Y-122675000D03*
G04 #@! TO.P,U1,1*
G04 #@! TO.N,/Vsense4*
X132850000Y-122025000D03*
G04 #@! TD*
G04 #@! TO.P,U2,1*
G04 #@! TO.N,/Vsense2*
X132850000Y-112525000D03*
G04 #@! TO.P,U2,2*
G04 #@! TO.N,Net-(R15-Pad2)*
X132850000Y-113175000D03*
G04 #@! TO.P,U2,3*
G04 #@! TO.N,Net-(R11-Pad2)*
X132850000Y-113825000D03*
G04 #@! TO.P,U2,4*
G04 #@! TO.N,GND*
X132850000Y-114475000D03*
G04 #@! TO.P,U2,5*
G04 #@! TO.N,Net-(R12-Pad2)*
X137150000Y-114475000D03*
G04 #@! TO.P,U2,6*
G04 #@! TO.N,Net-(R16-Pad2)*
X137150000Y-113825000D03*
G04 #@! TO.P,U2,7*
G04 #@! TO.N,/Vsense1*
X137150000Y-113175000D03*
G04 #@! TO.P,U2,8*
G04 #@! TO.N,+BATT*
X137150000Y-112525000D03*
G04 #@! TD*
D23*
G04 #@! TO.P,U5,2*
G04 #@! TO.N,GND*
X112950000Y-109992000D03*
D10*
G04 #@! TD*
G04 #@! TO.N,GND*
G04 #@! TO.C,U5*
G36*
X114050000Y-109567000D02*
X113450000Y-110417000D01*
X112450000Y-110417000D01*
X111850000Y-109567000D01*
X114050000Y-109567000D01*
X114050000Y-109567000D01*
G37*
D24*
G04 #@! TO.P,U5,1*
G04 #@! TO.N,+3V3*
X114450000Y-105845000D03*
D25*
G04 #@! TO.P,U5,2*
G04 #@! TO.N,GND*
X112950000Y-105991500D03*
D24*
G04 #@! TO.P,U5,3*
G04 #@! TO.N,+BATT*
X111450000Y-105845000D03*
D26*
G04 #@! TO.P,U5,2*
G04 #@! TO.N,GND*
X112950000Y-108658500D03*
D27*
X112950000Y-107248800D03*
D10*
G04 #@! TD*
G04 #@! TO.N,GND*
G04 #@! TO.C,U5*
G36*
X111850000Y-107748800D02*
X112550000Y-106748800D01*
X113350000Y-106748800D01*
X114050000Y-107748800D01*
X111850000Y-107748800D01*
X111850000Y-107748800D01*
G37*
G04 #@! TO.N,Net-(Q1-Pad2)*
G04 #@! TO.C,R17*
G36*
X115849505Y-129326204D02*
X115873773Y-129329804D01*
X115897572Y-129335765D01*
X115920671Y-129344030D01*
X115942850Y-129354520D01*
X115963893Y-129367132D01*
X115983599Y-129381747D01*
X116001777Y-129398223D01*
X116018253Y-129416401D01*
X116032868Y-129436107D01*
X116045480Y-129457150D01*
X116055970Y-129479329D01*
X116064235Y-129502428D01*
X116070196Y-129526227D01*
X116073796Y-129550495D01*
X116075000Y-129574999D01*
X116075000Y-132425001D01*
X116073796Y-132449505D01*
X116070196Y-132473773D01*
X116064235Y-132497572D01*
X116055970Y-132520671D01*
X116045480Y-132542850D01*
X116032868Y-132563893D01*
X116018253Y-132583599D01*
X116001777Y-132601777D01*
X115983599Y-132618253D01*
X115963893Y-132632868D01*
X115942850Y-132645480D01*
X115920671Y-132655970D01*
X115897572Y-132664235D01*
X115873773Y-132670196D01*
X115849505Y-132673796D01*
X115825001Y-132675000D01*
X114974999Y-132675000D01*
X114950495Y-132673796D01*
X114926227Y-132670196D01*
X114902428Y-132664235D01*
X114879329Y-132655970D01*
X114857150Y-132645480D01*
X114836107Y-132632868D01*
X114816401Y-132618253D01*
X114798223Y-132601777D01*
X114781747Y-132583599D01*
X114767132Y-132563893D01*
X114754520Y-132542850D01*
X114744030Y-132520671D01*
X114735765Y-132497572D01*
X114729804Y-132473773D01*
X114726204Y-132449505D01*
X114725000Y-132425001D01*
X114725000Y-129574999D01*
X114726204Y-129550495D01*
X114729804Y-129526227D01*
X114735765Y-129502428D01*
X114744030Y-129479329D01*
X114754520Y-129457150D01*
X114767132Y-129436107D01*
X114781747Y-129416401D01*
X114798223Y-129398223D01*
X114816401Y-129381747D01*
X114836107Y-129367132D01*
X114857150Y-129354520D01*
X114879329Y-129344030D01*
X114902428Y-129335765D01*
X114926227Y-129329804D01*
X114950495Y-129326204D01*
X114974999Y-129325000D01*
X115825001Y-129325000D01*
X115849505Y-129326204D01*
X115849505Y-129326204D01*
G37*
D28*
G04 #@! TD*
G04 #@! TO.P,R17,2*
G04 #@! TO.N,Net-(Q1-Pad2)*
X115400000Y-131000000D03*
D10*
G04 #@! TO.N,+BATT*
G04 #@! TO.C,R17*
G36*
X110049505Y-129326204D02*
X110073773Y-129329804D01*
X110097572Y-129335765D01*
X110120671Y-129344030D01*
X110142850Y-129354520D01*
X110163893Y-129367132D01*
X110183599Y-129381747D01*
X110201777Y-129398223D01*
X110218253Y-129416401D01*
X110232868Y-129436107D01*
X110245480Y-129457150D01*
X110255970Y-129479329D01*
X110264235Y-129502428D01*
X110270196Y-129526227D01*
X110273796Y-129550495D01*
X110275000Y-129574999D01*
X110275000Y-132425001D01*
X110273796Y-132449505D01*
X110270196Y-132473773D01*
X110264235Y-132497572D01*
X110255970Y-132520671D01*
X110245480Y-132542850D01*
X110232868Y-132563893D01*
X110218253Y-132583599D01*
X110201777Y-132601777D01*
X110183599Y-132618253D01*
X110163893Y-132632868D01*
X110142850Y-132645480D01*
X110120671Y-132655970D01*
X110097572Y-132664235D01*
X110073773Y-132670196D01*
X110049505Y-132673796D01*
X110025001Y-132675000D01*
X109174999Y-132675000D01*
X109150495Y-132673796D01*
X109126227Y-132670196D01*
X109102428Y-132664235D01*
X109079329Y-132655970D01*
X109057150Y-132645480D01*
X109036107Y-132632868D01*
X109016401Y-132618253D01*
X108998223Y-132601777D01*
X108981747Y-132583599D01*
X108967132Y-132563893D01*
X108954520Y-132542850D01*
X108944030Y-132520671D01*
X108935765Y-132497572D01*
X108929804Y-132473773D01*
X108926204Y-132449505D01*
X108925000Y-132425001D01*
X108925000Y-129574999D01*
X108926204Y-129550495D01*
X108929804Y-129526227D01*
X108935765Y-129502428D01*
X108944030Y-129479329D01*
X108954520Y-129457150D01*
X108967132Y-129436107D01*
X108981747Y-129416401D01*
X108998223Y-129398223D01*
X109016401Y-129381747D01*
X109036107Y-129367132D01*
X109057150Y-129354520D01*
X109079329Y-129344030D01*
X109102428Y-129335765D01*
X109126227Y-129329804D01*
X109150495Y-129326204D01*
X109174999Y-129325000D01*
X110025001Y-129325000D01*
X110049505Y-129326204D01*
X110049505Y-129326204D01*
G37*
D28*
G04 #@! TD*
G04 #@! TO.P,R17,1*
G04 #@! TO.N,+BATT*
X109600000Y-131000000D03*
D10*
G04 #@! TO.N,Net-(Q2-Pad2)*
G04 #@! TO.C,R18*
G36*
X115849505Y-123826204D02*
X115873773Y-123829804D01*
X115897572Y-123835765D01*
X115920671Y-123844030D01*
X115942850Y-123854520D01*
X115963893Y-123867132D01*
X115983599Y-123881747D01*
X116001777Y-123898223D01*
X116018253Y-123916401D01*
X116032868Y-123936107D01*
X116045480Y-123957150D01*
X116055970Y-123979329D01*
X116064235Y-124002428D01*
X116070196Y-124026227D01*
X116073796Y-124050495D01*
X116075000Y-124074999D01*
X116075000Y-126925001D01*
X116073796Y-126949505D01*
X116070196Y-126973773D01*
X116064235Y-126997572D01*
X116055970Y-127020671D01*
X116045480Y-127042850D01*
X116032868Y-127063893D01*
X116018253Y-127083599D01*
X116001777Y-127101777D01*
X115983599Y-127118253D01*
X115963893Y-127132868D01*
X115942850Y-127145480D01*
X115920671Y-127155970D01*
X115897572Y-127164235D01*
X115873773Y-127170196D01*
X115849505Y-127173796D01*
X115825001Y-127175000D01*
X114974999Y-127175000D01*
X114950495Y-127173796D01*
X114926227Y-127170196D01*
X114902428Y-127164235D01*
X114879329Y-127155970D01*
X114857150Y-127145480D01*
X114836107Y-127132868D01*
X114816401Y-127118253D01*
X114798223Y-127101777D01*
X114781747Y-127083599D01*
X114767132Y-127063893D01*
X114754520Y-127042850D01*
X114744030Y-127020671D01*
X114735765Y-126997572D01*
X114729804Y-126973773D01*
X114726204Y-126949505D01*
X114725000Y-126925001D01*
X114725000Y-124074999D01*
X114726204Y-124050495D01*
X114729804Y-124026227D01*
X114735765Y-124002428D01*
X114744030Y-123979329D01*
X114754520Y-123957150D01*
X114767132Y-123936107D01*
X114781747Y-123916401D01*
X114798223Y-123898223D01*
X114816401Y-123881747D01*
X114836107Y-123867132D01*
X114857150Y-123854520D01*
X114879329Y-123844030D01*
X114902428Y-123835765D01*
X114926227Y-123829804D01*
X114950495Y-123826204D01*
X114974999Y-123825000D01*
X115825001Y-123825000D01*
X115849505Y-123826204D01*
X115849505Y-123826204D01*
G37*
D28*
G04 #@! TD*
G04 #@! TO.P,R18,2*
G04 #@! TO.N,Net-(Q2-Pad2)*
X115400000Y-125500000D03*
D10*
G04 #@! TO.N,/Batt3*
G04 #@! TO.C,R18*
G36*
X110049505Y-123826204D02*
X110073773Y-123829804D01*
X110097572Y-123835765D01*
X110120671Y-123844030D01*
X110142850Y-123854520D01*
X110163893Y-123867132D01*
X110183599Y-123881747D01*
X110201777Y-123898223D01*
X110218253Y-123916401D01*
X110232868Y-123936107D01*
X110245480Y-123957150D01*
X110255970Y-123979329D01*
X110264235Y-124002428D01*
X110270196Y-124026227D01*
X110273796Y-124050495D01*
X110275000Y-124074999D01*
X110275000Y-126925001D01*
X110273796Y-126949505D01*
X110270196Y-126973773D01*
X110264235Y-126997572D01*
X110255970Y-127020671D01*
X110245480Y-127042850D01*
X110232868Y-127063893D01*
X110218253Y-127083599D01*
X110201777Y-127101777D01*
X110183599Y-127118253D01*
X110163893Y-127132868D01*
X110142850Y-127145480D01*
X110120671Y-127155970D01*
X110097572Y-127164235D01*
X110073773Y-127170196D01*
X110049505Y-127173796D01*
X110025001Y-127175000D01*
X109174999Y-127175000D01*
X109150495Y-127173796D01*
X109126227Y-127170196D01*
X109102428Y-127164235D01*
X109079329Y-127155970D01*
X109057150Y-127145480D01*
X109036107Y-127132868D01*
X109016401Y-127118253D01*
X108998223Y-127101777D01*
X108981747Y-127083599D01*
X108967132Y-127063893D01*
X108954520Y-127042850D01*
X108944030Y-127020671D01*
X108935765Y-126997572D01*
X108929804Y-126973773D01*
X108926204Y-126949505D01*
X108925000Y-126925001D01*
X108925000Y-124074999D01*
X108926204Y-124050495D01*
X108929804Y-124026227D01*
X108935765Y-124002428D01*
X108944030Y-123979329D01*
X108954520Y-123957150D01*
X108967132Y-123936107D01*
X108981747Y-123916401D01*
X108998223Y-123898223D01*
X109016401Y-123881747D01*
X109036107Y-123867132D01*
X109057150Y-123854520D01*
X109079329Y-123844030D01*
X109102428Y-123835765D01*
X109126227Y-123829804D01*
X109150495Y-123826204D01*
X109174999Y-123825000D01*
X110025001Y-123825000D01*
X110049505Y-123826204D01*
X110049505Y-123826204D01*
G37*
D28*
G04 #@! TD*
G04 #@! TO.P,R18,1*
G04 #@! TO.N,/Batt3*
X109600000Y-125500000D03*
D10*
G04 #@! TO.N,/Batt2*
G04 #@! TO.C,R23*
G36*
X110049505Y-118326204D02*
X110073773Y-118329804D01*
X110097572Y-118335765D01*
X110120671Y-118344030D01*
X110142850Y-118354520D01*
X110163893Y-118367132D01*
X110183599Y-118381747D01*
X110201777Y-118398223D01*
X110218253Y-118416401D01*
X110232868Y-118436107D01*
X110245480Y-118457150D01*
X110255970Y-118479329D01*
X110264235Y-118502428D01*
X110270196Y-118526227D01*
X110273796Y-118550495D01*
X110275000Y-118574999D01*
X110275000Y-121425001D01*
X110273796Y-121449505D01*
X110270196Y-121473773D01*
X110264235Y-121497572D01*
X110255970Y-121520671D01*
X110245480Y-121542850D01*
X110232868Y-121563893D01*
X110218253Y-121583599D01*
X110201777Y-121601777D01*
X110183599Y-121618253D01*
X110163893Y-121632868D01*
X110142850Y-121645480D01*
X110120671Y-121655970D01*
X110097572Y-121664235D01*
X110073773Y-121670196D01*
X110049505Y-121673796D01*
X110025001Y-121675000D01*
X109174999Y-121675000D01*
X109150495Y-121673796D01*
X109126227Y-121670196D01*
X109102428Y-121664235D01*
X109079329Y-121655970D01*
X109057150Y-121645480D01*
X109036107Y-121632868D01*
X109016401Y-121618253D01*
X108998223Y-121601777D01*
X108981747Y-121583599D01*
X108967132Y-121563893D01*
X108954520Y-121542850D01*
X108944030Y-121520671D01*
X108935765Y-121497572D01*
X108929804Y-121473773D01*
X108926204Y-121449505D01*
X108925000Y-121425001D01*
X108925000Y-118574999D01*
X108926204Y-118550495D01*
X108929804Y-118526227D01*
X108935765Y-118502428D01*
X108944030Y-118479329D01*
X108954520Y-118457150D01*
X108967132Y-118436107D01*
X108981747Y-118416401D01*
X108998223Y-118398223D01*
X109016401Y-118381747D01*
X109036107Y-118367132D01*
X109057150Y-118354520D01*
X109079329Y-118344030D01*
X109102428Y-118335765D01*
X109126227Y-118329804D01*
X109150495Y-118326204D01*
X109174999Y-118325000D01*
X110025001Y-118325000D01*
X110049505Y-118326204D01*
X110049505Y-118326204D01*
G37*
D28*
G04 #@! TD*
G04 #@! TO.P,R23,1*
G04 #@! TO.N,/Batt2*
X109600000Y-120000000D03*
D10*
G04 #@! TO.N,Net-(Q5-Pad2)*
G04 #@! TO.C,R23*
G36*
X115849505Y-118326204D02*
X115873773Y-118329804D01*
X115897572Y-118335765D01*
X115920671Y-118344030D01*
X115942850Y-118354520D01*
X115963893Y-118367132D01*
X115983599Y-118381747D01*
X116001777Y-118398223D01*
X116018253Y-118416401D01*
X116032868Y-118436107D01*
X116045480Y-118457150D01*
X116055970Y-118479329D01*
X116064235Y-118502428D01*
X116070196Y-118526227D01*
X116073796Y-118550495D01*
X116075000Y-118574999D01*
X116075000Y-121425001D01*
X116073796Y-121449505D01*
X116070196Y-121473773D01*
X116064235Y-121497572D01*
X116055970Y-121520671D01*
X116045480Y-121542850D01*
X116032868Y-121563893D01*
X116018253Y-121583599D01*
X116001777Y-121601777D01*
X115983599Y-121618253D01*
X115963893Y-121632868D01*
X115942850Y-121645480D01*
X115920671Y-121655970D01*
X115897572Y-121664235D01*
X115873773Y-121670196D01*
X115849505Y-121673796D01*
X115825001Y-121675000D01*
X114974999Y-121675000D01*
X114950495Y-121673796D01*
X114926227Y-121670196D01*
X114902428Y-121664235D01*
X114879329Y-121655970D01*
X114857150Y-121645480D01*
X114836107Y-121632868D01*
X114816401Y-121618253D01*
X114798223Y-121601777D01*
X114781747Y-121583599D01*
X114767132Y-121563893D01*
X114754520Y-121542850D01*
X114744030Y-121520671D01*
X114735765Y-121497572D01*
X114729804Y-121473773D01*
X114726204Y-121449505D01*
X114725000Y-121425001D01*
X114725000Y-118574999D01*
X114726204Y-118550495D01*
X114729804Y-118526227D01*
X114735765Y-118502428D01*
X114744030Y-118479329D01*
X114754520Y-118457150D01*
X114767132Y-118436107D01*
X114781747Y-118416401D01*
X114798223Y-118398223D01*
X114816401Y-118381747D01*
X114836107Y-118367132D01*
X114857150Y-118354520D01*
X114879329Y-118344030D01*
X114902428Y-118335765D01*
X114926227Y-118329804D01*
X114950495Y-118326204D01*
X114974999Y-118325000D01*
X115825001Y-118325000D01*
X115849505Y-118326204D01*
X115849505Y-118326204D01*
G37*
D28*
G04 #@! TD*
G04 #@! TO.P,R23,2*
G04 #@! TO.N,Net-(Q5-Pad2)*
X115400000Y-120000000D03*
D10*
G04 #@! TO.N,/Batt1*
G04 #@! TO.C,R24*
G36*
X110049505Y-112826204D02*
X110073773Y-112829804D01*
X110097572Y-112835765D01*
X110120671Y-112844030D01*
X110142850Y-112854520D01*
X110163893Y-112867132D01*
X110183599Y-112881747D01*
X110201777Y-112898223D01*
X110218253Y-112916401D01*
X110232868Y-112936107D01*
X110245480Y-112957150D01*
X110255970Y-112979329D01*
X110264235Y-113002428D01*
X110270196Y-113026227D01*
X110273796Y-113050495D01*
X110275000Y-113074999D01*
X110275000Y-115925001D01*
X110273796Y-115949505D01*
X110270196Y-115973773D01*
X110264235Y-115997572D01*
X110255970Y-116020671D01*
X110245480Y-116042850D01*
X110232868Y-116063893D01*
X110218253Y-116083599D01*
X110201777Y-116101777D01*
X110183599Y-116118253D01*
X110163893Y-116132868D01*
X110142850Y-116145480D01*
X110120671Y-116155970D01*
X110097572Y-116164235D01*
X110073773Y-116170196D01*
X110049505Y-116173796D01*
X110025001Y-116175000D01*
X109174999Y-116175000D01*
X109150495Y-116173796D01*
X109126227Y-116170196D01*
X109102428Y-116164235D01*
X109079329Y-116155970D01*
X109057150Y-116145480D01*
X109036107Y-116132868D01*
X109016401Y-116118253D01*
X108998223Y-116101777D01*
X108981747Y-116083599D01*
X108967132Y-116063893D01*
X108954520Y-116042850D01*
X108944030Y-116020671D01*
X108935765Y-115997572D01*
X108929804Y-115973773D01*
X108926204Y-115949505D01*
X108925000Y-115925001D01*
X108925000Y-113074999D01*
X108926204Y-113050495D01*
X108929804Y-113026227D01*
X108935765Y-113002428D01*
X108944030Y-112979329D01*
X108954520Y-112957150D01*
X108967132Y-112936107D01*
X108981747Y-112916401D01*
X108998223Y-112898223D01*
X109016401Y-112881747D01*
X109036107Y-112867132D01*
X109057150Y-112854520D01*
X109079329Y-112844030D01*
X109102428Y-112835765D01*
X109126227Y-112829804D01*
X109150495Y-112826204D01*
X109174999Y-112825000D01*
X110025001Y-112825000D01*
X110049505Y-112826204D01*
X110049505Y-112826204D01*
G37*
D28*
G04 #@! TD*
G04 #@! TO.P,R24,1*
G04 #@! TO.N,/Batt1*
X109600000Y-114500000D03*
D10*
G04 #@! TO.N,Net-(Q6-Pad2)*
G04 #@! TO.C,R24*
G36*
X115849505Y-112826204D02*
X115873773Y-112829804D01*
X115897572Y-112835765D01*
X115920671Y-112844030D01*
X115942850Y-112854520D01*
X115963893Y-112867132D01*
X115983599Y-112881747D01*
X116001777Y-112898223D01*
X116018253Y-112916401D01*
X116032868Y-112936107D01*
X116045480Y-112957150D01*
X116055970Y-112979329D01*
X116064235Y-113002428D01*
X116070196Y-113026227D01*
X116073796Y-113050495D01*
X116075000Y-113074999D01*
X116075000Y-115925001D01*
X116073796Y-115949505D01*
X116070196Y-115973773D01*
X116064235Y-115997572D01*
X116055970Y-116020671D01*
X116045480Y-116042850D01*
X116032868Y-116063893D01*
X116018253Y-116083599D01*
X116001777Y-116101777D01*
X115983599Y-116118253D01*
X115963893Y-116132868D01*
X115942850Y-116145480D01*
X115920671Y-116155970D01*
X115897572Y-116164235D01*
X115873773Y-116170196D01*
X115849505Y-116173796D01*
X115825001Y-116175000D01*
X114974999Y-116175000D01*
X114950495Y-116173796D01*
X114926227Y-116170196D01*
X114902428Y-116164235D01*
X114879329Y-116155970D01*
X114857150Y-116145480D01*
X114836107Y-116132868D01*
X114816401Y-116118253D01*
X114798223Y-116101777D01*
X114781747Y-116083599D01*
X114767132Y-116063893D01*
X114754520Y-116042850D01*
X114744030Y-116020671D01*
X114735765Y-115997572D01*
X114729804Y-115973773D01*
X114726204Y-115949505D01*
X114725000Y-115925001D01*
X114725000Y-113074999D01*
X114726204Y-113050495D01*
X114729804Y-113026227D01*
X114735765Y-113002428D01*
X114744030Y-112979329D01*
X114754520Y-112957150D01*
X114767132Y-112936107D01*
X114781747Y-112916401D01*
X114798223Y-112898223D01*
X114816401Y-112881747D01*
X114836107Y-112867132D01*
X114857150Y-112854520D01*
X114879329Y-112844030D01*
X114902428Y-112835765D01*
X114926227Y-112829804D01*
X114950495Y-112826204D01*
X114974999Y-112825000D01*
X115825001Y-112825000D01*
X115849505Y-112826204D01*
X115849505Y-112826204D01*
G37*
D28*
G04 #@! TD*
G04 #@! TO.P,R24,2*
G04 #@! TO.N,Net-(Q6-Pad2)*
X115400000Y-114500000D03*
D18*
G04 #@! TO.P,J5,1*
G04 #@! TO.N,/Boot0*
X144960000Y-123100000D03*
G04 #@! TD*
D10*
G04 #@! TO.N,GND*
G04 #@! TO.C,R27*
G36*
X145827691Y-119526053D02*
X145848926Y-119529203D01*
X145869750Y-119534419D01*
X145889962Y-119541651D01*
X145909368Y-119550830D01*
X145927781Y-119561866D01*
X145945024Y-119574654D01*
X145960930Y-119589070D01*
X145975346Y-119604976D01*
X145988134Y-119622219D01*
X145999170Y-119640632D01*
X146008349Y-119660038D01*
X146015581Y-119680250D01*
X146020797Y-119701074D01*
X146023947Y-119722309D01*
X146025000Y-119743750D01*
X146025000Y-120256250D01*
X146023947Y-120277691D01*
X146020797Y-120298926D01*
X146015581Y-120319750D01*
X146008349Y-120339962D01*
X145999170Y-120359368D01*
X145988134Y-120377781D01*
X145975346Y-120395024D01*
X145960930Y-120410930D01*
X145945024Y-120425346D01*
X145927781Y-120438134D01*
X145909368Y-120449170D01*
X145889962Y-120458349D01*
X145869750Y-120465581D01*
X145848926Y-120470797D01*
X145827691Y-120473947D01*
X145806250Y-120475000D01*
X145368750Y-120475000D01*
X145347309Y-120473947D01*
X145326074Y-120470797D01*
X145305250Y-120465581D01*
X145285038Y-120458349D01*
X145265632Y-120449170D01*
X145247219Y-120438134D01*
X145229976Y-120425346D01*
X145214070Y-120410930D01*
X145199654Y-120395024D01*
X145186866Y-120377781D01*
X145175830Y-120359368D01*
X145166651Y-120339962D01*
X145159419Y-120319750D01*
X145154203Y-120298926D01*
X145151053Y-120277691D01*
X145150000Y-120256250D01*
X145150000Y-119743750D01*
X145151053Y-119722309D01*
X145154203Y-119701074D01*
X145159419Y-119680250D01*
X145166651Y-119660038D01*
X145175830Y-119640632D01*
X145186866Y-119622219D01*
X145199654Y-119604976D01*
X145214070Y-119589070D01*
X145229976Y-119574654D01*
X145247219Y-119561866D01*
X145265632Y-119550830D01*
X145285038Y-119541651D01*
X145305250Y-119534419D01*
X145326074Y-119529203D01*
X145347309Y-119526053D01*
X145368750Y-119525000D01*
X145806250Y-119525000D01*
X145827691Y-119526053D01*
X145827691Y-119526053D01*
G37*
D12*
G04 #@! TD*
G04 #@! TO.P,R27,1*
G04 #@! TO.N,GND*
X145587500Y-120000000D03*
D10*
G04 #@! TO.N,/Boot0*
G04 #@! TO.C,R27*
G36*
X144252691Y-119526053D02*
X144273926Y-119529203D01*
X144294750Y-119534419D01*
X144314962Y-119541651D01*
X144334368Y-119550830D01*
X144352781Y-119561866D01*
X144370024Y-119574654D01*
X144385930Y-119589070D01*
X144400346Y-119604976D01*
X144413134Y-119622219D01*
X144424170Y-119640632D01*
X144433349Y-119660038D01*
X144440581Y-119680250D01*
X144445797Y-119701074D01*
X144448947Y-119722309D01*
X144450000Y-119743750D01*
X144450000Y-120256250D01*
X144448947Y-120277691D01*
X144445797Y-120298926D01*
X144440581Y-120319750D01*
X144433349Y-120339962D01*
X144424170Y-120359368D01*
X144413134Y-120377781D01*
X144400346Y-120395024D01*
X144385930Y-120410930D01*
X144370024Y-120425346D01*
X144352781Y-120438134D01*
X144334368Y-120449170D01*
X144314962Y-120458349D01*
X144294750Y-120465581D01*
X144273926Y-120470797D01*
X144252691Y-120473947D01*
X144231250Y-120475000D01*
X143793750Y-120475000D01*
X143772309Y-120473947D01*
X143751074Y-120470797D01*
X143730250Y-120465581D01*
X143710038Y-120458349D01*
X143690632Y-120449170D01*
X143672219Y-120438134D01*
X143654976Y-120425346D01*
X143639070Y-120410930D01*
X143624654Y-120395024D01*
X143611866Y-120377781D01*
X143600830Y-120359368D01*
X143591651Y-120339962D01*
X143584419Y-120319750D01*
X143579203Y-120298926D01*
X143576053Y-120277691D01*
X143575000Y-120256250D01*
X143575000Y-119743750D01*
X143576053Y-119722309D01*
X143579203Y-119701074D01*
X143584419Y-119680250D01*
X143591651Y-119660038D01*
X143600830Y-119640632D01*
X143611866Y-119622219D01*
X143624654Y-119604976D01*
X143639070Y-119589070D01*
X143654976Y-119574654D01*
X143672219Y-119561866D01*
X143690632Y-119550830D01*
X143710038Y-119541651D01*
X143730250Y-119534419D01*
X143751074Y-119529203D01*
X143772309Y-119526053D01*
X143793750Y-119525000D01*
X144231250Y-119525000D01*
X144252691Y-119526053D01*
X144252691Y-119526053D01*
G37*
D12*
G04 #@! TD*
G04 #@! TO.P,R27,2*
G04 #@! TO.N,/Boot0*
X144012500Y-120000000D03*
D29*
G04 #@! TO.N,GND*
X144200000Y-127800000D03*
X129000000Y-131800000D03*
G04 #@! TO.N,+3V3*
X144500000Y-126500000D03*
X127750000Y-109750000D03*
G04 #@! TO.N,GND*
X123750000Y-117250000D03*
X124099996Y-111500000D03*
X123750000Y-122250000D03*
X123750000Y-127250000D03*
X148000000Y-109250000D03*
X142000000Y-112249994D03*
X140750000Y-109000000D03*
X124100000Y-112400000D03*
X133900000Y-126000000D03*
X145400000Y-121200000D03*
X137900000Y-127100000D03*
G04 #@! TO.N,/LED_G*
X144600542Y-109325223D03*
G04 #@! TO.N,/LED_R*
X143250000Y-109250000D03*
G04 #@! TO.N,/Batt3*
X127750000Y-127000000D03*
X128250000Y-129500000D03*
G04 #@! TO.N,/Batt2*
X127750000Y-131000000D03*
X126750004Y-122000000D03*
G04 #@! TO.N,/SWCLK*
X144100000Y-118200000D03*
G04 #@! TO.N,/SWDIO*
X144100000Y-117100000D03*
G04 #@! TO.N,/RxDown*
X143100000Y-119000000D03*
G04 #@! TO.N,/TxDown*
X145047941Y-114928532D03*
G04 #@! TO.N,/Bal4*
X125000000Y-127500000D03*
G04 #@! TO.N,/Bal3*
X125000000Y-122250000D03*
G04 #@! TO.N,/Bal2*
X125000000Y-117250000D03*
G04 #@! TO.N,/Bal1*
X126250000Y-112475010D03*
G04 #@! TO.N,/Vsense4*
X133250000Y-118500000D03*
G04 #@! TO.N,/Vsense3*
X138000000Y-118750000D03*
G04 #@! TO.N,/Vsense2*
X129975000Y-110718506D03*
X129500000Y-116250000D03*
X132500000Y-117750000D03*
G04 #@! TO.N,/Vsense1*
X127737347Y-121737347D03*
X128500000Y-116000000D03*
X137697900Y-108899996D03*
G04 #@! TO.N,/RxUp*
X135500000Y-118500000D03*
X144255992Y-111890588D03*
G04 #@! TO.N,/TxUp*
X136750000Y-118750000D03*
X145000000Y-113000000D03*
G04 #@! TD*
D30*
G04 #@! TO.N,+3V3*
X115757500Y-105845000D02*
X116450000Y-106537500D01*
X114450000Y-105845000D02*
X115757500Y-105845000D01*
D31*
X147000000Y-125000000D02*
X147500000Y-124500000D01*
X147500000Y-124500000D02*
X147500000Y-124200000D01*
X147500000Y-124200000D02*
X147500000Y-123100000D01*
X146000000Y-125000000D02*
X147000000Y-125000000D01*
X144500000Y-126500000D02*
X146000000Y-125000000D01*
D30*
X127100002Y-110399998D02*
X127350001Y-110149999D01*
X117037500Y-106537500D02*
X120899998Y-110399998D01*
X120899998Y-110399998D02*
X127100002Y-110399998D01*
X127350001Y-110149999D02*
X127750000Y-109750000D01*
X116450000Y-106537500D02*
X117037500Y-106537500D01*
G04 #@! TO.N,GND*
X119000000Y-113000000D02*
X119000000Y-112250000D01*
X118500000Y-111750000D02*
X107250000Y-111750000D01*
X119000000Y-112250000D02*
X118500000Y-111750000D01*
X106500000Y-112500000D02*
X104000000Y-112500000D01*
X107250000Y-111750000D02*
X106500000Y-112500000D01*
X112950000Y-105991500D02*
X112950000Y-107248800D01*
X112950000Y-108658500D02*
X112950000Y-107248800D01*
X112950000Y-109992000D02*
X112950000Y-108658500D01*
X113496000Y-108112500D02*
X112950000Y-108658500D01*
X116450000Y-108112500D02*
X113496000Y-108112500D01*
X112554000Y-108262500D02*
X112950000Y-108658500D01*
X108950000Y-108262500D02*
X112554000Y-108262500D01*
D32*
X119212500Y-113212500D02*
X119000000Y-113000000D01*
D31*
X122000000Y-113212500D02*
X119212500Y-113212500D01*
D32*
X122137500Y-113350000D02*
X122000000Y-113212500D01*
D31*
X124050000Y-113350000D02*
X122137500Y-113350000D01*
D32*
X132787500Y-114537500D02*
X132850000Y-114475000D01*
X132787500Y-116500000D02*
X132787500Y-114537500D01*
X132850000Y-125937500D02*
X132787500Y-126000000D01*
X132850000Y-123975000D02*
X132850000Y-125937500D01*
X134312500Y-123312500D02*
X134312500Y-120050000D01*
X132850000Y-123975000D02*
X133650000Y-123975000D01*
X133650000Y-123975000D02*
X134312500Y-123312500D01*
X132787500Y-116500000D02*
X134000000Y-116500000D01*
X134312500Y-116812500D02*
X134312500Y-120050000D01*
X134000000Y-116500000D02*
X134312500Y-116812500D01*
X134312500Y-111350000D02*
X134312500Y-110550000D01*
X134312500Y-113812500D02*
X134312500Y-111350000D01*
X133650000Y-114475000D02*
X134312500Y-113812500D01*
X132850000Y-114475000D02*
X133650000Y-114475000D01*
X124050000Y-118350000D02*
X124050000Y-117550000D01*
X124050000Y-117550000D02*
X123750000Y-117250000D01*
X124050000Y-123350000D02*
X124050000Y-122550000D01*
X124050000Y-122550000D02*
X123750000Y-122250000D01*
X124050000Y-128350000D02*
X124050000Y-127550000D01*
X124050000Y-127550000D02*
X123750000Y-127250000D01*
X148287500Y-110500000D02*
X149000000Y-111212500D01*
X149000000Y-116520000D02*
X147500000Y-118020000D01*
X149000000Y-111212500D02*
X149000000Y-116520000D01*
X148287500Y-109537500D02*
X148287500Y-110500000D01*
X148000000Y-109250000D02*
X148287500Y-109537500D01*
X143500000Y-114075000D02*
X143500000Y-111573004D01*
X147434315Y-109250000D02*
X148000000Y-109250000D01*
X143500000Y-111573004D02*
X145823004Y-109250000D01*
X141325000Y-116250000D02*
X143500000Y-114075000D01*
X140787500Y-116250000D02*
X141325000Y-116250000D01*
X145823004Y-109250000D02*
X147434315Y-109250000D01*
D30*
X108950000Y-110050000D02*
X108950000Y-108262500D01*
X107250000Y-111750000D02*
X108950000Y-110050000D01*
D32*
X122750000Y-104100000D02*
X122750000Y-102750000D01*
X114750000Y-102250000D02*
X112950000Y-104050000D01*
X112950000Y-104050000D02*
X112950000Y-105991500D01*
X122250000Y-102250000D02*
X114750000Y-102250000D01*
X122750000Y-102750000D02*
X122250000Y-102250000D01*
X121037500Y-104100000D02*
X122750000Y-104100000D01*
X122750000Y-104100000D02*
X124462500Y-104100000D01*
X140787500Y-112500000D02*
X141749994Y-112500000D01*
X141749994Y-112500000D02*
X142000000Y-112249994D01*
X142000000Y-112249994D02*
X140750000Y-110999994D01*
X140750000Y-109565685D02*
X140750000Y-109000000D01*
X140750000Y-110999994D02*
X140750000Y-109565685D01*
D30*
X123600000Y-111900000D02*
X124100000Y-112400000D01*
X123300000Y-111900000D02*
X123600000Y-111900000D01*
X124100000Y-111500004D02*
X124099996Y-111500000D01*
X123699997Y-111899999D02*
X124099996Y-111500000D01*
X123300000Y-111900000D02*
X123699997Y-111899999D01*
X122200000Y-111900000D02*
X123300000Y-111900000D01*
X116812500Y-108112500D02*
X120200000Y-111500000D01*
X116450000Y-108112500D02*
X116812500Y-108112500D01*
X120200000Y-111500000D02*
X121800000Y-111500000D01*
X121800000Y-111500000D02*
X122200000Y-111900000D01*
D32*
X132787500Y-126000000D02*
X133900000Y-126000000D01*
X145587500Y-120000000D02*
X145587500Y-121012500D01*
X145587500Y-121012500D02*
X145400000Y-121200000D01*
X137712500Y-126912500D02*
X137900000Y-127100000D01*
X137712500Y-126000000D02*
X137712500Y-126912500D01*
D30*
X129000000Y-132700000D02*
X129800000Y-133500000D01*
X129000000Y-131800000D02*
X129000000Y-132700000D01*
X129800000Y-133500000D02*
X140600000Y-133500000D01*
X140600000Y-133500000D02*
X142000000Y-132100000D01*
X143400000Y-127800000D02*
X144200000Y-127800000D01*
X142000000Y-132100000D02*
X142000000Y-129200000D01*
X142000000Y-129200000D02*
X143400000Y-127800000D01*
G04 #@! TO.N,+BATT*
X104000000Y-122500000D02*
X104000000Y-124500000D01*
X104000000Y-124500000D02*
X108000000Y-128500000D01*
X108000000Y-128500000D02*
X108000000Y-130500000D01*
X108500000Y-131000000D02*
X109600000Y-131000000D01*
X108000000Y-130500000D02*
X108500000Y-131000000D01*
X109492500Y-105845000D02*
X108950000Y-106387500D01*
X111450000Y-105845000D02*
X109492500Y-105845000D01*
D32*
X125950000Y-129650000D02*
X126400000Y-129650000D01*
X126400000Y-129650000D02*
X126500000Y-129750000D01*
D31*
X126500000Y-129750000D02*
X126500000Y-130500000D01*
X126500000Y-130500000D02*
X123750000Y-133250000D01*
X123750000Y-133250000D02*
X109750000Y-133250000D01*
X109600000Y-133100000D02*
X109600000Y-131000000D01*
X109750000Y-133250000D02*
X109600000Y-133100000D01*
D32*
X137150000Y-112525000D02*
X136350000Y-112525000D01*
X137150000Y-122025000D02*
X136350000Y-122025000D01*
D31*
X129212500Y-124000000D02*
X129212500Y-126462500D01*
D32*
X136000000Y-120237500D02*
X136187500Y-120050000D01*
X136350000Y-122025000D02*
X136000000Y-121675000D01*
X136000000Y-121675000D02*
X136000000Y-120237500D01*
X136000000Y-110737500D02*
X136187500Y-110550000D01*
X136350000Y-112525000D02*
X136000000Y-112175000D01*
X136000000Y-112175000D02*
X136000000Y-110737500D01*
D30*
X107362500Y-106387500D02*
X108950000Y-106387500D01*
X102000000Y-111750000D02*
X107362500Y-106387500D01*
X102000000Y-122275000D02*
X102000000Y-111750000D01*
X104000000Y-122500000D02*
X102225000Y-122500000D01*
X102225000Y-122500000D02*
X102000000Y-122275000D01*
D32*
X134774999Y-118848001D02*
X135420761Y-119493763D01*
X135420761Y-119493763D02*
X135631263Y-119493763D01*
X135000000Y-117926998D02*
X134774999Y-118151999D01*
X135000000Y-113875000D02*
X135000000Y-117926998D01*
X136350000Y-112525000D02*
X135000000Y-113875000D01*
X135631263Y-119493763D02*
X136187500Y-120050000D01*
X134774999Y-118151999D02*
X134774999Y-118848001D01*
D31*
X129212500Y-127037500D02*
X129212500Y-126462500D01*
X126500000Y-129750000D02*
X129212500Y-127037500D01*
D32*
X136000000Y-122375000D02*
X136350000Y-122025000D01*
X136000000Y-126250000D02*
X136000000Y-122375000D01*
X135150000Y-127100000D02*
X136000000Y-126250000D01*
X129212500Y-126462500D02*
X129850000Y-127100000D01*
X129850000Y-127100000D02*
X135150000Y-127100000D01*
G04 #@! TO.N,/Reset*
X146712500Y-111712500D02*
X146712500Y-110500000D01*
X147500000Y-112940000D02*
X147500000Y-112500000D01*
X147500000Y-112500000D02*
X146712500Y-111712500D01*
G04 #@! TO.N,/LED_G*
X144600542Y-108759538D02*
X144600542Y-109325223D01*
X144600542Y-106350542D02*
X144600542Y-108759538D01*
X125200000Y-107550000D02*
X127750000Y-105000000D01*
X124200000Y-107550000D02*
X125200000Y-107550000D01*
X127750000Y-105000000D02*
X127750000Y-102750000D01*
X127750000Y-102750000D02*
X129250000Y-101250000D01*
X129250000Y-101250000D02*
X139500000Y-101250000D01*
X139500000Y-101250000D02*
X144600542Y-106350542D01*
G04 #@! TO.N,/LED_R*
X143250000Y-106000000D02*
X139250000Y-102000000D01*
X139250000Y-102000000D02*
X129500000Y-102000000D01*
X129500000Y-102000000D02*
X128500000Y-103000000D01*
X128500000Y-103000000D02*
X128500000Y-106750000D01*
X143250000Y-109250000D02*
X143250000Y-106000000D01*
X128500000Y-106750000D02*
X125750000Y-109500000D01*
X125750000Y-109500000D02*
X122000000Y-109500000D01*
X121200000Y-108700000D02*
X121200000Y-107550000D01*
X122000000Y-109500000D02*
X121200000Y-108700000D01*
G04 #@! TO.N,Net-(D1-Pad3)*
X119462500Y-105312500D02*
X119462500Y-104100000D01*
X121200000Y-106050000D02*
X120200000Y-106050000D01*
X120200000Y-106050000D02*
X119462500Y-105312500D01*
G04 #@! TO.N,Net-(D1-Pad4)*
X126037500Y-105462500D02*
X126037500Y-104100000D01*
X124200000Y-106050000D02*
X125450000Y-106050000D01*
X125450000Y-106050000D02*
X126037500Y-105462500D01*
D30*
G04 #@! TO.N,/Batt3*
X105775000Y-120000000D02*
X107500000Y-121725000D01*
X104000000Y-120000000D02*
X105775000Y-120000000D01*
X107500000Y-121725000D02*
X107500000Y-124500000D01*
X108500000Y-125500000D02*
X109600000Y-125500000D01*
X107500000Y-124500000D02*
X108500000Y-125500000D01*
X117800000Y-128000000D02*
X117550000Y-128250000D01*
X119000000Y-128000000D02*
X117800000Y-128000000D01*
X117550000Y-128250000D02*
X110250000Y-128250000D01*
X109600000Y-127600000D02*
X109600000Y-125500000D01*
X110250000Y-128250000D02*
X109600000Y-127600000D01*
D32*
X119212500Y-128212500D02*
X119000000Y-128000000D01*
X122000000Y-128212500D02*
X119212500Y-128212500D01*
X126650000Y-124650000D02*
X125950000Y-124650000D01*
X122000000Y-127500000D02*
X123000000Y-126500000D01*
X122000000Y-128212500D02*
X122000000Y-127500000D01*
X126250000Y-126500000D02*
X127000000Y-125750000D01*
X127000000Y-125750000D02*
X127000000Y-125000000D01*
X123000000Y-126500000D02*
X126250000Y-126500000D01*
X127000000Y-125000000D02*
X126650000Y-124650000D01*
X128500000Y-122000000D02*
X129212500Y-122000000D01*
X127000000Y-123500000D02*
X128500000Y-122000000D01*
X126650000Y-124650000D02*
X127000000Y-124300000D01*
X127000000Y-124300000D02*
X127000000Y-123500000D01*
X127184315Y-127000000D02*
X127750000Y-127000000D01*
X126750000Y-127000000D02*
X127184315Y-127000000D01*
X126250000Y-126500000D02*
X126750000Y-127000000D01*
X128649999Y-129100001D02*
X128250000Y-129500000D01*
X129850000Y-127900000D02*
X128649999Y-129100001D01*
X139300000Y-127900000D02*
X129850000Y-127900000D01*
X140787500Y-124000000D02*
X140787500Y-126412500D01*
X140787500Y-126412500D02*
X139300000Y-127900000D01*
D30*
G04 #@! TO.N,/Batt2*
X104000000Y-117500000D02*
X106000000Y-117500000D01*
X108500000Y-120000000D02*
X109600000Y-120000000D01*
X106000000Y-117500000D02*
X108500000Y-120000000D01*
X117800000Y-123000000D02*
X117550000Y-122750000D01*
X119000000Y-123000000D02*
X117800000Y-123000000D01*
X117550000Y-122750000D02*
X110250000Y-122750000D01*
X109600000Y-122100000D02*
X109600000Y-120000000D01*
X110250000Y-122750000D02*
X109600000Y-122100000D01*
D32*
X119212500Y-123212500D02*
X119000000Y-123000000D01*
X122000000Y-123212500D02*
X119212500Y-123212500D01*
X122000000Y-122250000D02*
X122000000Y-123212500D01*
X126525000Y-119650000D02*
X126750000Y-119875000D01*
X125950000Y-119650000D02*
X126525000Y-119650000D01*
X126750000Y-119875000D02*
X126750000Y-120500000D01*
X126750000Y-120500000D02*
X125750000Y-121500000D01*
X125750000Y-121500000D02*
X122750000Y-121500000D01*
X122750000Y-121500000D02*
X122000000Y-122250000D01*
X128250000Y-114500000D02*
X129212500Y-114500000D01*
X127750000Y-115000000D02*
X128250000Y-114500000D01*
X127750000Y-118500000D02*
X127750000Y-115000000D01*
X126525000Y-119650000D02*
X126600000Y-119650000D01*
X126600000Y-119650000D02*
X127750000Y-118500000D01*
X125750000Y-121500000D02*
X126250004Y-121500000D01*
X126350005Y-121600001D02*
X126750004Y-122000000D01*
X126250004Y-121500000D02*
X126350005Y-121600001D01*
X128000000Y-131000000D02*
X127750000Y-131000000D01*
X141500000Y-122000000D02*
X141800000Y-122300000D01*
X140787500Y-122000000D02*
X141500000Y-122000000D01*
X141800000Y-122300000D02*
X141800000Y-126300000D01*
X141800000Y-126300000D02*
X139600000Y-128500000D01*
X139600000Y-128500000D02*
X130500000Y-128500000D01*
X130500000Y-128500000D02*
X128000000Y-131000000D01*
D30*
G04 #@! TO.N,/Batt1*
X104000000Y-115000000D02*
X107500000Y-115000000D01*
X108000000Y-114500000D02*
X109600000Y-114500000D01*
X107500000Y-115000000D02*
X108000000Y-114500000D01*
X109600000Y-116850000D02*
X109600000Y-114500000D01*
X117250000Y-118000000D02*
X116750000Y-117500000D01*
X119000000Y-118000000D02*
X117250000Y-118000000D01*
X116750000Y-117500000D02*
X116250000Y-117500000D01*
X116250000Y-117500000D02*
X116000000Y-117250000D01*
X116000000Y-117250000D02*
X110000000Y-117250000D01*
X110000000Y-117250000D02*
X109600000Y-116850000D01*
D32*
X119212500Y-118212500D02*
X119000000Y-118000000D01*
X122000000Y-118212500D02*
X119212500Y-118212500D01*
X126525000Y-114650000D02*
X126750000Y-114875000D01*
X125950000Y-114650000D02*
X126525000Y-114650000D01*
X126750000Y-114875000D02*
X126750000Y-115500000D01*
X126750000Y-115500000D02*
X126000000Y-116250000D01*
X126000000Y-116250000D02*
X122750000Y-116250000D01*
X122750000Y-116250000D02*
X122000000Y-117000000D01*
X122000000Y-117000000D02*
X122000000Y-118212500D01*
X129212500Y-112500000D02*
X128250000Y-112500000D01*
X128250000Y-112500000D02*
X127000000Y-113750000D01*
X127000000Y-114175000D02*
X126525000Y-114650000D01*
X127000000Y-113750000D02*
X127000000Y-114175000D01*
X141249112Y-114038388D02*
X140787500Y-114500000D01*
X129212500Y-109787500D02*
X131000000Y-108000000D01*
X129212500Y-112500000D02*
X129212500Y-109787500D01*
X140823002Y-108000000D02*
X143000000Y-110176998D01*
X143000000Y-110176998D02*
X143000000Y-112287500D01*
X143000000Y-112287500D02*
X141249112Y-114038388D01*
X131000000Y-108000000D02*
X140823002Y-108000000D01*
G04 #@! TO.N,/SWCLK*
X147500000Y-120560000D02*
X145140000Y-118200000D01*
X144665685Y-118200000D02*
X144100000Y-118200000D01*
X145140000Y-118200000D02*
X144665685Y-118200000D01*
G04 #@! TO.N,/SWDIO*
X147500000Y-115480000D02*
X145880000Y-117100000D01*
X144665685Y-117100000D02*
X144100000Y-117100000D01*
X145880000Y-117100000D02*
X144665685Y-117100000D01*
G04 #@! TO.N,/RxDown*
X143100000Y-119565685D02*
X143100000Y-119000000D01*
X143100000Y-126836410D02*
X143100000Y-119565685D01*
X133500000Y-131125000D02*
X135075000Y-132700000D01*
X133500000Y-131000000D02*
X133500000Y-131125000D01*
X135075000Y-132700000D02*
X139900000Y-132700000D01*
X139900000Y-132700000D02*
X141000000Y-131600000D01*
X141000000Y-131600000D02*
X141000000Y-128936410D01*
X141000000Y-128936410D02*
X143100000Y-126836410D01*
G04 #@! TO.N,/TxDown*
X140100000Y-129200000D02*
X136400000Y-129200000D01*
X142500000Y-121600000D02*
X142500000Y-126800000D01*
X136000000Y-129600000D02*
X136000000Y-131000000D01*
X142000000Y-121100000D02*
X142500000Y-121600000D01*
X145047941Y-114928532D02*
X142000000Y-117976473D01*
X142500000Y-126800000D02*
X140100000Y-129200000D01*
X136400000Y-129200000D02*
X136000000Y-129600000D01*
X142000000Y-117976473D02*
X142000000Y-121100000D01*
G04 #@! TO.N,Net-(Q1-Pad1)*
X118050000Y-129300000D02*
X118350000Y-129000000D01*
X118050000Y-130000000D02*
X118050000Y-129300000D01*
X121212500Y-129000000D02*
X122000000Y-129787500D01*
X118350000Y-129000000D02*
X121212500Y-129000000D01*
X122137500Y-129650000D02*
X122000000Y-129787500D01*
X124050000Y-129650000D02*
X122137500Y-129650000D01*
D30*
G04 #@! TO.N,Net-(Q1-Pad2)*
X116145710Y-131745710D02*
X119754290Y-131745710D01*
X115400000Y-131000000D02*
X116145710Y-131745710D01*
X119950000Y-131550000D02*
X119950000Y-130000000D01*
X119754290Y-131745710D02*
X119950000Y-131550000D01*
G04 #@! TO.N,Net-(Q2-Pad2)*
X116145710Y-126245710D02*
X119754290Y-126245710D01*
X115400000Y-125500000D02*
X116145710Y-126245710D01*
X119950000Y-126050000D02*
X119950000Y-125000000D01*
X119754290Y-126245710D02*
X119950000Y-126050000D01*
D32*
G04 #@! TO.N,Net-(Q2-Pad1)*
X118050000Y-124300000D02*
X118350000Y-124000000D01*
X118050000Y-125000000D02*
X118050000Y-124300000D01*
X121212500Y-124000000D02*
X122000000Y-124787500D01*
X118350000Y-124000000D02*
X121212500Y-124000000D01*
X122137500Y-124650000D02*
X122000000Y-124787500D01*
X124050000Y-124650000D02*
X122137500Y-124650000D01*
G04 #@! TO.N,Net-(Q3-Pad5)*
X125950000Y-128350000D02*
X125950000Y-129000000D01*
G04 #@! TO.N,/Bal4*
X124625000Y-129000000D02*
X125000000Y-128625000D01*
X124050000Y-129000000D02*
X124625000Y-129000000D01*
X125000000Y-128625000D02*
X125000000Y-127500000D01*
G04 #@! TO.N,Net-(Q4-Pad5)*
X125950000Y-123350000D02*
X125950000Y-124000000D01*
G04 #@! TO.N,/Bal3*
X124625000Y-124000000D02*
X124050000Y-124000000D01*
X125000000Y-123625000D02*
X124625000Y-124000000D01*
X125000000Y-122250000D02*
X125000000Y-123625000D01*
G04 #@! TO.N,Net-(Q5-Pad1)*
X121212500Y-119000000D02*
X122000000Y-119787500D01*
X118350000Y-119000000D02*
X121212500Y-119000000D01*
X118050000Y-120000000D02*
X118050000Y-119300000D01*
X118050000Y-119300000D02*
X118350000Y-119000000D01*
X123912500Y-119787500D02*
X124050000Y-119650000D01*
X122000000Y-119787500D02*
X123912500Y-119787500D01*
D30*
G04 #@! TO.N,Net-(Q5-Pad2)*
X119950000Y-121250000D02*
X119950000Y-120000000D01*
X119700000Y-121500000D02*
X119950000Y-121250000D01*
X116900000Y-121500000D02*
X119700000Y-121500000D01*
X115400000Y-120000000D02*
X116900000Y-121500000D01*
G04 #@! TO.N,Net-(Q6-Pad2)*
X119950000Y-116250000D02*
X119950000Y-115000000D01*
X119700000Y-116500000D02*
X119950000Y-116250000D01*
X117400000Y-116500000D02*
X119700000Y-116500000D01*
X115400000Y-114500000D02*
X117400000Y-116500000D01*
D32*
G04 #@! TO.N,Net-(Q6-Pad1)*
X118050000Y-114300000D02*
X118050000Y-115000000D01*
X118350000Y-114000000D02*
X118050000Y-114300000D01*
X121212500Y-114000000D02*
X118350000Y-114000000D01*
X122000000Y-114787500D02*
X121212500Y-114000000D01*
X122137500Y-114650000D02*
X122000000Y-114787500D01*
X124050000Y-114650000D02*
X122137500Y-114650000D01*
G04 #@! TO.N,Net-(Q7-Pad5)*
X125950000Y-118350000D02*
X125950000Y-119000000D01*
G04 #@! TO.N,/Bal2*
X124050000Y-119000000D02*
X124750000Y-119000000D01*
X124750000Y-119000000D02*
X125000000Y-118750000D01*
X125000000Y-118750000D02*
X125000000Y-117250000D01*
G04 #@! TO.N,Net-(Q8-Pad5)*
X125950000Y-114000000D02*
X125950000Y-113350000D01*
G04 #@! TO.N,/Bal1*
X125000000Y-112934315D02*
X125459305Y-112475010D01*
X125684315Y-112475010D02*
X126250000Y-112475010D01*
X125459305Y-112475010D02*
X125684315Y-112475010D01*
X124625000Y-114000000D02*
X125000000Y-113625000D01*
X124050000Y-114000000D02*
X124625000Y-114000000D01*
X125000000Y-113625000D02*
X125000000Y-112934315D01*
G04 #@! TO.N,Net-(R1-Pad1)*
X131462500Y-123325000D02*
X130787500Y-124000000D01*
X132850000Y-123325000D02*
X131462500Y-123325000D01*
X130787500Y-125575000D02*
X131212500Y-126000000D01*
X130787500Y-124000000D02*
X130787500Y-125575000D01*
G04 #@! TO.N,Net-(R13-Pad2)*
X131212500Y-121575000D02*
X130787500Y-122000000D01*
X131212500Y-120000000D02*
X131212500Y-121575000D01*
X131462500Y-122675000D02*
X130787500Y-122000000D01*
X132850000Y-122675000D02*
X131462500Y-122675000D01*
G04 #@! TO.N,Net-(R10-Pad2)*
X137175000Y-124000000D02*
X137150000Y-123975000D01*
X139212500Y-124000000D02*
X137175000Y-124000000D01*
X139287500Y-124075000D02*
X139212500Y-124000000D01*
X139287500Y-126000000D02*
X139287500Y-124075000D01*
G04 #@! TO.N,Net-(R14-Pad2)*
X139287500Y-121925000D02*
X139212500Y-122000000D01*
X139287500Y-120000000D02*
X139287500Y-121925000D01*
X137150000Y-123325000D02*
X137950000Y-123325000D01*
X137950000Y-123325000D02*
X138275000Y-123000000D01*
X139212500Y-122000000D02*
X139212500Y-122712500D01*
X138925000Y-123000000D02*
X138275000Y-123000000D01*
X139212500Y-122712500D02*
X138925000Y-123000000D01*
G04 #@! TO.N,Net-(R11-Pad2)*
X130787500Y-116075000D02*
X131212500Y-116500000D01*
X130787500Y-114500000D02*
X130787500Y-116075000D01*
X131462500Y-113825000D02*
X130787500Y-114500000D01*
X132850000Y-113825000D02*
X131462500Y-113825000D01*
G04 #@! TO.N,Net-(R15-Pad2)*
X131462500Y-113175000D02*
X132850000Y-113175000D01*
X130787500Y-112500000D02*
X131462500Y-113175000D01*
X131212500Y-112075000D02*
X130787500Y-112500000D01*
X131212500Y-110500000D02*
X131212500Y-112075000D01*
G04 #@! TO.N,Net-(R12-Pad2)*
X139287500Y-114575000D02*
X139212500Y-114500000D01*
X139187500Y-114475000D02*
X139212500Y-114500000D01*
X137150000Y-114475000D02*
X139187500Y-114475000D01*
X139212500Y-114500000D02*
X139212500Y-116250000D01*
G04 #@! TO.N,Net-(R16-Pad2)*
X137950000Y-113825000D02*
X138275000Y-113500000D01*
X137150000Y-113825000D02*
X137950000Y-113825000D01*
X138275000Y-113500000D02*
X139000000Y-113500000D01*
X139212500Y-113287500D02*
X139212500Y-112500000D01*
X139000000Y-113500000D02*
X139212500Y-113287500D01*
X139287500Y-112425000D02*
X139212500Y-112500000D01*
X139287500Y-110500000D02*
X139287500Y-112425000D01*
G04 #@! TO.N,/Vsense4*
X132787500Y-121962500D02*
X132850000Y-122025000D01*
X132787500Y-120000000D02*
X132787500Y-121962500D01*
X133250000Y-118500000D02*
X133000000Y-118500000D01*
X132787500Y-118712500D02*
X132787500Y-120000000D01*
X133000000Y-118500000D02*
X132787500Y-118712500D01*
G04 #@! TO.N,/Vsense3*
X138250000Y-120537500D02*
X137712500Y-120000000D01*
X138250000Y-122375000D02*
X138250000Y-120537500D01*
X137150000Y-122675000D02*
X137950000Y-122675000D01*
X137950000Y-122675000D02*
X138250000Y-122375000D01*
X137712500Y-120000000D02*
X137712500Y-119037500D01*
X137712500Y-119037500D02*
X138000000Y-118750000D01*
G04 #@! TO.N,/Vsense2*
X132787500Y-112462500D02*
X132850000Y-112525000D01*
X132787500Y-110500000D02*
X132787500Y-112462500D01*
X129750000Y-110718506D02*
X129975000Y-110718506D01*
X129500000Y-116250000D02*
X131000000Y-117750000D01*
X131000000Y-117750000D02*
X132500000Y-117750000D01*
X129975000Y-110025000D02*
X129975000Y-110718506D01*
X130750000Y-109250000D02*
X129975000Y-110025000D01*
X132500000Y-109250000D02*
X130750000Y-109250000D01*
X132787500Y-110500000D02*
X132787500Y-109537500D01*
X132787500Y-109537500D02*
X132500000Y-109250000D01*
G04 #@! TO.N,/Vsense1*
X137950000Y-113175000D02*
X137150000Y-113175000D01*
X137712500Y-111075000D02*
X138000000Y-111362500D01*
X138000000Y-111362500D02*
X138000000Y-112039998D01*
X137712500Y-110500000D02*
X137712500Y-111075000D01*
X138000000Y-112039998D02*
X138025001Y-112064999D01*
X138025001Y-112064999D02*
X138025001Y-113099999D01*
X138025001Y-113099999D02*
X137950000Y-113175000D01*
X127737347Y-121737347D02*
X128500000Y-120974694D01*
X128500000Y-120974694D02*
X128500000Y-116000000D01*
X137712500Y-110500000D02*
X137712500Y-108914596D01*
X137712500Y-108914596D02*
X137697900Y-108899996D01*
G04 #@! TO.N,/RxUp*
X144255992Y-114058750D02*
X144255992Y-111890588D01*
X140814743Y-117499999D02*
X144255992Y-114058750D01*
X135500000Y-118500000D02*
X136500000Y-117500000D01*
X136500000Y-117500000D02*
X140814743Y-117499999D01*
G04 #@! TO.N,/TxUp*
X141001143Y-117950010D02*
X145000000Y-113951153D01*
X145000000Y-113951153D02*
X145000000Y-113565685D01*
X145000000Y-113565685D02*
X145000000Y-113000000D01*
X137549990Y-117950010D02*
X141001143Y-117950010D01*
X136750000Y-118750000D02*
X137549990Y-117950010D01*
G04 #@! TO.N,/Boot0*
X144960000Y-122060000D02*
X144960000Y-123100000D01*
X144100000Y-121200000D02*
X144960000Y-122060000D01*
X144012500Y-120000000D02*
X144100000Y-120087500D01*
X144100000Y-120087500D02*
X144100000Y-121200000D01*
G04 #@! TD*
M02*
