G04 #@! TF.GenerationSoftware,KiCad,Pcbnew,(5.0.0)*
G04 #@! TF.CreationDate,2019-02-21T23:12:31-08:00*
G04 #@! TF.ProjectId,bms4_f051,626D73345F663035312E6B696361645F,rev?*
G04 #@! TF.SameCoordinates,Original*
G04 #@! TF.FileFunction,Legend,Top*
G04 #@! TF.FilePolarity,Positive*
%FSLAX46Y46*%
G04 Gerber Fmt 4.6, Leading zero omitted, Abs format (unit mm)*
G04 Created by KiCad (PCBNEW (5.0.0)) date 02/21/19 23:12:31*
%MOMM*%
%LPD*%
G01*
G04 APERTURE LIST*
%ADD10C,0.300000*%
%ADD11C,0.200000*%
%ADD12C,0.150000*%
%ADD13C,0.400000*%
%ADD14C,0.120000*%
G04 APERTURE END LIST*
D10*
X111021428Y-102792857D02*
X111235714Y-102864285D01*
X111307142Y-102935714D01*
X111378571Y-103078571D01*
X111378571Y-103292857D01*
X111307142Y-103435714D01*
X111235714Y-103507142D01*
X111092857Y-103578571D01*
X110521428Y-103578571D01*
X110521428Y-102078571D01*
X111021428Y-102078571D01*
X111164285Y-102150000D01*
X111235714Y-102221428D01*
X111307142Y-102364285D01*
X111307142Y-102507142D01*
X111235714Y-102650000D01*
X111164285Y-102721428D01*
X111021428Y-102792857D01*
X110521428Y-102792857D01*
X112021428Y-103578571D02*
X112021428Y-102078571D01*
X112521428Y-103150000D01*
X113021428Y-102078571D01*
X113021428Y-103578571D01*
X113664285Y-103507142D02*
X113878571Y-103578571D01*
X114235714Y-103578571D01*
X114378571Y-103507142D01*
X114450000Y-103435714D01*
X114521428Y-103292857D01*
X114521428Y-103150000D01*
X114450000Y-103007142D01*
X114378571Y-102935714D01*
X114235714Y-102864285D01*
X113950000Y-102792857D01*
X113807142Y-102721428D01*
X113735714Y-102650000D01*
X113664285Y-102507142D01*
X113664285Y-102364285D01*
X113735714Y-102221428D01*
X113807142Y-102150000D01*
X113950000Y-102078571D01*
X114307142Y-102078571D01*
X114521428Y-102150000D01*
X115807142Y-102578571D02*
X115807142Y-103578571D01*
X115450000Y-102007142D02*
X115092857Y-103078571D01*
X116021428Y-103078571D01*
D11*
X138500000Y-127500000D02*
X139500000Y-127500000D01*
X130500000Y-127500000D02*
X131500000Y-127500000D01*
X131000000Y-127000000D02*
X131000000Y-128000000D01*
X133500000Y-128000000D02*
X133500000Y-127000000D01*
X133500000Y-127000000D02*
X133000000Y-127500000D01*
X133500000Y-127000000D02*
X134000000Y-127500000D01*
X136000000Y-127000000D02*
X136000000Y-128000000D01*
X136000000Y-128000000D02*
X136500000Y-127500000D01*
X136000000Y-128000000D02*
X135500000Y-127500000D01*
X136000000Y-108000000D02*
X136000000Y-109000000D01*
X136000000Y-109000000D02*
X136500000Y-108500000D01*
X136000000Y-109000000D02*
X135500000Y-108500000D01*
X133500000Y-108000000D02*
X134000000Y-108500000D01*
X133500000Y-108000000D02*
X133500000Y-109000000D01*
X133500000Y-108000000D02*
X133000000Y-108500000D01*
X138000000Y-108500000D02*
X139000000Y-108500000D01*
X130500000Y-108500000D02*
X131500000Y-108500000D01*
X131000000Y-108000000D02*
X131000000Y-109000000D01*
D12*
X146419047Y-124761904D02*
X146914285Y-124761904D01*
X146647619Y-125066666D01*
X146761904Y-125066666D01*
X146838095Y-125104761D01*
X146876190Y-125142857D01*
X146914285Y-125219047D01*
X146914285Y-125409523D01*
X146876190Y-125485714D01*
X146838095Y-125523809D01*
X146761904Y-125561904D01*
X146533333Y-125561904D01*
X146457142Y-125523809D01*
X146419047Y-125485714D01*
X147257142Y-125485714D02*
X147295238Y-125523809D01*
X147257142Y-125561904D01*
X147219047Y-125523809D01*
X147257142Y-125485714D01*
X147257142Y-125561904D01*
X147561904Y-124761904D02*
X148057142Y-124761904D01*
X147790476Y-125066666D01*
X147904761Y-125066666D01*
X147980952Y-125104761D01*
X148019047Y-125142857D01*
X148057142Y-125219047D01*
X148057142Y-125409523D01*
X148019047Y-125485714D01*
X147980952Y-125523809D01*
X147904761Y-125561904D01*
X147676190Y-125561904D01*
X147600000Y-125523809D01*
X147561904Y-125485714D01*
X148285714Y-124761904D02*
X148552380Y-125561904D01*
X148819047Y-124761904D01*
X142611904Y-134390476D02*
X141811904Y-134390476D01*
X141811904Y-134200000D01*
X141850000Y-134085714D01*
X141926190Y-134009523D01*
X142002380Y-133971428D01*
X142154761Y-133933333D01*
X142269047Y-133933333D01*
X142421428Y-133971428D01*
X142497619Y-134009523D01*
X142573809Y-134085714D01*
X142611904Y-134200000D01*
X142611904Y-134390476D01*
X142611904Y-133476190D02*
X142573809Y-133552380D01*
X142535714Y-133590476D01*
X142459523Y-133628571D01*
X142230952Y-133628571D01*
X142154761Y-133590476D01*
X142116666Y-133552380D01*
X142078571Y-133476190D01*
X142078571Y-133361904D01*
X142116666Y-133285714D01*
X142154761Y-133247619D01*
X142230952Y-133209523D01*
X142459523Y-133209523D01*
X142535714Y-133247619D01*
X142573809Y-133285714D01*
X142611904Y-133361904D01*
X142611904Y-133476190D01*
X142078571Y-132942857D02*
X142611904Y-132790476D01*
X142230952Y-132638095D01*
X142611904Y-132485714D01*
X142078571Y-132333333D01*
X142078571Y-132028571D02*
X142611904Y-132028571D01*
X142154761Y-132028571D02*
X142116666Y-131990476D01*
X142078571Y-131914285D01*
X142078571Y-131800000D01*
X142116666Y-131723809D01*
X142192857Y-131685714D01*
X142611904Y-131685714D01*
X142573809Y-131342857D02*
X142611904Y-131266666D01*
X142611904Y-131114285D01*
X142573809Y-131038095D01*
X142497619Y-131000000D01*
X142459523Y-131000000D01*
X142383333Y-131038095D01*
X142345238Y-131114285D01*
X142345238Y-131228571D01*
X142307142Y-131304761D01*
X142230952Y-131342857D01*
X142192857Y-131342857D01*
X142116666Y-131304761D01*
X142078571Y-131228571D01*
X142078571Y-131114285D01*
X142116666Y-131038095D01*
X142078571Y-130771428D02*
X142078571Y-130466666D01*
X141811904Y-130657142D02*
X142497619Y-130657142D01*
X142573809Y-130619047D01*
X142611904Y-130542857D01*
X142611904Y-130466666D01*
X142611904Y-130200000D02*
X142078571Y-130200000D01*
X142230952Y-130200000D02*
X142154761Y-130161904D01*
X142116666Y-130123809D01*
X142078571Y-130047619D01*
X142078571Y-129971428D01*
X142573809Y-129400000D02*
X142611904Y-129476190D01*
X142611904Y-129628571D01*
X142573809Y-129704761D01*
X142497619Y-129742857D01*
X142192857Y-129742857D01*
X142116666Y-129704761D01*
X142078571Y-129628571D01*
X142078571Y-129476190D01*
X142116666Y-129400000D01*
X142192857Y-129361904D01*
X142269047Y-129361904D01*
X142345238Y-129742857D01*
X142611904Y-128676190D02*
X142192857Y-128676190D01*
X142116666Y-128714285D01*
X142078571Y-128790476D01*
X142078571Y-128942857D01*
X142116666Y-129019047D01*
X142573809Y-128676190D02*
X142611904Y-128752380D01*
X142611904Y-128942857D01*
X142573809Y-129019047D01*
X142497619Y-129057142D01*
X142421428Y-129057142D01*
X142345238Y-129019047D01*
X142307142Y-128942857D01*
X142307142Y-128752380D01*
X142269047Y-128676190D01*
X142611904Y-128295238D02*
X142078571Y-128295238D01*
X142154761Y-128295238D02*
X142116666Y-128257142D01*
X142078571Y-128180952D01*
X142078571Y-128066666D01*
X142116666Y-127990476D01*
X142192857Y-127952380D01*
X142611904Y-127952380D01*
X142192857Y-127952380D02*
X142116666Y-127914285D01*
X142078571Y-127838095D01*
X142078571Y-127723809D01*
X142116666Y-127647619D01*
X142192857Y-127609523D01*
X142611904Y-127609523D01*
X141561904Y-107378571D02*
X142209523Y-107378571D01*
X142285714Y-107340476D01*
X142323809Y-107302380D01*
X142361904Y-107226190D01*
X142361904Y-107073809D01*
X142323809Y-106997619D01*
X142285714Y-106959523D01*
X142209523Y-106921428D01*
X141561904Y-106921428D01*
X141828571Y-106540476D02*
X142628571Y-106540476D01*
X141866666Y-106540476D02*
X141828571Y-106464285D01*
X141828571Y-106311904D01*
X141866666Y-106235714D01*
X141904761Y-106197619D01*
X141980952Y-106159523D01*
X142209523Y-106159523D01*
X142285714Y-106197619D01*
X142323809Y-106235714D01*
X142361904Y-106311904D01*
X142361904Y-106464285D01*
X142323809Y-106540476D01*
X142323809Y-105854761D02*
X142361904Y-105778571D01*
X142361904Y-105626190D01*
X142323809Y-105550000D01*
X142247619Y-105511904D01*
X142209523Y-105511904D01*
X142133333Y-105550000D01*
X142095238Y-105626190D01*
X142095238Y-105740476D01*
X142057142Y-105816666D01*
X141980952Y-105854761D01*
X141942857Y-105854761D01*
X141866666Y-105816666D01*
X141828571Y-105740476D01*
X141828571Y-105626190D01*
X141866666Y-105550000D01*
X141828571Y-105283333D02*
X141828571Y-104978571D01*
X141561904Y-105169047D02*
X142247619Y-105169047D01*
X142323809Y-105130952D01*
X142361904Y-105054761D01*
X142361904Y-104978571D01*
X142361904Y-104711904D02*
X141828571Y-104711904D01*
X141980952Y-104711904D02*
X141904761Y-104673809D01*
X141866666Y-104635714D01*
X141828571Y-104559523D01*
X141828571Y-104483333D01*
X142323809Y-103911904D02*
X142361904Y-103988095D01*
X142361904Y-104140476D01*
X142323809Y-104216666D01*
X142247619Y-104254761D01*
X141942857Y-104254761D01*
X141866666Y-104216666D01*
X141828571Y-104140476D01*
X141828571Y-103988095D01*
X141866666Y-103911904D01*
X141942857Y-103873809D01*
X142019047Y-103873809D01*
X142095238Y-104254761D01*
X142361904Y-103188095D02*
X141942857Y-103188095D01*
X141866666Y-103226190D01*
X141828571Y-103302380D01*
X141828571Y-103454761D01*
X141866666Y-103530952D01*
X142323809Y-103188095D02*
X142361904Y-103264285D01*
X142361904Y-103454761D01*
X142323809Y-103530952D01*
X142247619Y-103569047D01*
X142171428Y-103569047D01*
X142095238Y-103530952D01*
X142057142Y-103454761D01*
X142057142Y-103264285D01*
X142019047Y-103188095D01*
X142361904Y-102807142D02*
X141828571Y-102807142D01*
X141904761Y-102807142D02*
X141866666Y-102769047D01*
X141828571Y-102692857D01*
X141828571Y-102578571D01*
X141866666Y-102502380D01*
X141942857Y-102464285D01*
X142361904Y-102464285D01*
X141942857Y-102464285D02*
X141866666Y-102426190D01*
X141828571Y-102350000D01*
X141828571Y-102235714D01*
X141866666Y-102159523D01*
X141942857Y-102121428D01*
X142361904Y-102121428D01*
D13*
X104142857Y-109261904D02*
X104142857Y-107738095D01*
X103238095Y-126642857D02*
X104761904Y-126642857D01*
X104000000Y-127404761D02*
X104000000Y-125880952D01*
D14*
G04 #@! TO.C,C3*
X135508578Y-120760000D02*
X134991422Y-120760000D01*
X135508578Y-119340000D02*
X134991422Y-119340000D01*
G04 #@! TO.C,C4*
X135508578Y-109840000D02*
X134991422Y-109840000D01*
X135508578Y-111260000D02*
X134991422Y-111260000D01*
G04 #@! TO.C,C6*
X108240000Y-107066422D02*
X108240000Y-107583578D01*
X109660000Y-107066422D02*
X109660000Y-107583578D01*
G04 #@! TO.C,C8*
X116960000Y-107162221D02*
X116960000Y-107487779D01*
X115940000Y-107162221D02*
X115940000Y-107487779D01*
G04 #@! TO.C,C9*
X147337221Y-111010000D02*
X147662779Y-111010000D01*
X147337221Y-109990000D02*
X147662779Y-109990000D01*
G04 #@! TO.C,D1*
X125200000Y-107500000D02*
X125200000Y-108300000D01*
X125200044Y-108300000D02*
X120750000Y-108300000D01*
X124650000Y-105300000D02*
X120750000Y-105300000D01*
G04 #@! TO.C,J1*
X128150000Y-101250000D02*
X128150000Y-102500000D01*
X129400000Y-101250000D02*
X128150000Y-101250000D01*
X140300000Y-106750000D02*
X134750000Y-106750000D01*
X140300000Y-103800000D02*
X140300000Y-106750000D01*
X141050000Y-103800000D02*
X140300000Y-103800000D01*
X129200000Y-106750000D02*
X134750000Y-106750000D01*
X129200000Y-103800000D02*
X129200000Y-106750000D01*
X128450000Y-103800000D02*
X129200000Y-103800000D01*
X141050000Y-101550000D02*
X139250000Y-101550000D01*
X141050000Y-102300000D02*
X141050000Y-101550000D01*
X139250000Y-102300000D02*
X141050000Y-102300000D01*
X139250000Y-101550000D02*
X139250000Y-102300000D01*
X130250000Y-101550000D02*
X128450000Y-101550000D01*
X130250000Y-102300000D02*
X130250000Y-101550000D01*
X128450000Y-102300000D02*
X130250000Y-102300000D01*
X128450000Y-101550000D02*
X128450000Y-102300000D01*
X137750000Y-101550000D02*
X131750000Y-101550000D01*
X137750000Y-102300000D02*
X137750000Y-101550000D01*
X131750000Y-102300000D02*
X137750000Y-102300000D01*
X131750000Y-101550000D02*
X131750000Y-102300000D01*
X141060000Y-101540000D02*
X128440000Y-101540000D01*
X141060000Y-107510000D02*
X141060000Y-101540000D01*
X128440000Y-107510000D02*
X141060000Y-107510000D01*
X128440000Y-101540000D02*
X128440000Y-107510000D01*
G04 #@! TO.C,J2*
X101540000Y-125060000D02*
X107510000Y-125060000D01*
X107510000Y-125060000D02*
X107510000Y-109940000D01*
X107510000Y-109940000D02*
X101540000Y-109940000D01*
X101540000Y-109940000D02*
X101540000Y-125060000D01*
X101550000Y-121750000D02*
X102300000Y-121750000D01*
X102300000Y-121750000D02*
X102300000Y-113250000D01*
X102300000Y-113250000D02*
X101550000Y-113250000D01*
X101550000Y-113250000D02*
X101550000Y-121750000D01*
X101550000Y-125050000D02*
X102300000Y-125050000D01*
X102300000Y-125050000D02*
X102300000Y-123250000D01*
X102300000Y-123250000D02*
X101550000Y-123250000D01*
X101550000Y-123250000D02*
X101550000Y-125050000D01*
X101550000Y-111750000D02*
X102300000Y-111750000D01*
X102300000Y-111750000D02*
X102300000Y-109950000D01*
X102300000Y-109950000D02*
X101550000Y-109950000D01*
X101550000Y-109950000D02*
X101550000Y-111750000D01*
X103800000Y-125050000D02*
X103800000Y-124300000D01*
X103800000Y-124300000D02*
X106750000Y-124300000D01*
X106750000Y-124300000D02*
X106750000Y-117500000D01*
X103800000Y-109950000D02*
X103800000Y-110700000D01*
X103800000Y-110700000D02*
X106750000Y-110700000D01*
X106750000Y-110700000D02*
X106750000Y-117500000D01*
X101250000Y-124100000D02*
X101250000Y-125350000D01*
X101250000Y-125350000D02*
X102500000Y-125350000D01*
G04 #@! TO.C,J3*
X148830000Y-111610000D02*
X146170000Y-111610000D01*
X148830000Y-121830000D02*
X148830000Y-111610000D01*
X146170000Y-121830000D02*
X146170000Y-111610000D01*
X148830000Y-121830000D02*
X146170000Y-121830000D01*
X148830000Y-123100000D02*
X148830000Y-124430000D01*
X148830000Y-124430000D02*
X147500000Y-124430000D01*
G04 #@! TO.C,J4*
X128440000Y-128540000D02*
X128440000Y-134510000D01*
X128440000Y-134510000D02*
X141060000Y-134510000D01*
X141060000Y-134510000D02*
X141060000Y-128540000D01*
X141060000Y-128540000D02*
X128440000Y-128540000D01*
X131750000Y-128550000D02*
X131750000Y-129300000D01*
X131750000Y-129300000D02*
X137750000Y-129300000D01*
X137750000Y-129300000D02*
X137750000Y-128550000D01*
X137750000Y-128550000D02*
X131750000Y-128550000D01*
X128450000Y-128550000D02*
X128450000Y-129300000D01*
X128450000Y-129300000D02*
X130250000Y-129300000D01*
X130250000Y-129300000D02*
X130250000Y-128550000D01*
X130250000Y-128550000D02*
X128450000Y-128550000D01*
X139250000Y-128550000D02*
X139250000Y-129300000D01*
X139250000Y-129300000D02*
X141050000Y-129300000D01*
X141050000Y-129300000D02*
X141050000Y-128550000D01*
X141050000Y-128550000D02*
X139250000Y-128550000D01*
X128450000Y-130800000D02*
X129200000Y-130800000D01*
X129200000Y-130800000D02*
X129200000Y-133750000D01*
X129200000Y-133750000D02*
X134750000Y-133750000D01*
X141050000Y-130800000D02*
X140300000Y-130800000D01*
X140300000Y-130800000D02*
X140300000Y-133750000D01*
X140300000Y-133750000D02*
X134750000Y-133750000D01*
X129400000Y-128250000D02*
X128150000Y-128250000D01*
X128150000Y-128250000D02*
X128150000Y-129500000D01*
G04 #@! TO.C,Q1*
X120580000Y-128240000D02*
X119650000Y-128240000D01*
X117420000Y-128240000D02*
X118350000Y-128240000D01*
X117420000Y-128240000D02*
X117420000Y-130400000D01*
X120580000Y-128240000D02*
X120580000Y-129700000D01*
G04 #@! TO.C,Q2*
X120580000Y-123240000D02*
X120580000Y-124700000D01*
X117420000Y-123240000D02*
X117420000Y-125400000D01*
X117420000Y-123240000D02*
X118350000Y-123240000D01*
X120580000Y-123240000D02*
X119650000Y-123240000D01*
G04 #@! TO.C,Q3*
X125700000Y-127840000D02*
X123800000Y-127840000D01*
X124300000Y-130160000D02*
X125700000Y-130160000D01*
G04 #@! TO.C,Q4*
X124300000Y-125160000D02*
X125700000Y-125160000D01*
X125700000Y-122840000D02*
X123800000Y-122840000D01*
G04 #@! TO.C,Q5*
X120580000Y-118240000D02*
X119650000Y-118240000D01*
X117420000Y-118240000D02*
X118350000Y-118240000D01*
X117420000Y-118240000D02*
X117420000Y-120400000D01*
X120580000Y-118240000D02*
X120580000Y-119700000D01*
G04 #@! TO.C,Q6*
X120580000Y-113240000D02*
X120580000Y-114700000D01*
X117420000Y-113240000D02*
X117420000Y-115400000D01*
X117420000Y-113240000D02*
X118350000Y-113240000D01*
X120580000Y-113240000D02*
X119650000Y-113240000D01*
G04 #@! TO.C,Q7*
X125700000Y-117840000D02*
X123800000Y-117840000D01*
X124300000Y-120160000D02*
X125700000Y-120160000D01*
G04 #@! TO.C,Q8*
X124300000Y-115160000D02*
X125700000Y-115160000D01*
X125700000Y-112840000D02*
X123800000Y-112840000D01*
G04 #@! TO.C,R1*
X130162779Y-124510000D02*
X129837221Y-124510000D01*
X130162779Y-123490000D02*
X129837221Y-123490000D01*
G04 #@! TO.C,R2*
X130162779Y-121490000D02*
X129837221Y-121490000D01*
X130162779Y-122510000D02*
X129837221Y-122510000D01*
G04 #@! TO.C,R3*
X139837221Y-123490000D02*
X140162779Y-123490000D01*
X139837221Y-124510000D02*
X140162779Y-124510000D01*
G04 #@! TO.C,R4*
X139837221Y-122510000D02*
X140162779Y-122510000D01*
X139837221Y-121490000D02*
X140162779Y-121490000D01*
G04 #@! TO.C,R5*
X130162779Y-115010000D02*
X129837221Y-115010000D01*
X130162779Y-113990000D02*
X129837221Y-113990000D01*
G04 #@! TO.C,R6*
X130162779Y-111990000D02*
X129837221Y-111990000D01*
X130162779Y-113010000D02*
X129837221Y-113010000D01*
G04 #@! TO.C,R7*
X139837221Y-113990000D02*
X140162779Y-113990000D01*
X139837221Y-115010000D02*
X140162779Y-115010000D01*
G04 #@! TO.C,R8*
X139837221Y-113010000D02*
X140162779Y-113010000D01*
X139837221Y-111990000D02*
X140162779Y-111990000D01*
G04 #@! TO.C,R9*
X132162779Y-125490000D02*
X131837221Y-125490000D01*
X132162779Y-126510000D02*
X131837221Y-126510000D01*
G04 #@! TO.C,R10*
X138337221Y-126510000D02*
X138662779Y-126510000D01*
X138337221Y-125490000D02*
X138662779Y-125490000D01*
G04 #@! TO.C,R11*
X132162779Y-115990000D02*
X131837221Y-115990000D01*
X132162779Y-117010000D02*
X131837221Y-117010000D01*
G04 #@! TO.C,R12*
X140162779Y-115740000D02*
X139837221Y-115740000D01*
X140162779Y-116760000D02*
X139837221Y-116760000D01*
G04 #@! TO.C,R13*
X132162779Y-120510000D02*
X131837221Y-120510000D01*
X132162779Y-119490000D02*
X131837221Y-119490000D01*
G04 #@! TO.C,R14*
X138337221Y-119490000D02*
X138662779Y-119490000D01*
X138337221Y-120510000D02*
X138662779Y-120510000D01*
G04 #@! TO.C,R15*
X132162779Y-111010000D02*
X131837221Y-111010000D01*
X132162779Y-109990000D02*
X131837221Y-109990000D01*
G04 #@! TO.C,R16*
X138337221Y-109990000D02*
X138662779Y-109990000D01*
X138337221Y-111010000D02*
X138662779Y-111010000D01*
G04 #@! TO.C,R19*
X120087221Y-104610000D02*
X120412779Y-104610000D01*
X120087221Y-103590000D02*
X120412779Y-103590000D01*
G04 #@! TO.C,R20*
X125087221Y-103590000D02*
X125412779Y-103590000D01*
X125087221Y-104610000D02*
X125412779Y-104610000D01*
G04 #@! TO.C,R21*
X122510000Y-128837221D02*
X122510000Y-129162779D01*
X121490000Y-128837221D02*
X121490000Y-129162779D01*
G04 #@! TO.C,R22*
X121490000Y-123837221D02*
X121490000Y-124162779D01*
X122510000Y-123837221D02*
X122510000Y-124162779D01*
G04 #@! TO.C,R25*
X122510000Y-118837221D02*
X122510000Y-119162779D01*
X121490000Y-118837221D02*
X121490000Y-119162779D01*
G04 #@! TO.C,R26*
X121490000Y-113837221D02*
X121490000Y-114162779D01*
X122510000Y-113837221D02*
X122510000Y-114162779D01*
D12*
G04 #@! TO.C,U1*
X133375000Y-121500000D02*
X132300000Y-121500000D01*
X133375000Y-124625000D02*
X136625000Y-124625000D01*
X133375000Y-121375000D02*
X136625000Y-121375000D01*
X133375000Y-124625000D02*
X133375000Y-124400000D01*
X136625000Y-124625000D02*
X136625000Y-124400000D01*
X136625000Y-121375000D02*
X136625000Y-121600000D01*
X133375000Y-121375000D02*
X133375000Y-121500000D01*
G04 #@! TO.C,U2*
X133375000Y-111875000D02*
X133375000Y-112000000D01*
X136625000Y-111875000D02*
X136625000Y-112100000D01*
X136625000Y-115125000D02*
X136625000Y-114900000D01*
X133375000Y-115125000D02*
X133375000Y-114900000D01*
X133375000Y-111875000D02*
X136625000Y-111875000D01*
X133375000Y-115125000D02*
X136625000Y-115125000D01*
X133375000Y-112000000D02*
X132300000Y-112000000D01*
D14*
G04 #@! TO.C,U5*
X111750000Y-109105000D02*
X110550000Y-109105000D01*
X110550000Y-109105000D02*
X110550000Y-106405000D01*
X115350000Y-105105000D02*
X115350000Y-109105000D01*
X115350000Y-109105000D02*
X114150000Y-109105000D01*
G04 #@! TO.C,R17*
X110447936Y-132710000D02*
X114552064Y-132710000D01*
X110447936Y-129290000D02*
X114552064Y-129290000D01*
G04 #@! TO.C,R18*
X110447936Y-127210000D02*
X114552064Y-127210000D01*
X110447936Y-123790000D02*
X114552064Y-123790000D01*
G04 #@! TO.C,R23*
X110447936Y-118290000D02*
X114552064Y-118290000D01*
X110447936Y-121710000D02*
X114552064Y-121710000D01*
G04 #@! TO.C,R24*
X110447936Y-112790000D02*
X114552064Y-112790000D01*
X110447936Y-116210000D02*
X114552064Y-116210000D01*
G04 #@! TO.C,J5*
X146290000Y-124430000D02*
X146290000Y-121770000D01*
X146230000Y-124430000D02*
X146290000Y-124430000D01*
X146230000Y-121770000D02*
X146290000Y-121770000D01*
X146230000Y-124430000D02*
X146230000Y-121770000D01*
X144960000Y-124430000D02*
X143630000Y-124430000D01*
X143630000Y-124430000D02*
X143630000Y-123100000D01*
G04 #@! TO.C,R27*
X144962779Y-120510000D02*
X144637221Y-120510000D01*
X144962779Y-119490000D02*
X144637221Y-119490000D01*
G04 #@! TO.C,C3*
D12*
X134757142Y-118266666D02*
X134804761Y-118314285D01*
X134852380Y-118457142D01*
X134852380Y-118552380D01*
X134804761Y-118695238D01*
X134709523Y-118790476D01*
X134614285Y-118838095D01*
X134423809Y-118885714D01*
X134280952Y-118885714D01*
X134090476Y-118838095D01*
X133995238Y-118790476D01*
X133900000Y-118695238D01*
X133852380Y-118552380D01*
X133852380Y-118457142D01*
X133900000Y-118314285D01*
X133947619Y-118266666D01*
X133852380Y-117933333D02*
X133852380Y-117314285D01*
X134233333Y-117647619D01*
X134233333Y-117504761D01*
X134280952Y-117409523D01*
X134328571Y-117361904D01*
X134423809Y-117314285D01*
X134661904Y-117314285D01*
X134757142Y-117361904D01*
X134804761Y-117409523D01*
X134852380Y-117504761D01*
X134852380Y-117790476D01*
X134804761Y-117885714D01*
X134757142Y-117933333D01*
G04 #@! TO.C,C4*
X135357142Y-108666666D02*
X135404761Y-108714285D01*
X135452380Y-108857142D01*
X135452380Y-108952380D01*
X135404761Y-109095238D01*
X135309523Y-109190476D01*
X135214285Y-109238095D01*
X135023809Y-109285714D01*
X134880952Y-109285714D01*
X134690476Y-109238095D01*
X134595238Y-109190476D01*
X134500000Y-109095238D01*
X134452380Y-108952380D01*
X134452380Y-108857142D01*
X134500000Y-108714285D01*
X134547619Y-108666666D01*
X134785714Y-107809523D02*
X135452380Y-107809523D01*
X134404761Y-108047619D02*
X135119047Y-108285714D01*
X135119047Y-107666666D01*
G04 #@! TO.C,C6*
X107657142Y-107616666D02*
X107704761Y-107664285D01*
X107752380Y-107807142D01*
X107752380Y-107902380D01*
X107704761Y-108045238D01*
X107609523Y-108140476D01*
X107514285Y-108188095D01*
X107323809Y-108235714D01*
X107180952Y-108235714D01*
X106990476Y-108188095D01*
X106895238Y-108140476D01*
X106800000Y-108045238D01*
X106752380Y-107902380D01*
X106752380Y-107807142D01*
X106800000Y-107664285D01*
X106847619Y-107616666D01*
X106752380Y-106759523D02*
X106752380Y-106950000D01*
X106800000Y-107045238D01*
X106847619Y-107092857D01*
X106990476Y-107188095D01*
X107180952Y-107235714D01*
X107561904Y-107235714D01*
X107657142Y-107188095D01*
X107704761Y-107140476D01*
X107752380Y-107045238D01*
X107752380Y-106854761D01*
X107704761Y-106759523D01*
X107657142Y-106711904D01*
X107561904Y-106664285D01*
X107323809Y-106664285D01*
X107228571Y-106711904D01*
X107180952Y-106759523D01*
X107133333Y-106854761D01*
X107133333Y-107045238D01*
X107180952Y-107140476D01*
X107228571Y-107188095D01*
X107323809Y-107235714D01*
G04 #@! TO.C,C8*
X118257142Y-107616666D02*
X118304761Y-107664285D01*
X118352380Y-107807142D01*
X118352380Y-107902380D01*
X118304761Y-108045238D01*
X118209523Y-108140476D01*
X118114285Y-108188095D01*
X117923809Y-108235714D01*
X117780952Y-108235714D01*
X117590476Y-108188095D01*
X117495238Y-108140476D01*
X117400000Y-108045238D01*
X117352380Y-107902380D01*
X117352380Y-107807142D01*
X117400000Y-107664285D01*
X117447619Y-107616666D01*
X117780952Y-107045238D02*
X117733333Y-107140476D01*
X117685714Y-107188095D01*
X117590476Y-107235714D01*
X117542857Y-107235714D01*
X117447619Y-107188095D01*
X117400000Y-107140476D01*
X117352380Y-107045238D01*
X117352380Y-106854761D01*
X117400000Y-106759523D01*
X117447619Y-106711904D01*
X117542857Y-106664285D01*
X117590476Y-106664285D01*
X117685714Y-106711904D01*
X117733333Y-106759523D01*
X117780952Y-106854761D01*
X117780952Y-107045238D01*
X117828571Y-107140476D01*
X117876190Y-107188095D01*
X117971428Y-107235714D01*
X118161904Y-107235714D01*
X118257142Y-107188095D01*
X118304761Y-107140476D01*
X118352380Y-107045238D01*
X118352380Y-106854761D01*
X118304761Y-106759523D01*
X118257142Y-106711904D01*
X118161904Y-106664285D01*
X117971428Y-106664285D01*
X117876190Y-106711904D01*
X117828571Y-106759523D01*
X117780952Y-106854761D01*
G04 #@! TO.C,C9*
X146333333Y-109357142D02*
X146285714Y-109404761D01*
X146142857Y-109452380D01*
X146047619Y-109452380D01*
X145904761Y-109404761D01*
X145809523Y-109309523D01*
X145761904Y-109214285D01*
X145714285Y-109023809D01*
X145714285Y-108880952D01*
X145761904Y-108690476D01*
X145809523Y-108595238D01*
X145904761Y-108500000D01*
X146047619Y-108452380D01*
X146142857Y-108452380D01*
X146285714Y-108500000D01*
X146333333Y-108547619D01*
X146809523Y-109452380D02*
X147000000Y-109452380D01*
X147095238Y-109404761D01*
X147142857Y-109357142D01*
X147238095Y-109214285D01*
X147285714Y-109023809D01*
X147285714Y-108642857D01*
X147238095Y-108547619D01*
X147190476Y-108500000D01*
X147095238Y-108452380D01*
X146904761Y-108452380D01*
X146809523Y-108500000D01*
X146761904Y-108547619D01*
X146714285Y-108642857D01*
X146714285Y-108880952D01*
X146761904Y-108976190D01*
X146809523Y-109023809D01*
X146904761Y-109071428D01*
X147095238Y-109071428D01*
X147190476Y-109023809D01*
X147238095Y-108976190D01*
X147285714Y-108880952D01*
G04 #@! TO.C,D1*
X121961904Y-109902380D02*
X121961904Y-108902380D01*
X122200000Y-108902380D01*
X122342857Y-108950000D01*
X122438095Y-109045238D01*
X122485714Y-109140476D01*
X122533333Y-109330952D01*
X122533333Y-109473809D01*
X122485714Y-109664285D01*
X122438095Y-109759523D01*
X122342857Y-109854761D01*
X122200000Y-109902380D01*
X121961904Y-109902380D01*
X123485714Y-109902380D02*
X122914285Y-109902380D01*
X123200000Y-109902380D02*
X123200000Y-108902380D01*
X123104761Y-109045238D01*
X123009523Y-109140476D01*
X122914285Y-109188095D01*
G04 #@! TO.C,Q1*
X118404761Y-132047619D02*
X118309523Y-132000000D01*
X118214285Y-131904761D01*
X118071428Y-131761904D01*
X117976190Y-131714285D01*
X117880952Y-131714285D01*
X117928571Y-131952380D02*
X117833333Y-131904761D01*
X117738095Y-131809523D01*
X117690476Y-131619047D01*
X117690476Y-131285714D01*
X117738095Y-131095238D01*
X117833333Y-131000000D01*
X117928571Y-130952380D01*
X118119047Y-130952380D01*
X118214285Y-131000000D01*
X118309523Y-131095238D01*
X118357142Y-131285714D01*
X118357142Y-131619047D01*
X118309523Y-131809523D01*
X118214285Y-131904761D01*
X118119047Y-131952380D01*
X117928571Y-131952380D01*
X119309523Y-131952380D02*
X118738095Y-131952380D01*
X119023809Y-131952380D02*
X119023809Y-130952380D01*
X118928571Y-131095238D01*
X118833333Y-131190476D01*
X118738095Y-131238095D01*
G04 #@! TO.C,Q2*
X118404761Y-127047619D02*
X118309523Y-127000000D01*
X118214285Y-126904761D01*
X118071428Y-126761904D01*
X117976190Y-126714285D01*
X117880952Y-126714285D01*
X117928571Y-126952380D02*
X117833333Y-126904761D01*
X117738095Y-126809523D01*
X117690476Y-126619047D01*
X117690476Y-126285714D01*
X117738095Y-126095238D01*
X117833333Y-126000000D01*
X117928571Y-125952380D01*
X118119047Y-125952380D01*
X118214285Y-126000000D01*
X118309523Y-126095238D01*
X118357142Y-126285714D01*
X118357142Y-126619047D01*
X118309523Y-126809523D01*
X118214285Y-126904761D01*
X118119047Y-126952380D01*
X117928571Y-126952380D01*
X118738095Y-126047619D02*
X118785714Y-126000000D01*
X118880952Y-125952380D01*
X119119047Y-125952380D01*
X119214285Y-126000000D01*
X119261904Y-126047619D01*
X119309523Y-126142857D01*
X119309523Y-126238095D01*
X119261904Y-126380952D01*
X118690476Y-126952380D01*
X119309523Y-126952380D01*
G04 #@! TO.C,Q3*
X124804761Y-131547619D02*
X124709523Y-131500000D01*
X124614285Y-131404761D01*
X124471428Y-131261904D01*
X124376190Y-131214285D01*
X124280952Y-131214285D01*
X124328571Y-131452380D02*
X124233333Y-131404761D01*
X124138095Y-131309523D01*
X124090476Y-131119047D01*
X124090476Y-130785714D01*
X124138095Y-130595238D01*
X124233333Y-130500000D01*
X124328571Y-130452380D01*
X124519047Y-130452380D01*
X124614285Y-130500000D01*
X124709523Y-130595238D01*
X124757142Y-130785714D01*
X124757142Y-131119047D01*
X124709523Y-131309523D01*
X124614285Y-131404761D01*
X124519047Y-131452380D01*
X124328571Y-131452380D01*
X125090476Y-130452380D02*
X125709523Y-130452380D01*
X125376190Y-130833333D01*
X125519047Y-130833333D01*
X125614285Y-130880952D01*
X125661904Y-130928571D01*
X125709523Y-131023809D01*
X125709523Y-131261904D01*
X125661904Y-131357142D01*
X125614285Y-131404761D01*
X125519047Y-131452380D01*
X125233333Y-131452380D01*
X125138095Y-131404761D01*
X125090476Y-131357142D01*
G04 #@! TO.C,Q4*
X125004761Y-126447619D02*
X124909523Y-126400000D01*
X124814285Y-126304761D01*
X124671428Y-126161904D01*
X124576190Y-126114285D01*
X124480952Y-126114285D01*
X124528571Y-126352380D02*
X124433333Y-126304761D01*
X124338095Y-126209523D01*
X124290476Y-126019047D01*
X124290476Y-125685714D01*
X124338095Y-125495238D01*
X124433333Y-125400000D01*
X124528571Y-125352380D01*
X124719047Y-125352380D01*
X124814285Y-125400000D01*
X124909523Y-125495238D01*
X124957142Y-125685714D01*
X124957142Y-126019047D01*
X124909523Y-126209523D01*
X124814285Y-126304761D01*
X124719047Y-126352380D01*
X124528571Y-126352380D01*
X125814285Y-125685714D02*
X125814285Y-126352380D01*
X125576190Y-125304761D02*
X125338095Y-126019047D01*
X125957142Y-126019047D01*
G04 #@! TO.C,Q5*
X118404761Y-122047619D02*
X118309523Y-122000000D01*
X118214285Y-121904761D01*
X118071428Y-121761904D01*
X117976190Y-121714285D01*
X117880952Y-121714285D01*
X117928571Y-121952380D02*
X117833333Y-121904761D01*
X117738095Y-121809523D01*
X117690476Y-121619047D01*
X117690476Y-121285714D01*
X117738095Y-121095238D01*
X117833333Y-121000000D01*
X117928571Y-120952380D01*
X118119047Y-120952380D01*
X118214285Y-121000000D01*
X118309523Y-121095238D01*
X118357142Y-121285714D01*
X118357142Y-121619047D01*
X118309523Y-121809523D01*
X118214285Y-121904761D01*
X118119047Y-121952380D01*
X117928571Y-121952380D01*
X119261904Y-120952380D02*
X118785714Y-120952380D01*
X118738095Y-121428571D01*
X118785714Y-121380952D01*
X118880952Y-121333333D01*
X119119047Y-121333333D01*
X119214285Y-121380952D01*
X119261904Y-121428571D01*
X119309523Y-121523809D01*
X119309523Y-121761904D01*
X119261904Y-121857142D01*
X119214285Y-121904761D01*
X119119047Y-121952380D01*
X118880952Y-121952380D01*
X118785714Y-121904761D01*
X118738095Y-121857142D01*
G04 #@! TO.C,Q6*
X118404761Y-117047619D02*
X118309523Y-117000000D01*
X118214285Y-116904761D01*
X118071428Y-116761904D01*
X117976190Y-116714285D01*
X117880952Y-116714285D01*
X117928571Y-116952380D02*
X117833333Y-116904761D01*
X117738095Y-116809523D01*
X117690476Y-116619047D01*
X117690476Y-116285714D01*
X117738095Y-116095238D01*
X117833333Y-116000000D01*
X117928571Y-115952380D01*
X118119047Y-115952380D01*
X118214285Y-116000000D01*
X118309523Y-116095238D01*
X118357142Y-116285714D01*
X118357142Y-116619047D01*
X118309523Y-116809523D01*
X118214285Y-116904761D01*
X118119047Y-116952380D01*
X117928571Y-116952380D01*
X119214285Y-115952380D02*
X119023809Y-115952380D01*
X118928571Y-116000000D01*
X118880952Y-116047619D01*
X118785714Y-116190476D01*
X118738095Y-116380952D01*
X118738095Y-116761904D01*
X118785714Y-116857142D01*
X118833333Y-116904761D01*
X118928571Y-116952380D01*
X119119047Y-116952380D01*
X119214285Y-116904761D01*
X119261904Y-116857142D01*
X119309523Y-116761904D01*
X119309523Y-116523809D01*
X119261904Y-116428571D01*
X119214285Y-116380952D01*
X119119047Y-116333333D01*
X118928571Y-116333333D01*
X118833333Y-116380952D01*
X118785714Y-116428571D01*
X118738095Y-116523809D01*
G04 #@! TO.C,Q7*
X125104761Y-121547619D02*
X125009523Y-121500000D01*
X124914285Y-121404761D01*
X124771428Y-121261904D01*
X124676190Y-121214285D01*
X124580952Y-121214285D01*
X124628571Y-121452380D02*
X124533333Y-121404761D01*
X124438095Y-121309523D01*
X124390476Y-121119047D01*
X124390476Y-120785714D01*
X124438095Y-120595238D01*
X124533333Y-120500000D01*
X124628571Y-120452380D01*
X124819047Y-120452380D01*
X124914285Y-120500000D01*
X125009523Y-120595238D01*
X125057142Y-120785714D01*
X125057142Y-121119047D01*
X125009523Y-121309523D01*
X124914285Y-121404761D01*
X124819047Y-121452380D01*
X124628571Y-121452380D01*
X125390476Y-120452380D02*
X126057142Y-120452380D01*
X125628571Y-121452380D01*
G04 #@! TO.C,Q8*
X125204761Y-116547619D02*
X125109523Y-116500000D01*
X125014285Y-116404761D01*
X124871428Y-116261904D01*
X124776190Y-116214285D01*
X124680952Y-116214285D01*
X124728571Y-116452380D02*
X124633333Y-116404761D01*
X124538095Y-116309523D01*
X124490476Y-116119047D01*
X124490476Y-115785714D01*
X124538095Y-115595238D01*
X124633333Y-115500000D01*
X124728571Y-115452380D01*
X124919047Y-115452380D01*
X125014285Y-115500000D01*
X125109523Y-115595238D01*
X125157142Y-115785714D01*
X125157142Y-116119047D01*
X125109523Y-116309523D01*
X125014285Y-116404761D01*
X124919047Y-116452380D01*
X124728571Y-116452380D01*
X125728571Y-115880952D02*
X125633333Y-115833333D01*
X125585714Y-115785714D01*
X125538095Y-115690476D01*
X125538095Y-115642857D01*
X125585714Y-115547619D01*
X125633333Y-115500000D01*
X125728571Y-115452380D01*
X125919047Y-115452380D01*
X126014285Y-115500000D01*
X126061904Y-115547619D01*
X126109523Y-115642857D01*
X126109523Y-115690476D01*
X126061904Y-115785714D01*
X126014285Y-115833333D01*
X125919047Y-115880952D01*
X125728571Y-115880952D01*
X125633333Y-115928571D01*
X125585714Y-115976190D01*
X125538095Y-116071428D01*
X125538095Y-116261904D01*
X125585714Y-116357142D01*
X125633333Y-116404761D01*
X125728571Y-116452380D01*
X125919047Y-116452380D01*
X126014285Y-116404761D01*
X126061904Y-116357142D01*
X126109523Y-116261904D01*
X126109523Y-116071428D01*
X126061904Y-115976190D01*
X126014285Y-115928571D01*
X125919047Y-115880952D01*
G04 #@! TO.C,R1*
X127633333Y-124852380D02*
X127300000Y-124376190D01*
X127061904Y-124852380D02*
X127061904Y-123852380D01*
X127442857Y-123852380D01*
X127538095Y-123900000D01*
X127585714Y-123947619D01*
X127633333Y-124042857D01*
X127633333Y-124185714D01*
X127585714Y-124280952D01*
X127538095Y-124328571D01*
X127442857Y-124376190D01*
X127061904Y-124376190D01*
X128585714Y-124852380D02*
X128014285Y-124852380D01*
X128300000Y-124852380D02*
X128300000Y-123852380D01*
X128204761Y-123995238D01*
X128109523Y-124090476D01*
X128014285Y-124138095D01*
G04 #@! TO.C,R2*
X127533333Y-123452380D02*
X127200000Y-122976190D01*
X126961904Y-123452380D02*
X126961904Y-122452380D01*
X127342857Y-122452380D01*
X127438095Y-122500000D01*
X127485714Y-122547619D01*
X127533333Y-122642857D01*
X127533333Y-122785714D01*
X127485714Y-122880952D01*
X127438095Y-122928571D01*
X127342857Y-122976190D01*
X126961904Y-122976190D01*
X127914285Y-122547619D02*
X127961904Y-122500000D01*
X128057142Y-122452380D01*
X128295238Y-122452380D01*
X128390476Y-122500000D01*
X128438095Y-122547619D01*
X128485714Y-122642857D01*
X128485714Y-122738095D01*
X128438095Y-122880952D01*
X127866666Y-123452380D01*
X128485714Y-123452380D01*
G04 #@! TO.C,R3*
X142333333Y-124452380D02*
X142000000Y-123976190D01*
X141761904Y-124452380D02*
X141761904Y-123452380D01*
X142142857Y-123452380D01*
X142238095Y-123500000D01*
X142285714Y-123547619D01*
X142333333Y-123642857D01*
X142333333Y-123785714D01*
X142285714Y-123880952D01*
X142238095Y-123928571D01*
X142142857Y-123976190D01*
X141761904Y-123976190D01*
X142666666Y-123452380D02*
X143285714Y-123452380D01*
X142952380Y-123833333D01*
X143095238Y-123833333D01*
X143190476Y-123880952D01*
X143238095Y-123928571D01*
X143285714Y-124023809D01*
X143285714Y-124261904D01*
X143238095Y-124357142D01*
X143190476Y-124404761D01*
X143095238Y-124452380D01*
X142809523Y-124452380D01*
X142714285Y-124404761D01*
X142666666Y-124357142D01*
G04 #@! TO.C,R4*
X142333333Y-122452380D02*
X142000000Y-121976190D01*
X141761904Y-122452380D02*
X141761904Y-121452380D01*
X142142857Y-121452380D01*
X142238095Y-121500000D01*
X142285714Y-121547619D01*
X142333333Y-121642857D01*
X142333333Y-121785714D01*
X142285714Y-121880952D01*
X142238095Y-121928571D01*
X142142857Y-121976190D01*
X141761904Y-121976190D01*
X143190476Y-121785714D02*
X143190476Y-122452380D01*
X142952380Y-121404761D02*
X142714285Y-122119047D01*
X143333333Y-122119047D01*
G04 #@! TO.C,R5*
X127333333Y-115052380D02*
X127000000Y-114576190D01*
X126761904Y-115052380D02*
X126761904Y-114052380D01*
X127142857Y-114052380D01*
X127238095Y-114100000D01*
X127285714Y-114147619D01*
X127333333Y-114242857D01*
X127333333Y-114385714D01*
X127285714Y-114480952D01*
X127238095Y-114528571D01*
X127142857Y-114576190D01*
X126761904Y-114576190D01*
X128238095Y-114052380D02*
X127761904Y-114052380D01*
X127714285Y-114528571D01*
X127761904Y-114480952D01*
X127857142Y-114433333D01*
X128095238Y-114433333D01*
X128190476Y-114480952D01*
X128238095Y-114528571D01*
X128285714Y-114623809D01*
X128285714Y-114861904D01*
X128238095Y-114957142D01*
X128190476Y-115004761D01*
X128095238Y-115052380D01*
X127857142Y-115052380D01*
X127761904Y-115004761D01*
X127714285Y-114957142D01*
G04 #@! TO.C,R6*
X127333333Y-112952380D02*
X127000000Y-112476190D01*
X126761904Y-112952380D02*
X126761904Y-111952380D01*
X127142857Y-111952380D01*
X127238095Y-112000000D01*
X127285714Y-112047619D01*
X127333333Y-112142857D01*
X127333333Y-112285714D01*
X127285714Y-112380952D01*
X127238095Y-112428571D01*
X127142857Y-112476190D01*
X126761904Y-112476190D01*
X128190476Y-111952380D02*
X128000000Y-111952380D01*
X127904761Y-112000000D01*
X127857142Y-112047619D01*
X127761904Y-112190476D01*
X127714285Y-112380952D01*
X127714285Y-112761904D01*
X127761904Y-112857142D01*
X127809523Y-112904761D01*
X127904761Y-112952380D01*
X128095238Y-112952380D01*
X128190476Y-112904761D01*
X128238095Y-112857142D01*
X128285714Y-112761904D01*
X128285714Y-112523809D01*
X128238095Y-112428571D01*
X128190476Y-112380952D01*
X128095238Y-112333333D01*
X127904761Y-112333333D01*
X127809523Y-112380952D01*
X127761904Y-112428571D01*
X127714285Y-112523809D01*
G04 #@! TO.C,R7*
X142333333Y-114952380D02*
X142000000Y-114476190D01*
X141761904Y-114952380D02*
X141761904Y-113952380D01*
X142142857Y-113952380D01*
X142238095Y-114000000D01*
X142285714Y-114047619D01*
X142333333Y-114142857D01*
X142333333Y-114285714D01*
X142285714Y-114380952D01*
X142238095Y-114428571D01*
X142142857Y-114476190D01*
X141761904Y-114476190D01*
X142666666Y-113952380D02*
X143333333Y-113952380D01*
X142904761Y-114952380D01*
G04 #@! TO.C,R8*
X142333333Y-112952380D02*
X142000000Y-112476190D01*
X141761904Y-112952380D02*
X141761904Y-111952380D01*
X142142857Y-111952380D01*
X142238095Y-112000000D01*
X142285714Y-112047619D01*
X142333333Y-112142857D01*
X142333333Y-112285714D01*
X142285714Y-112380952D01*
X142238095Y-112428571D01*
X142142857Y-112476190D01*
X141761904Y-112476190D01*
X142904761Y-112380952D02*
X142809523Y-112333333D01*
X142761904Y-112285714D01*
X142714285Y-112190476D01*
X142714285Y-112142857D01*
X142761904Y-112047619D01*
X142809523Y-112000000D01*
X142904761Y-111952380D01*
X143095238Y-111952380D01*
X143190476Y-112000000D01*
X143238095Y-112047619D01*
X143285714Y-112142857D01*
X143285714Y-112190476D01*
X143238095Y-112285714D01*
X143190476Y-112333333D01*
X143095238Y-112380952D01*
X142904761Y-112380952D01*
X142809523Y-112428571D01*
X142761904Y-112476190D01*
X142714285Y-112571428D01*
X142714285Y-112761904D01*
X142761904Y-112857142D01*
X142809523Y-112904761D01*
X142904761Y-112952380D01*
X143095238Y-112952380D01*
X143190476Y-112904761D01*
X143238095Y-112857142D01*
X143285714Y-112761904D01*
X143285714Y-112571428D01*
X143238095Y-112476190D01*
X143190476Y-112428571D01*
X143095238Y-112380952D01*
G04 #@! TO.C,R9*
X129433333Y-126452380D02*
X129100000Y-125976190D01*
X128861904Y-126452380D02*
X128861904Y-125452380D01*
X129242857Y-125452380D01*
X129338095Y-125500000D01*
X129385714Y-125547619D01*
X129433333Y-125642857D01*
X129433333Y-125785714D01*
X129385714Y-125880952D01*
X129338095Y-125928571D01*
X129242857Y-125976190D01*
X128861904Y-125976190D01*
X129909523Y-126452380D02*
X130100000Y-126452380D01*
X130195238Y-126404761D01*
X130242857Y-126357142D01*
X130338095Y-126214285D01*
X130385714Y-126023809D01*
X130385714Y-125642857D01*
X130338095Y-125547619D01*
X130290476Y-125500000D01*
X130195238Y-125452380D01*
X130004761Y-125452380D01*
X129909523Y-125500000D01*
X129861904Y-125547619D01*
X129814285Y-125642857D01*
X129814285Y-125880952D01*
X129861904Y-125976190D01*
X129909523Y-126023809D01*
X130004761Y-126071428D01*
X130195238Y-126071428D01*
X130290476Y-126023809D01*
X130338095Y-125976190D01*
X130385714Y-125880952D01*
G04 #@! TO.C,R10*
X140857142Y-126652380D02*
X140523809Y-126176190D01*
X140285714Y-126652380D02*
X140285714Y-125652380D01*
X140666666Y-125652380D01*
X140761904Y-125700000D01*
X140809523Y-125747619D01*
X140857142Y-125842857D01*
X140857142Y-125985714D01*
X140809523Y-126080952D01*
X140761904Y-126128571D01*
X140666666Y-126176190D01*
X140285714Y-126176190D01*
X141809523Y-126652380D02*
X141238095Y-126652380D01*
X141523809Y-126652380D02*
X141523809Y-125652380D01*
X141428571Y-125795238D01*
X141333333Y-125890476D01*
X141238095Y-125938095D01*
X142428571Y-125652380D02*
X142523809Y-125652380D01*
X142619047Y-125700000D01*
X142666666Y-125747619D01*
X142714285Y-125842857D01*
X142761904Y-126033333D01*
X142761904Y-126271428D01*
X142714285Y-126461904D01*
X142666666Y-126557142D01*
X142619047Y-126604761D01*
X142523809Y-126652380D01*
X142428571Y-126652380D01*
X142333333Y-126604761D01*
X142285714Y-126557142D01*
X142238095Y-126461904D01*
X142190476Y-126271428D01*
X142190476Y-126033333D01*
X142238095Y-125842857D01*
X142285714Y-125747619D01*
X142333333Y-125700000D01*
X142428571Y-125652380D01*
G04 #@! TO.C,R11*
X130357142Y-118352380D02*
X130023809Y-117876190D01*
X129785714Y-118352380D02*
X129785714Y-117352380D01*
X130166666Y-117352380D01*
X130261904Y-117400000D01*
X130309523Y-117447619D01*
X130357142Y-117542857D01*
X130357142Y-117685714D01*
X130309523Y-117780952D01*
X130261904Y-117828571D01*
X130166666Y-117876190D01*
X129785714Y-117876190D01*
X131309523Y-118352380D02*
X130738095Y-118352380D01*
X131023809Y-118352380D02*
X131023809Y-117352380D01*
X130928571Y-117495238D01*
X130833333Y-117590476D01*
X130738095Y-117638095D01*
X132261904Y-118352380D02*
X131690476Y-118352380D01*
X131976190Y-118352380D02*
X131976190Y-117352380D01*
X131880952Y-117495238D01*
X131785714Y-117590476D01*
X131690476Y-117638095D01*
G04 #@! TO.C,R12*
X139257142Y-118052380D02*
X138923809Y-117576190D01*
X138685714Y-118052380D02*
X138685714Y-117052380D01*
X139066666Y-117052380D01*
X139161904Y-117100000D01*
X139209523Y-117147619D01*
X139257142Y-117242857D01*
X139257142Y-117385714D01*
X139209523Y-117480952D01*
X139161904Y-117528571D01*
X139066666Y-117576190D01*
X138685714Y-117576190D01*
X140209523Y-118052380D02*
X139638095Y-118052380D01*
X139923809Y-118052380D02*
X139923809Y-117052380D01*
X139828571Y-117195238D01*
X139733333Y-117290476D01*
X139638095Y-117338095D01*
X140590476Y-117147619D02*
X140638095Y-117100000D01*
X140733333Y-117052380D01*
X140971428Y-117052380D01*
X141066666Y-117100000D01*
X141114285Y-117147619D01*
X141161904Y-117242857D01*
X141161904Y-117338095D01*
X141114285Y-117480952D01*
X140542857Y-118052380D01*
X141161904Y-118052380D01*
G04 #@! TO.C,R13*
X128457142Y-119852380D02*
X128123809Y-119376190D01*
X127885714Y-119852380D02*
X127885714Y-118852380D01*
X128266666Y-118852380D01*
X128361904Y-118900000D01*
X128409523Y-118947619D01*
X128457142Y-119042857D01*
X128457142Y-119185714D01*
X128409523Y-119280952D01*
X128361904Y-119328571D01*
X128266666Y-119376190D01*
X127885714Y-119376190D01*
X129409523Y-119852380D02*
X128838095Y-119852380D01*
X129123809Y-119852380D02*
X129123809Y-118852380D01*
X129028571Y-118995238D01*
X128933333Y-119090476D01*
X128838095Y-119138095D01*
X129742857Y-118852380D02*
X130361904Y-118852380D01*
X130028571Y-119233333D01*
X130171428Y-119233333D01*
X130266666Y-119280952D01*
X130314285Y-119328571D01*
X130361904Y-119423809D01*
X130361904Y-119661904D01*
X130314285Y-119757142D01*
X130266666Y-119804761D01*
X130171428Y-119852380D01*
X129885714Y-119852380D01*
X129790476Y-119804761D01*
X129742857Y-119757142D01*
G04 #@! TO.C,R14*
X140957142Y-120502380D02*
X140623809Y-120026190D01*
X140385714Y-120502380D02*
X140385714Y-119502380D01*
X140766666Y-119502380D01*
X140861904Y-119550000D01*
X140909523Y-119597619D01*
X140957142Y-119692857D01*
X140957142Y-119835714D01*
X140909523Y-119930952D01*
X140861904Y-119978571D01*
X140766666Y-120026190D01*
X140385714Y-120026190D01*
X141909523Y-120502380D02*
X141338095Y-120502380D01*
X141623809Y-120502380D02*
X141623809Y-119502380D01*
X141528571Y-119645238D01*
X141433333Y-119740476D01*
X141338095Y-119788095D01*
X142766666Y-119835714D02*
X142766666Y-120502380D01*
X142528571Y-119454761D02*
X142290476Y-120169047D01*
X142909523Y-120169047D01*
G04 #@! TO.C,R15*
X127407142Y-111402380D02*
X127073809Y-110926190D01*
X126835714Y-111402380D02*
X126835714Y-110402380D01*
X127216666Y-110402380D01*
X127311904Y-110450000D01*
X127359523Y-110497619D01*
X127407142Y-110592857D01*
X127407142Y-110735714D01*
X127359523Y-110830952D01*
X127311904Y-110878571D01*
X127216666Y-110926190D01*
X126835714Y-110926190D01*
X128359523Y-111402380D02*
X127788095Y-111402380D01*
X128073809Y-111402380D02*
X128073809Y-110402380D01*
X127978571Y-110545238D01*
X127883333Y-110640476D01*
X127788095Y-110688095D01*
X129264285Y-110402380D02*
X128788095Y-110402380D01*
X128740476Y-110878571D01*
X128788095Y-110830952D01*
X128883333Y-110783333D01*
X129121428Y-110783333D01*
X129216666Y-110830952D01*
X129264285Y-110878571D01*
X129311904Y-110973809D01*
X129311904Y-111211904D01*
X129264285Y-111307142D01*
X129216666Y-111354761D01*
X129121428Y-111402380D01*
X128883333Y-111402380D01*
X128788095Y-111354761D01*
X128740476Y-111307142D01*
G04 #@! TO.C,R16*
X140957142Y-111052380D02*
X140623809Y-110576190D01*
X140385714Y-111052380D02*
X140385714Y-110052380D01*
X140766666Y-110052380D01*
X140861904Y-110100000D01*
X140909523Y-110147619D01*
X140957142Y-110242857D01*
X140957142Y-110385714D01*
X140909523Y-110480952D01*
X140861904Y-110528571D01*
X140766666Y-110576190D01*
X140385714Y-110576190D01*
X141909523Y-111052380D02*
X141338095Y-111052380D01*
X141623809Y-111052380D02*
X141623809Y-110052380D01*
X141528571Y-110195238D01*
X141433333Y-110290476D01*
X141338095Y-110338095D01*
X142766666Y-110052380D02*
X142576190Y-110052380D01*
X142480952Y-110100000D01*
X142433333Y-110147619D01*
X142338095Y-110290476D01*
X142290476Y-110480952D01*
X142290476Y-110861904D01*
X142338095Y-110957142D01*
X142385714Y-111004761D01*
X142480952Y-111052380D01*
X142671428Y-111052380D01*
X142766666Y-111004761D01*
X142814285Y-110957142D01*
X142861904Y-110861904D01*
X142861904Y-110623809D01*
X142814285Y-110528571D01*
X142766666Y-110480952D01*
X142671428Y-110433333D01*
X142480952Y-110433333D01*
X142385714Y-110480952D01*
X142338095Y-110528571D01*
X142290476Y-110623809D01*
G04 #@! TO.C,R19*
X119952380Y-107142857D02*
X119476190Y-107476190D01*
X119952380Y-107714285D02*
X118952380Y-107714285D01*
X118952380Y-107333333D01*
X119000000Y-107238095D01*
X119047619Y-107190476D01*
X119142857Y-107142857D01*
X119285714Y-107142857D01*
X119380952Y-107190476D01*
X119428571Y-107238095D01*
X119476190Y-107333333D01*
X119476190Y-107714285D01*
X119952380Y-106190476D02*
X119952380Y-106761904D01*
X119952380Y-106476190D02*
X118952380Y-106476190D01*
X119095238Y-106571428D01*
X119190476Y-106666666D01*
X119238095Y-106761904D01*
X119952380Y-105714285D02*
X119952380Y-105523809D01*
X119904761Y-105428571D01*
X119857142Y-105380952D01*
X119714285Y-105285714D01*
X119523809Y-105238095D01*
X119142857Y-105238095D01*
X119047619Y-105285714D01*
X119000000Y-105333333D01*
X118952380Y-105428571D01*
X118952380Y-105619047D01*
X119000000Y-105714285D01*
X119047619Y-105761904D01*
X119142857Y-105809523D01*
X119380952Y-105809523D01*
X119476190Y-105761904D01*
X119523809Y-105714285D01*
X119571428Y-105619047D01*
X119571428Y-105428571D01*
X119523809Y-105333333D01*
X119476190Y-105285714D01*
X119380952Y-105238095D01*
G04 #@! TO.C,R20*
X126452380Y-107142857D02*
X125976190Y-107476190D01*
X126452380Y-107714285D02*
X125452380Y-107714285D01*
X125452380Y-107333333D01*
X125500000Y-107238095D01*
X125547619Y-107190476D01*
X125642857Y-107142857D01*
X125785714Y-107142857D01*
X125880952Y-107190476D01*
X125928571Y-107238095D01*
X125976190Y-107333333D01*
X125976190Y-107714285D01*
X125547619Y-106761904D02*
X125500000Y-106714285D01*
X125452380Y-106619047D01*
X125452380Y-106380952D01*
X125500000Y-106285714D01*
X125547619Y-106238095D01*
X125642857Y-106190476D01*
X125738095Y-106190476D01*
X125880952Y-106238095D01*
X126452380Y-106809523D01*
X126452380Y-106190476D01*
X125452380Y-105571428D02*
X125452380Y-105476190D01*
X125500000Y-105380952D01*
X125547619Y-105333333D01*
X125642857Y-105285714D01*
X125833333Y-105238095D01*
X126071428Y-105238095D01*
X126261904Y-105285714D01*
X126357142Y-105333333D01*
X126404761Y-105380952D01*
X126452380Y-105476190D01*
X126452380Y-105571428D01*
X126404761Y-105666666D01*
X126357142Y-105714285D01*
X126261904Y-105761904D01*
X126071428Y-105809523D01*
X125833333Y-105809523D01*
X125642857Y-105761904D01*
X125547619Y-105714285D01*
X125500000Y-105666666D01*
X125452380Y-105571428D01*
G04 #@! TO.C,R21*
X121357142Y-131952380D02*
X121023809Y-131476190D01*
X120785714Y-131952380D02*
X120785714Y-130952380D01*
X121166666Y-130952380D01*
X121261904Y-131000000D01*
X121309523Y-131047619D01*
X121357142Y-131142857D01*
X121357142Y-131285714D01*
X121309523Y-131380952D01*
X121261904Y-131428571D01*
X121166666Y-131476190D01*
X120785714Y-131476190D01*
X121738095Y-131047619D02*
X121785714Y-131000000D01*
X121880952Y-130952380D01*
X122119047Y-130952380D01*
X122214285Y-131000000D01*
X122261904Y-131047619D01*
X122309523Y-131142857D01*
X122309523Y-131238095D01*
X122261904Y-131380952D01*
X121690476Y-131952380D01*
X122309523Y-131952380D01*
X123261904Y-131952380D02*
X122690476Y-131952380D01*
X122976190Y-131952380D02*
X122976190Y-130952380D01*
X122880952Y-131095238D01*
X122785714Y-131190476D01*
X122690476Y-131238095D01*
G04 #@! TO.C,R22*
X121357142Y-126952380D02*
X121023809Y-126476190D01*
X120785714Y-126952380D02*
X120785714Y-125952380D01*
X121166666Y-125952380D01*
X121261904Y-126000000D01*
X121309523Y-126047619D01*
X121357142Y-126142857D01*
X121357142Y-126285714D01*
X121309523Y-126380952D01*
X121261904Y-126428571D01*
X121166666Y-126476190D01*
X120785714Y-126476190D01*
X121738095Y-126047619D02*
X121785714Y-126000000D01*
X121880952Y-125952380D01*
X122119047Y-125952380D01*
X122214285Y-126000000D01*
X122261904Y-126047619D01*
X122309523Y-126142857D01*
X122309523Y-126238095D01*
X122261904Y-126380952D01*
X121690476Y-126952380D01*
X122309523Y-126952380D01*
X122690476Y-126047619D02*
X122738095Y-126000000D01*
X122833333Y-125952380D01*
X123071428Y-125952380D01*
X123166666Y-126000000D01*
X123214285Y-126047619D01*
X123261904Y-126142857D01*
X123261904Y-126238095D01*
X123214285Y-126380952D01*
X122642857Y-126952380D01*
X123261904Y-126952380D01*
G04 #@! TO.C,R25*
X121357142Y-121952380D02*
X121023809Y-121476190D01*
X120785714Y-121952380D02*
X120785714Y-120952380D01*
X121166666Y-120952380D01*
X121261904Y-121000000D01*
X121309523Y-121047619D01*
X121357142Y-121142857D01*
X121357142Y-121285714D01*
X121309523Y-121380952D01*
X121261904Y-121428571D01*
X121166666Y-121476190D01*
X120785714Y-121476190D01*
X121738095Y-121047619D02*
X121785714Y-121000000D01*
X121880952Y-120952380D01*
X122119047Y-120952380D01*
X122214285Y-121000000D01*
X122261904Y-121047619D01*
X122309523Y-121142857D01*
X122309523Y-121238095D01*
X122261904Y-121380952D01*
X121690476Y-121952380D01*
X122309523Y-121952380D01*
X123214285Y-120952380D02*
X122738095Y-120952380D01*
X122690476Y-121428571D01*
X122738095Y-121380952D01*
X122833333Y-121333333D01*
X123071428Y-121333333D01*
X123166666Y-121380952D01*
X123214285Y-121428571D01*
X123261904Y-121523809D01*
X123261904Y-121761904D01*
X123214285Y-121857142D01*
X123166666Y-121904761D01*
X123071428Y-121952380D01*
X122833333Y-121952380D01*
X122738095Y-121904761D01*
X122690476Y-121857142D01*
G04 #@! TO.C,R26*
X121357142Y-116952380D02*
X121023809Y-116476190D01*
X120785714Y-116952380D02*
X120785714Y-115952380D01*
X121166666Y-115952380D01*
X121261904Y-116000000D01*
X121309523Y-116047619D01*
X121357142Y-116142857D01*
X121357142Y-116285714D01*
X121309523Y-116380952D01*
X121261904Y-116428571D01*
X121166666Y-116476190D01*
X120785714Y-116476190D01*
X121738095Y-116047619D02*
X121785714Y-116000000D01*
X121880952Y-115952380D01*
X122119047Y-115952380D01*
X122214285Y-116000000D01*
X122261904Y-116047619D01*
X122309523Y-116142857D01*
X122309523Y-116238095D01*
X122261904Y-116380952D01*
X121690476Y-116952380D01*
X122309523Y-116952380D01*
X123166666Y-115952380D02*
X122976190Y-115952380D01*
X122880952Y-116000000D01*
X122833333Y-116047619D01*
X122738095Y-116190476D01*
X122690476Y-116380952D01*
X122690476Y-116761904D01*
X122738095Y-116857142D01*
X122785714Y-116904761D01*
X122880952Y-116952380D01*
X123071428Y-116952380D01*
X123166666Y-116904761D01*
X123214285Y-116857142D01*
X123261904Y-116761904D01*
X123261904Y-116523809D01*
X123214285Y-116428571D01*
X123166666Y-116380952D01*
X123071428Y-116333333D01*
X122880952Y-116333333D01*
X122785714Y-116380952D01*
X122738095Y-116428571D01*
X122690476Y-116523809D01*
G04 #@! TO.C,U1*
X134838095Y-124952380D02*
X134838095Y-125761904D01*
X134885714Y-125857142D01*
X134933333Y-125904761D01*
X135028571Y-125952380D01*
X135219047Y-125952380D01*
X135314285Y-125904761D01*
X135361904Y-125857142D01*
X135409523Y-125761904D01*
X135409523Y-124952380D01*
X136409523Y-125952380D02*
X135838095Y-125952380D01*
X136123809Y-125952380D02*
X136123809Y-124952380D01*
X136028571Y-125095238D01*
X135933333Y-125190476D01*
X135838095Y-125238095D01*
G04 #@! TO.C,U2*
X134238095Y-115902380D02*
X134238095Y-116711904D01*
X134285714Y-116807142D01*
X134333333Y-116854761D01*
X134428571Y-116902380D01*
X134619047Y-116902380D01*
X134714285Y-116854761D01*
X134761904Y-116807142D01*
X134809523Y-116711904D01*
X134809523Y-115902380D01*
X135238095Y-115997619D02*
X135285714Y-115950000D01*
X135380952Y-115902380D01*
X135619047Y-115902380D01*
X135714285Y-115950000D01*
X135761904Y-115997619D01*
X135809523Y-116092857D01*
X135809523Y-116188095D01*
X135761904Y-116330952D01*
X135190476Y-116902380D01*
X135809523Y-116902380D01*
G04 #@! TO.C,U5*
X114238095Y-109702380D02*
X114238095Y-110511904D01*
X114285714Y-110607142D01*
X114333333Y-110654761D01*
X114428571Y-110702380D01*
X114619047Y-110702380D01*
X114714285Y-110654761D01*
X114761904Y-110607142D01*
X114809523Y-110511904D01*
X114809523Y-109702380D01*
X115761904Y-109702380D02*
X115285714Y-109702380D01*
X115238095Y-110178571D01*
X115285714Y-110130952D01*
X115380952Y-110083333D01*
X115619047Y-110083333D01*
X115714285Y-110130952D01*
X115761904Y-110178571D01*
X115809523Y-110273809D01*
X115809523Y-110511904D01*
X115761904Y-110607142D01*
X115714285Y-110654761D01*
X115619047Y-110702380D01*
X115380952Y-110702380D01*
X115285714Y-110654761D01*
X115238095Y-110607142D01*
G04 #@! TO.C,R17*
X111857142Y-128952380D02*
X111523809Y-128476190D01*
X111285714Y-128952380D02*
X111285714Y-127952380D01*
X111666666Y-127952380D01*
X111761904Y-128000000D01*
X111809523Y-128047619D01*
X111857142Y-128142857D01*
X111857142Y-128285714D01*
X111809523Y-128380952D01*
X111761904Y-128428571D01*
X111666666Y-128476190D01*
X111285714Y-128476190D01*
X112809523Y-128952380D02*
X112238095Y-128952380D01*
X112523809Y-128952380D02*
X112523809Y-127952380D01*
X112428571Y-128095238D01*
X112333333Y-128190476D01*
X112238095Y-128238095D01*
X113142857Y-127952380D02*
X113809523Y-127952380D01*
X113380952Y-128952380D01*
G04 #@! TO.C,R18*
X111857142Y-123452380D02*
X111523809Y-122976190D01*
X111285714Y-123452380D02*
X111285714Y-122452380D01*
X111666666Y-122452380D01*
X111761904Y-122500000D01*
X111809523Y-122547619D01*
X111857142Y-122642857D01*
X111857142Y-122785714D01*
X111809523Y-122880952D01*
X111761904Y-122928571D01*
X111666666Y-122976190D01*
X111285714Y-122976190D01*
X112809523Y-123452380D02*
X112238095Y-123452380D01*
X112523809Y-123452380D02*
X112523809Y-122452380D01*
X112428571Y-122595238D01*
X112333333Y-122690476D01*
X112238095Y-122738095D01*
X113380952Y-122880952D02*
X113285714Y-122833333D01*
X113238095Y-122785714D01*
X113190476Y-122690476D01*
X113190476Y-122642857D01*
X113238095Y-122547619D01*
X113285714Y-122500000D01*
X113380952Y-122452380D01*
X113571428Y-122452380D01*
X113666666Y-122500000D01*
X113714285Y-122547619D01*
X113761904Y-122642857D01*
X113761904Y-122690476D01*
X113714285Y-122785714D01*
X113666666Y-122833333D01*
X113571428Y-122880952D01*
X113380952Y-122880952D01*
X113285714Y-122928571D01*
X113238095Y-122976190D01*
X113190476Y-123071428D01*
X113190476Y-123261904D01*
X113238095Y-123357142D01*
X113285714Y-123404761D01*
X113380952Y-123452380D01*
X113571428Y-123452380D01*
X113666666Y-123404761D01*
X113714285Y-123357142D01*
X113761904Y-123261904D01*
X113761904Y-123071428D01*
X113714285Y-122976190D01*
X113666666Y-122928571D01*
X113571428Y-122880952D01*
G04 #@! TO.C,R23*
X111857142Y-117952380D02*
X111523809Y-117476190D01*
X111285714Y-117952380D02*
X111285714Y-116952380D01*
X111666666Y-116952380D01*
X111761904Y-117000000D01*
X111809523Y-117047619D01*
X111857142Y-117142857D01*
X111857142Y-117285714D01*
X111809523Y-117380952D01*
X111761904Y-117428571D01*
X111666666Y-117476190D01*
X111285714Y-117476190D01*
X112238095Y-117047619D02*
X112285714Y-117000000D01*
X112380952Y-116952380D01*
X112619047Y-116952380D01*
X112714285Y-117000000D01*
X112761904Y-117047619D01*
X112809523Y-117142857D01*
X112809523Y-117238095D01*
X112761904Y-117380952D01*
X112190476Y-117952380D01*
X112809523Y-117952380D01*
X113142857Y-116952380D02*
X113761904Y-116952380D01*
X113428571Y-117333333D01*
X113571428Y-117333333D01*
X113666666Y-117380952D01*
X113714285Y-117428571D01*
X113761904Y-117523809D01*
X113761904Y-117761904D01*
X113714285Y-117857142D01*
X113666666Y-117904761D01*
X113571428Y-117952380D01*
X113285714Y-117952380D01*
X113190476Y-117904761D01*
X113142857Y-117857142D01*
G04 #@! TO.C,R24*
X111857142Y-112452380D02*
X111523809Y-111976190D01*
X111285714Y-112452380D02*
X111285714Y-111452380D01*
X111666666Y-111452380D01*
X111761904Y-111500000D01*
X111809523Y-111547619D01*
X111857142Y-111642857D01*
X111857142Y-111785714D01*
X111809523Y-111880952D01*
X111761904Y-111928571D01*
X111666666Y-111976190D01*
X111285714Y-111976190D01*
X112238095Y-111547619D02*
X112285714Y-111500000D01*
X112380952Y-111452380D01*
X112619047Y-111452380D01*
X112714285Y-111500000D01*
X112761904Y-111547619D01*
X112809523Y-111642857D01*
X112809523Y-111738095D01*
X112761904Y-111880952D01*
X112190476Y-112452380D01*
X112809523Y-112452380D01*
X113666666Y-111785714D02*
X113666666Y-112452380D01*
X113428571Y-111404761D02*
X113190476Y-112119047D01*
X113809523Y-112119047D01*
G04 #@! TO.C,R27*
X145752380Y-118442857D02*
X145276190Y-118776190D01*
X145752380Y-119014285D02*
X144752380Y-119014285D01*
X144752380Y-118633333D01*
X144800000Y-118538095D01*
X144847619Y-118490476D01*
X144942857Y-118442857D01*
X145085714Y-118442857D01*
X145180952Y-118490476D01*
X145228571Y-118538095D01*
X145276190Y-118633333D01*
X145276190Y-119014285D01*
X144847619Y-118061904D02*
X144800000Y-118014285D01*
X144752380Y-117919047D01*
X144752380Y-117680952D01*
X144800000Y-117585714D01*
X144847619Y-117538095D01*
X144942857Y-117490476D01*
X145038095Y-117490476D01*
X145180952Y-117538095D01*
X145752380Y-118109523D01*
X145752380Y-117490476D01*
X144752380Y-117157142D02*
X144752380Y-116490476D01*
X145752380Y-116919047D01*
G04 #@! TD*
M02*
