G04 #@! TF.GenerationSoftware,KiCad,Pcbnew,(5.0.0)*
G04 #@! TF.CreationDate,2019-02-21T23:12:31-08:00*
G04 #@! TF.ProjectId,bms4_f051,626D73345F663035312E6B696361645F,rev?*
G04 #@! TF.SameCoordinates,Original*
G04 #@! TF.FileFunction,Soldermask,Bot*
G04 #@! TF.FilePolarity,Negative*
%FSLAX46Y46*%
G04 Gerber Fmt 4.6, Leading zero omitted, Abs format (unit mm)*
G04 Created by KiCad (PCBNEW (5.0.0)) date 02/21/19 23:12:31*
%MOMM*%
%LPD*%
G01*
G04 APERTURE LIST*
%ADD10C,0.100000*%
%ADD11C,1.275000*%
%ADD12C,1.375000*%
%ADD13O,2.100000X2.350000*%
%ADD14R,2.100000X2.350000*%
%ADD15R,2.350000X2.100000*%
%ADD16O,2.350000X2.100000*%
%ADD17R,2.100000X2.100000*%
%ADD18O,2.100000X2.100000*%
%ADD19R,1.000000X1.950000*%
%ADD20C,3.600000*%
%ADD21R,1.000000X1.600000*%
%ADD22R,1.600000X1.000000*%
G04 APERTURE END LIST*
D10*
G04 #@! TO.C,C10*
G36*
X135942859Y-128268818D02*
X135973801Y-128273408D01*
X136004144Y-128281008D01*
X136033596Y-128291546D01*
X136061874Y-128304921D01*
X136088704Y-128321002D01*
X136113829Y-128339636D01*
X136137006Y-128360643D01*
X136158013Y-128383820D01*
X136176647Y-128408945D01*
X136192728Y-128435775D01*
X136206103Y-128464053D01*
X136216641Y-128493505D01*
X136224241Y-128523848D01*
X136228831Y-128554790D01*
X136230366Y-128586033D01*
X136230366Y-129223533D01*
X136228831Y-129254776D01*
X136224241Y-129285718D01*
X136216641Y-129316061D01*
X136206103Y-129345513D01*
X136192728Y-129373791D01*
X136176647Y-129400621D01*
X136158013Y-129425746D01*
X136137006Y-129448923D01*
X136113829Y-129469930D01*
X136088704Y-129488564D01*
X136061874Y-129504645D01*
X136033596Y-129518020D01*
X136004144Y-129528558D01*
X135973801Y-129536158D01*
X135942859Y-129540748D01*
X135911616Y-129542283D01*
X135199116Y-129542283D01*
X135167873Y-129540748D01*
X135136931Y-129536158D01*
X135106588Y-129528558D01*
X135077136Y-129518020D01*
X135048858Y-129504645D01*
X135022028Y-129488564D01*
X134996903Y-129469930D01*
X134973726Y-129448923D01*
X134952719Y-129425746D01*
X134934085Y-129400621D01*
X134918004Y-129373791D01*
X134904629Y-129345513D01*
X134894091Y-129316061D01*
X134886491Y-129285718D01*
X134881901Y-129254776D01*
X134880366Y-129223533D01*
X134880366Y-128586033D01*
X134881901Y-128554790D01*
X134886491Y-128523848D01*
X134894091Y-128493505D01*
X134904629Y-128464053D01*
X134918004Y-128435775D01*
X134934085Y-128408945D01*
X134952719Y-128383820D01*
X134973726Y-128360643D01*
X134996903Y-128339636D01*
X135022028Y-128321002D01*
X135048858Y-128304921D01*
X135077136Y-128291546D01*
X135106588Y-128281008D01*
X135136931Y-128273408D01*
X135167873Y-128268818D01*
X135199116Y-128267283D01*
X135911616Y-128267283D01*
X135942859Y-128268818D01*
X135942859Y-128268818D01*
G37*
D11*
X135555366Y-128904783D03*
D10*
G36*
X135942859Y-126693818D02*
X135973801Y-126698408D01*
X136004144Y-126706008D01*
X136033596Y-126716546D01*
X136061874Y-126729921D01*
X136088704Y-126746002D01*
X136113829Y-126764636D01*
X136137006Y-126785643D01*
X136158013Y-126808820D01*
X136176647Y-126833945D01*
X136192728Y-126860775D01*
X136206103Y-126889053D01*
X136216641Y-126918505D01*
X136224241Y-126948848D01*
X136228831Y-126979790D01*
X136230366Y-127011033D01*
X136230366Y-127648533D01*
X136228831Y-127679776D01*
X136224241Y-127710718D01*
X136216641Y-127741061D01*
X136206103Y-127770513D01*
X136192728Y-127798791D01*
X136176647Y-127825621D01*
X136158013Y-127850746D01*
X136137006Y-127873923D01*
X136113829Y-127894930D01*
X136088704Y-127913564D01*
X136061874Y-127929645D01*
X136033596Y-127943020D01*
X136004144Y-127953558D01*
X135973801Y-127961158D01*
X135942859Y-127965748D01*
X135911616Y-127967283D01*
X135199116Y-127967283D01*
X135167873Y-127965748D01*
X135136931Y-127961158D01*
X135106588Y-127953558D01*
X135077136Y-127943020D01*
X135048858Y-127929645D01*
X135022028Y-127913564D01*
X134996903Y-127894930D01*
X134973726Y-127873923D01*
X134952719Y-127850746D01*
X134934085Y-127825621D01*
X134918004Y-127798791D01*
X134904629Y-127770513D01*
X134894091Y-127741061D01*
X134886491Y-127710718D01*
X134881901Y-127679776D01*
X134880366Y-127648533D01*
X134880366Y-127011033D01*
X134881901Y-126979790D01*
X134886491Y-126948848D01*
X134894091Y-126918505D01*
X134904629Y-126889053D01*
X134918004Y-126860775D01*
X134934085Y-126833945D01*
X134952719Y-126808820D01*
X134973726Y-126785643D01*
X134996903Y-126764636D01*
X135022028Y-126746002D01*
X135048858Y-126729921D01*
X135077136Y-126716546D01*
X135106588Y-126706008D01*
X135136931Y-126698408D01*
X135167873Y-126693818D01*
X135199116Y-126692283D01*
X135911616Y-126692283D01*
X135942859Y-126693818D01*
X135942859Y-126693818D01*
G37*
D11*
X135555366Y-127329783D03*
G04 #@! TD*
D10*
G04 #@! TO.C,C1*
G36*
X131812493Y-105576535D02*
X131843435Y-105581125D01*
X131873778Y-105588725D01*
X131903230Y-105599263D01*
X131931508Y-105612638D01*
X131958338Y-105628719D01*
X131983463Y-105647353D01*
X132006640Y-105668360D01*
X132027647Y-105691537D01*
X132046281Y-105716662D01*
X132062362Y-105743492D01*
X132075737Y-105771770D01*
X132086275Y-105801222D01*
X132093875Y-105831565D01*
X132098465Y-105862507D01*
X132100000Y-105893750D01*
X132100000Y-106606250D01*
X132098465Y-106637493D01*
X132093875Y-106668435D01*
X132086275Y-106698778D01*
X132075737Y-106728230D01*
X132062362Y-106756508D01*
X132046281Y-106783338D01*
X132027647Y-106808463D01*
X132006640Y-106831640D01*
X131983463Y-106852647D01*
X131958338Y-106871281D01*
X131931508Y-106887362D01*
X131903230Y-106900737D01*
X131873778Y-106911275D01*
X131843435Y-106918875D01*
X131812493Y-106923465D01*
X131781250Y-106925000D01*
X131143750Y-106925000D01*
X131112507Y-106923465D01*
X131081565Y-106918875D01*
X131051222Y-106911275D01*
X131021770Y-106900737D01*
X130993492Y-106887362D01*
X130966662Y-106871281D01*
X130941537Y-106852647D01*
X130918360Y-106831640D01*
X130897353Y-106808463D01*
X130878719Y-106783338D01*
X130862638Y-106756508D01*
X130849263Y-106728230D01*
X130838725Y-106698778D01*
X130831125Y-106668435D01*
X130826535Y-106637493D01*
X130825000Y-106606250D01*
X130825000Y-105893750D01*
X130826535Y-105862507D01*
X130831125Y-105831565D01*
X130838725Y-105801222D01*
X130849263Y-105771770D01*
X130862638Y-105743492D01*
X130878719Y-105716662D01*
X130897353Y-105691537D01*
X130918360Y-105668360D01*
X130941537Y-105647353D01*
X130966662Y-105628719D01*
X130993492Y-105612638D01*
X131021770Y-105599263D01*
X131051222Y-105588725D01*
X131081565Y-105581125D01*
X131112507Y-105576535D01*
X131143750Y-105575000D01*
X131781250Y-105575000D01*
X131812493Y-105576535D01*
X131812493Y-105576535D01*
G37*
D11*
X131462500Y-106250000D03*
D10*
G36*
X133387493Y-105576535D02*
X133418435Y-105581125D01*
X133448778Y-105588725D01*
X133478230Y-105599263D01*
X133506508Y-105612638D01*
X133533338Y-105628719D01*
X133558463Y-105647353D01*
X133581640Y-105668360D01*
X133602647Y-105691537D01*
X133621281Y-105716662D01*
X133637362Y-105743492D01*
X133650737Y-105771770D01*
X133661275Y-105801222D01*
X133668875Y-105831565D01*
X133673465Y-105862507D01*
X133675000Y-105893750D01*
X133675000Y-106606250D01*
X133673465Y-106637493D01*
X133668875Y-106668435D01*
X133661275Y-106698778D01*
X133650737Y-106728230D01*
X133637362Y-106756508D01*
X133621281Y-106783338D01*
X133602647Y-106808463D01*
X133581640Y-106831640D01*
X133558463Y-106852647D01*
X133533338Y-106871281D01*
X133506508Y-106887362D01*
X133478230Y-106900737D01*
X133448778Y-106911275D01*
X133418435Y-106918875D01*
X133387493Y-106923465D01*
X133356250Y-106925000D01*
X132718750Y-106925000D01*
X132687507Y-106923465D01*
X132656565Y-106918875D01*
X132626222Y-106911275D01*
X132596770Y-106900737D01*
X132568492Y-106887362D01*
X132541662Y-106871281D01*
X132516537Y-106852647D01*
X132493360Y-106831640D01*
X132472353Y-106808463D01*
X132453719Y-106783338D01*
X132437638Y-106756508D01*
X132424263Y-106728230D01*
X132413725Y-106698778D01*
X132406125Y-106668435D01*
X132401535Y-106637493D01*
X132400000Y-106606250D01*
X132400000Y-105893750D01*
X132401535Y-105862507D01*
X132406125Y-105831565D01*
X132413725Y-105801222D01*
X132424263Y-105771770D01*
X132437638Y-105743492D01*
X132453719Y-105716662D01*
X132472353Y-105691537D01*
X132493360Y-105668360D01*
X132516537Y-105647353D01*
X132541662Y-105628719D01*
X132568492Y-105612638D01*
X132596770Y-105599263D01*
X132626222Y-105588725D01*
X132656565Y-105581125D01*
X132687507Y-105576535D01*
X132718750Y-105575000D01*
X133356250Y-105575000D01*
X133387493Y-105576535D01*
X133387493Y-105576535D01*
G37*
D11*
X133037500Y-106250000D03*
G04 #@! TD*
D10*
G04 #@! TO.C,C2*
G36*
X133599993Y-111326535D02*
X133630935Y-111331125D01*
X133661278Y-111338725D01*
X133690730Y-111349263D01*
X133719008Y-111362638D01*
X133745838Y-111378719D01*
X133770963Y-111397353D01*
X133794140Y-111418360D01*
X133815147Y-111441537D01*
X133833781Y-111466662D01*
X133849862Y-111493492D01*
X133863237Y-111521770D01*
X133873775Y-111551222D01*
X133881375Y-111581565D01*
X133885965Y-111612507D01*
X133887500Y-111643750D01*
X133887500Y-112356250D01*
X133885965Y-112387493D01*
X133881375Y-112418435D01*
X133873775Y-112448778D01*
X133863237Y-112478230D01*
X133849862Y-112506508D01*
X133833781Y-112533338D01*
X133815147Y-112558463D01*
X133794140Y-112581640D01*
X133770963Y-112602647D01*
X133745838Y-112621281D01*
X133719008Y-112637362D01*
X133690730Y-112650737D01*
X133661278Y-112661275D01*
X133630935Y-112668875D01*
X133599993Y-112673465D01*
X133568750Y-112675000D01*
X132931250Y-112675000D01*
X132900007Y-112673465D01*
X132869065Y-112668875D01*
X132838722Y-112661275D01*
X132809270Y-112650737D01*
X132780992Y-112637362D01*
X132754162Y-112621281D01*
X132729037Y-112602647D01*
X132705860Y-112581640D01*
X132684853Y-112558463D01*
X132666219Y-112533338D01*
X132650138Y-112506508D01*
X132636763Y-112478230D01*
X132626225Y-112448778D01*
X132618625Y-112418435D01*
X132614035Y-112387493D01*
X132612500Y-112356250D01*
X132612500Y-111643750D01*
X132614035Y-111612507D01*
X132618625Y-111581565D01*
X132626225Y-111551222D01*
X132636763Y-111521770D01*
X132650138Y-111493492D01*
X132666219Y-111466662D01*
X132684853Y-111441537D01*
X132705860Y-111418360D01*
X132729037Y-111397353D01*
X132754162Y-111378719D01*
X132780992Y-111362638D01*
X132809270Y-111349263D01*
X132838722Y-111338725D01*
X132869065Y-111331125D01*
X132900007Y-111326535D01*
X132931250Y-111325000D01*
X133568750Y-111325000D01*
X133599993Y-111326535D01*
X133599993Y-111326535D01*
G37*
D11*
X133250000Y-112000000D03*
D10*
G36*
X132024993Y-111326535D02*
X132055935Y-111331125D01*
X132086278Y-111338725D01*
X132115730Y-111349263D01*
X132144008Y-111362638D01*
X132170838Y-111378719D01*
X132195963Y-111397353D01*
X132219140Y-111418360D01*
X132240147Y-111441537D01*
X132258781Y-111466662D01*
X132274862Y-111493492D01*
X132288237Y-111521770D01*
X132298775Y-111551222D01*
X132306375Y-111581565D01*
X132310965Y-111612507D01*
X132312500Y-111643750D01*
X132312500Y-112356250D01*
X132310965Y-112387493D01*
X132306375Y-112418435D01*
X132298775Y-112448778D01*
X132288237Y-112478230D01*
X132274862Y-112506508D01*
X132258781Y-112533338D01*
X132240147Y-112558463D01*
X132219140Y-112581640D01*
X132195963Y-112602647D01*
X132170838Y-112621281D01*
X132144008Y-112637362D01*
X132115730Y-112650737D01*
X132086278Y-112661275D01*
X132055935Y-112668875D01*
X132024993Y-112673465D01*
X131993750Y-112675000D01*
X131356250Y-112675000D01*
X131325007Y-112673465D01*
X131294065Y-112668875D01*
X131263722Y-112661275D01*
X131234270Y-112650737D01*
X131205992Y-112637362D01*
X131179162Y-112621281D01*
X131154037Y-112602647D01*
X131130860Y-112581640D01*
X131109853Y-112558463D01*
X131091219Y-112533338D01*
X131075138Y-112506508D01*
X131061763Y-112478230D01*
X131051225Y-112448778D01*
X131043625Y-112418435D01*
X131039035Y-112387493D01*
X131037500Y-112356250D01*
X131037500Y-111643750D01*
X131039035Y-111612507D01*
X131043625Y-111581565D01*
X131051225Y-111551222D01*
X131061763Y-111521770D01*
X131075138Y-111493492D01*
X131091219Y-111466662D01*
X131109853Y-111441537D01*
X131130860Y-111418360D01*
X131154037Y-111397353D01*
X131179162Y-111378719D01*
X131205992Y-111362638D01*
X131234270Y-111349263D01*
X131263722Y-111338725D01*
X131294065Y-111331125D01*
X131325007Y-111326535D01*
X131356250Y-111325000D01*
X131993750Y-111325000D01*
X132024993Y-111326535D01*
X132024993Y-111326535D01*
G37*
D11*
X131675000Y-112000000D03*
G04 #@! TD*
D10*
G04 #@! TO.C,C5*
G36*
X142345309Y-125056438D02*
X142378678Y-125061388D01*
X142411401Y-125069585D01*
X142443163Y-125080949D01*
X142473659Y-125095373D01*
X142502593Y-125112715D01*
X142529689Y-125132811D01*
X142554684Y-125155465D01*
X142577338Y-125180460D01*
X142597434Y-125207556D01*
X142614776Y-125236490D01*
X142629200Y-125266986D01*
X142640564Y-125298748D01*
X142648761Y-125331471D01*
X142653711Y-125364840D01*
X142655366Y-125398533D01*
X142655366Y-126086033D01*
X142653711Y-126119726D01*
X142648761Y-126153095D01*
X142640564Y-126185818D01*
X142629200Y-126217580D01*
X142614776Y-126248076D01*
X142597434Y-126277010D01*
X142577338Y-126304106D01*
X142554684Y-126329101D01*
X142529689Y-126351755D01*
X142502593Y-126371851D01*
X142473659Y-126389193D01*
X142443163Y-126403617D01*
X142411401Y-126414981D01*
X142378678Y-126423178D01*
X142345309Y-126428128D01*
X142311616Y-126429783D01*
X141199116Y-126429783D01*
X141165423Y-126428128D01*
X141132054Y-126423178D01*
X141099331Y-126414981D01*
X141067569Y-126403617D01*
X141037073Y-126389193D01*
X141008139Y-126371851D01*
X140981043Y-126351755D01*
X140956048Y-126329101D01*
X140933394Y-126304106D01*
X140913298Y-126277010D01*
X140895956Y-126248076D01*
X140881532Y-126217580D01*
X140870168Y-126185818D01*
X140861971Y-126153095D01*
X140857021Y-126119726D01*
X140855366Y-126086033D01*
X140855366Y-125398533D01*
X140857021Y-125364840D01*
X140861971Y-125331471D01*
X140870168Y-125298748D01*
X140881532Y-125266986D01*
X140895956Y-125236490D01*
X140913298Y-125207556D01*
X140933394Y-125180460D01*
X140956048Y-125155465D01*
X140981043Y-125132811D01*
X141008139Y-125112715D01*
X141037073Y-125095373D01*
X141067569Y-125080949D01*
X141099331Y-125069585D01*
X141132054Y-125061388D01*
X141165423Y-125056438D01*
X141199116Y-125054783D01*
X142311616Y-125054783D01*
X142345309Y-125056438D01*
X142345309Y-125056438D01*
G37*
D12*
X141755366Y-125742283D03*
D10*
G36*
X142345309Y-126931438D02*
X142378678Y-126936388D01*
X142411401Y-126944585D01*
X142443163Y-126955949D01*
X142473659Y-126970373D01*
X142502593Y-126987715D01*
X142529689Y-127007811D01*
X142554684Y-127030465D01*
X142577338Y-127055460D01*
X142597434Y-127082556D01*
X142614776Y-127111490D01*
X142629200Y-127141986D01*
X142640564Y-127173748D01*
X142648761Y-127206471D01*
X142653711Y-127239840D01*
X142655366Y-127273533D01*
X142655366Y-127961033D01*
X142653711Y-127994726D01*
X142648761Y-128028095D01*
X142640564Y-128060818D01*
X142629200Y-128092580D01*
X142614776Y-128123076D01*
X142597434Y-128152010D01*
X142577338Y-128179106D01*
X142554684Y-128204101D01*
X142529689Y-128226755D01*
X142502593Y-128246851D01*
X142473659Y-128264193D01*
X142443163Y-128278617D01*
X142411401Y-128289981D01*
X142378678Y-128298178D01*
X142345309Y-128303128D01*
X142311616Y-128304783D01*
X141199116Y-128304783D01*
X141165423Y-128303128D01*
X141132054Y-128298178D01*
X141099331Y-128289981D01*
X141067569Y-128278617D01*
X141037073Y-128264193D01*
X141008139Y-128246851D01*
X140981043Y-128226755D01*
X140956048Y-128204101D01*
X140933394Y-128179106D01*
X140913298Y-128152010D01*
X140895956Y-128123076D01*
X140881532Y-128092580D01*
X140870168Y-128060818D01*
X140861971Y-128028095D01*
X140857021Y-127994726D01*
X140855366Y-127961033D01*
X140855366Y-127273533D01*
X140857021Y-127239840D01*
X140861971Y-127206471D01*
X140870168Y-127173748D01*
X140881532Y-127141986D01*
X140895956Y-127111490D01*
X140913298Y-127082556D01*
X140933394Y-127055460D01*
X140956048Y-127030465D01*
X140981043Y-127007811D01*
X141008139Y-126987715D01*
X141037073Y-126970373D01*
X141067569Y-126955949D01*
X141099331Y-126944585D01*
X141132054Y-126936388D01*
X141165423Y-126931438D01*
X141199116Y-126929783D01*
X142311616Y-126929783D01*
X142345309Y-126931438D01*
X142345309Y-126931438D01*
G37*
D12*
X141755366Y-127617283D03*
G04 #@! TD*
D10*
G04 #@! TO.C,C7*
G36*
X140242859Y-125393818D02*
X140273801Y-125398408D01*
X140304144Y-125406008D01*
X140333596Y-125416546D01*
X140361874Y-125429921D01*
X140388704Y-125446002D01*
X140413829Y-125464636D01*
X140437006Y-125485643D01*
X140458013Y-125508820D01*
X140476647Y-125533945D01*
X140492728Y-125560775D01*
X140506103Y-125589053D01*
X140516641Y-125618505D01*
X140524241Y-125648848D01*
X140528831Y-125679790D01*
X140530366Y-125711033D01*
X140530366Y-126348533D01*
X140528831Y-126379776D01*
X140524241Y-126410718D01*
X140516641Y-126441061D01*
X140506103Y-126470513D01*
X140492728Y-126498791D01*
X140476647Y-126525621D01*
X140458013Y-126550746D01*
X140437006Y-126573923D01*
X140413829Y-126594930D01*
X140388704Y-126613564D01*
X140361874Y-126629645D01*
X140333596Y-126643020D01*
X140304144Y-126653558D01*
X140273801Y-126661158D01*
X140242859Y-126665748D01*
X140211616Y-126667283D01*
X139499116Y-126667283D01*
X139467873Y-126665748D01*
X139436931Y-126661158D01*
X139406588Y-126653558D01*
X139377136Y-126643020D01*
X139348858Y-126629645D01*
X139322028Y-126613564D01*
X139296903Y-126594930D01*
X139273726Y-126573923D01*
X139252719Y-126550746D01*
X139234085Y-126525621D01*
X139218004Y-126498791D01*
X139204629Y-126470513D01*
X139194091Y-126441061D01*
X139186491Y-126410718D01*
X139181901Y-126379776D01*
X139180366Y-126348533D01*
X139180366Y-125711033D01*
X139181901Y-125679790D01*
X139186491Y-125648848D01*
X139194091Y-125618505D01*
X139204629Y-125589053D01*
X139218004Y-125560775D01*
X139234085Y-125533945D01*
X139252719Y-125508820D01*
X139273726Y-125485643D01*
X139296903Y-125464636D01*
X139322028Y-125446002D01*
X139348858Y-125429921D01*
X139377136Y-125416546D01*
X139406588Y-125406008D01*
X139436931Y-125398408D01*
X139467873Y-125393818D01*
X139499116Y-125392283D01*
X140211616Y-125392283D01*
X140242859Y-125393818D01*
X140242859Y-125393818D01*
G37*
D11*
X139855366Y-126029783D03*
D10*
G36*
X140242859Y-126968818D02*
X140273801Y-126973408D01*
X140304144Y-126981008D01*
X140333596Y-126991546D01*
X140361874Y-127004921D01*
X140388704Y-127021002D01*
X140413829Y-127039636D01*
X140437006Y-127060643D01*
X140458013Y-127083820D01*
X140476647Y-127108945D01*
X140492728Y-127135775D01*
X140506103Y-127164053D01*
X140516641Y-127193505D01*
X140524241Y-127223848D01*
X140528831Y-127254790D01*
X140530366Y-127286033D01*
X140530366Y-127923533D01*
X140528831Y-127954776D01*
X140524241Y-127985718D01*
X140516641Y-128016061D01*
X140506103Y-128045513D01*
X140492728Y-128073791D01*
X140476647Y-128100621D01*
X140458013Y-128125746D01*
X140437006Y-128148923D01*
X140413829Y-128169930D01*
X140388704Y-128188564D01*
X140361874Y-128204645D01*
X140333596Y-128218020D01*
X140304144Y-128228558D01*
X140273801Y-128236158D01*
X140242859Y-128240748D01*
X140211616Y-128242283D01*
X139499116Y-128242283D01*
X139467873Y-128240748D01*
X139436931Y-128236158D01*
X139406588Y-128228558D01*
X139377136Y-128218020D01*
X139348858Y-128204645D01*
X139322028Y-128188564D01*
X139296903Y-128169930D01*
X139273726Y-128148923D01*
X139252719Y-128125746D01*
X139234085Y-128100621D01*
X139218004Y-128073791D01*
X139204629Y-128045513D01*
X139194091Y-128016061D01*
X139186491Y-127985718D01*
X139181901Y-127954776D01*
X139180366Y-127923533D01*
X139180366Y-127286033D01*
X139181901Y-127254790D01*
X139186491Y-127223848D01*
X139194091Y-127193505D01*
X139204629Y-127164053D01*
X139218004Y-127135775D01*
X139234085Y-127108945D01*
X139252719Y-127083820D01*
X139273726Y-127060643D01*
X139296903Y-127039636D01*
X139322028Y-127021002D01*
X139348858Y-127004921D01*
X139377136Y-126991546D01*
X139406588Y-126981008D01*
X139436931Y-126973408D01*
X139467873Y-126968818D01*
X139499116Y-126967283D01*
X140211616Y-126967283D01*
X140242859Y-126968818D01*
X140242859Y-126968818D01*
G37*
D11*
X139855366Y-127604783D03*
G04 #@! TD*
D13*
G04 #@! TO.C,J1*
X138500000Y-104000000D03*
X136000000Y-104000000D03*
X133500000Y-104000000D03*
D14*
X131000000Y-104000000D03*
G04 #@! TD*
D15*
G04 #@! TO.C,J2*
X104000000Y-122500000D03*
D16*
X104000000Y-120000000D03*
X104000000Y-117500000D03*
X104000000Y-115000000D03*
X104000000Y-112500000D03*
G04 #@! TD*
D17*
G04 #@! TO.C,J3*
X147500000Y-123100000D03*
D18*
X147500000Y-120560000D03*
X147500000Y-118020000D03*
X147500000Y-115480000D03*
X147500000Y-112940000D03*
G04 #@! TD*
D14*
G04 #@! TO.C,J4*
X131000000Y-131000000D03*
D13*
X133500000Y-131000000D03*
X136000000Y-131000000D03*
X138500000Y-131000000D03*
G04 #@! TD*
D19*
G04 #@! TO.C,U3*
X134595000Y-106550000D03*
X135865000Y-106550000D03*
X137135000Y-106550000D03*
X138405000Y-106550000D03*
X138405000Y-111950000D03*
X137135000Y-111950000D03*
X135865000Y-111950000D03*
X134595000Y-111950000D03*
G04 #@! TD*
D20*
G04 #@! TO.C,MH1*
X146000000Y-104000000D03*
G04 #@! TD*
G04 #@! TO.C,MH2*
X104000000Y-131000000D03*
G04 #@! TD*
G04 #@! TO.C,MH3*
X104000000Y-104000000D03*
G04 #@! TD*
G04 #@! TO.C,MH4*
X146000000Y-131000000D03*
G04 #@! TD*
D10*
G04 #@! TO.C,C11*
G36*
X134342859Y-126693818D02*
X134373801Y-126698408D01*
X134404144Y-126706008D01*
X134433596Y-126716546D01*
X134461874Y-126729921D01*
X134488704Y-126746002D01*
X134513829Y-126764636D01*
X134537006Y-126785643D01*
X134558013Y-126808820D01*
X134576647Y-126833945D01*
X134592728Y-126860775D01*
X134606103Y-126889053D01*
X134616641Y-126918505D01*
X134624241Y-126948848D01*
X134628831Y-126979790D01*
X134630366Y-127011033D01*
X134630366Y-127648533D01*
X134628831Y-127679776D01*
X134624241Y-127710718D01*
X134616641Y-127741061D01*
X134606103Y-127770513D01*
X134592728Y-127798791D01*
X134576647Y-127825621D01*
X134558013Y-127850746D01*
X134537006Y-127873923D01*
X134513829Y-127894930D01*
X134488704Y-127913564D01*
X134461874Y-127929645D01*
X134433596Y-127943020D01*
X134404144Y-127953558D01*
X134373801Y-127961158D01*
X134342859Y-127965748D01*
X134311616Y-127967283D01*
X133599116Y-127967283D01*
X133567873Y-127965748D01*
X133536931Y-127961158D01*
X133506588Y-127953558D01*
X133477136Y-127943020D01*
X133448858Y-127929645D01*
X133422028Y-127913564D01*
X133396903Y-127894930D01*
X133373726Y-127873923D01*
X133352719Y-127850746D01*
X133334085Y-127825621D01*
X133318004Y-127798791D01*
X133304629Y-127770513D01*
X133294091Y-127741061D01*
X133286491Y-127710718D01*
X133281901Y-127679776D01*
X133280366Y-127648533D01*
X133280366Y-127011033D01*
X133281901Y-126979790D01*
X133286491Y-126948848D01*
X133294091Y-126918505D01*
X133304629Y-126889053D01*
X133318004Y-126860775D01*
X133334085Y-126833945D01*
X133352719Y-126808820D01*
X133373726Y-126785643D01*
X133396903Y-126764636D01*
X133422028Y-126746002D01*
X133448858Y-126729921D01*
X133477136Y-126716546D01*
X133506588Y-126706008D01*
X133536931Y-126698408D01*
X133567873Y-126693818D01*
X133599116Y-126692283D01*
X134311616Y-126692283D01*
X134342859Y-126693818D01*
X134342859Y-126693818D01*
G37*
D11*
X133955366Y-127329783D03*
D10*
G36*
X134342859Y-128268818D02*
X134373801Y-128273408D01*
X134404144Y-128281008D01*
X134433596Y-128291546D01*
X134461874Y-128304921D01*
X134488704Y-128321002D01*
X134513829Y-128339636D01*
X134537006Y-128360643D01*
X134558013Y-128383820D01*
X134576647Y-128408945D01*
X134592728Y-128435775D01*
X134606103Y-128464053D01*
X134616641Y-128493505D01*
X134624241Y-128523848D01*
X134628831Y-128554790D01*
X134630366Y-128586033D01*
X134630366Y-129223533D01*
X134628831Y-129254776D01*
X134624241Y-129285718D01*
X134616641Y-129316061D01*
X134606103Y-129345513D01*
X134592728Y-129373791D01*
X134576647Y-129400621D01*
X134558013Y-129425746D01*
X134537006Y-129448923D01*
X134513829Y-129469930D01*
X134488704Y-129488564D01*
X134461874Y-129504645D01*
X134433596Y-129518020D01*
X134404144Y-129528558D01*
X134373801Y-129536158D01*
X134342859Y-129540748D01*
X134311616Y-129542283D01*
X133599116Y-129542283D01*
X133567873Y-129540748D01*
X133536931Y-129536158D01*
X133506588Y-129528558D01*
X133477136Y-129518020D01*
X133448858Y-129504645D01*
X133422028Y-129488564D01*
X133396903Y-129469930D01*
X133373726Y-129448923D01*
X133352719Y-129425746D01*
X133334085Y-129400621D01*
X133318004Y-129373791D01*
X133304629Y-129345513D01*
X133294091Y-129316061D01*
X133286491Y-129285718D01*
X133281901Y-129254776D01*
X133280366Y-129223533D01*
X133280366Y-128586033D01*
X133281901Y-128554790D01*
X133286491Y-128523848D01*
X133294091Y-128493505D01*
X133304629Y-128464053D01*
X133318004Y-128435775D01*
X133334085Y-128408945D01*
X133352719Y-128383820D01*
X133373726Y-128360643D01*
X133396903Y-128339636D01*
X133422028Y-128321002D01*
X133448858Y-128304921D01*
X133477136Y-128291546D01*
X133506588Y-128281008D01*
X133536931Y-128273408D01*
X133567873Y-128268818D01*
X133599116Y-128267283D01*
X134311616Y-128267283D01*
X134342859Y-128268818D01*
X134342859Y-128268818D01*
G37*
D11*
X133955366Y-128904783D03*
G04 #@! TD*
D10*
G04 #@! TO.C,C12*
G36*
X132792859Y-113543818D02*
X132823801Y-113548408D01*
X132854144Y-113556008D01*
X132883596Y-113566546D01*
X132911874Y-113579921D01*
X132938704Y-113596002D01*
X132963829Y-113614636D01*
X132987006Y-113635643D01*
X133008013Y-113658820D01*
X133026647Y-113683945D01*
X133042728Y-113710775D01*
X133056103Y-113739053D01*
X133066641Y-113768505D01*
X133074241Y-113798848D01*
X133078831Y-113829790D01*
X133080366Y-113861033D01*
X133080366Y-114573533D01*
X133078831Y-114604776D01*
X133074241Y-114635718D01*
X133066641Y-114666061D01*
X133056103Y-114695513D01*
X133042728Y-114723791D01*
X133026647Y-114750621D01*
X133008013Y-114775746D01*
X132987006Y-114798923D01*
X132963829Y-114819930D01*
X132938704Y-114838564D01*
X132911874Y-114854645D01*
X132883596Y-114868020D01*
X132854144Y-114878558D01*
X132823801Y-114886158D01*
X132792859Y-114890748D01*
X132761616Y-114892283D01*
X132124116Y-114892283D01*
X132092873Y-114890748D01*
X132061931Y-114886158D01*
X132031588Y-114878558D01*
X132002136Y-114868020D01*
X131973858Y-114854645D01*
X131947028Y-114838564D01*
X131921903Y-114819930D01*
X131898726Y-114798923D01*
X131877719Y-114775746D01*
X131859085Y-114750621D01*
X131843004Y-114723791D01*
X131829629Y-114695513D01*
X131819091Y-114666061D01*
X131811491Y-114635718D01*
X131806901Y-114604776D01*
X131805366Y-114573533D01*
X131805366Y-113861033D01*
X131806901Y-113829790D01*
X131811491Y-113798848D01*
X131819091Y-113768505D01*
X131829629Y-113739053D01*
X131843004Y-113710775D01*
X131859085Y-113683945D01*
X131877719Y-113658820D01*
X131898726Y-113635643D01*
X131921903Y-113614636D01*
X131947028Y-113596002D01*
X131973858Y-113579921D01*
X132002136Y-113566546D01*
X132031588Y-113556008D01*
X132061931Y-113548408D01*
X132092873Y-113543818D01*
X132124116Y-113542283D01*
X132761616Y-113542283D01*
X132792859Y-113543818D01*
X132792859Y-113543818D01*
G37*
D11*
X132442866Y-114217283D03*
D10*
G36*
X131217859Y-113543818D02*
X131248801Y-113548408D01*
X131279144Y-113556008D01*
X131308596Y-113566546D01*
X131336874Y-113579921D01*
X131363704Y-113596002D01*
X131388829Y-113614636D01*
X131412006Y-113635643D01*
X131433013Y-113658820D01*
X131451647Y-113683945D01*
X131467728Y-113710775D01*
X131481103Y-113739053D01*
X131491641Y-113768505D01*
X131499241Y-113798848D01*
X131503831Y-113829790D01*
X131505366Y-113861033D01*
X131505366Y-114573533D01*
X131503831Y-114604776D01*
X131499241Y-114635718D01*
X131491641Y-114666061D01*
X131481103Y-114695513D01*
X131467728Y-114723791D01*
X131451647Y-114750621D01*
X131433013Y-114775746D01*
X131412006Y-114798923D01*
X131388829Y-114819930D01*
X131363704Y-114838564D01*
X131336874Y-114854645D01*
X131308596Y-114868020D01*
X131279144Y-114878558D01*
X131248801Y-114886158D01*
X131217859Y-114890748D01*
X131186616Y-114892283D01*
X130549116Y-114892283D01*
X130517873Y-114890748D01*
X130486931Y-114886158D01*
X130456588Y-114878558D01*
X130427136Y-114868020D01*
X130398858Y-114854645D01*
X130372028Y-114838564D01*
X130346903Y-114819930D01*
X130323726Y-114798923D01*
X130302719Y-114775746D01*
X130284085Y-114750621D01*
X130268004Y-114723791D01*
X130254629Y-114695513D01*
X130244091Y-114666061D01*
X130236491Y-114635718D01*
X130231901Y-114604776D01*
X130230366Y-114573533D01*
X130230366Y-113861033D01*
X130231901Y-113829790D01*
X130236491Y-113798848D01*
X130244091Y-113768505D01*
X130254629Y-113739053D01*
X130268004Y-113710775D01*
X130284085Y-113683945D01*
X130302719Y-113658820D01*
X130323726Y-113635643D01*
X130346903Y-113614636D01*
X130372028Y-113596002D01*
X130398858Y-113579921D01*
X130427136Y-113566546D01*
X130456588Y-113556008D01*
X130486931Y-113548408D01*
X130517873Y-113543818D01*
X130549116Y-113542283D01*
X131186616Y-113542283D01*
X131217859Y-113543818D01*
X131217859Y-113543818D01*
G37*
D11*
X130867866Y-114217283D03*
G04 #@! TD*
D21*
G04 #@! TO.C,U4*
X138255366Y-124567283D03*
X137455366Y-124567283D03*
X136655366Y-124567283D03*
X135855366Y-124567283D03*
X135055366Y-124567283D03*
X134255366Y-124567283D03*
X133455366Y-124567283D03*
X132655366Y-124567283D03*
D22*
X131205366Y-123117283D03*
X131205366Y-122317283D03*
X131205366Y-121517283D03*
X131205366Y-120717283D03*
X131205366Y-119917283D03*
X131205366Y-119117283D03*
X131205366Y-118317283D03*
X131205366Y-117517283D03*
D21*
X132655366Y-116067283D03*
X133455366Y-116067283D03*
X134255366Y-116067283D03*
X135055366Y-116067283D03*
X135855366Y-116067283D03*
X136655366Y-116067283D03*
X137455366Y-116067283D03*
X138255366Y-116067283D03*
D22*
X139705366Y-117517283D03*
X139705366Y-118317283D03*
X139705366Y-119117283D03*
X139705366Y-119917283D03*
X139705366Y-120717283D03*
X139705366Y-121517283D03*
X139705366Y-122317283D03*
X139705366Y-123117283D03*
G04 #@! TD*
D17*
G04 #@! TO.C,J5*
X144960000Y-123100000D03*
G04 #@! TD*
M02*
